<svg width="81" height="82" viewBox="0 0 81 82" fill="none" xmlns="http://www.w3.org/2000/svg">
<circle cx="40.4402" cy="41.4528" r="39.9873" fill="#E8F2FF"/>
<rect x="10.7249" y="11.7374" width="60.8982" height="60.8982" fill="#E8F2FF"/>
<path d="M29.049 16.7438H25.3042C24.7323 16.7438 24.2115 16.9791 23.8335 17.3561C23.4555 17.7341 23.2212 18.2549 23.2212 18.8268V63.1731C23.2212 63.745 23.4565 64.2658 23.8335 64.6438C24.2115 65.0218 24.7323 65.2561 25.3042 65.2561H57.044C57.6159 65.2561 58.1367 65.0208 58.5147 64.6438C58.8927 64.2658 59.127 63.745 59.127 63.1731V18.8268C59.127 18.2549 58.8927 17.7341 58.5147 17.3561C58.1367 16.9781 57.6159 16.7438 57.044 16.7438H29.049Z" fill="white" stroke="#3573E0" stroke-linecap="round" stroke-linejoin="round"/>
<mask id="path-4-inside-1_2374_48616" fill="white">
<path d="M54.0612 61.0703H50.5202C49.9926 61.0703 49.5141 60.8547 49.1666 60.5082C48.8201 60.1617 48.6045 59.6813 48.6045 59.1546V58.7244C48.6045 58.1968 48.8201 57.7183 49.1666 57.3708C49.5131 57.0243 49.9926 56.8087 50.5202 56.8087H54.0612C54.5888 56.8087 55.0673 57.0243 55.4148 57.3708C55.7613 57.7174 55.9769 58.1968 55.9769 58.7244V59.1546C55.9769 59.6813 55.7613 60.1607 55.4148 60.5082C55.0673 60.8547 54.5878 61.0703 54.0612 61.0703ZM43.1114 61.1402H39.5705C39.0448 61.1402 38.5664 60.9256 38.2189 60.5791L38.2159 60.5761C37.8694 60.2276 37.6538 59.7492 37.6538 59.2245V58.7943C37.6538 58.2696 37.8684 57.7912 38.2149 57.4427L38.2179 57.4397C38.5664 57.0932 39.0448 56.8776 39.5705 56.8776H43.1114C43.6361 56.8776 44.1146 57.0923 44.4631 57.4388L44.466 57.4417C44.8125 57.7902 45.0281 58.2686 45.0281 58.7933V59.2235C45.0281 59.7482 44.8135 60.2267 44.466 60.5742L44.4631 60.5771C44.1146 60.9236 43.6361 61.1392 43.1114 61.1392V61.1402ZM32.1627 60.9669H28.6217C28.0951 60.9669 27.6157 60.7513 27.2682 60.4048C26.9216 60.0583 26.7061 59.5779 26.7061 59.0512V58.6211C26.7061 58.0934 26.9216 57.615 27.2682 57.2675C27.6147 56.92 28.0951 56.7054 28.6217 56.7054H32.1627C32.6894 56.7054 33.1688 56.921 33.5163 57.2675C33.8638 57.614 34.0784 58.0934 34.0784 58.6211V59.0512C34.0784 59.5779 33.8628 60.0573 33.5163 60.4048C33.1688 60.7513 32.6894 60.9669 32.1627 60.9669ZM54.0622 53.1713H50.5212C49.9935 53.1713 49.5151 52.9557 49.1676 52.6092C48.8201 52.2627 48.6055 51.7833 48.6055 51.2556V50.8264C48.6055 50.2987 48.8211 49.8203 49.1676 49.4728C49.5141 49.1253 49.9935 48.9107 50.5212 48.9107H54.0622C54.5898 48.9107 55.0682 49.1263 55.4157 49.4728C55.7623 49.8193 55.9778 50.2987 55.9778 50.8264V51.2556C55.9778 51.7833 55.7623 52.2617 55.4157 52.6092C55.0692 52.9567 54.5888 53.1713 54.0622 53.1713ZM43.1124 53.2412H39.5715C39.0458 53.2412 38.5674 53.0266 38.2199 52.6801L38.2169 52.6771C37.8704 52.3286 37.6548 51.8502 37.6548 51.3255V50.8953C37.6548 50.3706 37.8694 49.8922 38.2159 49.5437L38.2189 49.5407C38.5674 49.1942 39.0458 48.9786 39.5715 48.9786H43.1124C43.6371 48.9786 44.1156 49.1932 44.464 49.5398L44.467 49.5427C44.8135 49.8912 45.0291 50.3696 45.0291 50.8943V51.3245C45.0291 51.8492 44.8145 52.3276 44.467 52.6761L44.464 52.6791C44.1156 53.0256 43.6371 53.2412 43.1124 53.2412ZM32.1637 53.0679H28.6227C28.0961 53.0679 27.6166 52.8523 27.2691 52.5058C26.9226 52.1593 26.707 51.6789 26.707 51.1522V50.7221C26.707 50.1944 26.9226 49.716 27.2691 49.3685C27.6157 49.021 28.0961 48.8064 28.6227 48.8064H32.1637C32.6904 48.8064 33.1698 49.022 33.5173 49.3685C33.8648 49.715 34.0794 50.1944 34.0794 50.7221V51.1522C34.0794 51.6789 33.8638 52.1583 33.5173 52.5058C33.1698 52.8523 32.6904 53.0679 32.1637 53.0679ZM50.5232 40.9398H54.0641C54.5918 40.9398 55.0702 41.1554 55.4177 41.502C55.7642 41.8485 55.9798 42.3289 55.9798 42.8555V43.2857C55.9798 43.8124 55.7642 44.2918 55.4177 44.6393C55.0702 44.9858 54.5908 45.2014 54.0641 45.2014H50.5232C49.9955 45.2014 49.5171 44.9858 49.1696 44.6393C48.8221 44.2928 48.6075 43.8124 48.6075 43.2857V42.8555C48.6075 42.3289 48.8231 41.8495 49.1696 41.502C49.5161 41.1545 49.9955 40.9398 50.5232 40.9398ZM39.5734 40.87H43.1144C43.6401 40.87 44.1185 41.0855 44.466 41.4321L44.469 41.435C44.8155 41.7835 45.0311 42.2609 45.0311 42.7866V43.2158C45.0311 43.7415 44.8155 44.2199 44.469 44.5684L44.466 44.5714C44.1175 44.9179 43.6401 45.1325 43.1144 45.1325H39.5734C39.0478 45.1325 38.5693 44.9169 38.2208 44.5704L38.2179 44.5674C37.8714 44.2199 37.6568 43.7415 37.6568 43.2158V42.7866C37.6568 42.2609 37.8724 41.7825 38.2189 41.435L38.2218 41.4321C38.5693 41.0855 39.0478 40.87 39.5734 40.87ZM28.6237 41.0442H32.1647C32.6913 41.0442 33.1708 41.2598 33.5183 41.6063C33.8658 41.9528 34.0804 42.4322 34.0804 42.9599V43.3891C34.0804 43.9167 33.8648 44.3952 33.5183 44.7427C33.1717 45.0902 32.6913 45.3048 32.1647 45.3048H28.6237C28.097 45.3048 27.6176 45.0892 27.2701 44.7427C26.9226 44.3962 26.708 43.9167 26.708 43.3891V42.9599C26.708 42.4322 26.9236 41.9538 27.2701 41.6063C27.6166 41.2588 28.097 41.0442 28.6237 41.0442ZM27.8293 20.5269H54.5111C54.8152 20.5269 55.0623 20.774 55.0623 21.0781V35.9843C55.0623 36.2885 54.8152 36.5355 54.5111 36.5355H27.8303C27.5261 36.5355 27.279 36.2885 27.279 35.9843V21.0772C27.279 20.772 27.5261 20.5259 27.8303 20.5259L27.8293 20.5269Z"/>
</mask>
<path d="M54.0612 61.0703H50.5202C49.9926 61.0703 49.5141 60.8547 49.1666 60.5082C48.8201 60.1617 48.6045 59.6813 48.6045 59.1546V58.7244C48.6045 58.1968 48.8201 57.7183 49.1666 57.3708C49.5131 57.0243 49.9926 56.8087 50.5202 56.8087H54.0612C54.5888 56.8087 55.0673 57.0243 55.4148 57.3708C55.7613 57.7174 55.9769 58.1968 55.9769 58.7244V59.1546C55.9769 59.6813 55.7613 60.1607 55.4148 60.5082C55.0673 60.8547 54.5878 61.0703 54.0612 61.0703ZM43.1114 61.1402H39.5705C39.0448 61.1402 38.5664 60.9256 38.2189 60.5791L38.2159 60.5761C37.8694 60.2276 37.6538 59.7492 37.6538 59.2245V58.7943C37.6538 58.2696 37.8684 57.7912 38.2149 57.4427L38.2179 57.4397C38.5664 57.0932 39.0448 56.8776 39.5705 56.8776H43.1114C43.6361 56.8776 44.1146 57.0923 44.4631 57.4388L44.466 57.4417C44.8125 57.7902 45.0281 58.2686 45.0281 58.7933V59.2235C45.0281 59.7482 44.8135 60.2267 44.466 60.5742L44.4631 60.5771C44.1146 60.9236 43.6361 61.1392 43.1114 61.1392V61.1402ZM32.1627 60.9669H28.6217C28.0951 60.9669 27.6157 60.7513 27.2682 60.4048C26.9216 60.0583 26.7061 59.5779 26.7061 59.0512V58.6211C26.7061 58.0934 26.9216 57.615 27.2682 57.2675C27.6147 56.92 28.0951 56.7054 28.6217 56.7054H32.1627C32.6894 56.7054 33.1688 56.921 33.5163 57.2675C33.8638 57.614 34.0784 58.0934 34.0784 58.6211V59.0512C34.0784 59.5779 33.8628 60.0573 33.5163 60.4048C33.1688 60.7513 32.6894 60.9669 32.1627 60.9669ZM54.0622 53.1713H50.5212C49.9935 53.1713 49.5151 52.9557 49.1676 52.6092C48.8201 52.2627 48.6055 51.7833 48.6055 51.2556V50.8264C48.6055 50.2987 48.8211 49.8203 49.1676 49.4728C49.5141 49.1253 49.9935 48.9107 50.5212 48.9107H54.0622C54.5898 48.9107 55.0682 49.1263 55.4157 49.4728C55.7623 49.8193 55.9778 50.2987 55.9778 50.8264V51.2556C55.9778 51.7833 55.7623 52.2617 55.4157 52.6092C55.0692 52.9567 54.5888 53.1713 54.0622 53.1713ZM43.1124 53.2412H39.5715C39.0458 53.2412 38.5674 53.0266 38.2199 52.6801L38.2169 52.6771C37.8704 52.3286 37.6548 51.8502 37.6548 51.3255V50.8953C37.6548 50.3706 37.8694 49.8922 38.2159 49.5437L38.2189 49.5407C38.5674 49.1942 39.0458 48.9786 39.5715 48.9786H43.1124C43.6371 48.9786 44.1156 49.1932 44.464 49.5398L44.467 49.5427C44.8135 49.8912 45.0291 50.3696 45.0291 50.8943V51.3245C45.0291 51.8492 44.8145 52.3276 44.467 52.6761L44.464 52.6791C44.1156 53.0256 43.6371 53.2412 43.1124 53.2412ZM32.1637 53.0679H28.6227C28.0961 53.0679 27.6166 52.8523 27.2691 52.5058C26.9226 52.1593 26.707 51.6789 26.707 51.1522V50.7221C26.707 50.1944 26.9226 49.716 27.2691 49.3685C27.6157 49.021 28.0961 48.8064 28.6227 48.8064H32.1637C32.6904 48.8064 33.1698 49.022 33.5173 49.3685C33.8648 49.715 34.0794 50.1944 34.0794 50.7221V51.1522C34.0794 51.6789 33.8638 52.1583 33.5173 52.5058C33.1698 52.8523 32.6904 53.0679 32.1637 53.0679ZM50.5232 40.9398H54.0641C54.5918 40.9398 55.0702 41.1554 55.4177 41.502C55.7642 41.8485 55.9798 42.3289 55.9798 42.8555V43.2857C55.9798 43.8124 55.7642 44.2918 55.4177 44.6393C55.0702 44.9858 54.5908 45.2014 54.0641 45.2014H50.5232C49.9955 45.2014 49.5171 44.9858 49.1696 44.6393C48.8221 44.2928 48.6075 43.8124 48.6075 43.2857V42.8555C48.6075 42.3289 48.8231 41.8495 49.1696 41.502C49.5161 41.1545 49.9955 40.9398 50.5232 40.9398ZM39.5734 40.87H43.1144C43.6401 40.87 44.1185 41.0855 44.466 41.4321L44.469 41.435C44.8155 41.7835 45.0311 42.2609 45.0311 42.7866V43.2158C45.0311 43.7415 44.8155 44.2199 44.469 44.5684L44.466 44.5714C44.1175 44.9179 43.6401 45.1325 43.1144 45.1325H39.5734C39.0478 45.1325 38.5693 44.9169 38.2208 44.5704L38.2179 44.5674C37.8714 44.2199 37.6568 43.7415 37.6568 43.2158V42.7866C37.6568 42.2609 37.8724 41.7825 38.2189 41.435L38.2218 41.4321C38.5693 41.0855 39.0478 40.87 39.5734 40.87ZM28.6237 41.0442H32.1647C32.6913 41.0442 33.1708 41.2598 33.5183 41.6063C33.8658 41.9528 34.0804 42.4322 34.0804 42.9599V43.3891C34.0804 43.9167 33.8648 44.3952 33.5183 44.7427C33.1717 45.0902 32.6913 45.3048 32.1647 45.3048H28.6237C28.097 45.3048 27.6176 45.0892 27.2701 44.7427C26.9226 44.3962 26.708 43.9167 26.708 43.3891V42.9599C26.708 42.4322 26.9236 41.9538 27.2701 41.6063C27.6166 41.2588 28.097 41.0442 28.6237 41.0442ZM27.8293 20.5269H54.5111C54.8152 20.5269 55.0623 20.774 55.0623 21.0781V35.9843C55.0623 36.2885 54.8152 36.5355 54.5111 36.5355H27.8303C27.5261 36.5355 27.279 36.2885 27.279 35.9843V21.0772C27.279 20.772 27.5261 20.5259 27.8303 20.5259L27.8293 20.5269Z" fill="#E8F2FF" stroke="#3573E0" stroke-width="2" stroke-linecap="round" mask="url(#path-4-inside-1_2374_48616)"/>
</svg>
