<svg width="81" height="82" viewBox="0 0 81 82" fill="none" xmlns="http://www.w3.org/2000/svg">
<circle cx="40.5715" cy="41" r="40.272" fill="#E8F2FF"/>
<rect x="10.6448" y="11.0731" width="61.3316" height="61.3316" fill="#E8F2FF"/>
<path d="M52.9643 20.9462L20.967 47.201L32.3338 61.054L64.3311 34.7992L52.9643 20.9462Z" fill="white" stroke="#3573E0" stroke-linecap="round" stroke-linejoin="round"/>
<path d="M30.6873 42.5835L24.4556 47.6995L32.5232 57.5367L38.755 52.4215" stroke="#3573E0" stroke-linecap="round" stroke-linejoin="round"/>
<path d="M46.2988 29.7697L52.5315 24.6537L60.5991 34.4917L54.3665 39.6078" stroke="#3573E0" stroke-linecap="round" stroke-linejoin="round"/>
<path d="M43.3906 46.8873C46.6419 46.8873 49.2777 44.2504 49.2777 40.9975C49.2777 37.7447 46.6419 35.1078 43.3906 35.1078C40.1392 35.1078 37.5034 37.7447 37.5034 40.9975C37.5034 44.2504 40.1392 46.8873 43.3906 46.8873Z" fill="#E8F2FF" stroke="#3573E0" stroke-linecap="round" stroke-linejoin="round"/>
<mask id="path-7-inside-1_2616_48832" fill="white">
<path d="M45.617 43.9456L45.0674 43.2757C44.1526 43.9115 43.2333 43.9474 42.4187 43.2462L42.8072 42.6686C43.3953 43.2113 44.0577 43.2238 44.703 42.8083L43.364 41.1758C43.1912 41.2689 42.9988 41.3602 42.7839 41.4498C42.4662 41.5761 42.1905 41.6495 41.9506 41.6253C41.6167 41.5922 41.3034 41.4086 41.0546 41.105C40.4343 40.3492 40.5829 39.4322 41.3267 38.7158L40.923 38.2233L41.3813 37.8472L41.7904 38.3451C42.5834 37.8284 43.3828 37.8812 44.1517 38.4678L43.7462 39.0015C43.2046 38.5743 42.6783 38.517 42.1493 38.8179L43.4508 40.4047C43.6558 40.3035 43.8715 40.1934 44.1078 40.0958C44.4694 39.9525 44.686 39.8898 44.9224 39.897C45.2625 39.9149 45.5632 40.0707 45.8452 40.4146C46.47 41.1767 46.3402 42.1161 45.5265 42.8996L46.0761 43.5695L45.6179 43.9456H45.617ZM42.9513 40.6716L41.7116 39.16C41.2452 39.6194 41.1548 40.1629 41.5397 40.6331C41.9345 41.114 42.3695 40.968 42.9513 40.6725V40.6716ZM43.8688 40.9152L45.1372 42.4617C45.6733 41.9352 45.745 41.3692 45.3457 40.882C44.942 40.3895 44.5079 40.5731 43.8688 40.9152Z"/>
</mask>
<path d="M45.617 43.9456L45.0674 43.2757C44.1526 43.9115 43.2333 43.9474 42.4187 43.2462L42.8072 42.6686C43.3953 43.2113 44.0577 43.2238 44.703 42.8083L43.364 41.1758C43.1912 41.2689 42.9988 41.3602 42.7839 41.4498C42.4662 41.5761 42.1905 41.6495 41.9506 41.6253C41.6167 41.5922 41.3034 41.4086 41.0546 41.105C40.4343 40.3492 40.5829 39.4322 41.3267 38.7158L40.923 38.2233L41.3813 37.8472L41.7904 38.3451C42.5834 37.8284 43.3828 37.8812 44.1517 38.4678L43.7462 39.0015C43.2046 38.5743 42.6783 38.517 42.1493 38.8179L43.4508 40.4047C43.6558 40.3035 43.8715 40.1934 44.1078 40.0958C44.4694 39.9525 44.686 39.8898 44.9224 39.897C45.2625 39.9149 45.5632 40.0707 45.8452 40.4146C46.47 41.1767 46.3402 42.1161 45.5265 42.8996L46.0761 43.5695L45.6179 43.9456H45.617ZM42.9513 40.6716L41.7116 39.16C41.2452 39.6194 41.1548 40.1629 41.5397 40.6331C41.9345 41.114 42.3695 40.968 42.9513 40.6725V40.6716ZM43.8688 40.9152L45.1372 42.4617C45.6733 41.9352 45.745 41.3692 45.3457 40.882C44.942 40.3895 44.5079 40.5731 43.8688 40.9152Z" fill="#0A213C"/>
<path d="M45.617 43.9456L44.8439 44.5799L45.1439 44.9456H45.617V43.9456ZM45.0674 43.2757L45.8404 42.6414L45.2548 41.9276L44.4966 42.4546L45.0674 43.2757ZM42.4187 43.2462L41.5889 42.6881L41.0934 43.4248L41.7663 44.0041L42.4187 43.2462ZM42.8072 42.6686L43.4854 41.9337L42.6283 41.1428L41.9774 42.1105L42.8072 42.6686ZM44.703 42.8083L45.2444 43.6491L46.1878 43.0416L45.4762 42.1741L44.703 42.8083ZM43.364 41.1758L44.1371 40.5416L43.6146 39.9046L42.8894 40.2955L43.364 41.1758ZM42.7839 41.4498L43.1532 42.3791L43.161 42.376L43.1687 42.3728L42.7839 41.4498ZM41.9506 41.6253L42.0509 40.6304L42.0493 40.6302L41.9506 41.6253ZM41.0546 41.105L41.828 40.4711L41.8276 40.4706L41.0546 41.105ZM41.3267 38.7158L42.0204 39.4361L42.6852 38.7958L42.1001 38.0819L41.3267 38.7158ZM40.923 38.2233L40.2886 37.4503L39.5161 38.0843L40.1496 38.8572L40.923 38.2233ZM41.3813 37.8472L42.154 37.2124L41.5195 36.4401L40.7469 37.0742L41.3813 37.8472ZM41.7904 38.3451L41.0177 38.9799L41.5861 39.6717L42.3362 39.1829L41.7904 38.3451ZM44.1517 38.4678L44.9479 39.0727L45.5517 38.278L44.7582 37.6727L44.1517 38.4678ZM43.7462 39.0015L43.1269 39.7866L43.9264 40.4173L44.5424 39.6064L43.7462 39.0015ZM42.1493 38.8179L41.6549 37.9487L40.624 38.535L41.3761 39.4521L42.1493 38.8179ZM43.4508 40.4047L42.6776 41.0389L43.1813 41.653L43.8935 41.3014L43.4508 40.4047ZM44.1078 40.0958L43.7394 39.1661L43.7327 39.1688L43.726 39.1715L44.1078 40.0958ZM44.9224 39.897L44.9749 38.8984L44.9638 38.8978L44.9527 38.8974L44.9224 39.897ZM45.8452 40.4146L46.6185 39.7806L46.6185 39.7805L45.8452 40.4146ZM45.5265 42.8996L44.8329 42.1793L44.1677 42.82L44.7535 43.5339L45.5265 42.8996ZM46.0761 43.5695L46.7105 44.3425L47.4835 43.7081L46.8492 42.9352L46.0761 43.5695ZM45.6179 43.9456V44.9456H45.9757L46.2522 44.7186L45.6179 43.9456ZM42.9513 40.6716H43.9513V40.314L43.7245 40.0375L42.9513 40.6716ZM41.7116 39.16L42.4848 38.5258L41.7902 37.6789L41.0098 38.4476L41.7116 39.16ZM41.5397 40.6331L40.766 41.2666L40.7668 41.2676L41.5397 40.6331ZM42.9513 40.6725L43.4042 41.5641L43.9513 41.2862V40.6725H42.9513ZM43.8688 40.9152L43.3969 40.0335L42.3236 40.608L43.0956 41.5493L43.8688 40.9152ZM45.1372 42.4617L44.364 43.0959L45.0575 43.9415L45.8379 43.1752L45.1372 42.4617ZM45.3457 40.882L46.1192 40.2482L46.1191 40.2481L45.3457 40.882ZM46.39 43.3113L45.8404 42.6414L44.2943 43.91L44.8439 44.5799L46.39 43.3113ZM44.4966 42.4546C44.1567 42.6908 43.8933 42.762 43.7037 42.7623C43.5297 42.7626 43.3223 42.7045 43.0711 42.4883L41.7663 44.0041C42.3297 44.489 42.9892 44.7636 43.7072 44.7623C44.4096 44.7611 45.0632 44.4964 45.6381 44.0969L44.4966 42.4546ZM43.2485 43.8043L43.637 43.2267L41.9774 42.1105L41.5889 42.6881L43.2485 43.8043ZM42.129 43.4035C42.5631 43.804 43.0867 44.061 43.6742 44.096C44.2536 44.1305 44.7881 43.9428 45.2444 43.6491L44.1617 41.9675C43.9726 42.0892 43.8532 42.1031 43.793 42.0995C43.741 42.0964 43.6394 42.0758 43.4854 41.9337L42.129 43.4035ZM45.4762 42.1741L44.1371 40.5416L42.5908 41.81L43.9299 43.4425L45.4762 42.1741ZM42.8894 40.2955C42.7492 40.3711 42.5871 40.4485 42.3992 40.5268L43.1687 42.3728C43.4105 42.272 43.6332 42.1667 43.8385 42.056L42.8894 40.2955ZM42.4147 40.5205C42.2824 40.573 42.1875 40.6029 42.119 40.6183C42.0509 40.6335 42.034 40.6287 42.0509 40.6304L41.8503 42.6203C42.3427 42.6699 42.8084 42.5161 43.1532 42.3791L42.4147 40.5205ZM42.0493 40.6302C42.0282 40.6281 41.9426 40.611 41.828 40.4711L40.2812 41.739C40.6642 42.2062 41.2052 42.5563 41.8518 42.6204L42.0493 40.6302ZM41.8276 40.4706C41.6788 40.2894 41.6557 40.1424 41.6711 40.0219C41.6888 39.8829 41.7741 39.6733 42.0204 39.4361L40.633 37.9955C40.1355 38.4747 39.7746 39.0818 39.6871 39.7694C39.5972 40.4754 39.81 41.1649 40.2816 41.7394L41.8276 40.4706ZM42.1001 38.0819L41.6964 37.5894L40.1496 38.8572L40.5533 39.3497L42.1001 38.0819ZM41.5574 38.9963L42.0157 38.6202L40.7469 37.0742L40.2886 37.4503L41.5574 38.9963ZM40.6086 38.482L41.0177 38.9799L42.563 37.7103L42.154 37.2124L40.6086 38.482ZM42.3362 39.1829C42.5861 39.0201 42.7767 38.9829 42.9246 38.9911C43.0774 38.9996 43.2824 39.0624 43.5451 39.2628L44.7582 37.6727C44.252 37.2866 43.6729 37.0296 43.0355 36.9942C42.3932 36.9586 41.7877 37.1533 41.2445 37.5072L42.3362 39.1829ZM43.3554 37.8628L42.9499 38.3965L44.5424 39.6064L44.9479 39.0727L43.3554 37.8628ZM44.3655 38.2163C43.99 37.9202 43.5524 37.6994 43.0558 37.643C42.549 37.5856 42.0745 37.71 41.6549 37.9487L42.6437 39.6871C42.7531 39.6249 42.8062 39.6276 42.8303 39.6303C42.8645 39.6342 42.9608 39.6556 43.1269 39.7866L44.3655 38.2163ZM41.3761 39.4521L42.6776 41.0389L44.224 39.7706L42.9225 38.1837L41.3761 39.4521ZM43.8935 41.3014C44.1145 41.1923 44.2923 41.1015 44.4896 41.02L43.726 39.1715C43.4507 39.2853 43.197 39.4148 43.0081 39.508L43.8935 41.3014ZM44.4762 41.0255C44.8229 40.8881 44.8754 40.896 44.892 40.8965L44.9527 38.8974C44.4967 38.8836 44.1159 39.0169 43.7394 39.1661L44.4762 41.0255ZM44.8698 40.8956C44.8963 40.897 44.9087 40.9015 44.9234 40.9096C44.943 40.9204 44.9943 40.9539 45.0719 41.0486L46.6185 39.7805C46.1917 39.26 45.6445 38.9336 44.9749 38.8984L44.8698 40.8956ZM45.0719 41.0486C45.2246 41.2349 45.2509 41.3882 45.2338 41.5192C45.2141 41.6694 45.1195 41.9033 44.8329 42.1793L46.2202 43.6199C46.7473 43.1124 47.1244 42.4848 47.2168 41.7789C47.3118 41.0538 47.0906 40.3563 46.6185 39.7806L45.0719 41.0486ZM44.7535 43.5339L45.3031 44.2038L46.8492 42.9352L46.2996 42.2653L44.7535 43.5339ZM45.4418 42.7964L44.9835 43.1726L46.2522 44.7186L46.7105 44.3425L45.4418 42.7964ZM45.6179 42.9456H45.617V44.9456H45.6179V42.9456ZM43.7245 40.0375L42.4848 38.5258L40.9384 39.7941L42.1781 41.3057L43.7245 40.0375ZM41.0098 38.4476C40.6652 38.7871 40.3839 39.2319 40.3148 39.7635C40.2426 40.3186 40.4188 40.8425 40.766 41.2666L42.3135 39.9996C42.2898 39.9707 42.2902 39.9616 42.2941 39.9742C42.2985 39.9883 42.3 40.0066 42.2981 40.0215C42.2945 40.0489 42.2917 39.9923 42.4134 39.8724L41.0098 38.4476ZM40.7668 41.2676C41.1428 41.7256 41.6469 41.9761 42.233 41.9423C42.6983 41.9154 43.1249 41.7059 43.4042 41.5641L42.4985 39.7809C42.3633 39.8495 42.2676 39.8934 42.1933 39.921C42.1187 39.9486 42.0997 39.9466 42.1178 39.9456C42.147 39.9439 42.206 39.9485 42.2689 39.978C42.3265 40.0049 42.3384 40.0299 42.3127 39.9986L40.7668 41.2676ZM43.9513 40.6725V40.6716H41.9513V40.6725H43.9513ZM43.0956 41.5493L44.364 43.0959L45.9104 41.8276L44.642 40.281L43.0956 41.5493ZM45.8379 43.1752C46.2106 42.8091 46.5113 42.3423 46.5838 41.7866C46.6597 41.2057 46.4671 40.6728 46.1192 40.2482L44.5723 41.5159C44.6024 41.5527 44.6057 41.5687 44.6035 41.5619C44.6006 41.5528 44.5992 41.5386 44.6006 41.5276C44.6032 41.5083 44.5999 41.5878 44.4365 41.7482L45.8379 43.1752ZM46.1191 40.2481C45.9435 40.0338 45.7196 39.8387 45.4332 39.7142C45.1404 39.587 44.8478 39.562 44.5829 39.592C44.1212 39.6444 43.6841 39.8798 43.3969 40.0335L44.3407 41.7968C44.4975 41.7129 44.6095 41.6563 44.7004 41.6181C44.7923 41.5794 44.8207 41.5778 44.8082 41.5793C44.7822 41.5822 44.7138 41.5823 44.6359 41.5484C44.5644 41.5173 44.5462 41.484 44.5723 41.516L46.1191 40.2481Z" fill="#3573E0" mask="url(#path-7-inside-1_2616_48832)"/>
<path d="M58.1948 39.6078H16.812V57.5305H58.1948V39.6078Z" fill="white" stroke="#3573E0" stroke-linecap="round" stroke-linejoin="round"/>
<path d="M27.2567 42.2065H19.1953V54.9308H27.2567" stroke="#3573E0" stroke-linecap="round" stroke-linejoin="round"/>
<path d="M47.4502 42.2065H55.5116V54.9308H47.4502" stroke="#3573E0" stroke-linecap="round" stroke-linejoin="round"/>
<path d="M38.0827 54.9308C41.3341 54.9308 43.9698 52.2938 43.9698 49.041C43.9698 45.7882 41.3341 43.1512 38.0827 43.1512C34.8313 43.1512 32.1956 45.7882 32.1956 49.041C32.1956 52.2938 34.8313 54.9308 38.0827 54.9308Z" fill="#E8F2FF" stroke="#3573E0" stroke-linecap="round" stroke-linejoin="round"/>
<mask id="path-13-inside-2_2616_48832" fill="white">
<path d="M37.935 52.7323V51.8655C36.8241 51.7768 36.091 51.2207 35.9058 50.1613L36.5726 49.9616C36.6836 50.7542 37.1876 51.184 37.9502 51.2727V49.1611C37.7577 49.1243 37.5501 49.0724 37.3281 49.0052C37.0023 48.9014 36.7427 48.7832 36.5726 48.613C36.3354 48.3757 36.2101 48.0354 36.2101 47.6423C36.2101 46.6644 36.9065 46.0492 37.9359 45.9677V45.3301H38.5284V45.9748C39.4692 46.0787 40.0537 46.6268 40.2757 47.568L39.6241 47.7238C39.4764 47.0495 39.1058 46.6715 38.5061 46.5677V48.6202C38.728 48.6721 38.9653 48.7241 39.2096 48.7984C39.5802 48.9166 39.787 49.0061 39.9651 49.1611C40.2166 49.3903 40.35 49.7019 40.35 50.1461C40.35 51.1312 39.6536 51.7759 38.5284 51.8646V52.7314H37.9359L37.935 52.7323ZM37.9502 48.5091V46.5533C37.2986 46.6124 36.8841 46.976 36.8841 47.5832C36.8841 48.1903 37.3138 48.3685 37.9502 48.5091ZM38.5061 49.2793V51.2798C39.2544 51.2136 39.6688 50.8204 39.6688 50.1909C39.6688 49.5613 39.2168 49.4208 38.5061 49.2793Z"/>
</mask>
<path d="M37.935 52.7323V51.8655C36.8241 51.7768 36.091 51.2207 35.9058 50.1613L36.5726 49.9616C36.6836 50.7542 37.1876 51.184 37.9502 51.2727V49.1611C37.7577 49.1243 37.5501 49.0724 37.3281 49.0052C37.0023 48.9014 36.7427 48.7832 36.5726 48.613C36.3354 48.3757 36.2101 48.0354 36.2101 47.6423C36.2101 46.6644 36.9065 46.0492 37.9359 45.9677V45.3301H38.5284V45.9748C39.4692 46.0787 40.0537 46.6268 40.2757 47.568L39.6241 47.7238C39.4764 47.0495 39.1058 46.6715 38.5061 46.5677V48.6202C38.728 48.6721 38.9653 48.7241 39.2096 48.7984C39.5802 48.9166 39.787 49.0061 39.9651 49.1611C40.2166 49.3903 40.35 49.7019 40.35 50.1461C40.35 51.1312 39.6536 51.7759 38.5284 51.8646V52.7314H37.9359L37.935 52.7323ZM37.9502 48.5091V46.5533C37.2986 46.6124 36.8841 46.976 36.8841 47.5832C36.8841 48.1903 37.3138 48.3685 37.9502 48.5091ZM38.5061 49.2793V51.2798C39.2544 51.2136 39.6688 50.8204 39.6688 50.1909C39.6688 49.5613 39.2168 49.4208 38.5061 49.2793Z" fill="#0A213C"/>
<path d="M37.935 52.7323H36.935V55.1421L38.6412 53.4404L37.935 52.7323ZM37.935 51.8655H38.935V50.9421L38.0145 50.8687L37.935 51.8655ZM35.9058 50.1613L35.6189 49.2034L34.7676 49.4583L34.9207 50.3336L35.9058 50.1613ZM36.5726 49.9616L37.563 49.8229L37.4014 48.6696L36.2857 49.0037L36.5726 49.9616ZM37.9502 51.2727L37.8347 52.266L38.9502 52.3956V51.2727H37.9502ZM37.9502 49.1611H38.9502V48.3338L38.1376 48.1788L37.9502 49.1611ZM37.3281 49.0052L37.0243 49.958L37.0314 49.9602L37.0385 49.9624L37.3281 49.0052ZM36.5726 48.613L37.2799 47.9061L36.5726 48.613ZM37.9359 45.9677L38.0148 46.9646L38.9359 46.8916V45.9677H37.9359ZM37.9359 45.3301V44.3301H36.9359V45.3301H37.9359ZM38.5284 45.3301H39.5284V44.3301H38.5284V45.3301ZM38.5284 45.9748H37.5284V46.8705L38.4187 46.9688L38.5284 45.9748ZM40.2757 47.568L40.5083 48.5405L41.4778 48.3087L41.249 47.3384L40.2757 47.568ZM39.6241 47.7238L38.6472 47.9377L38.8653 48.9334L39.8566 48.6964L39.6241 47.7238ZM38.5061 46.5677L38.6767 45.5823L37.5061 45.3796V46.5677H38.5061ZM38.5061 48.6202H37.5061V49.4132L38.2782 49.5939L38.5061 48.6202ZM39.2096 48.7984L39.5135 47.8456L39.5006 47.8417L39.2096 48.7984ZM39.9651 49.1611L40.6387 48.422L40.6301 48.4141L40.6213 48.4065L39.9651 49.1611ZM38.5284 51.8646L38.4499 50.8677L37.5284 50.9403V51.8646H38.5284ZM38.5284 52.7314V53.7314H39.5284V52.7314H38.5284ZM37.9359 52.7314V51.7314H37.5224L37.2297 52.0234L37.9359 52.7314ZM37.9502 48.5091L37.7345 49.4856L38.9502 49.7542V48.5091H37.9502ZM37.9502 46.5533H38.9502V45.4585L37.8599 45.5574L37.9502 46.5533ZM38.5061 51.2798H37.5061V52.3723L38.5943 52.2759L38.5061 51.2798ZM38.935 52.7323V51.8655H36.935V52.7323H38.935ZM38.0145 50.8687C37.602 50.8357 37.3533 50.7236 37.2066 50.6035C37.0718 50.4932 36.948 50.3162 36.8908 49.9891L34.9207 50.3336C35.0488 51.0658 35.3842 51.6966 35.94 52.1514C36.4838 52.5964 37.1571 52.8066 37.8554 52.8623L38.0145 50.8687ZM36.1926 51.1193L36.8595 50.9196L36.2857 49.0037L35.6189 49.2034L36.1926 51.1193ZM35.5823 50.1003C35.6642 50.685 35.906 51.2155 36.3379 51.6151C36.7638 52.0092 37.2958 52.2033 37.8347 52.266L38.0657 50.2794C37.842 50.2533 37.7407 50.1882 37.6962 50.1471C37.6577 50.1115 37.5921 50.0308 37.563 49.8229L35.5823 50.1003ZM38.9502 51.2727V49.1611H36.9502V51.2727H38.9502ZM38.1376 48.1788C37.9849 48.1496 37.8116 48.1068 37.6177 48.0481L37.0385 49.9624C37.2885 50.038 37.5306 50.099 37.7628 50.1433L38.1376 48.1788ZM37.6318 48.0525C37.4965 48.0093 37.404 47.9722 37.3412 47.9406C37.2786 47.9091 37.2682 47.8944 37.2799 47.9061L35.8654 49.32C36.2139 49.6686 36.67 49.845 37.0243 49.958L37.6318 48.0525ZM37.2799 47.9061C37.2656 47.8917 37.2101 47.825 37.2101 47.6423H35.2101C35.2101 48.2458 35.4053 48.8597 35.8654 49.32L37.2799 47.9061ZM37.2101 47.6423C37.2101 47.4075 37.2856 47.279 37.3739 47.1955C37.4757 47.0993 37.6743 46.9915 38.0148 46.9646L37.857 44.9708C37.168 45.0253 36.5038 45.2659 36 45.7421C35.4828 46.2311 35.2101 46.8991 35.2101 47.6423H37.2101ZM38.9359 45.9677V45.3301H36.9359V45.9677H38.9359ZM37.9359 46.3301H38.5284V44.3301H37.9359V46.3301ZM37.5284 45.3301V45.9748H39.5284V45.3301H37.5284ZM38.4187 46.9688C38.7151 47.0015 38.8861 47.0938 38.9952 47.194C39.108 47.2975 39.2266 47.476 39.3024 47.7975L41.249 47.3384C41.1028 46.7187 40.8182 46.1526 40.348 45.7208C39.8742 45.2858 39.2826 45.052 38.6382 44.9809L38.4187 46.9688ZM40.0431 46.5954L39.3915 46.7512L39.8566 48.6964L40.5083 48.5405L40.0431 46.5954ZM40.6009 47.5098C40.4985 47.0423 40.3003 46.5941 39.9522 46.2354C39.5972 45.8695 39.1518 45.6646 38.6767 45.5823L38.3354 47.553C38.46 47.5746 38.4998 47.6106 38.5169 47.6282C38.541 47.653 38.6019 47.7309 38.6472 47.9377L40.6009 47.5098ZM37.5061 46.5677V48.6202H39.5061V46.5677H37.5061ZM38.2782 49.5939C38.5185 49.6501 38.714 49.6929 38.9186 49.7551L39.5006 47.8417C39.2165 47.7552 38.9375 47.6941 38.7339 47.6465L38.2782 49.5939ZM38.9057 49.7511C39.2579 49.8634 39.2951 49.9036 39.3088 49.9156L40.6213 48.4065C40.2788 48.1086 39.9025 47.9698 39.5135 47.8457L38.9057 49.7511ZM39.2915 49.9001C39.3104 49.9174 39.317 49.9283 39.3233 49.9441C39.3317 49.9651 39.35 50.0237 39.35 50.1461H41.35C41.35 49.4746 41.135 48.8743 40.6387 48.422L39.2915 49.9001ZM39.35 50.1461C39.35 50.3867 39.2731 50.5219 39.1768 50.6124C39.0665 50.7159 38.8454 50.8365 38.4499 50.8677L38.607 52.8615C39.3366 52.804 40.0263 52.5579 40.5455 52.0707C41.0786 51.5703 41.35 50.8906 41.35 50.1461H39.35ZM37.5284 51.8646V52.7314H39.5284V51.8646H37.5284ZM38.5284 51.7314H37.9359V53.7314H38.5284V51.7314ZM37.2297 52.0234L37.2288 52.0243L38.6412 53.4404L38.6421 53.4395L37.2297 52.0234ZM38.9502 48.5091V46.5533H36.9502V48.5091H38.9502ZM37.8599 45.5574C37.3776 45.6012 36.8779 45.767 36.4874 46.1345C36.0798 46.5181 35.8841 47.0352 35.8841 47.5832H37.8841C37.8841 47.546 37.8902 47.5394 37.8852 47.5516C37.8796 47.5654 37.8691 47.5806 37.8582 47.5909C37.8378 47.6101 37.8711 47.5646 38.0405 47.5493L37.8599 45.5574ZM35.8841 47.5832C35.8841 48.1759 36.1203 48.6829 36.5846 49.0256C36.9595 49.3024 37.4176 49.4156 37.7345 49.4856L38.1659 47.5327C38.0224 47.501 37.9221 47.4738 37.849 47.4479C37.7754 47.4218 37.7602 47.4076 37.7724 47.4166C37.7926 47.4315 37.833 47.4697 37.8622 47.5303C37.8895 47.587 37.8841 47.616 37.8841 47.5832H35.8841ZM37.5061 49.2793V51.2798H39.5061V49.2793H37.5061ZM38.5943 52.2759C39.1154 52.2298 39.6442 52.0593 40.0528 51.6753C40.4797 51.2742 40.6688 50.7399 40.6688 50.1909H38.6688C38.6688 50.2382 38.6612 50.2526 38.6638 50.2461C38.6673 50.2373 38.6752 50.2254 38.6833 50.2178C38.6976 50.2044 38.645 50.2636 38.4178 50.2837L38.5943 52.2759ZM40.6688 50.1909C40.6688 49.9138 40.6187 49.622 40.4762 49.3452C40.331 49.063 40.122 48.859 39.8999 48.7142C39.5105 48.4605 39.0258 48.3631 38.7013 48.2985L38.3108 50.26C38.4833 50.2944 38.6053 50.3221 38.6989 50.3503C38.7936 50.3789 38.8174 50.396 38.808 50.3899C38.7877 50.3767 38.7362 50.3347 38.6979 50.2604C38.6624 50.1914 38.6688 50.1532 38.6688 50.1909H40.6688Z" fill="#3573E0" mask="url(#path-13-inside-2_2616_48832)"/>
</svg>
