<svg width="80" height="80" viewBox="0 0 80 80" fill="none" xmlns="http://www.w3.org/2000/svg">
<circle cx="40.0127" cy="40" r="39.9873" fill="#E8F2FF"/>
<rect x="10.2974" y="10.2847" width="60.8982" height="60.8982" fill="#E8F2FF"/>
<path d="M37.3236 20.2073H16.5146V62.5333H37.3236V20.2073Z" fill="white" stroke="#3573E0" stroke-linecap="round"/>
<path d="M22.7028 25.9268H19.95V31.8331H22.7028V25.9268Z" fill="#E8F2FF" stroke="#3573E0" stroke-linecap="round"/>
<path d="M28.5165 25.9268H25.7637V31.8331H28.5165V25.9268Z" fill="#E8F2FF" stroke="#3573E0" stroke-linecap="round"/>
<path d="M34.4386 25.9268H31.6858V31.8331H34.4386V25.9268Z" fill="#E8F2FF" stroke="#3573E0" stroke-linecap="round"/>
<path d="M22.7028 38.7251H19.95V44.6314H22.7028V38.7251Z" fill="#E8F2FF" stroke="#3573E0" stroke-linecap="round"/>
<path d="M28.5165 38.7251H25.7637V44.6314H28.5165V38.7251Z" fill="#E8F2FF" stroke="#3573E0" stroke-linecap="round"/>
<path d="M34.4386 38.7251H31.6858V44.6314H34.4386V38.7251Z" fill="#E8F2FF" stroke="#3573E0" stroke-linecap="round"/>
<path d="M22.7028 51.525H19.95V57.4313H22.7028V51.525Z" fill="#E8F2FF" stroke="#3573E0" stroke-linecap="round"/>
<path d="M28.5165 51.525H25.7637V57.4313H28.5165V51.525Z" fill="#E8F2FF" stroke="#3573E0" stroke-linecap="round"/>
<path d="M34.4386 51.525H31.6858V57.4313H34.4386V51.525Z" fill="#E8F2FF" stroke="#3573E0" stroke-linecap="round"/>
<path d="M63.5106 16.5612H37.324V62.5334H63.5106V16.5612Z" fill="white" stroke="#3573E0" stroke-linecap="round"/>
<path d="M63.5106 23.4268H37.3237V27.1645H63.5106V23.4268Z" fill="#E8F2FF" stroke="#3573E0" stroke-linecap="round"/>
<path d="M63.5106 32.9956H37.3237V36.7333H63.5106V32.9956Z" fill="#E8F2FF" stroke="#3573E0" stroke-linecap="round"/>
<path d="M63.5106 42.5645H37.3237V46.3022H63.5106V42.5645Z" fill="#E8F2FF" stroke="#3573E0" stroke-linecap="round"/>
<path d="M63.5106 52.1332H37.3237V55.8709H63.5106V52.1332Z" fill="#E8F2FF" stroke="#3573E0" stroke-linecap="round"/>
</svg>
