<svg width="28" height="23" viewBox="0 0 28 23" alt="twitter" fill="none" xmlns="http://www.w3.org/2000/svg">
<path fill-rule="evenodd" clip-rule="evenodd" d="M24.5696 5.70342V6.43585C24.5696 7.67878 24.4151 8.92834 24.106 10.1846C23.797 11.4408 23.353 12.6615 22.774 13.8468C22.1951 15.032 21.4529 16.1395 20.5475 17.1693C19.6421 18.1992 18.6279 19.0981 17.5049 19.866C16.3818 20.634 15.0868 21.2399 13.6199 21.6838C12.153 22.1277 10.6055 22.3497 8.97754 22.3497C5.67803 22.3497 2.87044 21.5906 0.554688 20.0724C0.955156 20.1346 1.39044 20.1657 1.86056 20.1657C3.07937 20.1657 4.27205 19.926 5.43864 19.4465C6.60522 18.9671 7.68037 18.3235 8.66413 17.5156C7.48884 17.5067 6.42892 17.1361 5.48434 16.4036C4.53976 15.6712 3.89771 14.7457 3.55819 13.627C3.92383 13.6981 4.26335 13.7336 4.57676 13.7336C5.0817 13.7336 5.56922 13.667 6.03934 13.5338C4.77699 13.2763 3.72795 12.6349 2.89219 11.6095C2.05643 10.5841 1.63856 9.39667 1.63856 8.04721V7.98062C2.42208 8.41565 3.24913 8.64647 4.11971 8.67311C3.3623 8.15818 2.76378 7.49234 2.32414 6.67556C1.88449 5.85878 1.66468 4.97987 1.66468 4.0388C1.66468 3.12436 1.91279 2.21881 2.40902 1.32213C3.78454 3.02671 5.44733 4.37837 7.39744 5.37715C9.34755 6.37593 11.45 6.93746 13.7048 7.06175C13.6264 6.71551 13.5873 6.28493 13.5873 5.77C13.5873 4.22523 14.1205 2.90908 15.1869 1.82152C16.2534 0.733957 17.544 0.190186 19.0588 0.190186C20.6172 0.190186 21.9622 0.776127 23.094 1.94803C24.3389 1.69056 25.4924 1.23779 26.5545 0.589695C26.1366 1.93916 25.3314 2.97343 24.1387 3.69255C25.2269 3.56826 26.2803 3.27085 27.2989 2.80032C26.5676 3.92783 25.6578 4.89552 24.5696 5.70342Z" fill="white"/>
</svg>
