<svg width="25" height="25" viewBox="0 0 25 25" alt="instagram" fill="none" xmlns="http://www.w3.org/2000/svg">
<path fill-rule="evenodd" clip-rule="evenodd" d="M19.0175 4.52617C18.2326 4.52617 17.5962 5.16244 17.5962 5.94745C17.5962 6.73235 18.2326 7.36873 19.0175 7.36873C19.8025 7.36873 20.4387 6.73235 20.4387 5.94745C20.4387 5.16244 19.8025 4.52617 19.0175 4.52617ZM12.6951 16.2174C10.5147 16.2174 8.74711 14.4499 8.74711 12.2694C8.74711 10.089 10.5147 8.32147 12.6951 8.32147C14.8755 8.32147 16.643 10.089 16.643 12.2694C16.643 14.4499 14.8755 16.2174 12.6951 16.2174ZM12.7 6.18736C9.34106 6.18736 6.61801 8.91035 6.61801 12.2693C6.61801 15.6284 9.34106 18.3512 12.7 18.3512C16.0589 18.3512 18.782 15.6284 18.782 12.2693C18.782 8.91035 16.0589 6.18736 12.7 6.18736ZM22.3315 17.0557C22.2788 18.2105 22.0858 18.8377 21.9236 19.2551C21.7088 19.8078 21.4522 20.2024 21.0377 20.6169C20.6233 21.0313 20.2287 21.2879 19.6759 21.5028C19.2585 21.665 18.6313 21.858 17.4766 21.9106C16.2278 21.9676 15.8534 21.9796 12.6907 21.9796C9.52791 21.9796 9.1535 21.9676 7.90473 21.9106C6.74999 21.858 6.12285 21.665 5.70545 21.5028C5.15261 21.2879 4.75806 21.0313 4.34362 20.6169C3.92923 20.2024 3.67256 19.8078 3.45769 19.2551C3.2955 18.8377 3.10254 18.2105 3.04984 17.0557C2.99289 15.8069 2.9808 15.4323 2.9808 12.2698C2.9808 9.10734 2.99289 8.73278 3.04984 7.48386C3.10254 6.32911 3.2955 5.70198 3.45769 5.28458C3.67256 4.73174 3.92923 4.33729 4.34362 3.92275C4.75806 3.50836 5.15261 3.2517 5.70545 3.03682C6.12285 2.87464 6.74999 2.68167 7.90473 2.62898C9.15365 2.57203 9.52822 2.55993 12.6907 2.55993C15.8531 2.55993 16.2277 2.57203 17.4766 2.62898C18.6313 2.68167 19.2585 2.87464 19.6759 3.03682C20.2287 3.2517 20.6233 3.50836 21.0377 3.92275C21.4522 4.33729 21.7088 4.73174 21.9236 5.28458C22.0858 5.70198 22.2788 6.32911 22.3315 7.48386C22.3884 8.73278 22.4005 9.10734 22.4005 12.2698C22.4005 15.4323 22.3884 15.8069 22.3315 17.0557ZM24.468 7.38685C24.4105 6.12615 24.2103 5.26524 23.9175 4.5118C23.6149 3.73303 23.2099 3.07246 22.5514 2.41402C21.893 1.75559 21.2325 1.35055 20.4536 1.04793C19.7003 0.755184 18.8394 0.555 17.5787 0.497375C16.3154 0.439697 15.9121 0.426147 12.6955 0.426147C9.47881 0.426147 9.07548 0.439697 7.81223 0.497375C6.55153 0.555 5.69062 0.755184 4.93728 1.04793C4.1584 1.35055 3.49793 1.75559 2.83949 2.41402C2.181 3.07246 1.77601 3.73303 1.4734 4.5118C1.18055 5.26524 0.980364 6.12615 0.922842 7.38685C0.865164 8.6501 0.851562 9.05332 0.851562 12.27C0.851562 15.4867 0.865164 15.8899 0.922842 17.1531C0.980364 18.4139 1.18055 19.2748 1.4734 20.0282C1.77601 20.807 2.181 21.4675 2.83949 22.126C3.49793 22.7844 4.1584 23.1895 4.93728 23.4921C5.69062 23.7848 6.55153 23.9851 7.81223 24.0426C9.07548 24.1002 9.47881 24.1139 12.6955 24.1139C15.9121 24.1139 16.3154 24.1002 17.5787 24.0426C18.8394 23.9851 19.7003 23.7848 20.4536 23.4921C21.2325 23.1895 21.893 22.7844 22.5514 22.126C23.2099 21.4675 23.6149 20.807 23.9175 20.0282C24.2103 19.2748 24.4105 18.4139 24.468 17.1531C24.5257 15.8899 24.5393 15.4867 24.5393 12.27C24.5393 9.05332 24.5257 8.6501 24.468 7.38685Z" fill="white"/>
</svg>
