<svg width="24" height="19" viewBox="0 0 24 19" alt="youtube" fill="none" xmlns="http://www.w3.org/2000/svg">
<path fill-rule="evenodd" clip-rule="evenodd" d="M21.198 1.02025C22.2126 1.30971 23.0126 2.15744 23.2857 3.2326C23.7931 5.19683 23.7735 9.29072 23.7735 9.29072C23.7735 9.29072 23.7735 13.3639 23.2857 15.3282C23.0126 16.4033 22.2126 17.251 21.198 17.5405C19.3443 18.0574 11.9297 18.0574 11.9297 18.0574C11.9297 18.0574 4.53468 18.0574 2.66153 17.5198C1.6469 17.2304 0.846907 16.3826 0.573738 15.3075C0.0859375 13.3639 0.0859375 9.27004 0.0859375 9.27004C0.0859375 9.27004 0.0859375 5.19683 0.573738 3.2326C0.846907 2.15744 1.66641 1.28904 2.66153 0.99957C4.51517 0.482666 11.9297 0.482666 11.9297 0.482666C11.9297 0.482666 19.3443 0.482666 21.198 1.02025ZM15.7387 9.27029L9.57282 5.50722V13.0334L15.7387 9.27029Z" fill="white"/>
</svg>
