<svg width="87" height="61" viewBox="0 0 87 61" fill="none" xmlns="http://www.w3.org/2000/svg">
<path d="M85.7403 38.0047C84.383 28.9059 76.6566 22.4217 67.8862 22.0034C70.0788 13.8459 75.4037 10.6038 81.8771 8.72128C82.5036 8.51212 82.3992 7.88461 82.3992 7.88461L81.3551 1.40043C81.3551 1.40043 81.2507 0.877507 80.4154 0.982091C58.0717 3.4921 42.9323 20.5392 45.7514 41.2468C48.3616 55.5748 59.5326 61.1177 69.87 59.6535C80.2066 57.9802 87.3064 48.3585 85.7403 38.0047V38.0047Z" stroke="#004088" stroke-miterlimit="10"/>
<path d="M41.3692 38.0047C40.0119 28.9059 32.2856 22.4217 23.5151 22.0034C25.7077 13.8459 31.0326 10.6038 37.506 8.72128C38.1325 8.51212 38.0281 7.88461 38.0281 7.88461L36.984 1.40043C36.984 1.40043 36.8796 0.877507 36.0443 0.982091C13.7006 3.4921 -1.43881 20.5392 1.38026 41.2468C3.9905 55.5748 15.1615 61.1177 25.4989 59.6535C35.8355 57.9802 42.9354 48.3585 41.3692 38.0047V38.0047Z" stroke="#004088" stroke-miterlimit="10"/>
</svg>
