<svg width="21" height="22" viewBox="0 0 21 22" alt="linkedin" fill="none" xmlns="http://www.w3.org/2000/svg">
<path d="M0.669412 7.8102H4.95126V21.5848H0.669412V7.8102ZM2.80719 0.954469C4.17324 0.954469 5.28355 2.06672 5.28355 3.43516C5.28355 4.8036 4.17324 5.91856 2.80809 5.91856C2.15095 5.91713 1.52113 5.65505 1.05638 5.18966C0.591634 4.72427 0.32979 4.09344 0.328125 3.43516C0.328125 3.10916 0.392267 2.78636 0.516884 2.48522C0.641502 2.18407 0.824151 1.91048 1.05439 1.68009C1.28463 1.4497 1.55794 1.26703 1.85869 1.14252C2.15945 1.01802 2.48176 0.954114 2.80719 0.954469ZM7.62483 7.8102H11.7239V9.69281H11.7806C12.3515 8.61033 13.7455 7.46831 15.8328 7.46831C20.1606 7.46831 20.9594 10.3216 20.9594 14.03V21.5857H16.6883V14.8851C16.6883 13.2885 16.6595 11.2317 14.4677 11.2317C12.2435 11.2317 11.9013 12.9727 11.9013 14.7679V21.5821H7.63113V7.80749L7.62483 7.8102Z" fill="white"/>
</svg>
