<?xml version="1.0" encoding="utf-8"?>
<!-- Generator: Adobe Illustrator 27.0.0, SVG Export Plug-In . SVG Version: 6.00 Build 0)  -->
<svg version="1.1" id="logo" xmlns="http://www.w3.org/2000/svg" xmlns:xlink="http://www.w3.org/1999/xlink" x="0px" y="0px"
	 viewBox="0 0 211 40" style="enable-background:new 0 0 211 40;" xml:space="preserve">
<path d="M72.8,9.3c0-2-1.7-1.2-1.8-2C71,7.2,71.1,7,71.3,7h2.5c0.7,0,1.3,0,2,0c4.8,0,2.1,1.1,1,0.9c-0.3-0.1-0.6,0-0.5,0
	c-0.6,0.1-1.7-0.1-1.8,1.5v14.6c0,2,1.9,1.2,1.9,2c0,0.2-0.1,0.3-0.7,0.3c-0.5,0-1.2,0-2.1,0c-1.4,0-1.8,0-2.1,0
	c-0.4,0-0.4-0.2-0.4-0.5c0.1-0.7,1.8,0.2,1.7-2.6V9.3z M79.4,12.3c0.2-6.2-2.7-3.6-2.9-5c0-0.2,0-0.3,0.1-0.3
	c-0.1,0-0.6-0.2,1.7-0.1c0.4,0,0.7-0.1,0.9,0.1c0.5,0.4,0.4,0.3,0.5,0.5L90,22c0.1,0.2,0.2,0.3,0.2,0.3s0.1-0.1,0.1-0.3V10.6
	c-0.2-3.9-2.5-2.3-2.4-3.4c0-0.2,0.3-0.3,0.3-0.3c0.2,0,1.4,0,2,0c0.9,0,1.8,0,2.3,0c0.1,0,0.4,0,0.4,0.3c0,0.8-1.7-0.1-1.7,2.2
	v15.8c0,0.8,0,1.2-0.2,1.2c-0.2,0-0.4-0.1-0.8-0.8l-9.4-13.2c-0.1-0.1-0.3-0.5-0.5-0.5c-0.1,0-0.2,0.1-0.2,0.6v11.1
	c0,2.3,1.9,1.4,1.9,2.2c0,0.3-0.1,0.4-0.3,0.4h-2.1c-0.8,0-1.6,0-2,0c-0.2,0-0.4-0.2-0.4-0.4c0.4-1,2,0.3,2-3.5L79.4,12.3z
	 M4.6,11.1c0,1.2-0.1,1.4,1.1,1.4h2.2c3,0,2.2-3.1,2.9-3.1c0.3,0,0.4,0.3,0.4,0.5v6.5c0,0.3-0.2,0.6-0.4,0.6c-0.9,0,0.1-3.4-2.3-3.4
	H5.1c-0.7,0-0.5,0.8-0.5,1.3v7.5c-0.2,3.6,2.1,2.4,2.6,3.2c0.1,0.2,0.1,0.6-0.6,0.6c-0.2,0-0.1,0-2.8,0c-0.6,0-2.8,0-2.8,0
	c-0.7,0-0.7-0.5-0.6-0.6c0.3-0.6,2.4,0.2,2.3-3.8V5.2c0-1.6,0.2-3.1-1.7-3.7C0.6,1.5,0,1.4,0,1c0-0.3,0.2-0.5,1-0.4
	c1.2,0.1,9,0,10.6,0h3.8c0.5,0,0.5,0.4,0.4,0.8c-0.4,3.6-0.1,4.2-0.6,4.3c-0.8,0.1-0.4-1.8-0.9-2.8c-0.7-1.4-2.4-1.2-3.5-1.3
	C8.3,1.6,4.2,1.3,4.5,4.3L4.6,11.1z M49.8,15.6c0,0.2,0.1,0.3,0.1,0.3c0.1,0,0.2-0.1,0.2-0.1l4.4-5c0.6-0.6,1.2-1.4,1.5-2.2
	c0.2-0.9-1.3-0.6-1.2-1.3C54.9,7,55.1,7,55.2,7h4.3c0.1,0,0.6,0.1,0.6,0.2c0.1,1-0.7-0.1-3.2,2.4l-5.1,5.6c-0.2,0.2-0.3,0.4-0.3,0.5
	c0,0.2,0.1,0.4,0.2,0.5l6.1,7.9c1.5,1.9,2.4,0.9,2.4,1.7c0,0.2-0.2,0.4-0.4,0.4h-1.3c-0.4,0-0.5,0-1.1,0c-0.3,0-0.6-0.5-0.8-0.7
	l-6.2-8c-0.1-0.2-0.3-0.3-0.4-0.3c-0.1,0-0.2,0.1-0.2,0.3V15.6z M64,22.9c0,1.6-0.2,2.3,1.7,2.3c5,0,5.8-2.8,6.1-2.8
	c0.2,0,0.2,0.3,0.2,0.3c-0.1,1-0.5,1.9-1.1,2.6c-0.4,0.7-1.3,1.2-2.1,1c-1.7,0-3.2,0-5,0h-2.6c-0.2,0-0.4-0.1-0.4-0.3
	c-0.1-0.6,0.6-0.5,1-0.8c0.5-0.4,0.6-1.1,0.6-2.4V9.1c0-1.4-1.9-1.1-1.9-1.7C60.4,7,60.7,7,60.9,7c0.5,0,1.2,0,2.3,0
	c1.2,0,1.7-0.1,2,0c0.1,0,0.7-0.1,0.6,0.4c-0.1,0.8-1.9-0.2-1.8,2.3L64,22.9z M17,16.5c2.3,0.1,3.1,1.9,3.9,3.5
	c0.9,1.8,1.4,4.1,2.5,5c0.8,0.6,1.7,1,2.7,1.3l-0.6-0.1l-0.6,0.1l-0.8,0l-0.2,0.1h-0.5c-0.5-0.1-0.9-0.4-1.3-0.7
	c-1.4-1.3-2.6-4.5-3.2-5.5c-0.6-1.1-1.2-3.1-2.9-3.1h-0.1c-0.7,0-0.6,0.5-0.6,0.8v5.8c-0.1,2.5,2.4,1.4,2.4,2.3
	c0,0.3-0.1,0.4-0.4,0.4h-2.6c-1.1,0-1.8,0.1-2.5,0c-0.1,0-0.6-0.1-0.6-0.5c0.1-0.7,1.9-0.1,1.9-2.3V9.8c0-2.6-1.9-1.5-1.9-2.4
	C11.8,7.2,12,7,12.3,7c0.3,0,0.6,0,0.9,0l0.7,0c2.3,0,0.5,0,3.6,0c0.4,0,5.9-0.6,5.9,4.7c0,2-1.2,3.9-3.1,4.7c-1,0.5-2,0.7-3.1,0.7
	L17,16.5z M15.4,8.9v6.6c0,0.3,0,0.8,0.7,0.8c0.3,0,1,0.1,1.4,0c0.3,0,0.5-0.1,0.7-0.1c1,0,3.4-0.5,3.4-3.9c0-3.3-2-4.4-4.5-4.4
	C16.2,7.9,15.3,7.8,15.4,8.9z M36.4,25.3c0.6-0.2,1.5,0.3,1.5-2.9V12.3c0-5.7-2.6-4.1-2.6-5.1c0-0.2,0.2-0.3,0.3-0.3h1.1
	c0.2,0,0.5,0,0.7,0c0.3,0,0.6,0.4,0.7,0.6l10.2,14.2c0.1,0.2,0.3,0.3,0.4,0.5c0,0-0.6,0.3-0.4-0.4l0-11.2c0.1-3.7-2.3-2.3-2.1-3.4
	C46.2,7,46.5,7,46.6,7h2.1c0.7,0,1.5,0,2,0c0,0,0.6,0,0.6,0.2c0.4,1.1-1.7,0.1-1.7,2.3v15.8c0,1.1-0.1,1.1-0.2,1.1s-0.3-0.1-0.8-0.7
	l-9.4-13.2c-0.1-0.1-0.3-0.5-0.5-0.5c-0.1,0-0.2,0.1-0.2,0.6v11.1c0,2.5,1.8,1.5,1.9,2.2c0,0.3-0.1,0.4-0.3,0.4c-0.4,0-1,0-2.1,0h-3
	c-0.7,0-1,0-1.7,0c-0.1,0-0.4-0.1-0.4-0.3c0-0.7,1.4-0.3,1.3-1.4c-0.2-0.9-0.5-1.7-0.9-2.6l-0.9-2.2c-0.2-0.6-0.4-1-1-1h-5.3
	c-0.4,0-0.6,0-0.9,0.6L24.4,23c-0.1,0.3-0.2,0.6-0.2,0.9c0,1.7,2.3,1.3,2.4,1.7c0.2,0.7-0.4,0.6-1.6,0.6c-0.4,0-0.8,0-1.2-0.1
	L23,25.9c-0.7-0.4-0.2-1,0-1.8L28,10.3c1.3-3.4,1.5-3.9,1.5-3.9c0.3-0.1,0.5,0.8,0.6,1L34.9,21c0.4,1.2,0.8,2.4,1.3,3.6
	c0.4,0.9,0.9,0.4,1.2,0.5L36.4,25.3z M26.4,17c-0.2,0.4,0,0.5,0.3,0.5h4.6c0.5,0,0.5-0.2,0.4-0.6l-2.5-6.6c-0.1-0.3-0.2-0.3-0.4,0
	L26.4,17z M125,22.8c-0.2,3.7,2.3,1.7,2.3,3c0,0.4-0.4,0.4-0.7,0.4h-5.2c-0.2,0-0.5-0.1-0.5-0.4c0-1,2,0.1,1.9-3L122.5,9l-0.2-2.3
	c0,0-0.7,1.5-0.9,2l-6,15.3c-0.1,0.3-0.6,1.8-0.9,1.8s-0.5-0.8-0.6-1l-6.2-16.2c-0.1-0.3-0.5-1.6-0.5-1.6l0,1.7l-0.3,12.6
	c0,5.5,2.9,2.9,2.7,4.6c0,0.4-0.4,0.3-0.8,0.3h-5c0.6,0-0.3-0.1-0.3,0c0-0.1-0.3,0-0.4-0.4c-0.1-1.1,2.1,0.2,2.3-3.6
	c0.4-5.9,0.7-9.6,0.7-13.4c0-9-2.8-6.8-2.9-8c0-0.4,0.4-0.4,0.6-0.4c0.6,0,1,0,1.6,0c0.5,0,0.8,0,1.4,0c0.4,0,0.7,0.9,0.9,1.3
	l6.9,18.4c0.3,0.8,0.4,1.1,0.6,1.1c0.1,0,0.4-0.8,0.9-2L122.9,2c0.2-0.4,0.7-1.5,1-1.5c1,0,0.9,0,1.1,0c0.7,0,0.9,0,1.4,0
	c0.2,0,0.5,0.2,0.4,0.5c-0.2,1.2-2.5-1-2.4,4.1L125,22.8z M161.8,9.3c-0.2-2.2-1.9-1.1-1.9-2.1c0-0.2,0.4-0.3,0.6-0.3
	c0.9,0,1.3,0,2.1,0c0.8,0,1.1,0,1.7,0c0.7,0,0.9,0.2,0.9,0.3c0.1,1-1.7-0.1-1.8,2.1v5.9c0,0.4,0,0.5,0.3,0.5h8
	c0.2,0,0.2-0.7,0.2-0.8V9.3c-0.1-2-1.6-1.2-1.6-2c0-0.3,0.2-0.4,0.5-0.4c0.7,0,1.6,0,2,0c0.8,0,1.3,0,1.7,0c0.6,0,0.8,0,0.8,0.4
	c0.1,0.7-1.7-0.1-1.7,2v14.4c-0.1,2.3,1.3,1.2,1.3,1.7c0,0.1,0.6,0.8,0.4,0.8c-0.6,0-1.2,0-2,0H171c-0.2,0-0.6,0-0.7-0.4
	c-0.1-0.7,1.7,0,1.6-2v-6.5c0-0.4,0.1-0.7-0.2-0.7h-8c-0.3,0-0.3,0.2-0.3,0.5v6.8c-0.1,2,2.4,1.1,2.2,2c-0.1,0.2-0.2,0.3-0.4,0.3
	h-2.9c-0.7,0-1.4,0-2,0c0,0-0.7,0-0.7-0.4c0-1,2,0.2,2-2.7L161.8,9.3z M192,22.9c0,1.6-0.2,2.3,1.7,2.3c5,0,5.8-2.8,6.1-2.8
	c0.2,0,0.2,0.3,0.2,0.3c-0.1,1-0.5,1.9-1.1,2.6c-0.7,1-1.3,0.9-2.3,1c-1.7,0-3.1,0-4.7,0c-0.9,0-1.9,0-2.8,0c-0.2,0-0.4-0.5-0.4-0.7
	c0.1-0.3,0.3-0.1,1.1-0.3c0.6-0.1,0.6-1.1,0.6-2.4V9.1c0-1.6-1.7-1.1-1.8-1.7c-0.1-0.3,0.2-0.4,0.5-0.4c0.5,0,1.1,0,2.2,0
	c1.3,0,1.1,0,1.9,0c0.3,0,0.7,0,0.7,0.3c0,0.7-1.9,0.1-1.7,2.4L192,22.9z M180,10.4c1.3-3.4,1.3-3.7,1.4-3.9c0.2-0.2,0.4,0.4,0.6,1
	l4.7,13.5c0.4,1.2,0.8,2.4,1.3,3.6c0.5,1.1,2.2,0.2,2.1,1.2c0,0.3-0.2,0.4-0.3,0.4h-2.6c-0.6,0-1.2,0.1-1.8,0
	c-0.1,0-0.6-0.1-0.6-0.4c0-0.6,1.7-0.4,1.3-1.3c-0.2-0.6-0.7-1.8-0.9-2.5l-0.8-2.3c-0.2-0.6-0.4-1-1-1h-4.8c-0.4,0-0.6,0-0.9,0.6
	l-1.2,4c-0.1,0.2,0,0.1-0.2,0.7c-0.6,1.8,1.5,1.3,1.6,1.9c0,0.4-0.5,0.4-0.8,0.4h-1.5c-0.5,0-1,0-1.4,0c-0.1,0-0.1-0.6-0.1-0.7
	c0-0.6,0.6,0.2,1-1.2L180,10.4z M178.6,17c-0.2,0.4,0,0.5,0.3,0.5h4.1c0.5,0,0.5-0.2,0.4-0.6l-2.3-6.6c-0.1-0.3-0.2-0.3-0.4,0
	L178.6,17z M202.6,22.9c0,1.6-0.2,2.3,1.7,2.3c5,0,5.8-2.8,6.1-2.8c0.2,0,0.2,0.3,0.2,0.3c-0.1,1-0.5,1.9-1.1,2.6
	c-0.7,1-1.3,1-2.2,1h-4.4c-0.9,0-2.1,0-3,0c-0.2,0-0.4-0.1-0.4-0.3c0.1-0.3,0.3-0.3,1-0.7c0.6-0.3,0.6-1.1,0.6-2.4V9.1
	c0-1.5-1.8-1.1-1.8-1.8c0-0.3,0.2-0.4,0.5-0.4h4.2c0.3,0,0.6,0.1,0.6,0.4c0.1,0.8-1.8-0.2-1.8,2.3L202.6,22.9z M140.6,8.8v6.6
	c0,0.5,0.5,0.8,0.9,0.8c0,0,0,0,0,0c0.6,0.1,1.2,0.2,1.8,0.1c0.3,0,0.2,0,0.4,0c1.1-0.2,3.2-0.6,3.3-3.9c0.2-3.3-2.3-4.4-4.7-4.4
	c-0.9,0-1.8-0.1-1.8,1.1l0.1,0.4L140.6,8.8z M128.8,17c-0.2,0.4,0,0.5,0.3,0.5h4.6c0.5,0,0.5-0.2,0.4-0.6l-2.5-6.6
	c-0.1-0.3-0.2-0.3-0.4,0L128.8,17z M142.6,16.5c2.3,0.1,3.9,2.7,4.9,4.2c0.7,1.1,1.5,2.2,2.3,3.2c1,1.1,2.4,1.8,3.9,1.9
	c0.1,0,1-0.1,1.1-0.1c2.5-0.6,4-2.4,3.5-5c-0.8-3.7-8.6-2.4-8.6-9.3c0-3.5,2.5-4.9,5-4.9c2.6,0,3.4,1.1,3.7,1
	c0.2-0.1,0.2-0.3,0.5-0.3c0.1,0,0.2,0,0.3,0.4l0.3,3.7c0,0.2,0,0.4-0.2,0.4c-0.2,0-0.4-0.6-0.5-0.8c-0.4-2-2.1-3.4-4.1-3.4
	c-1.4-0.1-3.3,0.6-3.3,3.4c0,4.8,8,3.9,9.1,8.7c0.6,2.6-0.7,6.5-5.6,7l-1.1,0c-2,0.1-3.9-0.6-5.4-2c-1.2-1.4-2.4-3-3.4-4.5
	c-0.7-1-1.8-3.1-3.2-3.1c-0.4-0.1-0.8,0.3-0.9,0.7v5.8c-0.1,2.5,2.5,1.3,2.3,2.4c0,0.2-0.4,0.3-0.5,0.3H138c-0.6,0-1.2,0-1.7,0
	c-0.1,0-0.7,0.1-0.8-0.3c-0.1-1,1.5-0.2,1.4-1.4c-0.2-0.9-0.5-1.7-0.9-2.6l-0.9-2.2c-0.2-0.6-0.4-1-1-1h-5.3c-0.4,0-0.6,0-0.9,0.6
	l-1,3.8c-0.1,0.2-0.2,0.7-0.2,1c-0.4,1.7,1.9,0.9,1.9,1.8c0,0.5-0.3,0.4-0.6,0.4c-1.2,0-1.5,0-2.2,0l-0.8-1.1
	c0.2-0.4,0.2-0.2,0.4-0.7l5-13.9c1.3-3.4,1.5-3.9,1.5-3.9c0.2-0.4,0.4,0.4,0.5,0.7l5,13.9c0.4,1.2,0.9,2.4,1.5,3.6
	c0.3,0.6,0.6,0.9,1,1l-1,0c0.4-0.3,0-0.5,0-2.1V9.7c-0.1-2.5-2.2-1.4-2.2-2.3c0-0.4,0.5-0.4,0.6-0.4c0.7,0,0.8,0,1.3,0h4.6
	c1.3,0,5.4-0.3,5.7,4.7c0.1,2.1-1.1,4-3.1,4.8c-0.9,0.5-2,0.7-3.1,0.6 M103.8,18.5c0,0.2-0.1,0.3-0.3,0.3c0,0-0.1,0-0.1,0
	c-0.3,0-0.4-0.4-0.6-0.7c-0.9-1.9-2.7-4.1-4.9-4c-1.7,0.2-3,1.5-3.2,3.1c-0.2,1.2,0.1,2.4,1.8,4.4c3.6,3.9,7.4,7.6,11.5,11.1
	c0.7-1.1,1.2-2.4,1.4-3.7c0.2-0.8,0-1.7-0.6-2.3c-0.1-0.1-0.3-0.2-0.4-0.2c-0.2-0.1-0.4-0.1-0.6-0.2c-0.3-0.1-0.6-0.1-0.9-0.1
	c0,0-0.7-0.2-0.4-0.1c-0.2-0.1-0.4-0.4-0.4-0.6c0-0.2,0.2-0.4,0.4-0.4c0,0,0.1,0,0.1,0c1.5,0.1,3.1,0.1,3.6,0.1c1.2,0,0.5,0,2,0
	c0.3,0,0.7,0.1,0.7,0.5c-0.1,0.9-1.4,0-1.5,1.5c-0.2,2.4-0.9,4.7-2.1,6.8c1.7,1.6,3.8,2.9,6,3.6c0.3,0.1,0.7,0.2,1,0.3
	c0.7,0.2,1.3,0.3,2,0.2c-0.9,0.8-2.8,1-4.4,0.7c-2.2-0.4-4.3-1.5-5.9-3.1c-2.3,2.6-5.6,4-9,4c-5.3,0-9.9-3.4-10.1-9
	c-0.1-4.1,2.7-7.2,5.9-7.2c-1.8-1.6-2.5-4-1.9-6.3c0.6-2.4,2.7-3.7,5.7-3.5c1.3,0.1,2.6,0.5,3.8,1c0.3,0,0.4-0.4,0.7-0.4
	c0.5,0,0.4,0.7,0.4,1L103.8,18.5z M106.7,34.6c-5.3-4.5-10-9.2-10.8-10.1c-0.1-0.1-0.1-0.1-0.2-0.1l-0.3-0.1c-0.1,0-0.2,0-0.4,0
	c-2.3,0.1-3.9,2.8-4.1,4.6c-0.6,5.7,4.8,8.8,9.4,8.6C102.8,37.4,105.1,36.4,106.7,34.6z M131.8,38.5c-1.2-1.1-1.8-2.6-1.7-4.2
	c0-1.5,0.6-2.9,1.6-3.9c1.2-1.1,2.7-1.7,4.3-1.5c0.7,0,1.4,0.1,2.1,0.2c0.5,0.1,1,0.2,1.5,0.2c0.2,0,0.2,0.1,0.2,0.2
	c0,0.1-0.1,0.3-0.1,0.8c0,0.5,0,1.3-0.1,1.5c0,0.2-0.1,0.3-0.1,0.3c-0.1,0-0.1-0.1-0.1-0.3c0-0.6-0.2-1.1-0.6-1.5
	c-0.8-0.6-1.8-0.9-2.9-0.8c-1.2-0.1-2.4,0.3-3.3,1c-0.9,1-1.4,2.4-1.3,3.7c0,2.9,2.2,5.2,5.1,5.2c0,0,0.1,0,0.1,0
	c0.9,0.1,1.8-0.1,2.5-0.7c0.3-0.3,0.5-0.8,0.5-1.2c0-0.2,0.1-0.2,0.1-0.2c0.1,0,0.1,0.1,0.1,0.2c-0.1,0.6-0.2,1.2-0.3,1.8
	c-0.1,0.3-0.1,0.3-0.4,0.4c-0.8,0.2-1.7,0.4-2.6,0.3C134.8,40.1,133.1,39.5,131.8,38.5z M149.4,30.4c2.8,0,5,1.7,5,4.6
	c0.1,2.7-2.1,4.9-4.7,5c-0.1,0-0.2,0-0.3,0c-2.6,0.1-4.8-1.8-4.9-4.4c0-0.1,0-0.3,0-0.4c0-2.6,2.2-4.8,4.8-4.7
	C149.2,30.4,149.3,30.4,149.4,30.4z M149.6,39.4c1.1,0,3.4-0.6,3.4-4.1c0-2.9-1.8-4.5-3.8-4.5c-2.1,0-3.6,1.3-3.6,4
	C145.7,37.7,147.4,39.4,149.6,39.4z M161.4,36.3c0,1.8,0,2.5,0.2,2.7c0.2,0.2,0.7,0.3,1.7,0.3c0.7,0,1.2,0,1.5-0.4
	c0.2-0.2,0.3-0.4,0.3-0.7c0-0.1,0.1-0.2,0.1-0.2c0.1,0,0.1,0.1,0.1,0.2c0,0.4-0.1,0.8-0.2,1.2c-0.1,0.3-0.1,0.3-0.8,0.3
	c-0.9,0-1.6,0-2.2-0.1s-1,0-1.4,0c-0.2,0-0.4,0-0.5,0c-0.2,0-0.5,0-0.7,0c-0.1,0-0.2,0-0.2-0.1c0-0.1,0-0.1,0.1-0.1c0,0,0,0,0,0
	c0.1,0,0.3,0,0.4,0c0.2-0.1,0.3-0.3,0.3-0.6c0.1-0.9,0.1-1.8,0.1-2.6v-2.1c0-1.9,0-2.2,0-2.6c0-0.4-0.1-0.6-0.5-0.7
	c-0.1,0-0.3,0-0.4,0c0,0-0.1-0.1-0.1-0.1c0-0.1,0.1-0.1,0.2-0.1c0.6,0,1.3,0,1.4,0c0.1,0,1,0,1.4,0c0.1,0,0.2,0,0.2,0.1
	c0,0.1-0.1,0.1-0.1,0.1c-0.1,0-0.3,0-0.4,0c-0.4,0.1-0.4,0.2-0.5,0.7V36.3z M171.9,36.3c0,1.8,0,2.5,0.2,2.7
	c0.2,0.2,0.7,0.3,1.7,0.3c0.7,0,1.2,0,1.5-0.4c0.2-0.2,0.3-0.4,0.3-0.7c0-0.1,0.1-0.2,0.1-0.2c0.1,0,0.1,0.1,0.1,0.2
	c0,0.4-0.1,0.8-0.2,1.2c-0.1,0.3-0.1,0.3-0.8,0.3c-0.9,0-1.6,0-2.2-0.1s-1,0-1.4,0c-0.2,0-0.4,0-0.5,0c-0.2,0-0.5,0-0.7,0
	c-0.1,0-0.2,0-0.2-0.1c0-0.1,0-0.1,0.1-0.1c0,0,0,0,0,0c0.1,0,0.3,0,0.4,0c0.2-0.1,0.3-0.3,0.3-0.6c0.1-0.9,0.1-1.8,0.1-2.6v-2.1
	c0-1.9,0-2.2,0-2.6c0-0.4-0.1-0.6-0.5-0.7c-0.1,0-0.3,0-0.4,0c0,0-0.1-0.1-0.1-0.1c0-0.1,0.1-0.1,0.2-0.1c0.6,0,1.3,0,1.4,0
	c0.1,0,1,0,1.4,0c0.1,0,0.2,0,0.2,0.1c0,0.1-0.1,0.1-0.1,0.1c-0.1,0-0.3,0-0.4,0c-0.4,0.1-0.4,0.2-0.5,0.7c0,0.4,0,0.7,0,2.6
	L171.9,36.3L171.9,36.3z M181.3,34.1c0-1.9,0-2.2,0-2.6c0-0.4-0.1-0.6-0.5-0.7c-0.1,0-0.3,0-0.4,0c0,0-0.1-0.1-0.1-0.1
	c0-0.1,0.1-0.1,0.2-0.1c0.6,0,1.4,0,1.5,0c0.1,0,2.7,0,3,0c0.2,0,0.4,0,0.6-0.1c0.1,0,0.1-0.1,0.2-0.1c0.1,0,0.1,0.1,0.1,0.1
	c-0.1,0.2-0.1,0.4-0.1,0.6c0,0.1-0.1,0.7-0.1,0.8c0,0.1-0.1,0.1-0.1,0.1c-0.1,0-0.1-0.1-0.1-0.2c0-0.2,0-0.3-0.1-0.4
	c-0.1-0.2-0.2-0.3-0.9-0.4c-0.2,0-1.7-0.1-1.8-0.1c-0.1,0-0.1,0.1-0.1,0.1v3.3c0,0.1,0,0.1,0.1,0.1c0.2,0,1.8,0,2.1,0
	c0.2,0,0.4,0,0.6-0.2c0.1-0.1,0.1-0.2,0.2-0.2c0,0,0.1,0,0.1,0.1c0,0.2-0.1,0.4-0.1,0.7c0,0.2-0.1,0.7-0.1,0.8s0,0.2-0.1,0.2
	c-0.1,0-0.1-0.1-0.1-0.1c0-0.1,0-0.3-0.1-0.4c-0.1-0.2-0.2-0.3-0.6-0.4c-0.4-0.1-1.7-0.1-1.9-0.1c-0.1,0-0.1,0.1-0.1,0.1v3.1
	c0,0.8,0.2,1,1.5,1c0.4,0,0.9,0,1.3-0.1c0.3-0.1,0.6-0.5,0.6-0.9c0-0.1,0.1-0.2,0.1-0.2c0.1,0,0.1,0.1,0.1,0.2s-0.1,0.9-0.2,1.2
	c-0.1,0.3-0.2,0.3-0.7,0.3c-0.9,0-1.7,0-2.2-0.1s-0.9,0-1.1,0h-0.6c-0.2,0-0.5,0-0.7,0c-0.1,0-0.2,0-0.2-0.1c0-0.1,0-0.1,0.1-0.1
	c0,0,0,0,0,0c0.1,0,0.3-0.1,0.4-0.1c0.2-0.1,0.3-0.3,0.3-0.6c0.1-0.9,0.1-1.8,0.1-2.6L181.3,34.1L181.3,34.1z M197.9,36.7
	c0-1,0-1.1-0.6-1.2c-0.1,0-0.3,0-0.4,0c-0.1,0-0.1-0.1-0.1-0.1c0-0.1,0.1-0.1,0.2-0.1c0.6,0,1.4,0,1.5,0c0.1,0,0.9,0,1.2,0
	c0.1,0,0.2,0,0.2,0.1c0,0.1-0.1,0.1-0.1,0.1c-0.1,0-0.2,0-0.3,0c-0.3,0.1-0.4,0.2-0.5,0.7v2.6c0,0.6,0,0.6-0.2,0.7
	c-0.8,0.4-1.8,0.6-2.7,0.6c-1.5,0.1-3-0.4-4.2-1.3c-1-0.9-1.5-2.2-1.5-3.5c-0.1-1.6,0.7-3.1,2.1-4c1-0.6,2.2-0.8,3.4-0.8
	c0.6,0,1.3,0.1,1.9,0.2c0.3,0.1,0.7,0.1,1,0.1c0.1,0,0.2,0.1,0.2,0.1c-0.1,0.6-0.1,1.1-0.1,1.7c0,0.2-0.1,0.2-0.1,0.2
	c-0.1,0-0.1-0.1-0.1-0.2c0-0.3-0.1-0.6-0.3-0.8c-0.3-0.5-1.3-0.9-2.9-0.9c-0.9-0.1-1.9,0.2-2.6,0.8c-0.9,0.8-1.3,1.9-1.2,3.1
	c0,1.2,0.5,2.5,1.3,3.4c0.9,0.8,2,1.3,3.2,1.3c0.5,0,0.9-0.1,1.3-0.2c0.2,0,0.3-0.2,0.2-0.4L197.9,36.7L197.9,36.7z M205.8,34.1
	c0-1.9,0-2.2,0-2.6c0-0.4-0.1-0.6-0.5-0.7c-0.1,0-0.3,0-0.4,0c-0.1,0-0.1-0.1-0.1-0.1c0-0.1,0.1-0.1,0.2-0.1c0.6,0,1.4,0,1.5,0
	c0.1,0,2.7,0,3,0c0.2,0,0.4,0,0.6-0.1c0.1,0,0.1-0.1,0.2-0.1s0.1,0.1,0.1,0.1c-0.1,0.2-0.1,0.4-0.1,0.6c0,0.1-0.1,0.7-0.1,0.8
	c0,0.1-0.1,0.1-0.1,0.1c-0.1,0-0.1-0.1-0.1-0.2c0-0.2,0-0.3-0.1-0.4c-0.1-0.2-0.2-0.3-0.9-0.4c-0.2,0-1.7-0.1-1.8-0.1
	c-0.1,0-0.1,0.1-0.1,0.1v3.3c0,0.1,0,0.1,0.1,0.1c0.2,0,1.8,0,2.1,0c0.2,0,0.4,0,0.6-0.2c0.1-0.1,0.1-0.2,0.2-0.2
	c0.1,0,0.1,0,0.1,0.1c0,0.2-0.1,0.4-0.1,0.7c0,0.2-0.1,0.7-0.1,0.8s0,0.2-0.1,0.2c-0.1,0-0.1-0.1-0.1-0.1c0-0.1,0-0.3-0.1-0.4
	c-0.1-0.2-0.2-0.3-0.6-0.4c-0.4-0.1-1.7-0.1-1.9-0.1c-0.1,0-0.1,0.1-0.1,0.1v3.1c0,0.8,0.2,1,1.5,1c0.4,0,0.9,0,1.3-0.1
	c0.3-0.1,0.6-0.5,0.6-0.9c0-0.1,0.1-0.2,0.1-0.2c0.1,0,0.1,0.1,0.1,0.2s-0.1,0.9-0.2,1.2c-0.1,0.3-0.2,0.3-0.7,0.3
	c-0.9,0-1.7,0-2.2-0.1c-0.5,0-0.9,0-1.1,0h-0.6c-0.2,0-0.5,0-0.7,0c-0.1,0-0.2,0-0.2-0.1c0-0.1,0-0.1,0.1-0.1c0,0,0,0,0,0
	c0.1,0,0.3-0.1,0.4-0.1c0.2-0.1,0.3-0.3,0.3-0.6c0.1-0.9,0.1-1.8,0.1-2.6V34.1z"/>
</svg>
