<svg width="256" height="61" viewBox="0 0 256 61" fill="none" xmlns="http://www.w3.org/2000/svg">
<path d="M137.455 27.4518C135.881 28.5402 134.202 29.3695 132.419 29.8878C130.635 30.4061 128.642 30.6652 126.491 30.6652C124.602 30.6652 122.871 30.4061 121.192 29.836C119.514 29.2658 118.097 28.4884 116.786 27.4518C115.317 26.2597 114.268 24.9122 113.534 23.3573C112.852 21.8024 112.484 20.0402 112.484 18.0189C112.484 14.339 113.796 11.3847 116.419 9.10425C119.042 6.82377 122.556 5.73535 126.858 5.73535C128.642 5.73535 130.373 5.94267 131.999 6.40913C133.625 6.8756 135.199 7.54938 136.668 8.43047L134.937 14.1317L134.464 14.0799C134.097 11.7475 133.31 9.98535 132.104 8.79328C130.897 7.60121 129.324 7.03108 127.33 7.03108C124.917 7.03108 122.976 7.96401 121.56 9.88169C120.143 11.7994 119.461 14.4427 119.461 17.8634C119.461 21.4914 120.143 24.3421 121.56 26.3634C122.924 28.3847 124.917 29.3695 127.435 29.3695C129.533 29.3695 131.16 28.6957 132.419 27.4C133.625 26.1043 134.464 24.0311 134.937 21.2323L135.461 21.1805L137.455 27.4518Z" fill="white"/>
<path d="M138.453 18.1743C138.453 16.3603 138.82 14.6499 139.502 13.095C140.237 11.5402 141.286 10.1926 142.65 9.00052C143.909 7.96394 145.325 7.13467 146.899 6.61638C148.473 6.09808 150.204 5.78711 152.04 5.78711C153.981 5.78711 155.764 6.04626 157.286 6.56455C158.859 7.08284 160.223 7.91211 161.482 9.00052C162.899 10.2444 164 11.6438 164.682 13.1469C165.417 14.7017 165.784 16.3603 165.784 18.1225C165.784 19.8847 165.417 21.5432 164.682 23.0981C163.948 24.653 162.846 26.0524 161.43 27.3481C160.223 28.4365 158.859 29.2139 157.233 29.7841C155.607 30.3542 153.928 30.6133 152.092 30.6133C150.256 30.6133 148.473 30.3024 146.846 29.7322C145.22 29.1621 143.751 28.3328 142.492 27.2444C141.181 26.0524 140.132 24.7048 139.45 23.0981C138.82 21.595 138.453 19.9365 138.453 18.1743ZM152.145 29.5249C154.453 29.5249 156.184 28.592 157.286 26.7261C158.387 24.8603 158.964 22.0615 158.964 18.2261C158.964 14.4426 158.387 11.592 157.286 9.77796C156.184 7.96394 154.453 7.03101 152.092 7.03101C149.732 7.03101 148.053 7.96394 146.951 9.77796C145.85 11.592 145.273 14.4426 145.273 18.278C145.273 22.1133 145.85 24.9639 146.951 26.8298C148.105 28.592 149.784 29.5249 152.145 29.5249Z" fill="white"/>
<path d="M166.043 30.147V29.6805C167.04 29.4732 167.722 28.9031 168.089 28.022C168.456 27.1409 168.613 25.0677 168.613 21.8543V9.72625C168.613 8.89698 168.456 8.27503 168.141 7.8604C167.827 7.44577 167.25 7.13479 166.463 6.92747V6.40918C167.25 6.46101 168.089 6.51284 168.928 6.51284C169.768 6.51284 170.659 6.56467 171.551 6.56467C172.495 6.56467 173.387 6.56467 174.279 6.51284C175.171 6.51284 176.063 6.46101 176.954 6.40918V6.92747C176.167 7.08296 175.59 7.34211 175.276 7.80857C174.908 8.27503 174.751 8.89698 174.751 9.77808V21.5433C174.751 24.8604 175.013 26.8817 175.59 27.6592C176.167 28.4366 177.322 28.7994 179.053 28.7994C181.151 28.7994 183.144 28.2293 184.98 27.0891C186.816 25.9488 188.548 24.2384 190.121 22.0098L190.646 22.2171L188.285 30.0433H173.754C173.492 30.0433 173.072 30.0433 172.548 30.0433C172.023 30.0433 171.604 30.0433 171.341 30.0433C170.397 30.0433 169.453 30.0433 168.613 30.0952C167.722 30.0433 166.83 30.0952 166.043 30.147Z" fill="white"/>
<path d="M190.438 30.147V29.6805C191.434 29.4732 192.116 28.9031 192.483 28.022C192.851 27.1409 193.008 25.0677 193.008 21.8543V9.72625C193.008 8.89698 192.851 8.27503 192.536 7.8604C192.221 7.44577 191.644 7.13479 190.857 6.92747V6.40918C191.644 6.46101 192.483 6.51284 193.323 6.51284C194.162 6.51284 195.054 6.56467 195.946 6.56467C196.89 6.56467 197.782 6.56467 198.673 6.51284C199.565 6.51284 200.457 6.46101 201.349 6.40918V6.92747C200.562 7.08296 199.985 7.34211 199.67 7.80857C199.303 8.27503 199.146 8.89698 199.146 9.77808V21.5433C199.146 24.8604 199.408 26.8817 199.985 27.6592C200.562 28.4366 201.716 28.7994 203.447 28.7994C205.546 28.7994 207.539 28.2293 209.375 27.0891C211.211 25.9488 212.942 24.2384 214.516 22.0098L215.04 22.2171L212.732 30.0952H198.201C197.939 30.0952 197.519 30.0952 196.995 30.0952C196.47 30.0952 196.051 30.0952 195.788 30.0952C194.844 30.0952 193.9 30.0952 193.06 30.147C192.116 30.0433 191.224 30.0952 190.438 30.147Z" fill="white"/>
<path d="M223.54 21.8543C223.54 24.9641 223.749 27.0372 224.117 27.9183C224.484 28.8513 225.218 29.4214 226.267 29.6805V30.147C225.48 30.0952 224.641 30.0952 223.749 30.0433C222.858 30.0433 221.704 29.9915 220.287 29.9915C218.923 29.9915 217.822 29.9915 217.035 30.0433C216.248 30.0433 215.461 30.0952 214.727 30.147V29.6805C215.776 29.4732 216.458 28.9031 216.825 28.022C217.192 27.1409 217.402 25.0677 217.402 21.8543V9.72625C217.402 8.89698 217.245 8.27503 216.877 7.8604C216.563 7.44577 215.986 7.13479 215.199 6.92747V6.40918C216.038 6.46101 216.877 6.51284 217.717 6.51284C218.556 6.51284 219.448 6.56467 220.34 6.56467C221.284 6.56467 222.228 6.56467 223.12 6.51284C224.012 6.51284 224.956 6.46101 225.9 6.40918V6.92747C225.113 7.08296 224.484 7.39394 224.169 7.8604C223.802 8.32686 223.644 8.94881 223.644 9.77808V21.8543H223.54Z" fill="white"/>
<path d="M231.878 19.3147C231.878 22.8391 232.14 25.2751 232.717 26.7263C233.294 28.1775 234.291 29.1623 235.708 29.6806V30.1471C234.816 30.0952 234.029 30.0952 233.294 30.0434C232.612 30.0434 231.983 30.0434 231.406 30.0434C230.724 30.0434 230.042 30.0434 229.255 30.0434C228.521 30.0434 227.734 30.0952 226.895 30.1471V29.7324C228.206 29.1623 229.15 28.1257 229.675 26.5708C230.252 25.016 230.514 22.6318 230.514 19.3666V12.1623C230.514 10.2446 230.357 9.00071 229.99 8.32693C229.622 7.65315 228.993 7.18669 228.049 6.87571V6.40925C229.255 6.40925 230.199 6.46108 230.934 6.46108C231.616 6.46108 232.298 6.46108 232.875 6.46108C233.242 6.46108 233.819 6.46108 234.606 6.46108C235.393 6.46108 235.97 6.46108 236.337 6.46108C238.121 8.43059 240.062 10.5038 242.265 12.7324C244.468 14.9611 247.196 17.708 250.501 20.9214V17.1897C250.501 13.3544 250.238 10.8147 249.661 9.51901C249.137 8.2751 248.14 7.34218 246.724 6.82389V6.35742C247.563 6.40925 248.35 6.40925 249.032 6.46108C249.714 6.46108 250.343 6.46108 250.92 6.46108C251.602 6.46108 252.337 6.46108 253.071 6.46108C253.806 6.46108 254.645 6.40925 255.484 6.35742V6.77206C254.12 7.39401 253.124 8.32693 252.599 9.51901C252.075 10.7111 251.812 13.2507 251.812 17.1379V30.4062L251.025 30.6653C247.773 27.141 244.521 23.7202 241.321 20.3513C238.121 16.9824 234.973 13.7172 231.826 10.5038V19.3147H231.878Z" fill="white"/>
<path d="M131.946 52.019C130.74 52.8483 129.428 53.4703 128.012 53.8849C126.596 54.2995 125.074 54.5068 123.396 54.5068C121.927 54.5068 120.563 54.2995 119.251 53.8849C117.94 53.4703 116.838 52.8483 115.842 52.0709C114.688 51.1379 113.848 50.1014 113.324 48.9093C112.799 47.7172 112.484 46.3696 112.484 44.8148C112.484 41.9642 113.534 39.6837 115.579 37.9733C117.625 36.2111 120.353 35.3818 123.71 35.3818C125.127 35.3818 126.438 35.5373 127.697 35.9001C128.956 36.2629 130.215 36.7812 131.369 37.455L130.005 41.8605L129.638 41.8087C129.376 40.0465 128.746 38.6471 127.802 37.766C126.858 36.8331 125.651 36.3666 124.078 36.3666C122.189 36.3666 120.668 37.0922 119.619 38.5952C118.517 40.0465 117.992 42.1196 117.992 44.7629C117.992 47.5617 118.517 49.7385 119.619 51.2934C120.72 52.8483 122.242 53.6257 124.183 53.6257C125.809 53.6257 127.12 53.1074 128.064 52.1227C129.009 51.0861 129.638 49.5312 130.005 47.3544L130.425 47.3026L131.946 52.019Z" fill="white"/>
<path d="M133.047 44.8666C133.047 43.4672 133.309 42.1715 133.886 40.9794C134.463 39.7873 135.25 38.7507 136.352 37.8178C137.296 36.9885 138.398 36.4184 139.657 36.0038C140.916 35.5892 142.227 35.3818 143.696 35.3818C145.217 35.3818 146.581 35.5892 147.788 36.0038C148.994 36.4184 150.096 37.0404 151.093 37.8696C152.194 38.8026 153.034 39.891 153.611 41.0831C154.188 42.2751 154.45 43.519 154.45 44.9184C154.45 46.3178 154.188 47.5617 153.611 48.7538C153.034 49.9459 152.194 51.0343 151.04 52.019C150.096 52.8483 148.994 53.4703 147.788 53.8849C146.529 54.2995 145.217 54.5587 143.801 54.5587C142.332 54.5587 140.968 54.3514 139.709 53.8849C138.45 53.4184 137.296 52.7965 136.352 51.9672C135.303 51.0343 134.516 49.9977 133.991 48.8056C133.362 47.5099 133.047 46.266 133.047 44.8666ZM143.748 53.6257C145.532 53.6257 146.896 52.9001 147.788 51.5007C148.679 50.0495 149.099 47.8727 149.099 44.9703C149.099 42.016 148.679 39.8392 147.788 38.4398C146.896 37.0404 145.584 36.3148 143.748 36.3148C141.912 36.3148 140.601 37.0404 139.709 38.4398C138.87 39.8392 138.398 42.016 138.398 44.9703C138.398 47.9245 138.817 50.1532 139.709 51.5526C140.601 52.9001 141.912 53.6257 143.748 53.6257Z" fill="white"/>
<path d="M154.766 54.0923V53.7295C155.552 53.574 156.077 53.1594 156.339 52.4856C156.602 51.8118 156.759 50.2051 156.759 47.7691V38.4399C156.759 37.8179 156.654 37.2996 156.392 36.9886C156.13 36.6777 155.71 36.4185 155.08 36.263V35.8484C155.71 35.9002 156.339 35.9002 156.969 35.952C157.598 35.952 158.28 36.0039 159.015 36.0039C159.749 36.0039 160.484 36.0039 161.166 35.952C161.847 35.952 162.529 35.9002 163.264 35.8484V36.2112C162.634 36.3149 162.215 36.5222 161.952 36.885C161.69 37.2478 161.533 37.7142 161.533 38.388V47.4581C161.533 49.9978 161.743 51.5527 162.162 52.1746C162.582 52.7447 163.474 53.0557 164.838 53.0557C166.464 53.0557 167.985 52.6411 169.454 51.76C170.923 50.8789 172.234 49.5831 173.441 47.8209L173.86 47.9764L172.024 54.0405H160.693C160.484 54.0405 160.169 54.0405 159.749 54.0405C159.329 54.0405 159.015 54.0405 158.805 54.0405C158.07 54.0405 157.336 54.0405 156.654 54.0923C156.077 54.0405 155.395 54.0405 154.766 54.0923Z" fill="white"/>
<path d="M173.914 54.0923V53.7295C174.701 53.574 175.226 53.1594 175.488 52.4856C175.75 51.8118 175.907 50.2051 175.907 47.7691V38.4399C175.907 37.8179 175.803 37.2996 175.54 36.9886C175.278 36.6777 174.858 36.4185 174.229 36.263V35.8484C174.858 35.9002 175.488 35.9002 176.117 35.952C176.747 35.952 177.429 36.0039 178.163 36.0039C178.898 36.0039 179.632 36.0039 180.314 35.952C180.996 35.952 181.678 35.9002 182.36 35.8484V36.2112C181.73 36.3149 181.311 36.5222 181.048 36.885C180.786 37.2478 180.629 37.7142 180.629 38.388V47.4581C180.629 49.9978 180.839 51.5527 181.311 52.1746C181.73 52.7447 182.622 53.0557 183.986 53.0557C185.612 53.0557 187.134 52.6411 188.602 51.76C190.071 50.8789 191.383 49.5831 192.589 47.8209L193.009 47.9764L191.173 54.0405H179.842C179.632 54.0405 179.317 54.0405 178.898 54.0405C178.478 54.0405 178.163 54.0405 177.953 54.0405C177.219 54.0405 176.485 54.0405 175.803 54.0923C175.226 54.0405 174.544 54.0405 173.914 54.0923Z" fill="white"/>
<path d="M193.059 54.0923V53.7295C193.845 53.574 194.37 53.1594 194.632 52.4338C194.895 51.76 195.052 50.1533 195.052 47.6655V38.4399C195.052 37.8179 194.947 37.2996 194.685 36.9886C194.423 36.6777 194.003 36.4185 193.373 36.263V35.8484C193.426 35.8484 193.478 35.8484 193.531 35.8484C195.472 35.9002 196.941 35.9002 197.937 35.9002H209.635L211.209 40.6167L210.79 40.7203C209.635 39.4246 208.272 38.4398 206.803 37.8179C205.281 37.1959 203.55 36.885 201.557 36.885C201.085 36.885 200.77 36.885 200.56 36.885C200.35 36.885 200.14 36.885 199.931 36.9368V43.9338C200.245 43.9338 200.56 43.9856 200.822 43.9856C201.137 43.9856 201.399 43.9856 201.714 43.9856C203.34 43.9856 204.704 43.7264 205.806 43.2081C206.855 42.6899 207.59 41.9642 207.852 40.9795H208.219V47.9246H207.852C207.537 46.9398 206.855 46.1624 205.806 45.6441C204.757 45.1258 203.393 44.8667 201.662 44.8667C201.19 44.8667 200.822 44.8667 200.613 44.8667C200.35 44.8667 200.14 44.8667 199.931 44.9185V47.4581C199.931 49.9978 200.14 51.5527 200.56 52.1746C200.98 52.7966 201.872 53.0557 203.236 53.0557C204.914 53.0557 206.488 52.6411 207.957 51.8118C209.426 50.9825 210.79 49.6868 212.101 47.9764L212.573 48.1319L210.737 54.0405H199.091C198.881 54.0405 198.567 54.0405 198.147 54.0405C197.727 54.0405 197.413 54.0405 197.203 54.0405C196.468 54.0405 195.734 54.0405 195.052 54.0923C194.37 54.0405 193.688 54.0405 193.059 54.0923Z" fill="white"/>
<path d="M234.606 44.6592V45.022C233.872 45.2294 233.4 45.4367 233.137 45.7477C232.875 46.0586 232.77 46.5251 232.77 47.147V50.205C232.77 50.4641 232.77 50.7751 232.823 51.0342C232.823 51.3452 232.875 51.6562 232.875 51.9153C231.826 52.7964 230.619 53.4184 229.255 53.833C227.891 54.2477 226.37 54.455 224.691 54.455C221.334 54.455 218.606 53.5739 216.613 51.8117C214.567 50.0495 213.57 47.7172 213.57 44.7629C213.57 41.9123 214.619 39.6318 216.665 37.8696C218.764 36.1074 221.492 35.2263 224.901 35.2263C226.37 35.2263 227.839 35.4336 229.255 35.7964C230.672 36.1592 231.983 36.7294 233.137 37.455L231.459 42.0159L231.039 41.9123C230.724 39.9946 230.095 38.5434 229.15 37.6105C228.206 36.6775 226.895 36.2111 225.269 36.2111C223.118 36.2111 221.544 36.9367 220.495 38.3879C219.446 39.8391 218.921 42.0159 218.921 44.8666C218.921 47.8208 219.393 50.0495 220.285 51.4489C221.177 52.8483 222.593 53.5739 224.482 53.5739C225.846 53.5739 226.79 53.2629 227.314 52.5891C227.839 51.9153 228.101 50.6714 228.101 48.8574C228.101 47.3025 227.891 46.2659 227.472 45.7995C227.052 45.333 226.16 45.0739 224.849 44.9702V44.6074C225.636 44.6592 226.423 44.6592 227.262 44.7111C228.101 44.7111 228.888 44.7629 229.727 44.7629C230.462 44.7629 231.249 44.7629 232.088 44.7111C232.823 44.7629 233.714 44.7111 234.606 44.6592Z" fill="white"/>
<path d="M234.973 54.0923V53.7295C235.76 53.574 236.284 53.1594 236.546 52.4338C236.809 51.76 236.966 50.1533 236.966 47.6655V38.4399C236.966 37.8179 236.861 37.2996 236.599 36.9886C236.337 36.6777 235.917 36.4185 235.287 36.263V35.8484C235.34 35.8484 235.392 35.8484 235.445 35.8484C237.386 35.9002 238.855 35.9002 239.851 35.9002H251.549L253.123 40.6167L252.704 40.7203C251.549 39.4246 250.186 38.4398 248.717 37.8179C247.195 37.1959 245.464 36.885 243.471 36.885C242.999 36.885 242.684 36.885 242.422 36.885C242.212 36.885 242.002 36.885 241.792 36.9368V43.9338C242.107 43.9338 242.422 43.9856 242.684 43.9856C242.999 43.9856 243.261 43.9856 243.576 43.9856C245.202 43.9856 246.566 43.7264 247.668 43.2081C248.717 42.6899 249.451 41.9642 249.713 40.9795H250.133V47.9246H249.713C249.399 46.9398 248.717 46.1624 247.668 45.6441C246.618 45.1258 245.254 44.8667 243.523 44.8667C243.051 44.8667 242.684 44.8667 242.474 44.8667C242.212 44.8667 242.002 44.8667 241.792 44.9185V47.4581C241.792 49.9978 242.002 51.5527 242.422 52.1746C242.841 52.7966 243.733 53.0557 245.097 53.0557C246.776 53.0557 248.35 52.6411 249.818 51.8118C251.287 50.9825 252.651 49.6868 253.963 47.9764L254.435 48.1319L252.599 54.0405H240.953C240.743 54.0405 240.428 54.0405 240.009 54.0405C239.589 54.0405 239.274 54.0405 239.064 54.0405C238.33 54.0405 237.596 54.0405 236.914 54.0923C236.284 54.0405 235.602 54.0405 234.973 54.0923Z" fill="white"/>
<path d="M93.7553 13.9762C96.1684 17.2933 97.5323 20.9732 97.5323 24.9122C97.5323 38.5951 80.9555 49.6866 60.5492 49.6866C49.8477 49.6866 40.2478 46.6287 33.4807 41.8086C39.0413 44.2964 45.9658 45.7994 53.5198 45.7994C54.0968 45.7994 54.6738 45.7994 55.2509 45.7476C44.0248 44.4 35.5265 37.8177 35.5265 29.9397C35.5265 21.0769 46.2805 13.8726 59.5 13.8726C72.772 13.8726 83.4735 21.0769 83.4735 29.9397C83.4735 32.4793 82.5817 34.8634 81.0079 37.0403C84.3653 34.0342 86.3587 30.4061 86.3587 26.5189C86.3587 15.8421 71.6179 7.23844 53.4673 7.23844C42.0838 7.23844 32.0118 10.6592 26.1365 15.7903C30.7528 7.96405 41.192 2.10735 53.887 0.552468C52.9952 0.552468 52.1558 0.500639 51.264 0.500639C23.1988 0.44881 0.484375 13.7689 0.484375 30.1988C0.484375 46.6287 23.1988 59.9488 51.264 59.9488C79.2768 59.9488 101.991 46.6287 101.991 30.1988C101.991 24.1866 98.9487 18.6409 93.7553 13.9762Z" fill="white"/>
</svg>
