<svg width="111" height="89" viewBox="0 0 111 89" fill="none" xmlns="http://www.w3.org/2000/svg">
<path d="M81.8621 32.5762C80.9261 28.452 80.9333 24.1885 80.9333 19.8344C80.9333 13.1857 82.0796 6.75693 84.2039 0.679933C84.3708 0.202363 83.8112 -0.205819 83.4192 0.114075C69.393 11.5623 60.6275 27.5672 60.4768 45.3015H60.4697V45.523C60.4697 45.6132 60.4697 45.6951 60.4697 45.7854C60.4697 45.8756 60.4697 45.9659 60.4697 46.0559V88.5449H111V32.5762H81.8621Z" fill="#FFA509"/>
<path d="M21.3924 32.5762C20.4564 28.452 20.4636 24.1885 20.4636 19.8344C20.4636 13.1857 21.6099 6.75693 23.7341 0.679933C23.9011 0.202363 23.3414 -0.205819 22.9495 0.114074C8.92327 11.5623 0.157749 27.5672 0.00703584 45.3015H0V45.523C0 45.6132 0 45.6951 0 45.7854C0 45.8756 0 45.9659 0 46.0559V88.5449H50.5298V32.5762H21.3924Z" fill="#FFA509"/>
</svg>
