<svg xmlns="http://www.w3.org/2000/svg" xmlns:xlink="http://www.w3.org/1999/xlink" width="112.884" height="111.303" viewBox="0 0 112.884 111.303">
  <defs>
    <clipPath id="clip-path">
      <path id="Path_3337" data-name="Path 3337" d="M38.311,0A38.345,38.345,0,1,1,0,38.311,38.427,38.427,0,0,1,38.311,0Z" transform="translate(0 54.228) rotate(-45)" fill="none"/>
    </clipPath>
  </defs>
  <g id="CTA1" transform="translate(0.75 0.75)">
    <g id="Group_1376" data-name="Group 1376" transform="translate(-0.75 -0.75)">
      <g id="Group_3518" data-name="Group 3518">
        <path id="Path_2865" data-name="Path 2865" d="M55.652,110.553a54.9,54.9,0,1,0-54.9-54.9A54.9,54.9,0,0,0,55.652,110.553Z" fill="none" stroke="#ffc300" stroke-linecap="round" stroke-linejoin="round" stroke-width="1.5" stroke-dasharray="1 3" opacity="0"/>
        <path id="Path_2866" data-name="Path 2866" d="M87,98.359H38.484c-4.823,0-8.733-19.513-8.733-43.583s3.91-43.583,8.733-43.583H87c4.823,0,8.733,19.513,8.733,43.583S91.82,98.359,87,98.359" fill="#0b48e4" opacity="0"/>
        <path id="Path_2867" data-name="Path 2867" d="M59.163,97.048A42.278,42.278,0,1,0,16.884,54.769,42.279,42.279,0,0,0,59.163,97.048" fill="#fff"/>
        <path id="Path_2868" data-name="Path 2868" d="M99.213,81.165A50.292,50.292,0,1,1,80.8,12.461c.5.292,1,.6,1.5.9a46.879,46.879,0,1,0,17.757,66.278c-.271.512-.552,1.017-.844,1.522" fill="#ffc300" fill-rule="evenodd"/>
      </g>
    </g>
    <g id="Group_1380" data-name="Group 1380" transform="translate(-0.75 -0.75)">
      <g id="Group_3517" data-name="Group 3517">
        <path id="Path_2881" data-name="Path 2881" d="M97.932,76.485A43.436,43.436,0,0,1,38.6,92.382c-.436-.252-.859-.512-1.283-.776a40.471,40.471,0,1,0-15.339-57.24c.236-.44.472-.877.723-1.313A43.432,43.432,0,1,1,97.932,76.485" fill="#0b48e4" fill-rule="evenodd"/>
      </g>
    </g>
    <g id="Group_2025" data-name="Group 2025" transform="translate(70.876 69.702)">
      <g id="Group_2024" data-name="Group 2024" transform="translate(-67.197 -67.604)" clip-path="url(#clip-path)">
        <path id="Path_3335" data-name="Path 3335" d="M84.053,67.123a.641.641,0,0,1-.7.56c-.561-.14-.842-.84-.982-1.26-1.683-3.64-5.19-7.841-9.4-7.7-3.226.14-5.61,2.66-6.171,6.02-.421,2.24.14,4.621,3.366,8.4C74.8,78.464,82.51,85.884,92.328,94.565a16.452,16.452,0,0,0,2.805-7.141c.14-2.52-.28-3.64-1.122-4.48a1.214,1.214,0,0,0-.842-.42,12.965,12.965,0,0,0-1.262-.42,8.216,8.216,0,0,0-1.823-.28l-.842-.28a1.158,1.158,0,0,1-.7-1.12c0-.42.28-.84.982-.84,2.805.14,5.891.14,7.013.14h3.927c.561,0,1.262.14,1.262.84-.14,1.82-2.665,0-2.945,2.8a29.433,29.433,0,0,1-4.068,13.161,30.9,30.9,0,0,0,11.782,7c1.4.42.982.28,1.964.56,3.226.7,3.927.42,3.927.42-1.683,1.54-5.47,1.96-8.416,1.4a22.319,22.319,0,0,1-11.361-6.02,22.841,22.841,0,0,1-17.392,7.7c-10.239,0-19.216-6.581-19.5-17.362-.281-7.981,5.33-14,11.5-14a11.92,11.92,0,0,1-3.647-12.181C64.7,59.422,68.9,56.9,74.655,57.322c4.488.28,6.873,2.1,7.434,1.96.561,0,.7-.84,1.262-.84.982,0,.842,1.26.842,1.96ZM89.8,98.065C79.564,89.385,70.588,80.284,68.764,78.6a2.025,2.025,0,0,1-.421-.28l-.561-.14h-.7c-4.348.14-7.574,5.461-7.854,8.961-1.122,11.061,9.257,16.941,18.234,16.521,8.275-.56,12.343-5.6,12.343-5.6" transform="translate(-26.722 -27.875)" fill="#0c125d"/>
        <path id="Path_3336" data-name="Path 3336" d="M70.632,104.414a22.3,22.3,0,0,1-14.394-4.97,18.093,18.093,0,0,1-6.517-13.767,15.886,15.886,0,0,1,4.255-11.592,12.592,12.592,0,0,1,5.779-3.479,13.289,13.289,0,0,1-2.138-11.491c1.28-5.271,6.094-8.256,12.557-7.787a19.268,19.268,0,0,1,6.759,1.709l.3.127a2.051,2.051,0,0,1,1.537-.719,2.116,2.116,0,0,1,1.553.628,3.347,3.347,0,0,1,.707,2.535c0,.074,0,.145,0,.21,0,.01,0,.02,0,.029l-.14,6.711a2.052,2.052,0,0,1-2.116,1.953,1.419,1.419,0,0,1-.343-.042,2.918,2.918,0,0,1-1.953-2.1c-1.629-3.483-4.74-6.929-8.035-6.816-2.451.106-4.35,2.007-4.823,4.841,0,.009,0,.019,0,.028-.292,1.553-.124,3.5,3.053,7.225,4.269,4.907,11.434,11.865,20.764,20.164a13.275,13.275,0,0,0,1.713-5.061c.128-2.343-.281-2.958-.711-3.388l-.018-.017a1.385,1.385,0,0,1-.271-.061c-.383-.127-.587-.205-.722-.256a2.821,2.821,0,0,0-.435-.133,1.42,1.42,0,0,1-.2-.067,9.523,9.523,0,0,0-1.284-.17,1.368,1.368,0,0,1-.441-.073l-.782-.26-.034-.012L84.21,78.3l-.085-.028,0,0c-.035-.014-.069-.029-.1-.044h0l-.008,0a1.858,1.858,0,0,1-.206-.113,2.552,2.552,0,0,1-1.269-2.266,2.25,2.25,0,0,1,2.4-2.253l.071,0c2.77.138,5.8.138,6.942.138h3.927c1.976,0,2.678,1.214,2.678,2.253,0,.036,0,.072,0,.108a2.453,2.453,0,0,1-2.389,2.283,2.8,2.8,0,0,0-.455.1,1.293,1.293,0,0,0-.1.453,31.374,31.374,0,0,1-3.688,12.752,30.08,30.08,0,0,0,10.418,5.922c.829.248.991.291,1.215.351.144.039.312.084.669.185a11.913,11.913,0,0,0,3.22.425,1.413,1.413,0,0,1,1.319,2.407c-2.126,1.946-6.457,2.352-9.637,1.746A24.146,24.146,0,0,1,88.07,97.294a24.324,24.324,0,0,1-17.438,7.119M55.21,76.971A13.3,13.3,0,0,0,52.55,85.59a15.349,15.349,0,0,0,5.511,11.692,19.471,19.471,0,0,0,12.571,4.306A21.306,21.306,0,0,0,86.977,94.35a1.417,1.417,0,0,1,2.094,0,21.129,21.129,0,0,0,10.586,5.585,12.12,12.12,0,0,0,1.262.17,32.174,32.174,0,0,1-11.807-7.18,1.411,1.411,0,0,1-.2-1.711,28.059,28.059,0,0,0,3.873-12.58,3.486,3.486,0,0,1,.827-2.082H91.951c-.612,0-1.758,0-3.12-.02l.042.014a2.676,2.676,0,0,1,1.554.815c1.241,1.239,1.685,2.849,1.535,5.558l0,.03a17.784,17.784,0,0,1-3.068,7.858,1.417,1.417,0,0,1-2.087.232C76.769,82.164,69.061,74.711,64.514,69.484c-3.151-3.693-4.253-6.554-3.691-9.573a9.643,9.643,0,0,1,1.1-3.161,7.005,7.005,0,0,0-1.562,3.041,10.466,10.466,0,0,0,3.143,10.736,1.413,1.413,0,0,1,.368,1.786l.225.056a1.415,1.415,0,0,1,.616.332c.026.017.07.043.1.058a1.463,1.463,0,0,1,.321.223c.405.373,1.128,1.077,2.128,2.052,3.525,3.435,10.86,10.582,18.867,17.371a1.411,1.411,0,0,1,.186,1.963c-.182.225-4.557,5.529-13.349,6.124l-.029,0a20.71,20.71,0,0,1-15.679-5.919,14.946,14.946,0,0,1-4.031-12.141,12.652,12.652,0,0,1,1.978-5.46m52.066,21.637h0m0,0h0m-44.757-23.6c-3.408.128-6.228,4.658-6.469,7.661,0,.01,0,.02,0,.03a12.2,12.2,0,0,0,3.268,9.927,17.821,17.821,0,0,0,21.961,2.321,15.337,15.337,0,0,0,1.858-1.388c-7.621-6.544-14.47-13.218-17.846-16.508-.884-.861-1.547-1.508-1.945-1.881-.066-.038-.14-.084-.217-.136l-.1-.026Zm26.062,4.34h0Zm-1.894-.569c.017.008.037.019.06.029l-.06-.029M64.741,72.721l.018.018-.018-.018m9.748-17.627a17.229,17.229,0,0,1,3.628,4.35l.072-3.457a1.888,1.888,0,0,1-.532.117,3.569,3.569,0,0,1-1.845-.473c-.362-.156-.8-.345-1.323-.536" transform="translate(-22.137 -23.29)" fill="#0c125d"/>
      </g>
    </g>
  </g>
</svg>
