<svg xmlns="http://www.w3.org/2000/svg" width="340.988" height="696.785" viewBox="0 0 340.988 696.785">
  <g id="c" transform="translate(0.706 0.57)">
    <g id="Group_64" data-name="Group 64" transform="translate(0 0)">
      <path id="Path_163" data-name="Path 163" d="M116.124,9.2V1.779H111.4V10.1h-4.727V5.373h-4.5v4.5H97.9V2.437H92.95V13.012H74.492V6.506H70v6.506H51.1V6.506H47.042v6.506H29.692V2.156H25.647V9.979H7.03V0H0V192.37H9.905V125.53c4.727-29.034,43.2-47.261,72.238-33.761s27,45.689,27,45.689v53.56s11.026.67,11.026,0V11.209l-4.057-2.023ZM48.333,67.937h-18.9V44.812s.3-7.761,9.455-8.6c9.15.841,9.455,8.6,9.455,8.6V67.937Zm22.443,0h-18.9V44.812s.3-7.761,9.455-8.6c9.15.841,9.455,8.6,9.455,8.6V67.937Zm22.443,0h-18.9V44.812s.3-7.761,9.455-8.6c9.15.841,9.455,8.6,9.455,8.6V67.937Z" transform="translate(219.532 503.251)" fill="none" stroke="#0c125d" stroke-miterlimit="10" stroke-width="1.139"/>
      <path id="Path_164" data-name="Path 164" d="M116.124,9.2V1.779H111.4V10.1h-4.727V5.373h-4.5v4.5H97.9V2.437H92.95V13.012H74.492V6.506H70v6.506H51.1V6.506H47.042v6.506H29.692V2.156H25.647V9.979H7.03V0H0V192.37H9.905V125.53c4.727-29.034,43.2-47.261,72.238-33.761s27,45.689,27,45.689v53.56s11.026.67,11.026,0V11.209l-4.057-2.023ZM48.333,67.937h-18.9V44.812s.3-7.761,9.455-8.6c9.15.841,9.455,8.6,9.455,8.6V67.937Zm22.443,0h-18.9V44.812s.3-7.761,9.455-8.6c9.15.841,9.455,8.6,9.455,8.6V67.937Zm22.443,0h-18.9V44.812s.3-7.761,9.455-8.6c9.15.841,9.455,8.6,9.455,8.6V67.937Z" transform="translate(219.532 503.251)" fill="none" stroke="#0c125d" stroke-linejoin="round" stroke-width="1.139"/>
      <path id="Path_165" data-name="Path 165" d="M213.692,486.8l-7.262-7.443v-6.519h-1.523v-4.171h6.214V455.683h3.826a6.485,6.485,0,0,0-5.495-4.9V439.273h2.863v-3.185l-2.632-2.7V395.65l2.035-2.086v-2.573h-2.985v-3.434h3.351v-3.434s-2.144-3.672-5.263-3.434V368.925h2.632v-4.9H203.47v-18.62s2.863-1.224,2.863-5.882h-3.582V307.918H204.9V293.956h3.582s.244-8.093-5.02-10.041v-3.672h3.582v-2.7l-4.057-2.448v-5.882l2.632-.487v-1.961l-2.632-2.7V260.4h3.826V211.881l2.863-5.4h3.107v-5.632l-2.157-2.448v-27.45h3.046v-4.621L199.29,108.663v-4.146h-5.653v3.7l-9.455,44.06-15.754,7.843V137.274h-3.606L138.92,0H76.039L50.1,137.249H46.493v22.842L30.74,152.248l-9.455-44.06v-3.7H15.632v4.146L1.267,166.31v4.621H4.313v27.45l-2.157,2.448v5.632H5.263l2.875,5.4v48.518h3.826v3.672l-2.632,2.7V268.7l2.632.487v5.882L7.9,277.521v2.7h3.582v3.672c-5.263,1.961-5.02,10.041-5.02,10.041h3.582v13.962H12.2V339.5H8.614c0,4.658,2.875,5.882,2.875,5.882V364H5.507v4.9H8.139v11.764c-3.107-.25-5.263,3.434-5.263,3.434v3.434H6.226v3.434h-3v2.573l2.035,2.086v37.74l-2.632,2.7v3.185H5.495v11.514A6.465,6.465,0,0,0,0,455.658H3.826v12.988h6.214v4.171H8.516v6.519l-7.262,7.443h5.2v14.7c-3.582.487-2.948,6.619-2.948,6.619v84.685c0,11.077,5.848,9.229,5.848,9.229v65.965H46.713v-65.04c0-48.905,60.761-62.742,60.761-62.742s60.761,13.837,60.761,62.742v65.04H205.59V602.011s5.848,1.848,5.848-9.229V508.1s.646-6.119-2.948-6.619v-14.7h5.19ZM16.119,178.649l-5.068,2.922V167l5.068-2.423ZM43.3,181.571H33.92v-15.7H43.3v15.7Zm29.119,0H63.039v-15.7h9.382v15.7ZM97.873,33.682l9.613-9.429,9.613,9.429v2.585h-1.986V56.049h-6.677l-.963-.337-.963.337H99.834V36.267H97.848V33.682Zm3.667,147.89H92.158v-15.7h9.382v15.7ZM97.873,146.99V119.266H93.9V115.02l13.11-11.827.475,1.274.475-1.274,13.11,11.827v4.246H117.1V146.99H97.86Zm24.952,34.581h-9.382v-15.7h9.382v15.7Zm29.119,0h-9.382v-15.7h9.382v15.7Zm29.119,0h-9.382v-15.7h9.382v15.7Zm17.8-17L203.933,167v14.574l-5.068-2.922Z" transform="translate(0 26.488)" fill="none" stroke="#0c125d" stroke-miterlimit="10" stroke-width="1.139"/>
      <path id="Path_166" data-name="Path 166" d="M6.835,1.56a1.555,1.555,0,0,1-1.56,1.56H1.56A1.555,1.555,0,0,1,0,1.56H0A1.555,1.555,0,0,1,1.56,0H5.276a1.555,1.555,0,0,1,1.56,1.56Z" transform="translate(15.644 109.106)" fill="none" stroke="#0c125d" stroke-linejoin="round" stroke-width="1.139"/>
      <path id="Path_167" data-name="Path 167" d="M1.681,23.32a.842.842,0,0,1-.841.841h0A.842.842,0,0,1,0,23.32V.841A.842.842,0,0,1,.841,0h0a.842.842,0,0,1,.841.841Z" transform="translate(77.885 4.983)" fill="none" stroke="#0c125d" stroke-linejoin="round" stroke-width="1.139"/>
      <path id="Path_168" data-name="Path 168" d="M7.286,3.643A3.645,3.645,0,0,1,3.643,7.286h0A3.645,3.645,0,0,1,0,3.643H0A3.645,3.645,0,0,1,3.643,0h0A3.645,3.645,0,0,1,7.286,3.643Z" transform="translate(75.034)" fill="none" stroke="#0c125d" stroke-linejoin="round" stroke-width="1.139"/>
      <path id="Path_169" data-name="Path 169" d="M0,8.772,17.776,0,32.653,8.346h73.566" transform="translate(1.267 184.342)" fill="none" stroke="#0c125d" stroke-linejoin="round" stroke-width="1.139"/>
      <line id="Line_28" data-name="Line 28" y1="32.36" transform="translate(7.566 190.309)" fill="none" stroke="#0c125d" stroke-linejoin="round" stroke-width="1.139"/>
      <line id="Line_29" data-name="Line 29" y2="31.617" transform="translate(19.043 184.496)" fill="none" stroke="#0c125d" stroke-linejoin="round" stroke-width="1.139"/>
      <path id="Path_170" data-name="Path 170" d="M103.172,6.969H22.723L14.73,0,0,8.443" transform="translate(4.313 216.725)" fill="none" stroke="#0c125d" stroke-linejoin="round" stroke-width="1.139"/>
      <path id="Path_171" data-name="Path 171" d="M102.222,7.883H22.455V5.3L17.155,0H4.666L0,4.532" transform="translate(5.263 228.813)" fill="none" stroke="#0c125d" stroke-linejoin="round" stroke-width="1.139"/>
      <path id="Path_172" data-name="Path 172" d="M10.61,0V5.519H5.761V40.73H9.136v8.443H5.761v5.519H3.4V81.924H.022c.341,0,0,65.707,0,65.707s20.14,9.905,28.242,38.026V134.57s-.231-9,1.121-13.5a26.194,26.194,0,0,0,.9-9H28.142V97.994H24.767S22.745,79.426,28.313,67.62V60.188l-1.694-1.681V39.1s-.67-10.978-10.3-14.182c0,0-9.735,3.546-10.576,12.147" transform="translate(17.108 238.909)" fill="none" stroke="#0c125d" stroke-linejoin="round" stroke-width="1.139"/>
      <path id="Path_173" data-name="Path 173" d="M0,0V14.791s1.011,9.625,14.182,12.318c0,0,8.833-.512,12.269-11.977" transform="translate(83.147 237.053)" fill="none" stroke="#0c125d" stroke-linejoin="round" stroke-width="1.139"/>
      <path id="Path_174" data-name="Path 174" d="M0,0V14.962S6.08,26.1,17.045,27.109A20.58,20.58,0,0,0,32.738,14.791" transform="translate(48.297 237.053)" fill="none" stroke="#0c125d" stroke-linejoin="round" stroke-width="1.139"/>
      <path id="Path_175" data-name="Path 175" d="M0,4.045A17.057,17.057,0,0,0,10.576,9.954S21.041,9.613,25.428,0" transform="translate(22.869 252.243)" fill="none" stroke="#0c125d" stroke-linejoin="round" stroke-width="1.139"/>
      <path id="Path_176" data-name="Path 176" d="M57.9,13.67S54.072,2.364,45.628,0c0,0-9.613,4.727-11.136,13.67V32.909H28.754V13.329S25.428,3.874,15.754,0c0,0-11.136,3.2-13.841,13.5V31.227L0,33.347v6.567s5.324,9.479,4.155,31.422H1.864V84.958H.012v4.837s.841,4.727,1.523,7.31,0,10.576,0,19.8v42.534S5.7,136.593,20.554,126.468s35.552-21.492,35.552-25.988v-6.53s-2.473,0-2.473-2.022V89.454a4.521,4.521,0,0,1,1.8-2.254V70.885s-2.364-1.913-2.254-3.485-1.011-19.689,2.254-25.537V18.69H57.91V13.683Z" transform="translate(49.588 266.483)" fill="none" stroke="#0c125d" stroke-linejoin="round" stroke-width="1.139"/>
      <path id="Path_177" data-name="Path 177" d="M4.362,8.8a2.179,2.179,0,0,1-2.181,2.181h0A2.179,2.179,0,0,1,0,8.8V2.181A2.179,2.179,0,0,1,2.181,0h0A2.179,2.179,0,0,1,4.362,2.181Z" transform="translate(80.446 307.219)" fill="none" stroke="#0c125d" stroke-linejoin="round" stroke-width="1.139"/>
      <path id="Path_178" data-name="Path 178" d="M18.227,0V3.387a2.181,2.181,0,1,1-4.362,0V0H0V56.935H32.238V0Z" transform="translate(66.39 313.298)" fill="none" stroke="#0c125d" stroke-linejoin="round" stroke-width="1.139"/>
      <rect id="Rectangle_71" data-name="Rectangle 71" width="7.432" height="14.182" transform="translate(72.138 320.573)" fill="none" stroke="#0c125d" stroke-linejoin="round" stroke-width="1.139"/>
      <rect id="Rectangle_72" data-name="Rectangle 72" width="7.42" height="14.182" transform="translate(84.933 320.573)" fill="none" stroke="#0c125d" stroke-linejoin="round" stroke-width="1.139"/>
      <rect id="Rectangle_73" data-name="Rectangle 73" width="7.432" height="14.182" transform="translate(72.138 336.825)" fill="none" stroke="#0c125d" stroke-linejoin="round" stroke-width="1.139"/>
      <rect id="Rectangle_74" data-name="Rectangle 74" width="7.42" height="14.182" transform="translate(84.933 336.825)" fill="none" stroke="#0c125d" stroke-linejoin="round" stroke-width="1.139"/>
      <rect id="Rectangle_75" data-name="Rectangle 75" width="7.432" height="14.182" transform="translate(72.138 353.077)" fill="none" stroke="#0c125d" stroke-linejoin="round" stroke-width="1.139"/>
      <rect id="Rectangle_76" data-name="Rectangle 76" width="7.42" height="14.182" transform="translate(84.933 353.077)" fill="none" stroke="#0c125d" stroke-linejoin="round" stroke-width="1.139"/>
      <line id="Line_30" data-name="Line 30" x1="42.753" transform="translate(52.519 390.753)" fill="none" stroke="#0c125d" stroke-linejoin="round" stroke-width="1.139"/>
      <line id="Line_31" data-name="Line 31" x1="33.895" transform="translate(11.477 390.753)" fill="none" stroke="#0c125d" stroke-linejoin="round" stroke-width="1.139"/>
      <path id="Path_179" data-name="Path 179" d="M2.7,0V4.447H0V16.375s4.63.037,4.63,6.75H0V26.6H4.63v1.925L1.657,31.5V41.62S5.9,44.995,6.25,48.37,2.23,53.889,2.23,53.889V67.5l4.5,2.023V72.9H2V83.252s9.674-14.4,31.057-13.841V40.828S26.28,32.616,17.569,30.472V24.282H13.926v5.629s-8.894,2.583-11.7,8.553" transform="translate(10.844 392.032)" fill="none" stroke="#0c125d" stroke-linejoin="round" stroke-width="1.139"/>
      <path id="Path_180" data-name="Path 180" d="M6.421,1.523A1.524,1.524,0,0,1,4.9,3.046H1.523A1.524,1.524,0,0,1,0,1.523H0A1.523,1.523,0,0,1,1.523,0H4.9A1.523,1.523,0,0,1,6.421,1.523Z" transform="translate(23.417 412.106)" fill="none" stroke="#0c125d" stroke-linejoin="round" stroke-width="1.139"/>
      <path id="Path_181" data-name="Path 181" d="M3.424,1.413a1.4,1.4,0,0,1-1.4,1.4H1.413A1.412,1.412,0,0,1,0,1.413H0A1.414,1.414,0,0,1,1.413,0h.609a1.4,1.4,0,0,1,1.4,1.413Z" transform="translate(25.001 405.065)" fill="none" stroke="#0c125d" stroke-linejoin="round" stroke-width="1.139"/>
      <path id="Path_182" data-name="Path 182" d="M.975,3.57a.489.489,0,0,1-.487.487h0A.489.489,0,0,1,0,3.57V.487A.489.489,0,0,1,.487,0h0A.489.489,0,0,1,.975.487Z" transform="translate(26.22 407.978)" fill="none" stroke="#0c125d" stroke-linejoin="round" stroke-width="1.139"/>
      <path id="Path_183" data-name="Path 183" d="M6.421,1.523A1.524,1.524,0,0,1,4.9,3.046H1.523A1.524,1.524,0,0,1,0,1.523H0A1.523,1.523,0,0,1,1.523,0H4.9A1.523,1.523,0,0,1,6.421,1.523Z" transform="translate(67.278 412.106)" fill="none" stroke="#0c125d" stroke-linejoin="round" stroke-width="1.139"/>
      <path id="Path_184" data-name="Path 184" d="M3.411,1.413a1.4,1.4,0,0,1-1.4,1.4H1.4A1.4,1.4,0,0,1,0,1.413H0A1.412,1.412,0,0,1,1.4,0H2.01a1.4,1.4,0,0,1,1.4,1.413Z" transform="translate(68.898 405.065)" fill="none" stroke="#0c125d" stroke-linejoin="round" stroke-width="1.139"/>
      <path id="Path_185" data-name="Path 185" d="M.975,3.57a.489.489,0,0,1-.487.487h0A.489.489,0,0,1,0,3.57V.487A.489.489,0,0,1,.487,0h0A.489.489,0,0,1,.975.487Z" transform="translate(70.121 407.978)" fill="none" stroke="#0c125d" stroke-linejoin="round" stroke-width="1.139"/>
      <path id="Path_186" data-name="Path 186" d="M24.587,0H22.114V5.739H19.75V9.284c0-.341,2.412,0,2.412,0v8.443A87.1,87.1,0,0,0,8.6,48.784V37.7s-.67-5.568-4.216-6.859c0,0-3.716,2.364-4.386,8.382V54.011" transform="translate(85.047 374.217)" fill="none" stroke="#0c125d" stroke-linejoin="round" stroke-width="1.139"/>
      <path id="Path_187" data-name="Path 187" d="M0,44.556v-27.9S7.6,6.08,15.193,4.386V0h3.034V3.546S30.886,7.591,33.42,18.909V63.977S28.193,47.273,0,44.568Z" transform="translate(53.576 417.344)" fill="none" stroke="#0c125d" stroke-linejoin="round" stroke-width="1.139"/>
      <path id="Path_188" data-name="Path 188" d="M70.361,38.147s4.4-5.739-.5-9.284V20.932S65.695,2.522,41.169,0V6.409H31.007V0C6.481,2.51,2.314,20.932,2.314,20.932v7.932c-4.9,3.545-.5,9.284-.5,9.284V47.6L.133,49.283V53l1.681,1.681v5.227h29.2V45.9l-3.034-7.091V35.93h2.7V24.794h1.852V21.249H30.008c-1.011-3.887,1.352-5.227,1.352-5.227h2.364V10.454L36.1,9.272l2.376,1.182v5.568H40.84s2.364,1.352,1.352,5.227H39.658v3.546H41.51V35.93h2.7v2.875L41.181,45.9V59.908h29.2V54.681L72.067,53V49.283L70.385,47.6V38.147Z" transform="translate(11.38 468.891)" fill="none" stroke="#0c125d" stroke-linejoin="round" stroke-width="1.139"/>
      <line id="Line_32" data-name="Line 32" x2="15.9" transform="translate(39.354 507.58)" fill="none" stroke="#0c125d" stroke-linejoin="round" stroke-width="1.139"/>
      <path id="Path_189" data-name="Path 189" d="M0,72.908S4.959,14.182,74.041,0" transform="translate(33.445 555.873)" fill="none" stroke="#0c125d" stroke-linejoin="round" stroke-width="1.139"/>
      <line id="Line_33" data-name="Line 33" x2="96.642" transform="translate(10.844 550.785)" fill="none" stroke="#0c125d" stroke-linejoin="round" stroke-width="1.139"/>
      <path id="Path_190" data-name="Path 190" d="M97.495,0H80.34a5.6,5.6,0,0,0-3.2,6.981c1.462,5.178,3.716,9.784,0,11.867H42.875s-2.327,3.375-5.385,3.546-4.91-3.546-4.91-3.546S0,17.837,0,18.848V110.5" transform="translate(9.991 518.286)" fill="none" stroke="#0c125d" stroke-linejoin="round" stroke-width="1.139"/>
      <path id="Path_191" data-name="Path 191" d="M13.731,0H3.826V5.4A5.727,5.727,0,0,0,0,10.746C0,14.864,2.023,14.4,3.375,15.3V25.878s0,4.277,5.178,5.958" transform="translate(96.101 518.782)" fill="none" stroke="#0c125d" stroke-linejoin="round" stroke-width="1.139"/>
      <path id="Path_192" data-name="Path 192" d="M0,1.56a1.555,1.555,0,0,0,1.56,1.56H5.276a1.555,1.555,0,0,0,1.56-1.56h0A1.555,1.555,0,0,0,5.276,0H1.56A1.555,1.555,0,0,0,0,1.56Z" transform="translate(197.208 109.106)" fill="none" stroke="#0c125d" stroke-linejoin="round" stroke-width="1.139"/>
      <path id="Path_193" data-name="Path 193" d="M0,23.32a.842.842,0,0,0,.841.841h0a.842.842,0,0,0,.841-.841V.841A.842.842,0,0,0,.841,0h0A.842.842,0,0,0,0,.841Z" transform="translate(140.548 4.983)" fill="none" stroke="#0c125d" stroke-linejoin="round" stroke-width="1.139"/>
      <path id="Path_194" data-name="Path 194" d="M0,3.643A3.645,3.645,0,0,0,3.643,7.286h0A3.645,3.645,0,0,0,7.286,3.643h0A3.645,3.645,0,0,0,3.643,0h0A3.645,3.645,0,0,0,0,3.643Z" transform="translate(137.734)" fill="none" stroke="#0c125d" stroke-linejoin="round" stroke-width="1.139"/>
      <path id="Path_195" data-name="Path 195" d="M213.692,486.8l-7.262-7.443v-6.519h-1.523v-4.171h6.214V455.683h3.826a6.485,6.485,0,0,0-5.495-4.9V439.273h2.863v-3.185l-2.632-2.7V395.65l2.035-2.086v-2.573h-2.985v-3.434h3.351v-3.434s-2.144-3.672-5.263-3.434V368.925h2.632v-4.9H203.47v-18.62s2.863-1.224,2.863-5.882h-3.582V307.918H204.9V293.956h3.582s.244-8.093-5.02-10.041v-3.672h3.582v-2.7l-4.057-2.448v-5.882l2.632-.487v-1.961l-2.632-2.7V260.4h3.826V211.881l2.863-5.4h3.107v-5.632l-2.157-2.448v-27.45h3.046v-4.621L199.29,108.663v-4.146h-5.653v3.7l-9.455,44.06-15.754,7.843V137.274h-3.606L138.92,0H76.039L50.1,137.249H46.493v22.842L30.74,152.248l-9.455-44.06v-3.7H15.632v4.146L1.267,166.31v4.621H4.313v27.45l-2.157,2.448v5.632H5.263l2.875,5.4v48.518h3.826v3.672l-2.632,2.7V268.7l2.632.487v5.882L7.9,277.521v2.7h3.582v3.672c-5.263,1.961-5.02,10.041-5.02,10.041h3.582v13.962H12.2V339.5H8.614c0,4.658,2.875,5.882,2.875,5.882V364H5.507v4.9H8.139v11.764c-3.107-.25-5.263,3.434-5.263,3.434v3.434H6.226v3.434h-3v2.573l2.035,2.086v37.74l-2.632,2.7v3.185H5.495v11.514A6.465,6.465,0,0,0,0,455.658H3.826v12.988h6.214v4.171H8.516v6.519l-7.262,7.443h5.2v14.7c-3.582.487-2.948,6.619-2.948,6.619v84.685c0,11.077,5.848,9.229,5.848,9.229v65.965H46.713v-65.04c0-48.905,60.761-62.742,60.761-62.742s60.761,13.837,60.761,62.742v65.04H205.59V602.011s5.848,1.848,5.848-9.229V508.1s.646-6.119-2.948-6.619v-14.7h5.19ZM16.119,178.649l-5.068,2.922V167l5.068-2.423ZM43.3,181.571H33.92v-15.7H43.3v15.7Zm29.119,0H63.039v-15.7h9.382v15.7ZM97.873,33.682l9.613-9.429,9.613,9.429v2.585h-1.986V56.049h-6.677l-.963-.337-.963.337H99.834V36.267H97.848V33.682Zm3.667,147.89H92.158v-15.7h9.382v15.7ZM97.873,146.99V119.266H93.9V115.02l13.11-11.827.475,1.274.475-1.274,13.11,11.827v4.246H117.1V146.99H97.86Zm24.952,34.581h-9.382v-15.7h9.382v15.7Zm29.119,0h-9.382v-15.7h9.382v15.7Zm29.119,0h-9.382v-15.7h9.382v15.7Zm17.8-17L203.933,167v14.574l-5.068-2.922Z" transform="translate(0 26.488)" fill="none" stroke="#0c125d" stroke-linejoin="round" stroke-width="1.139"/>
      <path id="Path_196" data-name="Path 196" d="M106.206,8.772,88.43,0,73.566,8.346H0" transform="translate(111.279 184.342)" fill="none" stroke="#0c125d" stroke-linejoin="round" stroke-width="1.139"/>
      <line id="Line_34" data-name="Line 34" y1="32.36" transform="translate(212.369 190.309)" fill="none" stroke="#0c125d" stroke-linejoin="round" stroke-width="1.139"/>
      <line id="Line_35" data-name="Line 35" y2="31.617" transform="translate(200.617 184.496)" fill="none" stroke="#0c125d" stroke-linejoin="round" stroke-width="1.139"/>
      <path id="Path_197" data-name="Path 197" d="M0,6.969H80.45L88.43,0l14.742,8.443" transform="translate(111.229 216.725)" fill="none" stroke="#0c125d" stroke-linejoin="round" stroke-width="1.139"/>
      <path id="Path_198" data-name="Path 198" d="M0,7.883H79.755V5.3l5.3-5.3H97.544l4.666,4.532" transform="translate(111.213 228.813)" fill="none" stroke="#0c125d" stroke-linejoin="round" stroke-width="1.139"/>
      <path id="Path_199" data-name="Path 199" d="M19.749,0V5.519H24.6V40.73H21.223v8.443H24.6v5.519h2.364V81.924h3.375c-.341,0,0,65.707,0,65.707S10.2,157.537,2.095,185.657V134.57s.231-9-1.121-13.5a26.194,26.194,0,0,1-.9-9H2.2V97.994H5.579S7.6,79.426,2.034,67.62V60.188l1.681-1.681V39.1s.67-10.978,10.3-14.182c0,0,9.735,3.546,10.576,12.147" transform="translate(171.916 238.909)" fill="none" stroke="#0c125d" stroke-linejoin="round" stroke-width="1.139"/>
      <path id="Path_200" data-name="Path 200" d="M26.451,0V14.791S25.44,24.416,12.269,27.109c0,0-8.833-.512-12.269-11.977" transform="translate(110.276 237.053)" fill="none" stroke="#0c125d" stroke-linejoin="round" stroke-width="1.139"/>
      <path id="Path_201" data-name="Path 201" d="M32.738,0V14.962S26.658,26.1,15.693,27.109A20.58,20.58,0,0,1,0,14.791" transform="translate(137.49 237.053)" fill="none" stroke="#0c125d" stroke-linejoin="round" stroke-width="1.139"/>
      <path id="Path_202" data-name="Path 202" d="M25.428,4.045A17.057,17.057,0,0,1,14.852,9.954S4.386,9.613,0,0" transform="translate(170.993 252.243)" fill="none" stroke="#0c125d" stroke-linejoin="round" stroke-width="1.139"/>
      <path id="Path_203" data-name="Path 203" d="M.012,13.67S3.838,2.364,12.281,0c0,0,9.625,4.727,11.136,13.67V32.909h5.739V13.329S32.494,3.874,42.156,0c0,0,11.136,3.2,13.841,13.5V31.227l1.913,2.12v6.567s-5.324,9.479-4.155,31.422h2.291V84.958H57.9v4.837s-.841,4.727-1.523,7.31,0,10.576,0,19.8v42.534s-4.167-22.845-19.019-32.969S1.8,104.976,1.8,100.48v-6.53s2.473,0,2.473-2.022V89.454a4.521,4.521,0,0,0-1.8-2.254V70.885S4.837,68.973,4.727,67.4,5.739,47.712,2.473,41.864V18.69H0V13.683Z" transform="translate(110.597 266.483)" fill="none" stroke="#0c125d" stroke-linejoin="round" stroke-width="1.139"/>
      <path id="Path_204" data-name="Path 204" d="M0,8.8a2.179,2.179,0,0,0,2.181,2.181h0A2.179,2.179,0,0,0,4.362,8.8V2.181A2.179,2.179,0,0,0,2.181,0h0A2.179,2.179,0,0,0,0,2.181Z" transform="translate(135.284 307.219)" fill="none" stroke="#0c125d" stroke-linejoin="round" stroke-width="1.139"/>
      <path id="Path_205" data-name="Path 205" d="M14.011,0V3.387a2.181,2.181,0,1,0,4.362,0V0H32.238V56.935H0V0Z" transform="translate(121.199 313.298)" fill="none" stroke="#0c125d" stroke-linejoin="round" stroke-width="1.139"/>
      <rect id="Rectangle_77" data-name="Rectangle 77" width="7.42" height="14.182" transform="translate(140.494 320.573)" fill="none" stroke="#0c125d" stroke-linejoin="round" stroke-width="1.139"/>
      <rect id="Rectangle_78" data-name="Rectangle 78" width="7.432" height="14.182" transform="translate(127.7 320.573)" fill="none" stroke="#0c125d" stroke-linejoin="round" stroke-width="1.139"/>
      <rect id="Rectangle_79" data-name="Rectangle 79" width="7.42" height="14.182" transform="translate(140.494 336.825)" fill="none" stroke="#0c125d" stroke-linejoin="round" stroke-width="1.139"/>
      <rect id="Rectangle_80" data-name="Rectangle 80" width="7.432" height="14.182" transform="translate(127.7 336.825)" fill="none" stroke="#0c125d" stroke-linejoin="round" stroke-width="1.139"/>
      <rect id="Rectangle_81" data-name="Rectangle 81" width="7.42" height="14.182" transform="translate(140.494 353.077)" fill="none" stroke="#0c125d" stroke-linejoin="round" stroke-width="1.139"/>
      <rect id="Rectangle_82" data-name="Rectangle 82" width="7.432" height="14.182" transform="translate(127.7 353.077)" fill="none" stroke="#0c125d" stroke-linejoin="round" stroke-width="1.139"/>
      <line id="Line_36" data-name="Line 36" x2="42.753" transform="translate(124.43 390.753)" fill="none" stroke="#0c125d" stroke-linejoin="round" stroke-width="1.139"/>
      <line id="Line_37" data-name="Line 37" x2="33.895" transform="translate(174.119 390.753)" fill="none" stroke="#0c125d" stroke-linejoin="round" stroke-width="1.139"/>
      <path id="Path_206" data-name="Path 206" d="M30.35,0V4.447h2.7V16.375s-4.63.037-4.63,6.75h4.63V26.6h-4.63v1.925L31.4,31.5V41.62s-4.24,3.375-4.605,6.75,4.033,5.519,4.033,5.519V67.5l-4.5,2.023V72.9h4.727V83.252S21.383,68.851,0,69.411V40.828s6.774-8.212,15.486-10.356V24.282h3.643v5.629s8.882,2.583,11.7,8.553" transform="translate(175.619 392.032)" fill="none" stroke="#0c125d" stroke-linejoin="round" stroke-width="1.139"/>
      <path id="Path_207" data-name="Path 207" d="M0,1.523A1.524,1.524,0,0,0,1.523,3.046H4.9A1.524,1.524,0,0,0,6.421,1.523h0A1.524,1.524,0,0,0,4.9,0H1.523A1.523,1.523,0,0,0,0,1.523Z" transform="translate(189.65 412.106)" fill="none" stroke="#0c125d" stroke-linejoin="round" stroke-width="1.139"/>
      <path id="Path_208" data-name="Path 208" d="M0,1.413a1.4,1.4,0,0,0,1.4,1.4H2.01a1.4,1.4,0,0,0,1.4-1.4h0A1.412,1.412,0,0,0,2.01,0H1.4A1.4,1.4,0,0,0,0,1.413Z" transform="translate(191.056 405.065)" fill="none" stroke="#0c125d" stroke-linejoin="round" stroke-width="1.139"/>
      <path id="Path_209" data-name="Path 209" d="M0,3.57a.489.489,0,0,0,.487.487h0A.489.489,0,0,0,.975,3.57V.487A.489.489,0,0,0,.487,0h0A.489.489,0,0,0,0,.487Z" transform="translate(192.283 407.978)" fill="none" stroke="#0c125d" stroke-linejoin="round" stroke-width="1.139"/>
      <path id="Path_210" data-name="Path 210" d="M0,1.523A1.523,1.523,0,0,0,1.523,3.046H4.9A1.523,1.523,0,0,0,6.421,1.523h0A1.523,1.523,0,0,0,4.9,0H1.523A1.523,1.523,0,0,0,0,1.523Z" transform="translate(146.363 412.106)" fill="none" stroke="#0c125d" stroke-linejoin="round" stroke-width="1.139"/>
      <path id="Path_211" data-name="Path 211" d="M0,1.413a1.4,1.4,0,0,0,1.4,1.4H2.01a1.412,1.412,0,0,0,1.413-1.4h0A1.414,1.414,0,0,0,2.01,0H1.4A1.4,1.4,0,0,0,0,1.413Z" transform="translate(147.779 405.065)" fill="none" stroke="#0c125d" stroke-linejoin="round" stroke-width="1.139"/>
      <path id="Path_212" data-name="Path 212" d="M0,3.57a.489.489,0,0,0,.487.487h0A.489.489,0,0,0,.975,3.57V.487A.489.489,0,0,0,.487,0h0A.489.489,0,0,0,0,.487Z" transform="translate(149.013 407.978)" fill="none" stroke="#0c125d" stroke-linejoin="round" stroke-width="1.139"/>
      <path id="Path_213" data-name="Path 213" d="M0,0H2.473V5.739H4.837V9.284c0-.341-2.412,0-2.412,0v8.443A87.1,87.1,0,0,1,15.985,48.784V37.7s.67-5.568,4.216-6.859c0,0,3.716,2.364,4.386,8.382V54.011" transform="translate(110.271 374.217)" fill="none" stroke="#0c125d" stroke-linejoin="round" stroke-width="1.139"/>
      <path id="Path_214" data-name="Path 214" d="M33.42,44.556v-27.9S25.83,6.08,18.227,4.386V0H15.193V3.546S2.534,7.591,0,18.909V63.977s5.227-16.7,33.42-19.409Z" transform="translate(132.82 417.344)" fill="none" stroke="#0c125d" stroke-linejoin="round" stroke-width="1.139"/>
      <path id="Path_215" data-name="Path 215" d="M1.815,38.147s-4.4-5.739.5-9.284V20.932S6.481,2.522,31.007,0V6.409H41.168V0C65.695,2.51,69.861,20.932,69.861,20.932v7.932c4.9,3.545.5,9.284.5,9.284V47.6l1.681,1.681V53l-1.681,1.681v5.227H41.169V45.9L44.2,38.805V35.93H41.5V24.794H39.646V21.249H42.18c1.011-3.887-1.352-5.227-1.352-5.227H38.464V10.454L36.088,9.272l-2.376,1.182v5.568H31.348S28.985,17.374,30,21.249H32.53v3.546H30.678V35.93h-2.7v2.875L31.007,45.9V59.908H1.815V54.681L.133,53V49.283L1.815,47.6Z" transform="translate(135.433 468.891)" fill="none" stroke="#0c125d" stroke-linejoin="round" stroke-width="1.139"/>
      <line id="Line_38" data-name="Line 38" x1="15.888" transform="translate(163.743 507.58)" fill="none" stroke="#0c125d" stroke-linejoin="round" stroke-width="1.139"/>
      <path id="Path_216" data-name="Path 216" d="M74.041,72.908S69.094,14.182,0,0" transform="translate(110.793 555.873)" fill="none" stroke="#0c125d" stroke-linejoin="round" stroke-width="1.139"/>
      <line id="Line_39" data-name="Line 39" x1="96.63" transform="translate(111.125 550.785)" fill="none" stroke="#0c125d" stroke-linejoin="round" stroke-width="1.139"/>
      <g id="Group_62" data-name="Group 62" transform="translate(92.736 397.88)">
        <path id="Path_217" data-name="Path 217" d="M0,0V60.761H34.322V0H0Z" transform="translate(0 50.855)" fill="none" stroke="#0c125d" stroke-linejoin="round" stroke-width="1.139"/>
        <path id="Path_218" data-name="Path 218" d="M17.167,0,0,36.454v8.1H34.322v-8.1Z" fill="none" stroke="#0c125d" stroke-linejoin="round" stroke-width="1.139"/>
      </g>
      <path id="Path_219" data-name="Path 219" d="M0,0H17.155a5.6,5.6,0,0,1,3.2,6.981c-1.462,5.178-3.716,9.784,0,11.867H54.62s2.327,3.375,5.385,3.546,4.91-3.546,4.91-3.546,32.58-1.011,32.58,0V110.5" transform="translate(111.138 518.286)" fill="none" stroke="#0c125d" stroke-linejoin="round" stroke-width="1.139"/>
      <path id="Path_220" data-name="Path 220" d="M0,0H9.905V5.4a5.727,5.727,0,0,1,3.826,5.349c0,4.118-2.023,3.655-3.375,4.557V25.878s0,4.277-5.178,5.958" transform="translate(110.176 518.782)" fill="none" stroke="#0c125d" stroke-linejoin="round" stroke-width="1.139"/>
      <g id="Group_63" data-name="Group 63" transform="translate(97.648 453.887)">
        <rect id="Rectangle_83" data-name="Rectangle 83" width="8.127" height="14.633" fill="none" stroke="#0c125d" stroke-linejoin="round" stroke-width="1.139"/>
        <rect id="Rectangle_84" data-name="Rectangle 84" width="8.127" height="14.633" transform="translate(15.084)" fill="none" stroke="#0c125d" stroke-linejoin="round" stroke-width="1.139"/>
        <rect id="Rectangle_85" data-name="Rectangle 85" width="8.127" height="14.633" transform="translate(0 18.629)" fill="none" stroke="#0c125d" stroke-linejoin="round" stroke-width="1.139"/>
        <rect id="Rectangle_86" data-name="Rectangle 86" width="8.127" height="14.633" transform="translate(15.084 18.629)" fill="none" stroke="#0c125d" stroke-linejoin="round" stroke-width="1.139"/>
        <rect id="Rectangle_87" data-name="Rectangle 87" width="8.127" height="14.633" transform="translate(0 37.258)" fill="none" stroke="#0c125d" stroke-linejoin="round" stroke-width="1.139"/>
        <rect id="Rectangle_88" data-name="Rectangle 88" width="8.127" height="14.633" transform="translate(15.084 37.258)" fill="none" stroke="#0c125d" stroke-linejoin="round" stroke-width="1.139"/>
      </g>
      <rect id="Rectangle_89" data-name="Rectangle 89" width="2.096" height="16.826" transform="translate(17.472 111.604)" fill="none" stroke="#0c125d" stroke-linejoin="round" stroke-width="1.139"/>
      <rect id="Rectangle_90" data-name="Rectangle 90" width="2.473" height="16.204" transform="translate(199.466 112.225)" fill="none" stroke="#0c125d" stroke-linejoin="round" stroke-width="1.139"/>
      <line id="Line_40" data-name="Line 40" y2="16.485" transform="translate(110.065 236.96)" fill="none" stroke="#0c125d" stroke-linejoin="round" stroke-width="1.139"/>
      <path id="Path_221" data-name="Path 221" d="M18.324,6.36c0,3.509-4.094,6.36-9.162,6.36S0,9.869,0,6.36,4.094,0,9.162,0,18.324,2.851,18.324,6.36Z" transform="translate(102.582 223.897)" fill="none" stroke="#0c125d" stroke-linejoin="round" stroke-width="1.139"/>
      <path id="Path_222" data-name="Path 222" d="M7.018,0V9.979H25.635V2.157H29.68V13.012h17.35V6.506h4.057v6.506h18.9V6.506h4.5v6.506H92.938V2.437h4.947V9.869h4.276v-4.5h4.5V10.1h4.727V1.779h4.727V9.2l4.057,2.022V191.03c0,.67-11.026,0-11.026,0V137.47s2.023-32.177-27-45.689-67.51,4.727-72.238,33.761v66.84H0V.012H7.03Z" transform="translate(219.544 503.263)" fill="none" stroke="#0c125d" stroke-linejoin="round" stroke-width="1.139"/>
      <path id="Path_223" data-name="Path 223" d="M0,4.216H12.05v8.273h8.431V5.568h5.068V0H37.027V3.2h3.716V0h8.431V3.034h3.2V0H60.09V2.693h3.935V0h6.92V3.034h3.716V0h6.92V3.034h3.375V0H96.264V4.9h4.216v7.591h7.932V4.216h11.77" transform="translate(219.532 528.335)" fill="none" stroke="#0c125d" stroke-linejoin="round" stroke-width="1.139"/>
      <rect id="Rectangle_91" data-name="Rectangle 91" width="2.705" height="6.409" transform="translate(228.507 514.906)" fill="none" stroke="#0c125d" stroke-linejoin="round" stroke-width="1.139"/>
      <rect id="Rectangle_92" data-name="Rectangle 92" width="2.705" height="6.409" transform="translate(236.282 514.906)" fill="none" stroke="#0c125d" stroke-linejoin="round" stroke-width="1.139"/>
      <rect id="Rectangle_93" data-name="Rectangle 93" width="2.705" height="6.409" transform="translate(320.524 514.906)" fill="none" stroke="#0c125d" stroke-linejoin="round" stroke-width="1.139"/>
      <rect id="Rectangle_94" data-name="Rectangle 94" width="2.705" height="6.409" transform="translate(328.114 514.906)" fill="none" stroke="#0c125d" stroke-linejoin="round" stroke-width="1.139"/>
      <rect id="Rectangle_95" data-name="Rectangle 95" width="2.705" height="6.409" transform="translate(249.072 514.906)" fill="none" stroke="#0c125d" stroke-linejoin="round" stroke-width="1.139"/>
      <rect id="Rectangle_96" data-name="Rectangle 96" width="2.705" height="6.409" transform="translate(258.755 514.906)" fill="none" stroke="#0c125d" stroke-linejoin="round" stroke-width="1.139"/>
      <rect id="Rectangle_97" data-name="Rectangle 97" width="2.705" height="6.409" transform="translate(268.439 514.906)" fill="none" stroke="#0c125d" stroke-linejoin="round" stroke-width="1.139"/>
      <rect id="Rectangle_98" data-name="Rectangle 98" width="2.705" height="6.409" transform="translate(279.513 514.906)" fill="none" stroke="#0c125d" stroke-linejoin="round" stroke-width="1.139"/>
      <rect id="Rectangle_99" data-name="Rectangle 99" width="2.705" height="6.409" transform="translate(288.955 514.906)" fill="none" stroke="#0c125d" stroke-linejoin="round" stroke-width="1.139"/>
      <rect id="Rectangle_100" data-name="Rectangle 100" width="2.705" height="6.409" transform="translate(298.41 514.906)" fill="none" stroke="#0c125d" stroke-linejoin="round" stroke-width="1.139"/>
      <rect id="Rectangle_101" data-name="Rectangle 101" width="2.705" height="6.409" transform="translate(307.865 514.906)" fill="none" stroke="#0c125d" stroke-linejoin="round" stroke-width="1.139"/>
      <path id="Path_224" data-name="Path 224" d="M0,33.762S16.2.232,60.078,0s60.091,42.534,60.091,42.534" transform="translate(219.532 582.433)" fill="none" stroke="#0c125d" stroke-linejoin="round" stroke-width="1.139"/>
    </g>
  </g>
</svg>
