<svg xmlns="http://www.w3.org/2000/svg" xmlns:xlink="http://www.w3.org/1999/xlink" width="993" height="753.828" viewBox="0 0 993 753.828">
  <defs>
    <clipPath id="clip-path">
      <rect id="Rectangle_1450" data-name="Rectangle 1450" width="993" height="753.828" fill="none" stroke="#dcdbe3" stroke-width="1"/>
    </clipPath>
  </defs>
  <g id="Group_1170" data-name="Group 1170" clip-path="url(#clip-path)">
    <path id="Path_263" data-name="Path 263" d="M971.945,270.713V264h-8.308V253.459h-4.476v-6.714s3.517-1.917,5.432-10.541a80.265,80.265,0,0,0,1.919-15.659s-5.753-7.668-14.382-8.306v-4.8s6.076-3.512,4.477-7.348a64.4,64.4,0,0,0-4.477-8.3s7.038-4.8,6.392-7.668-3.2-6.4-6.392-4.8-2.554,8.95-6.069,8.95-11.823,1.6-12.784,9.588-2.874,26.2-6.387,27.8a10.214,10.214,0,0,1-7.351,0V236.2h-5.753V218.947s13.739-21.73,11.5-25.56S905.8,182.839,905.8,182.839s5.425-8.631,2.234-13.742-2.234-11.5-2.234-11.5,7.668-2.877,6.7-7.349-10.539-7.668-14.7,3.834-8.624,23.643-10.223,24.287-19.814,0-19.814,0v44.094H803.546V193.387H767.758v28.756H703.532V192.424H681.479V152.8H659.751V92.408s4.792-5.114,3.834-11.183S657.511,72.6,654,75.151a9.575,9.575,0,0,0-3.834,6.4h-14.7V71.959L624.281,42.881v-14.7h6.069V13.8H620.125V7.089H507.967L501.256.375H491.2l-6.709,6.714H372.324V13.8H362.1V28.179h6.069v14.7L356.986,71.959v9.588h-14.7a9.575,9.575,0,0,0-3.834-6.4c-3.515-2.552-8.628,0-9.586,6.074S332.7,92.408,332.7,92.408V152.8H310.968v39.622H288.924v29.719H224.693V193.387H188.9v29.074H124.677V178.367s-18.212.638-19.811,0S98.8,165.583,94.638,154.08s-13.739-8.31-14.7-3.834,6.709,7.349,6.709,7.349.958,6.389-2.234,11.5,2.234,13.742,2.234,13.742S69.4,189.55,67.159,193.387s11.5,25.56,11.5,25.56V236.2H72.91V225.658a10.207,10.207,0,0,1-7.349,0c-3.519-1.6-5.431-19.815-6.389-27.8s-9.268-9.588-12.784-9.588-2.875-7.346-6.073-8.95-5.751,1.919-6.389,4.8,6.389,7.668,6.389,7.668a64.781,64.781,0,0,0-4.471,8.3c-1.6,3.836,4.471,7.348,4.471,7.348v4.8c-8.626.638-14.375,8.306-14.375,8.306A80.4,80.4,0,0,0,27.855,236.2c1.919,8.624,5.431,10.541,5.431,10.541v6.714H28.81V264H20.5v6.709H.375v3.837H8.043v7.986L30.418,300.43V440.649c-4.887.979-6.254,6.647-6.254,6.647v19.735H17.522v15.676h8.348v258.98l285.743-1.242,26.84,12.46h23.967l45.055-36.427V568.85c0-51.253,82.71-52.638,88.748-52.724,6.043.086,88.756,1.471,88.756,52.724V716.478l45.055,36.427H654l26.839-12.46,285.742,1.242V482.707h8.348V467.031h-6.644V447.3s-1.367-5.668-6.251-6.647V300.43l22.375-17.894V274.55h7.669v-3.837Zm-801.2-6.034h11.893v16.937H170.742Zm11.893,63.539H171.517V286.064h11.117Zm-11.893,42.871h11.893v16.937H170.742Zm11.893,63.54H171.517V392.47h11.117Zm-11.893,52.447h11.893v16.937H170.742Zm11.893,63.532H171.517V508.451h11.117Zm-11.893,5.009h11.893v10.465H170.742Zm-28.7-290.938h25.942v17.538H142.04Zm25.884,63.539H156.81V286.064h11.114Zm-14.713,0H142.1V286.064h11.116ZM142.04,371.088h25.942v17.536H142.04Zm25.884,63.54H156.81V392.47h11.114Zm-14.713,0H142.1V392.47h11.116ZM142.04,487.076h25.942v17.536H142.04Zm25.884,63.532H156.81V508.451h11.114Zm-14.713,0H142.1V508.451h11.116Zm-11.171,5.009h25.942v10.837H142.04ZM127.387,286.064h11.119v42.153H127.387Zm0,106.406h11.119v42.158H127.387Zm0,115.981h11.119v42.157H127.387Zm9.509,186.1h-8.564v-9.46H136.9Zm0-13.515h-8.564v-9.465H136.9Zm0-13.52h-8.564v-9.46H136.9Zm0-13.514h-8.564v-9.462H136.9Zm0-13.514h-8.564v-9.462H136.9Zm2.384-12.619H127.387s-.621-13.649,0-13.965a55.159,55.159,0,0,1,11.893-4.436Zm0-61.784H127.387V555.616h11.893Zm0-62.068H127.387V487.076h11.893Zm0-115.988H127.387V371.088h11.893Zm0-106.41H127.387V264.678h11.893Zm10.228,412.932h-8.56v-9.46h8.56Zm0-13.515h-8.56v-9.465h8.56Zm0-13.52h-8.56v-9.46h8.56Zm0-13.514h-8.56v-9.462h8.56Zm0-13.514h-8.56v-9.462h8.56Zm12.617,54.063h-8.559v-9.46h8.559Zm0-13.515h-8.559v-9.465h8.559Zm0-13.52h-8.559v-9.46h8.559Zm0-13.514h-8.559v-9.462h8.559Zm0-13.514h-8.559v-9.462h8.559Zm12.619,54.063h-8.562v-9.46h8.562Zm0-13.515h-8.562v-9.465h8.562Zm0-13.52h-8.562v-9.46h8.562Zm0-13.514h-8.562v-9.462h8.562Zm0-13.514h-8.562v-9.462h8.562Zm.272-12.619H140.947v-18.8c13.026-2.858,25.548-1.021,34.069,1.166Zm1.673-17.188A68.819,68.819,0,0,1,186,613.9v13.965h-9.315Zm10.669,83.87H178.8v-9.46h8.562Zm0-13.515H178.8v-9.465h8.562Zm0-13.52H178.8v-9.46h8.562Zm0-13.514H178.8v-9.462h8.562Zm0-13.514H178.8v-9.462h8.562Zm57.255-375.807h25.939v17.538H244.613ZM270.5,328.217H259.383V286.064H270.5Zm-14.711,0H244.668V286.064h11.117Zm-11.173,42.871h25.939v17.536H244.613Zm25.884,63.54H259.383V392.47H270.5Zm-14.711,0H244.668V392.47h11.117Zm-11.173,52.447h25.939v17.536H244.613ZM270.5,550.608H259.383V508.451H270.5Zm-14.711,0H244.668V508.451h11.117Zm-11.173,5.009h25.939v10.837H244.613ZM229.959,264.678H241.85v16.937H229.959Zm0,21.385h11.119v42.153H229.959Zm0,85.024H241.85v16.937H229.959Zm0,21.382h11.119v42.158H229.959Zm0,94.606H241.85v16.937H229.959Zm0,21.375h11.119v42.157H229.959Zm0,47.165H241.85v10.465H229.959Zm4.787,138.932h-8.56v-9.46h8.56Zm0-13.515h-8.56v-9.465h8.56Zm0-13.52h-8.56v-9.46h8.56Zm0-13.514h-8.56v-9.462h8.56Zm0-13.514h-8.56v-9.462h8.56Zm2.382-12.619H225.236s-.618-13.649,0-13.965a55.159,55.159,0,0,1,11.893-4.436Zm10.232,66.682H238.8v-9.46h8.56Zm0-13.515H238.8v-9.465h8.56Zm0-13.52H238.8v-9.46h8.56Zm0-13.514H238.8v-9.462h8.56Zm0-13.514H238.8v-9.462h8.56Zm12.616,54.063h-8.559v-9.46h8.559Zm0-13.515h-8.559v-9.465h8.559Zm0-13.52h-8.559v-9.46h8.559Zm0-13.514h-8.559v-9.462h8.559Zm0-13.514h-8.559v-9.462h8.559Zm12.617,54.063h-8.559v-9.46h8.559Zm0-13.515h-8.559v-9.465h8.559Zm0-13.52h-8.559v-9.46h8.559Zm0-13.514h-8.559v-9.462h8.559Zm0-13.514h-8.559v-9.462h8.559Zm.277-12.619H238.8v-18.8c13.024-2.858,25.545-1.021,34.07,1.166Zm12.341,66.682h-8.56v-9.46h8.56ZM274.54,627.866V610.678a68.594,68.594,0,0,1,9.315,3.223v13.965Zm10.671,53.167h-8.56v-9.465h8.56Zm0-13.52h-8.56v-9.46h8.56Zm0-13.514h-8.56v-9.462h8.56Zm0-13.514h-8.56v-9.462h8.56Zm0-74.4H273.32V555.616h11.891Zm0-15.474H274.092V508.451h11.119Zm0-46.594H273.32V487.076h11.891Zm0-69.385H274.092V392.47h11.119Zm0-46.6H273.32V371.088h11.891Zm0-59.809H274.092V286.064h11.119Zm0-46.6H273.32V264.678h11.891ZM544.94,218.311h18.849v20.346H544.94Zm0,24.3h18.849v32.307H544.94Zm0,36.328h18.849v40.755H544.94Zm0,44.527h18.849v9.607H544.94ZM511.479,218.311h12.463v20.346H511.479Zm0,24.968h12.463v30.785H511.479Zm0,34.785h12.463v36.108h-5.27c-.8-6.073-7.194-11.024-7.194-11.024Zm-26.352-59.753h22.2v20.346h-22.2Zm20.719,24.968v30.787H486.6V243.279h19.242Zm-20.719,34.785h22.2v24.283h-2.876v-9.585s-2.744-5.19-7.822-5.429v0c-.138-.005-.268,0-.407,0s-.261-.009-.4,0v0c-5.078.239-7.822,5.429-7.822,5.429v9.585h-2.875Zm-16.617-59.753h12.465v20.346H468.509Zm0,24.968h12.465v30.785H468.509Zm0,34.785h12.465v25.084s-6.393,4.951-7.194,11.024h-5.272ZM403.8,218.311h18.846v20.346H403.8Zm0,24.3h18.846v32.307H403.8Zm0,36.328h18.846v40.755H403.8Zm0,44.527h18.846v9.607H403.8Zm18.846,121.809H403.8V389.5h18.846Zm24.868,0H428.663V389.5h18.849Zm0-64.418H403.8V360.516h43.712Zm0-47.785H428.663v-9.607h18.849Zm0-13.38H428.663V278.934h18.849Zm0-44.774H428.663V242.608h18.849Zm0-36.259H428.663V218.311h18.849Zm74.512,199.5h-51.6v-80.2h51.6ZM539.277,339.1H533.21V452.288h-7.033V339.1h-59.9V452.288h-7.033V339.1h-6.069V333.07h86.106Zm24.512,106.173H544.94V389.5h18.849Zm24.861,0H569.8V389.5H588.65Zm0-64.418H544.94V360.516h43.71Zm0-47.785H569.8v-9.607H588.65Zm0-13.38H569.8V278.934H588.65Zm0-44.774H569.8V242.608H588.65Zm0-36.259H569.8V218.311H588.65ZM750.6,264.678h11.887v16.937H750.6Zm11.887,63.539H751.372V286.064h11.114ZM750.6,371.088h11.887v16.937H750.6Zm11.887,63.54H751.372V392.47h11.114ZM750.6,487.076h11.887v16.937H750.6Zm11.887,63.532H751.372V508.451h11.114ZM750.6,555.616h11.887v10.465H750.6ZM721.89,264.678h25.948v17.538H721.89Zm25.89,63.539H736.663V286.064h11.117Zm-14.712,0H721.949V286.064h11.119ZM721.89,371.088h25.948v17.536H721.89Zm25.89,63.54H736.663V392.47h11.117Zm-14.712,0H721.949V392.47h11.119ZM721.89,487.076h25.948v17.536H721.89Zm25.89,63.532H736.663V508.451h11.117Zm-14.712,0H721.949V508.451h11.119Zm-11.178,5.009h25.948v10.837H721.89ZM707.24,286.064h11.117v42.153H707.24Zm0,106.406h11.117v42.158H707.24Zm0,115.981h11.117v42.157H707.24Zm8.561,186.1H707.24v-9.46H715.8Zm0-13.515H707.24v-9.465H715.8Zm0-13.52H707.24v-9.46H715.8Zm0-13.514H707.24v-9.462H715.8Zm0-13.514H707.24v-9.462H715.8Zm2.105-12.619H708.6V613.9a68.769,68.769,0,0,1,9.31-3.223Zm1.228-61.784H707.242V555.616h11.893Zm0-62.068H707.242V487.076h11.893Zm0-115.988H707.242V371.088h11.893Zm0-106.41H707.242V264.678h11.893Zm9.28,412.932h-8.56v-9.46h8.56Zm0-13.515h-8.56v-9.465h8.56Zm0-13.52h-8.56v-9.46h8.56Zm0-13.514h-8.56v-9.462h8.56Zm0-13.514h-8.56v-9.462h8.56Zm12.616,54.063h-8.557v-9.46h8.557Zm0-13.515h-8.557v-9.465h8.557Zm0-13.52h-8.557v-9.46h8.557Zm0-13.514h-8.557v-9.462h8.557Zm0-13.514h-8.557v-9.462h8.557Zm12.617,54.063h-8.559v-9.46h8.559Zm0-13.515h-8.559v-9.465h8.559Zm0-13.52h-8.559v-9.46h8.559Zm0-13.514h-8.559v-9.462h8.559Zm0-13.514h-8.559v-9.462h8.559Zm0-12.619H719.582V610.23c8.522-2.187,21.044-4.024,34.065-1.166Zm12.617,66.682H757.7v-9.46h8.562Zm0-13.515H757.7v-9.465h8.562Zm0-13.52H757.7v-9.46h8.562Zm0-13.514H757.7v-9.462h8.562Zm0-13.514H757.7v-9.462h8.562Zm.946-12.619H755.324v-18.4a55.087,55.087,0,0,1,11.887,4.436C767.832,614.217,767.211,627.866,767.211,627.866Zm85.961-363.187h11.891v16.937H853.172Zm11.891,63.539H853.945V286.064h11.117Zm-11.891,42.871h11.891v16.937H853.172Zm11.891,63.54H853.945V392.47h11.117Zm-11.891,52.447h11.891v16.937H853.172Zm11.891,63.532H853.945V508.451h11.117Zm-11.891,5.009h11.891v10.465H853.172ZM824.466,264.678H850.41v17.538H824.466Zm25.889,63.539H839.232V286.064h11.123Zm-14.713,0H824.522V286.064h11.121Zm-11.176,42.871H850.41v17.536H824.466Zm25.889,63.54H839.232V392.47h11.123Zm-14.713,0H824.522V392.47h11.121Zm-11.176,52.447H850.41v17.536H824.466Zm25.889,63.532H839.232V508.451h11.123Zm-14.713,0H824.522V508.451h11.121Zm-11.176,5.009H850.41v10.837H824.466ZM809.814,264.678h11.891v16.937H809.814Zm0,21.385h11.117v42.153H809.814Zm0,85.024h11.891v16.937H809.814Zm0,21.382h11.117v42.158H809.814Zm0,94.606h11.891v16.937H809.814Zm0,21.375h11.117v42.157H809.814Zm0,47.165h11.891v10.465H809.814Zm3.837,138.932h-8.557v-9.46h8.557Zm0-13.515h-8.557v-9.465h8.557Zm0-13.52h-8.557v-9.46h8.557Zm0-13.514h-8.557v-9.462h8.557Zm0-13.514h-8.557v-9.462h8.557Zm2.107-12.619h-9.31V613.9a68.769,68.769,0,0,1,9.31-3.223Zm10.51,66.682h-8.56v-9.46h8.56Zm0-13.515h-8.56v-9.465h8.56Zm0-13.52h-8.56v-9.46h8.56Zm0-13.514h-8.56v-9.462h8.56Zm0-13.514h-8.56v-9.462h8.56Zm12.614,54.063h-8.562v-9.46h8.562Zm0-13.515h-8.562v-9.465h8.562Zm0-13.52h-8.562v-9.46h8.562Zm0-13.514h-8.562v-9.462h8.562Zm0-13.514h-8.562v-9.462h8.562ZM851.5,694.548h-8.562v-9.46H851.5Zm0-13.515h-8.562v-9.465H851.5Zm0-13.52h-8.562v-9.46H851.5Zm0-13.514h-8.562v-9.462H851.5Zm0-13.514h-8.562v-9.462H851.5Zm0-12.619H817.433V610.23c8.522-2.187,21.043-4.024,34.063-1.166Zm12.617,66.682h-8.557v-9.46h8.557Zm0-13.515h-8.557v-9.465h8.557Zm0-13.52h-8.557v-9.46h8.557Zm0-13.514h-8.557v-9.462h8.557Zm0-13.514h-8.557v-9.462h8.557Zm.948-12.619H853.172v-18.4a55.148,55.148,0,0,1,11.891,4.436C865.685,614.217,865.063,627.866,865.063,627.866Z" transform="translate(0.274 0.274)" fill="none" stroke="#dcdbe3" stroke-linejoin="round" stroke-width="0.75"/>
    <path id="Path_264" data-name="Path 264" d="M4.807,179.432H56.2s15.022-2.7,16.176-6.548-8.858-20.418-8.858-20.418H326.248v-15.8H35.4s1.929,13.1,7.706,15.413,18.1,13.484,1.927,23.112" transform="translate(3.509 99.778)" fill="none" stroke="#dcdbe3" stroke-linejoin="round" stroke-width="0.75"/>
    <line id="Line_75" data-name="Line 75" y2="41.248" transform="translate(217.655 193.661)" fill="none" stroke="#dcdbe3" stroke-linejoin="round" stroke-width="0.75"/>
    <line id="Line_76" data-name="Line 76" y2="57.547" transform="translate(114.43 178.898)" fill="none" stroke="#dcdbe3" stroke-linejoin="round" stroke-width="0.75"/>
    <path id="Path_265" data-name="Path 265" d="M206.5,47.293h17.185V91.747L346.141,73.258" transform="translate(150.76 34.527)" fill="none" stroke="#dcdbe3" stroke-linejoin="round" stroke-width="0.75"/>
    <path id="Path_266" data-name="Path 266" d="M212.964,30.671s6.384.3,6.77-4.325-3.08-9.247,0-9.247h60.1V44.832h61.591" transform="translate(155.479 12.484)" fill="none" stroke="#dcdbe3" stroke-linejoin="round" stroke-width="0.75"/>
    <path id="Path_267" data-name="Path 267" d="M339.7,14.4H215.319V8.133" transform="translate(157.199 5.938)" fill="none" stroke="#dcdbe3" stroke-linejoin="round" stroke-width="0.75"/>
    <line id="Line_77" data-name="Line 77" y1="50.079" x2="63.203" transform="translate(311.243 126.274)" fill="none" stroke="#dcdbe3" stroke-linejoin="round" stroke-width="0.75"/>
    <path id="Path_268" data-name="Path 268" d="M365.561,138.792H354.82V113.573H264.678l-6.166-10.168H179.9" transform="translate(131.341 75.493)" fill="none" stroke="#dcdbe3" stroke-linejoin="round" stroke-width="0.75"/>
    <path id="Path_269" data-name="Path 269" d="M309.3,66.756S292.011,68.676,292.011,81h-8.472s-6.936-.77-6.936,4.626v22.34l-13.1,10.4s-6.548,5.007-6.548,9.246v12.714" transform="translate(187.598 48.737)" fill="none" stroke="#dcdbe3" stroke-linejoin="round" stroke-width="0.75"/>
    <path id="Path_270" data-name="Path 270" d="M186.149,109.282h62.409l-10.015,11.553v51.24H193.855v-51.24Z" transform="translate(135.903 79.784)" fill="none" stroke="#dcdbe3" stroke-linejoin="round" stroke-width="0.75"/>
    <path id="Path_271" data-name="Path 271" d="M216.433,136.668H238l-11.552,15.413H216.433Z" transform="translate(158.012 99.778)" fill="none" stroke="#dcdbe3" stroke-linejoin="round" stroke-width="0.75"/>
    <line id="Line_78" data-name="Line 78" y2="191.599" transform="translate(75.895 270.98)" fill="none" stroke="#dcdbe3" stroke-linejoin="round" stroke-width="0.75"/>
    <path id="Path_272" data-name="Path 272" d="M14.125,272.1l12.932-4.727H291.321" transform="translate(10.312 195.204)" fill="none" stroke="#dcdbe3" stroke-linejoin="round" stroke-width="0.75"/>
    <path id="Path_273" data-name="Path 273" d="M15.111,281.764l14.308-6.15H301.773" transform="translate(11.032 201.218)" fill="none" stroke="#dcdbe3" stroke-linejoin="round" stroke-width="0.75"/>
    <path id="Path_274" data-name="Path 274" d="M371.892,261.585H171.229l17.723,24.271h182.94" transform="translate(125.01 190.976)" fill="none" stroke="#dcdbe3" stroke-linejoin="round" stroke-width="0.75"/>
    <path id="Path_275" data-name="Path 275" d="M188.6,294.745v-7.318l-6.934-5.009V259.692h-7.323v-29.28L188.6,216.165h8.863l16.948,13.865v9.633s16.372-.969,17.334,0,11.555,20.8,11.555,20.8h21.572v32.363" transform="translate(127.285 157.816)" fill="none" stroke="#dcdbe3" stroke-linejoin="round" stroke-width="0.75"/>
    <line id="Line_79" data-name="Line 79" y2="122.122" transform="translate(315.888 251.859)" fill="none" stroke="#dcdbe3" stroke-linejoin="round" stroke-width="0.75"/>
    <line id="Line_80" data-name="Line 80" y2="126.794" transform="translate(326.292 252.243)" fill="none" stroke="#dcdbe3" stroke-linejoin="round" stroke-width="0.75"/>
    <line id="Line_81" data-name="Line 81" y1="145.62" transform="translate(341.699 251.859)" fill="none" stroke="#dcdbe3" stroke-linejoin="round" stroke-width="0.75"/>
    <line id="Line_82" data-name="Line 82" y1="145.238" transform="translate(359.033 252.242)" fill="none" stroke="#dcdbe3" stroke-linejoin="round" stroke-width="0.75"/>
    <path id="Path_276" data-name="Path 276" d="M226.449,145.577v10.017l-10.015,9.1V312" transform="translate(158.012 106.282)" fill="none" stroke="#dcdbe3" stroke-linejoin="round" stroke-width="0.75"/>
    <line id="Line_83" data-name="Line 83" y2="261.971" transform="translate(313.962 476.832)" fill="none" stroke="#dcdbe3" stroke-linejoin="round" stroke-width="0.75"/>
    <path id="Path_277" data-name="Path 277" d="M15.111,300.717s39.373-2.881,41.767,43.613c0,0-11.744-.721-11.024,0s0,11.026,0,11.026H301.772" transform="translate(11.032 219.52)" fill="none" stroke="#dcdbe3" stroke-linejoin="round" stroke-width="0.75"/>
    <line id="Line_84" data-name="Line 84" y1="166.916" transform="translate(64.56 574.878)" fill="none" stroke="#dcdbe3" stroke-linejoin="round" stroke-width="0.75"/>
    <path id="Path_278" data-name="Path 278" d="M265.338,275.614v8.874h11.723l6.367,12.4" transform="translate(193.716 201.218)" fill="none" stroke="#dcdbe3" stroke-linejoin="round" stroke-width="0.75"/>
    <path id="Path_279" data-name="Path 279" d="M330.472,287.911s-102.51-.647-102.51,49.428V484.245" transform="translate(166.429 210.196)" fill="none" stroke="#dcdbe3" stroke-linejoin="round" stroke-width="0.75"/>
    <line id="Line_85" data-name="Line 85" x1="92.132" transform="translate(313.961 694.441)" fill="none" stroke="#dcdbe3" stroke-linejoin="round" stroke-width="0.75"/>
    <path id="Path_280" data-name="Path 280" d="M704.8,179.432H653.4s-15.029-2.7-16.183-6.548,8.862-20.418,8.862-20.418H383.359v-15.8H674.21s-1.933,13.1-7.708,15.413-18.109,13.484-1.929,23.112" transform="translate(279.88 99.778)" fill="none" stroke="#dcdbe3" stroke-linejoin="round" stroke-width="0.75"/>
    <line id="Line_86" data-name="Line 86" y2="41.248" transform="translate(775.345 193.661)" fill="none" stroke="#dcdbe3" stroke-linejoin="round" stroke-width="0.75"/>
    <line id="Line_87" data-name="Line 87" y2="57.547" transform="translate(878.567 178.898)" fill="none" stroke="#dcdbe3" stroke-linejoin="round" stroke-width="0.75"/>
    <path id="Path_281" data-name="Path 281" d="M426.392,47.293H409.205V91.747L286.749,73.258" transform="translate(209.348 34.527)" fill="none" stroke="#dcdbe3" stroke-linejoin="round" stroke-width="0.75"/>
    <path id="Path_282" data-name="Path 282" d="M415.207,30.671s-6.386.3-6.768-4.325,3.076-9.247,0-9.247h-60.1V44.832H286.749" transform="translate(209.348 12.484)" fill="none" stroke="#dcdbe3" stroke-linejoin="round" stroke-width="0.75"/>
    <path id="Path_283" data-name="Path 283" d="M286.749,14.4H411.132V8.133" transform="translate(209.348 5.938)" fill="none" stroke="#dcdbe3" stroke-linejoin="round" stroke-width="0.75"/>
    <line id="Line_88" data-name="Line 88" x1="63.2" y1="50.079" transform="translate(618.554 126.274)" fill="none" stroke="#dcdbe3" stroke-linejoin="round" stroke-width="0.75"/>
    <path id="Path_284" data-name="Path 284" d="M286.749,138.792h10.74V113.573h90.142l6.163-10.168h78.613" transform="translate(209.348 75.493)" fill="none" stroke="#dcdbe3" stroke-linejoin="round" stroke-width="0.75"/>
    <path id="Path_285" data-name="Path 285" d="M286.749,66.756S304.041,68.676,304.041,81h8.472s6.932-.77,6.932,4.626v22.34l13.1,10.4s6.545,5.007,6.545,9.246v12.714" transform="translate(209.348 48.737)" fill="none" stroke="#dcdbe3" stroke-linejoin="round" stroke-width="0.75"/>
    <path id="Path_286" data-name="Path 286" d="M414.146,109.282H351.74l10.017,11.553v51.24h44.686v-51.24Z" transform="translate(256.796 79.784)" fill="none" stroke="#dcdbe3" stroke-linejoin="round" stroke-width="0.75"/>
    <path id="Path_287" data-name="Path 287" d="M366.633,136.668H345.061l11.557,15.413h10.015Z" transform="translate(251.92 99.778)" fill="none" stroke="#dcdbe3" stroke-linejoin="round" stroke-width="0.75"/>
    <line id="Line_89" data-name="Line 89" y2="191.599" transform="translate(917.096 270.98)" fill="none" stroke="#dcdbe3" stroke-linejoin="round" stroke-width="0.75"/>
    <path id="Path_288" data-name="Path 288" d="M676.81,272.1l-12.932-4.727H399.615" transform="translate(291.749 195.204)" fill="none" stroke="#dcdbe3" stroke-linejoin="round" stroke-width="0.75"/>
    <path id="Path_289" data-name="Path 289" d="M679.817,281.764l-14.306-6.15H393.16" transform="translate(287.035 201.218)" fill="none" stroke="#dcdbe3" stroke-linejoin="round" stroke-width="0.75"/>
    <path id="Path_290" data-name="Path 290" d="M286.749,261.585H487.406l-17.718,24.271H286.749" transform="translate(209.348 190.976)" fill="none" stroke="#dcdbe3" stroke-linejoin="round" stroke-width="0.75"/>
    <path id="Path_291" data-name="Path 291" d="M423.564,294.745v-7.318l6.932-5.009V259.692h7.322v-29.28l-14.254-14.247H414.7L397.754,230.03v9.633s-16.375-.969-17.335,0-11.56,20.8-11.56,20.8H347.288v32.363" transform="translate(253.546 157.816)" fill="none" stroke="#dcdbe3" stroke-linejoin="round" stroke-width="0.75"/>
    <line id="Line_90" data-name="Line 90" y2="122.122" transform="translate(677.11 251.859)" fill="none" stroke="#dcdbe3" stroke-linejoin="round" stroke-width="0.75"/>
    <line id="Line_91" data-name="Line 91" y2="126.794" transform="translate(666.709 252.243)" fill="none" stroke="#dcdbe3" stroke-linejoin="round" stroke-width="0.75"/>
    <line id="Line_92" data-name="Line 92" y1="145.62" transform="translate(651.301 251.859)" fill="none" stroke="#dcdbe3" stroke-linejoin="round" stroke-width="0.75"/>
    <line id="Line_93" data-name="Line 93" y1="145.238" transform="translate(633.965 252.242)" fill="none" stroke="#dcdbe3" stroke-linejoin="round" stroke-width="0.75"/>
    <path id="Path_292" data-name="Path 292" d="M351.741,145.577v10.017l10.015,9.1V312" transform="translate(256.797 106.282)" fill="none" stroke="#dcdbe3" stroke-linejoin="round" stroke-width="0.75"/>
    <line id="Line_94" data-name="Line 94" y2="261.971" transform="translate(679.036 476.832)" fill="none" stroke="#dcdbe3" stroke-linejoin="round" stroke-width="0.75"/>
    <path id="Path_293" data-name="Path 293" d="M679.818,300.717s-39.371-2.881-41.768,43.613c0,0,11.744-.721,11.026,0s0,11.026,0,11.026H393.16" transform="translate(287.036 219.52)" fill="none" stroke="#dcdbe3" stroke-linejoin="round" stroke-width="0.75"/>
    <line id="Line_95" data-name="Line 95" y1="166.916" transform="translate(928.437 574.878)" fill="none" stroke="#dcdbe3" stroke-linejoin="round" stroke-width="0.75"/>
    <path id="Path_294" data-name="Path 294" d="M971.945,270.713V264h-8.308V253.459h-4.476v-6.714s3.517-1.917,5.432-10.541a80.265,80.265,0,0,0,1.919-15.659s-5.753-7.668-14.382-8.306v-4.8s6.076-3.512,4.477-7.348a64.4,64.4,0,0,0-4.477-8.3s7.038-4.8,6.392-7.668-3.2-6.4-6.392-4.8-2.554,8.95-6.069,8.95-11.823,1.6-12.784,9.588-2.874,26.2-6.387,27.8a10.214,10.214,0,0,1-7.351,0V236.2h-5.753V218.947s13.739-21.73,11.5-25.56S905.8,182.839,905.8,182.839s5.425-8.631,2.234-13.742-2.234-11.5-2.234-11.5,7.668-2.877,6.7-7.349-10.539-7.668-14.7,3.834-8.624,23.643-10.223,24.287-19.814,0-19.814,0v44.094H803.546V193.387H767.758v28.756H703.532V192.424H681.479V152.8H659.751V92.408s4.792-5.114,3.834-11.183S657.511,72.6,654,75.151a9.575,9.575,0,0,0-3.834,6.4h-14.7V71.959L624.281,42.881v-14.7h6.069V13.8H620.125V7.089H507.967L501.256.375H491.2l-6.709,6.714H372.324V13.8H362.1V28.179h6.069v14.7L356.986,71.959v9.588h-14.7a9.575,9.575,0,0,0-3.834-6.4c-3.515-2.552-8.628,0-9.586,6.074S332.7,92.408,332.7,92.408V152.8H310.968v39.622H288.924v29.719H224.693V193.387H188.9v29.074H124.677V178.367s-18.212.638-19.811,0S98.8,165.583,94.638,154.08s-13.739-8.31-14.7-3.834,6.709,7.349,6.709,7.349.958,6.389-2.234,11.5,2.234,13.742,2.234,13.742S69.4,189.55,67.159,193.387s11.5,25.56,11.5,25.56V236.2H72.91V225.658a10.207,10.207,0,0,1-7.349,0c-3.519-1.6-5.431-19.815-6.389-27.8s-9.268-9.588-12.784-9.588-2.875-7.346-6.073-8.95-5.751,1.919-6.389,4.8,6.389,7.668,6.389,7.668a64.781,64.781,0,0,0-4.471,8.3c-1.6,3.836,4.471,7.348,4.471,7.348v4.8c-8.626.638-14.375,8.306-14.375,8.306A80.4,80.4,0,0,0,27.855,236.2c1.919,8.624,5.431,10.541,5.431,10.541v6.714H28.81V264H20.5v6.709H.375v3.837H8.043v7.986L30.418,300.43V440.649c-4.887.979-6.254,6.647-6.254,6.647v19.735H17.522v15.676h8.348v258.98l285.743-1.242,26.84,12.46h23.967l45.055-36.427V568.85c0-51.253,82.71-52.638,88.748-52.724,6.043.086,88.756,1.471,88.756,52.724V716.478l45.055,36.427H654l26.839-12.46,285.742,1.242V482.707h8.348V467.031h-6.644V447.3s-1.367-5.668-6.251-6.647V300.43l22.375-17.894V274.55h7.669v-3.837Zm-801.2-6.034h11.893v16.937H170.742Zm11.893,63.539H171.517V286.064h11.117Zm-11.893,42.871h11.893v16.937H170.742Zm11.893,63.54H171.517V392.47h11.117Zm-11.893,52.447h11.893v16.937H170.742Zm11.893,63.532H171.517V508.451h11.117Zm-11.893,5.009h11.893v10.465H170.742Zm-28.7-290.938h25.942v17.538H142.04Zm25.884,63.539H156.81V286.064h11.114Zm-14.713,0H142.1V286.064h11.116ZM142.04,371.088h25.942v17.536H142.04Zm25.884,63.54H156.81V392.47h11.114Zm-14.713,0H142.1V392.47h11.116ZM142.04,487.076h25.942v17.536H142.04Zm25.884,63.532H156.81V508.451h11.114Zm-14.713,0H142.1V508.451h11.116Zm-11.171,5.009h25.942v10.837H142.04ZM127.387,286.064h11.119v42.153H127.387Zm0,106.406h11.119v42.158H127.387Zm0,115.981h11.119v42.157H127.387Zm9.509,186.1h-8.564v-9.46H136.9Zm0-13.515h-8.564v-9.465H136.9Zm0-13.52h-8.564v-9.46H136.9Zm0-13.514h-8.564v-9.462H136.9Zm0-13.514h-8.564v-9.462H136.9Zm2.384-12.619H127.387s-.621-13.649,0-13.965a55.159,55.159,0,0,1,11.893-4.436Zm0-61.784H127.387V555.616h11.893Zm0-62.068H127.387V487.076h11.893Zm0-115.988H127.387V371.088h11.893Zm0-106.41H127.387V264.678h11.893Zm10.228,412.932h-8.56v-9.46h8.56Zm0-13.515h-8.56v-9.465h8.56Zm0-13.52h-8.56v-9.46h8.56Zm0-13.514h-8.56v-9.462h8.56Zm0-13.514h-8.56v-9.462h8.56Zm12.617,54.063h-8.559v-9.46h8.559Zm0-13.515h-8.559v-9.465h8.559Zm0-13.52h-8.559v-9.46h8.559Zm0-13.514h-8.559v-9.462h8.559Zm0-13.514h-8.559v-9.462h8.559Zm12.619,54.063h-8.562v-9.46h8.562Zm0-13.515h-8.562v-9.465h8.562Zm0-13.52h-8.562v-9.46h8.562Zm0-13.514h-8.562v-9.462h8.562Zm0-13.514h-8.562v-9.462h8.562Zm.272-12.619H140.947v-18.8c13.026-2.858,25.548-1.021,34.069,1.166Zm1.673-17.188A68.819,68.819,0,0,1,186,613.9v13.965h-9.315Zm10.669,83.87H178.8v-9.46h8.562Zm0-13.515H178.8v-9.465h8.562Zm0-13.52H178.8v-9.46h8.562Zm0-13.514H178.8v-9.462h8.562Zm0-13.514H178.8v-9.462h8.562Zm57.255-375.807h25.939v17.538H244.613ZM270.5,328.217H259.383V286.064H270.5Zm-14.711,0H244.668V286.064h11.117Zm-11.173,42.871h25.939v17.536H244.613Zm25.884,63.54H259.383V392.47H270.5Zm-14.711,0H244.668V392.47h11.117Zm-11.173,52.447h25.939v17.536H244.613ZM270.5,550.608H259.383V508.451H270.5Zm-14.711,0H244.668V508.451h11.117Zm-11.173,5.009h25.939v10.837H244.613ZM229.959,264.678H241.85v16.937H229.959Zm0,21.385h11.119v42.153H229.959Zm0,85.024H241.85v16.937H229.959Zm0,21.382h11.119v42.158H229.959Zm0,94.606H241.85v16.937H229.959Zm0,21.375h11.119v42.157H229.959Zm0,47.165H241.85v10.465H229.959Zm4.787,138.932h-8.56v-9.46h8.56Zm0-13.515h-8.56v-9.465h8.56Zm0-13.52h-8.56v-9.46h8.56Zm0-13.514h-8.56v-9.462h8.56Zm0-13.514h-8.56v-9.462h8.56Zm2.382-12.619H225.236s-.618-13.649,0-13.965a55.159,55.159,0,0,1,11.893-4.436Zm10.232,66.682H238.8v-9.46h8.56Zm0-13.515H238.8v-9.465h8.56Zm0-13.52H238.8v-9.46h8.56Zm0-13.514H238.8v-9.462h8.56Zm0-13.514H238.8v-9.462h8.56Zm12.616,54.063h-8.559v-9.46h8.559Zm0-13.515h-8.559v-9.465h8.559Zm0-13.52h-8.559v-9.46h8.559Zm0-13.514h-8.559v-9.462h8.559Zm0-13.514h-8.559v-9.462h8.559Zm12.617,54.063h-8.559v-9.46h8.559Zm0-13.515h-8.559v-9.465h8.559Zm0-13.52h-8.559v-9.46h8.559Zm0-13.514h-8.559v-9.462h8.559Zm0-13.514h-8.559v-9.462h8.559Zm.277-12.619H238.8v-18.8c13.024-2.858,25.545-1.021,34.07,1.166Zm12.341,66.682h-8.56v-9.46h8.56ZM274.54,627.866V610.678a68.594,68.594,0,0,1,9.315,3.223v13.965Zm10.671,53.167h-8.56v-9.465h8.56Zm0-13.52h-8.56v-9.46h8.56Zm0-13.514h-8.56v-9.462h8.56Zm0-13.514h-8.56v-9.462h8.56Zm0-74.4H273.32V555.616h11.891Zm0-15.474H274.092V508.451h11.119Zm0-46.594H273.32V487.076h11.891Zm0-69.385H274.092V392.47h11.119Zm0-46.6H273.32V371.088h11.891Zm0-59.809H274.092V286.064h11.119Zm0-46.6H273.32V264.678h11.891ZM544.94,218.311h18.849v20.346H544.94Zm0,24.3h18.849v32.307H544.94Zm0,36.328h18.849v40.755H544.94Zm0,44.527h18.849v9.607H544.94ZM511.479,218.311h12.463v20.346H511.479Zm0,24.968h12.463v30.785H511.479Zm0,34.785h12.463v36.108h-5.27c-.8-6.073-7.194-11.024-7.194-11.024Zm-26.352-59.753h22.2v20.346h-22.2Zm20.719,24.968v30.787H486.6V243.279h19.242Zm-20.719,34.785h22.2v24.283h-2.876v-9.585s-2.744-5.19-7.822-5.429v0c-.138-.005-.268,0-.407,0s-.261-.009-.4,0v0c-5.078.239-7.822,5.429-7.822,5.429v9.585h-2.875Zm-16.617-59.753h12.465v20.346H468.509Zm0,24.968h12.465v30.785H468.509Zm0,34.785h12.465v25.084s-6.393,4.951-7.194,11.024h-5.272ZM403.8,218.311h18.846v20.346H403.8Zm0,24.3h18.846v32.307H403.8Zm0,36.328h18.846v40.755H403.8Zm0,44.527h18.846v9.607H403.8Zm18.846,121.809H403.8V389.5h18.846Zm24.868,0H428.663V389.5h18.849Zm0-64.418H403.8V360.516h43.712Zm0-47.785H428.663v-9.607h18.849Zm0-13.38H428.663V278.934h18.849Zm0-44.774H428.663V242.608h18.849Zm0-36.259H428.663V218.311h18.849Zm74.512,199.5h-51.6v-80.2h51.6ZM539.277,339.1H533.21V452.288h-7.033V339.1h-59.9V452.288h-7.033V339.1h-6.069V333.07h86.106Zm24.512,106.173H544.94V389.5h18.849Zm24.861,0H569.8V389.5H588.65Zm0-64.418H544.94V360.516h43.71Zm0-47.785H569.8v-9.607H588.65Zm0-13.38H569.8V278.934H588.65Zm0-44.774H569.8V242.608H588.65Zm0-36.259H569.8V218.311H588.65ZM750.6,264.678h11.887v16.937H750.6Zm11.887,63.539H751.372V286.064h11.114ZM750.6,371.088h11.887v16.937H750.6Zm11.887,63.54H751.372V392.47h11.114ZM750.6,487.076h11.887v16.937H750.6Zm11.887,63.532H751.372V508.451h11.114ZM750.6,555.616h11.887v10.465H750.6ZM721.89,264.678h25.948v17.538H721.89Zm25.89,63.539H736.663V286.064h11.117Zm-14.712,0H721.949V286.064h11.119ZM721.89,371.088h25.948v17.536H721.89Zm25.89,63.54H736.663V392.47h11.117Zm-14.712,0H721.949V392.47h11.119ZM721.89,487.076h25.948v17.536H721.89Zm25.89,63.532H736.663V508.451h11.117Zm-14.712,0H721.949V508.451h11.119Zm-11.178,5.009h25.948v10.837H721.89ZM707.24,286.064h11.117v42.153H707.24Zm0,106.406h11.117v42.158H707.24Zm0,115.981h11.117v42.157H707.24Zm8.561,186.1H707.24v-9.46H715.8Zm0-13.515H707.24v-9.465H715.8Zm0-13.52H707.24v-9.46H715.8Zm0-13.514H707.24v-9.462H715.8Zm0-13.514H707.24v-9.462H715.8Zm2.105-12.619H708.6V613.9a68.769,68.769,0,0,1,9.31-3.223Zm1.228-61.784H707.242V555.616h11.893Zm0-62.068H707.242V487.076h11.893Zm0-115.988H707.242V371.088h11.893Zm0-106.41H707.242V264.678h11.893Zm9.28,412.932h-8.56v-9.46h8.56Zm0-13.515h-8.56v-9.465h8.56Zm0-13.52h-8.56v-9.46h8.56Zm0-13.514h-8.56v-9.462h8.56Zm0-13.514h-8.56v-9.462h8.56Zm12.616,54.063h-8.557v-9.46h8.557Zm0-13.515h-8.557v-9.465h8.557Zm0-13.52h-8.557v-9.46h8.557Zm0-13.514h-8.557v-9.462h8.557Zm0-13.514h-8.557v-9.462h8.557Zm12.617,54.063h-8.559v-9.46h8.559Zm0-13.515h-8.559v-9.465h8.559Zm0-13.52h-8.559v-9.46h8.559Zm0-13.514h-8.559v-9.462h8.559Zm0-13.514h-8.559v-9.462h8.559Zm0-12.619H719.582V610.23c8.522-2.187,21.044-4.024,34.065-1.166Zm12.617,66.682H757.7v-9.46h8.562Zm0-13.515H757.7v-9.465h8.562Zm0-13.52H757.7v-9.46h8.562Zm0-13.514H757.7v-9.462h8.562Zm0-13.514H757.7v-9.462h8.562Zm.946-12.619H755.324v-18.4a55.087,55.087,0,0,1,11.887,4.436C767.832,614.217,767.211,627.866,767.211,627.866Zm85.961-363.187h11.891v16.937H853.172Zm11.891,63.539H853.945V286.064h11.117Zm-11.891,42.871h11.891v16.937H853.172Zm11.891,63.54H853.945V392.47h11.117Zm-11.891,52.447h11.891v16.937H853.172Zm11.891,63.532H853.945V508.451h11.117Zm-11.891,5.009h11.891v10.465H853.172ZM824.466,264.678H850.41v17.538H824.466Zm25.889,63.539H839.232V286.064h11.123Zm-14.713,0H824.522V286.064h11.121Zm-11.176,42.871H850.41v17.536H824.466Zm25.889,63.54H839.232V392.47h11.123Zm-14.713,0H824.522V392.47h11.121Zm-11.176,52.447H850.41v17.536H824.466Zm25.889,63.532H839.232V508.451h11.123Zm-14.713,0H824.522V508.451h11.121Zm-11.176,5.009H850.41v10.837H824.466ZM809.814,264.678h11.891v16.937H809.814Zm0,21.385h11.117v42.153H809.814Zm0,85.024h11.891v16.937H809.814Zm0,21.382h11.117v42.158H809.814Zm0,94.606h11.891v16.937H809.814Zm0,21.375h11.117v42.157H809.814Zm0,47.165h11.891v10.465H809.814Zm3.837,138.932h-8.557v-9.46h8.557Zm0-13.515h-8.557v-9.465h8.557Zm0-13.52h-8.557v-9.46h8.557Zm0-13.514h-8.557v-9.462h8.557Zm0-13.514h-8.557v-9.462h8.557Zm2.107-12.619h-9.31V613.9a68.769,68.769,0,0,1,9.31-3.223Zm10.51,66.682h-8.56v-9.46h8.56Zm0-13.515h-8.56v-9.465h8.56Zm0-13.52h-8.56v-9.46h8.56Zm0-13.514h-8.56v-9.462h8.56Zm0-13.514h-8.56v-9.462h8.56Zm12.614,54.063h-8.562v-9.46h8.562Zm0-13.515h-8.562v-9.465h8.562Zm0-13.52h-8.562v-9.46h8.562Zm0-13.514h-8.562v-9.462h8.562Zm0-13.514h-8.562v-9.462h8.562ZM851.5,694.548h-8.562v-9.46H851.5Zm0-13.515h-8.562v-9.465H851.5Zm0-13.52h-8.562v-9.46H851.5Zm0-13.514h-8.562v-9.462H851.5Zm0-13.514h-8.562v-9.462H851.5Zm0-12.619H817.433V610.23c8.522-2.187,21.043-4.024,34.063-1.166Zm12.617,66.682h-8.557v-9.46h8.557Zm0-13.515h-8.557v-9.465h8.557Zm0-13.52h-8.557v-9.46h8.557Zm0-13.514h-8.557v-9.462h8.557Zm0-13.514h-8.557v-9.462h8.557Zm.948-12.619H853.172v-18.4a55.148,55.148,0,0,1,11.891,4.436C865.685,614.217,865.063,627.866,865.063,627.866Z" transform="translate(0.274 0.274)" fill="none" stroke="#dcdbe3" stroke-linejoin="round" stroke-width="0.75"/>
    <path id="Path_295" data-name="Path 295" d="M316.259,275.614v8.874H304.531l-6.362,12.4" transform="translate(217.686 201.218)" fill="none" stroke="#dcdbe3" stroke-linejoin="round" stroke-width="0.75"/>
    <path id="Path_296" data-name="Path 296" d="M286.749,287.911s102.512-.647,102.512,49.428V484.245" transform="translate(209.348 210.196)" fill="none" stroke="#dcdbe3" stroke-linejoin="round" stroke-width="0.75"/>
    <line id="Line_96" data-name="Line 96" x2="92.132" transform="translate(586.905 694.441)" fill="none" stroke="#dcdbe3" stroke-linejoin="round" stroke-width="0.75"/>
    <line id="Line_97" data-name="Line 97" x2="177.504" transform="translate(407.748 716.752)" fill="none" stroke="#dcdbe3" stroke-linejoin="round" stroke-width="0.75"/>
    <line id="Line_98" data-name="Line 98" x2="197.699" transform="translate(397.65 724.914)" fill="none" stroke="#dcdbe3" stroke-linejoin="round" stroke-width="0.75"/>
    <line id="Line_99" data-name="Line 99" x2="219.342" transform="translate(386.827 733.668)" fill="none" stroke="#dcdbe3" stroke-linejoin="round" stroke-width="0.75"/>
    <line id="Line_100" data-name="Line 100" x2="238.252" transform="translate(377.374 741.312)" fill="none" stroke="#dcdbe3" stroke-linejoin="round" stroke-width="0.75"/>
    <line id="Line_101" data-name="Line 101" x2="260.22" transform="translate(366.389 750.191)" fill="none" stroke="#dcdbe3" stroke-linejoin="round" stroke-width="0.75"/>
  </g>
</svg>
