<?xml version="1.0" encoding="UTF-8"?><svg id="Layer_2" xmlns="http://www.w3.org/2000/svg" xmlns:xlink="http://www.w3.org/1999/xlink" viewBox="0 0 1449.04 824.37"><defs><style>.cls-1,.cls-2{fill:none;}.cls-3{clip-path:url(#clippath);}.cls-2{stroke:#000;stroke-linecap:round;stroke-linejoin:round;stroke-width:2px;}</style><clipPath id="clippath"><rect class="cls-1" x="1.76" y="183.5" width="1440" height="493.28"/></clipPath></defs><g id="Layer_1-2"><g class="cls-3"><g><g><g><g><path class="cls-2" d="m1,823.37v-229.47c.06-7.75.8-14.06,7.2-21.66,7.79-9.26,25.61-20.85,25.61-20.85,0,0,17.98,11.6,25.77,20.85,6.38,7.58,7.13,13.89,7.2,21.61v229.53H1Z"/><line class="cls-2" x1="5.2" y1="607.4" x2="62.57" y2="607.4"/><line class="cls-2" x1="5.2" y1="644.01" x2="62.57" y2="644.01"/><line class="cls-2" x1="5.2" y1="680.62" x2="62.57" y2="680.62"/><line class="cls-2" x1="5.2" y1="717.23" x2="62.57" y2="717.23"/><line class="cls-2" x1="5.2" y1="753.84" x2="62.57" y2="753.84"/><line class="cls-2" x1="5.2" y1="790.45" x2="62.57" y2="790.45"/><path class="cls-2" d="m5.18,818.93v-222.23c.05-7.44.7-13.5,6.28-20.8,6.8-8.88,22.35-18.55,22.35-18.55,0,0,15.69,9.67,22.49,18.55,5.57,7.28,6.23,13.33,6.28,20.74v222.28H5.18Z"/><path class="cls-2" d="m19.5,567.77c3.07,2.58,6.01,5.4,8.11,8.14,5.57,7.28,6.23,13.33,6.28,20.74v222.28"/><path class="cls-2" d="m48.27,567.77c-3.07,2.58-6.01,5.4-8.11,8.14-5.57,7.28-6.23,13.33-6.28,20.74v222.28"/></g><g><path class="cls-2" d="m1,590.87v-216.75c.06-7.75.8-14.06,7.2-21.66,7.79-9.26,25.61-20.85,25.61-20.85,0,0,17.98,11.6,25.77,20.85,6.38,7.58,7.13,13.89,7.2,21.61v216.81"/><line class="cls-2" x1="5.2" y1="387.62" x2="62.57" y2="387.62"/><line class="cls-2" x1="5.2" y1="424.23" x2="62.57" y2="424.23"/><line class="cls-2" x1="5.2" y1="460.84" x2="62.57" y2="460.84"/><line class="cls-2" x1="5.2" y1="497.45" x2="62.57" y2="497.45"/><line class="cls-2" x1="5.2" y1="534.06" x2="62.57" y2="534.06"/><path class="cls-2" d="m5.18,576.36v-199.44c.05-7.44.7-13.5,6.28-20.8,6.8-8.88,22.35-18.55,22.35-18.55,0,0,15.69,9.67,22.49,18.55,5.57,7.28,6.23,13.33,6.28,24.55v195.65"/><path class="cls-2" d="m19.5,347.99c3.07,2.58,6.01,5.4,8.11,8.14,5.57,7.28,6.23,13.33,6.28,20.74"/><path class="cls-2" d="m48.27,347.99c-3.07,2.58-6.01,5.4-8.11,8.14-5.57,7.28-6.23,13.33-6.28,20.74v174.57"/></g><g><path class="cls-2" d="m1,370.55v-216.75c.06-7.75.8-14.06,7.2-21.66,7.79-9.26,25.61-20.85,25.61-20.85,0,0,17.98,11.6,25.77,20.85,6.38,7.58,7.13,13.89,7.2,21.61v216.81"/><line class="cls-2" x1="5.2" y1="167.3" x2="62.57" y2="167.3"/><line class="cls-2" x1="5.2" y1="203.91" x2="62.57" y2="203.91"/><line class="cls-2" x1="5.2" y1="240.52" x2="62.57" y2="240.52"/><line class="cls-2" x1="5.2" y1="277.13" x2="62.57" y2="277.13"/><line class="cls-2" x1="5.2" y1="313.74" x2="62.57" y2="313.74"/><path class="cls-2" d="m5.18,356.04v-199.44c.05-7.44.7-13.5,6.28-20.8,6.8-8.88,22.35-18.55,22.35-18.55,0,0,15.69,9.67,22.49,18.55,5.57,7.28,6.23,13.33,6.28,24.55v195.65"/><path class="cls-2" d="m19.5,127.67c3.07,2.58,6.01,5.4,8.11,8.14,5.57,7.28,6.23,13.33,6.28,20.74"/><path class="cls-2" d="m48.27,127.67c-3.07,2.58-6.01,5.4-8.11,8.14-5.57,7.28-6.23,13.33-6.28,20.74v174.57"/></g></g><g><g><path class="cls-2" d="m66.77,713.09v-229.47c.06-7.75.8-14.06,7.2-21.66,7.79-9.26,25.61-20.85,25.61-20.85,0,0,17.98,11.6,25.77,20.85,6.38,7.58,7.13,13.89,7.2,21.61v229.53h-65.77Z"/><line class="cls-2" x1="70.98" y1="497.12" x2="128.35" y2="497.12"/><line class="cls-2" x1="70.98" y1="533.73" x2="128.35" y2="533.73"/><line class="cls-2" x1="70.98" y1="570.34" x2="128.35" y2="570.34"/><line class="cls-2" x1="70.98" y1="606.95" x2="128.35" y2="606.95"/><line class="cls-2" x1="70.98" y1="643.56" x2="128.35" y2="643.56"/><line class="cls-2" x1="70.98" y1="680.17" x2="128.35" y2="680.17"/><path class="cls-2" d="m70.96,708.64v-222.23c.05-7.44.7-13.5,6.28-20.8,6.8-8.88,22.35-18.55,22.35-18.55,0,0,15.69,9.67,22.49,18.55,5.57,7.28,6.23,13.33,6.28,20.74v222.28h-57.41Z"/><path class="cls-2" d="m85.27,457.49c3.07,2.58,6.01,5.4,8.11,8.14,5.57,7.28,6.23,13.33,6.28,20.74v222.28"/><path class="cls-2" d="m114.05,457.49c-3.07,2.58-6.01,5.4-8.11,8.14-5.57,7.28-6.23,13.33-6.28,20.74v222.28"/></g><g><path class="cls-2" d="m66.77,480.58v-216.75c.06-7.75.8-14.06,7.2-21.66,7.79-9.26,25.61-20.85,25.61-20.85,0,0,17.98,11.6,25.77,20.85,6.38,7.58,7.13,13.89,7.2,21.61v216.81"/><line class="cls-2" x1="70.98" y1="277.34" x2="128.35" y2="277.34"/><line class="cls-2" x1="70.98" y1="313.95" x2="128.35" y2="313.95"/><line class="cls-2" x1="70.98" y1="350.56" x2="128.35" y2="350.56"/><line class="cls-2" x1="70.98" y1="387.17" x2="128.35" y2="387.17"/><line class="cls-2" x1="70.98" y1="423.78" x2="128.35" y2="423.78"/><path class="cls-2" d="m70.96,466.08v-199.44c.05-7.44.7-13.5,6.28-20.8,6.8-8.88,22.35-18.55,22.35-18.55,0,0,15.69,9.67,22.49,18.55,5.57,7.28,6.23,13.33,6.28,24.55v195.65"/><path class="cls-2" d="m85.27,237.7c3.07,2.58,6.01,5.4,8.11,8.14,5.57,7.28,6.23,13.33,6.28,20.74"/><path class="cls-2" d="m114.05,237.7c-3.07,2.58-6.01,5.4-8.11,8.14-5.57,7.28-6.23,13.33-6.28,20.74v174.57"/></g><g><path class="cls-2" d="m66.77,260.27V43.51c.06-7.75.8-14.06,7.2-21.66,7.79-9.26,25.61-20.85,25.61-20.85,0,0,17.98,11.6,25.77,20.85,6.38,7.58,7.13,13.89,7.2,21.61v216.81"/><line class="cls-2" x1="70.98" y1="57.02" x2="128.35" y2="57.02"/><line class="cls-2" x1="70.98" y1="93.63" x2="128.35" y2="93.63"/><line class="cls-2" x1="70.98" y1="130.24" x2="128.35" y2="130.24"/><line class="cls-2" x1="70.98" y1="166.85" x2="128.35" y2="166.85"/><line class="cls-2" x1="70.98" y1="203.46" x2="128.35" y2="203.46"/><path class="cls-2" d="m70.96,245.76V46.32c.05-7.44.7-13.5,6.28-20.8,6.8-8.88,22.35-18.55,22.35-18.55,0,0,15.69,9.67,22.49,18.55,5.57,7.28,6.23,13.33,6.28,24.55v195.65"/><path class="cls-2" d="m85.27,17.39c3.07,2.58,6.01,5.4,8.11,8.14,5.57,7.28,6.23,13.33,6.28,20.74"/><path class="cls-2" d="m114.05,17.39c-3.07,2.58-6.01,5.4-8.11,8.14-5.57,7.28-6.23,13.33-6.28,20.74v174.57"/></g></g></g><g><g><g><path class="cls-2" d="m132.55,823.37v-229.47c.06-7.75.8-14.06,7.2-21.66,7.79-9.26,25.61-20.85,25.61-20.85,0,0,17.98,11.6,25.77,20.85,6.38,7.58,7.13,13.89,7.2,21.61v229.53h-65.77Z"/><line class="cls-2" x1="136.75" y1="607.4" x2="194.12" y2="607.4"/><line class="cls-2" x1="136.75" y1="644.01" x2="194.12" y2="644.01"/><line class="cls-2" x1="136.75" y1="680.62" x2="194.12" y2="680.62"/><line class="cls-2" x1="136.75" y1="717.23" x2="194.12" y2="717.23"/><line class="cls-2" x1="136.75" y1="753.84" x2="194.12" y2="753.84"/><line class="cls-2" x1="136.75" y1="790.45" x2="194.12" y2="790.45"/><path class="cls-2" d="m136.73,818.93v-222.23c.05-7.44.7-13.5,6.28-20.8,6.8-8.88,22.35-18.55,22.35-18.55,0,0,15.69,9.67,22.49,18.55,5.57,7.28,6.23,13.33,6.28,20.74v222.28h-57.41Z"/><path class="cls-2" d="m151.05,567.77c3.07,2.58,6.01,5.4,8.11,8.14,5.57,7.28,6.23,13.33,6.28,20.74v222.28"/><path class="cls-2" d="m179.82,567.77c-3.07,2.58-6.01,5.4-8.11,8.14-5.57,7.28-6.23,13.33-6.28,20.74v222.28"/></g><g><path class="cls-2" d="m132.55,590.87v-216.75c.06-7.75.8-14.06,7.2-21.66,7.79-9.26,25.61-20.85,25.61-20.85,0,0,17.98,11.6,25.77,20.85,6.38,7.58,7.13,13.89,7.2,21.61v216.81"/><line class="cls-2" x1="136.75" y1="387.62" x2="194.12" y2="387.62"/><line class="cls-2" x1="136.75" y1="424.23" x2="194.12" y2="424.23"/><line class="cls-2" x1="136.75" y1="460.84" x2="194.12" y2="460.84"/><line class="cls-2" x1="136.75" y1="497.45" x2="194.12" y2="497.45"/><line class="cls-2" x1="136.75" y1="534.06" x2="194.12" y2="534.06"/><path class="cls-2" d="m136.73,576.36v-199.44c.05-7.44.7-13.5,6.28-20.8,6.8-8.88,22.35-18.55,22.35-18.55,0,0,15.69,9.67,22.49,18.55,5.57,7.28,6.23,13.33,6.28,24.55v195.65"/><path class="cls-2" d="m151.05,347.99c3.07,2.58,6.01,5.4,8.11,8.14,5.57,7.28,6.23,13.33,6.28,20.74"/><path class="cls-2" d="m179.82,347.99c-3.07,2.58-6.01,5.4-8.11,8.14-5.57,7.28-6.23,13.33-6.28,20.74v174.57"/></g><g><path class="cls-2" d="m132.55,370.55v-216.75c.06-7.75.8-14.06,7.2-21.66,7.79-9.26,25.61-20.85,25.61-20.85,0,0,17.98,11.6,25.77,20.85,6.38,7.58,7.13,13.89,7.2,21.61v216.81"/><line class="cls-2" x1="136.75" y1="167.3" x2="194.12" y2="167.3"/><line class="cls-2" x1="136.75" y1="203.91" x2="194.12" y2="203.91"/><line class="cls-2" x1="136.75" y1="240.52" x2="194.12" y2="240.52"/><line class="cls-2" x1="136.75" y1="277.13" x2="194.12" y2="277.13"/><line class="cls-2" x1="136.75" y1="313.74" x2="194.12" y2="313.74"/><path class="cls-2" d="m136.73,356.04v-199.44c.05-7.44.7-13.5,6.28-20.8,6.8-8.88,22.35-18.55,22.35-18.55,0,0,15.69,9.67,22.49,18.55,5.57,7.28,6.23,13.33,6.28,24.55v195.65"/><path class="cls-2" d="m151.05,127.67c3.07,2.58,6.01,5.4,8.11,8.14,5.57,7.28,6.23,13.33,6.28,20.74"/><path class="cls-2" d="m179.82,127.67c-3.07,2.58-6.01,5.4-8.11,8.14-5.57,7.28-6.23,13.33-6.28,20.74v174.57"/></g></g><g><g><path class="cls-2" d="m198.32,713.09v-229.47c.06-7.75.8-14.06,7.2-21.66,7.79-9.26,25.61-20.85,25.61-20.85,0,0,17.98,11.6,25.77,20.85,6.38,7.58,7.13,13.89,7.2,21.61v229.53h-65.77Z"/><line class="cls-2" x1="202.53" y1="497.12" x2="259.9" y2="497.12"/><line class="cls-2" x1="202.53" y1="533.73" x2="259.9" y2="533.73"/><line class="cls-2" x1="202.53" y1="570.34" x2="259.9" y2="570.34"/><line class="cls-2" x1="202.53" y1="606.95" x2="259.9" y2="606.95"/><line class="cls-2" x1="202.53" y1="643.56" x2="259.9" y2="643.56"/><line class="cls-2" x1="202.53" y1="680.17" x2="259.9" y2="680.17"/><path class="cls-2" d="m202.5,708.64v-222.23c.05-7.44.7-13.5,6.28-20.8,6.8-8.88,22.35-18.55,22.35-18.55,0,0,15.69,9.67,22.49,18.55,5.57,7.28,6.23,13.33,6.28,20.74v222.28h-57.41Z"/><path class="cls-2" d="m216.82,457.49c3.07,2.58,6.01,5.4,8.11,8.14,5.57,7.28,6.23,13.33,6.28,20.74v222.28"/><path class="cls-2" d="m245.6,457.49c-3.07,2.58-6.01,5.4-8.11,8.14-5.57,7.28-6.23,13.33-6.28,20.74v222.28"/></g><g><path class="cls-2" d="m198.32,480.58v-216.75c.06-7.75.8-14.06,7.2-21.66,7.79-9.26,25.61-20.85,25.61-20.85,0,0,17.98,11.6,25.77,20.85,6.38,7.58,7.13,13.89,7.2,21.61v216.81"/><line class="cls-2" x1="202.53" y1="277.34" x2="259.9" y2="277.34"/><line class="cls-2" x1="202.53" y1="313.95" x2="259.9" y2="313.95"/><line class="cls-2" x1="202.53" y1="350.56" x2="259.9" y2="350.56"/><line class="cls-2" x1="202.53" y1="387.17" x2="259.9" y2="387.17"/><line class="cls-2" x1="202.53" y1="423.78" x2="259.9" y2="423.78"/><path class="cls-2" d="m202.5,466.08v-199.44c.05-7.44.7-13.5,6.28-20.8,6.8-8.88,22.35-18.55,22.35-18.55,0,0,15.69,9.67,22.49,18.55,5.57,7.28,6.23,13.33,6.28,24.55v195.65"/><path class="cls-2" d="m216.82,237.7c3.07,2.58,6.01,5.4,8.11,8.14,5.57,7.28,6.23,13.33,6.28,20.74"/><path class="cls-2" d="m245.6,237.7c-3.07,2.58-6.01,5.4-8.11,8.14-5.57,7.28-6.23,13.33-6.28,20.74v174.57"/></g><g><path class="cls-2" d="m198.32,260.27V43.51c.06-7.75.8-14.06,7.2-21.66,7.79-9.26,25.61-20.85,25.61-20.85,0,0,17.98,11.6,25.77,20.85,6.38,7.58,7.13,13.89,7.2,21.61v216.81"/><line class="cls-2" x1="202.53" y1="57.02" x2="259.9" y2="57.02"/><line class="cls-2" x1="202.53" y1="93.63" x2="259.9" y2="93.63"/><line class="cls-2" x1="202.53" y1="130.24" x2="259.9" y2="130.24"/><line class="cls-2" x1="202.53" y1="166.85" x2="259.9" y2="166.85"/><line class="cls-2" x1="202.53" y1="203.46" x2="259.9" y2="203.46"/><path class="cls-2" d="m202.5,245.76V46.32c.05-7.44.7-13.5,6.28-20.8,6.8-8.88,22.35-18.55,22.35-18.55,0,0,15.69,9.67,22.49,18.55,5.57,7.28,6.23,13.33,6.28,24.55v195.65"/><path class="cls-2" d="m216.82,17.39c3.07,2.58,6.01,5.4,8.11,8.14,5.57,7.28,6.23,13.33,6.28,20.74"/><path class="cls-2" d="m245.6,17.39c-3.07,2.58-6.01,5.4-8.11,8.14-5.57,7.28-6.23,13.33-6.28,20.74v174.57"/></g></g></g><g><g><g><path class="cls-2" d="m264.1,823.37v-229.47c.06-7.75.8-14.06,7.2-21.66,7.79-9.26,25.61-20.85,25.61-20.85,0,0,17.98,11.6,25.77,20.85,6.38,7.58,7.13,13.89,7.2,21.61v229.53h-65.77Z"/><line class="cls-2" x1="268.3" y1="607.4" x2="325.67" y2="607.4"/><line class="cls-2" x1="268.3" y1="644.01" x2="325.67" y2="644.01"/><line class="cls-2" x1="268.3" y1="680.62" x2="325.67" y2="680.62"/><line class="cls-2" x1="268.3" y1="717.23" x2="325.67" y2="717.23"/><line class="cls-2" x1="268.3" y1="753.84" x2="325.67" y2="753.84"/><line class="cls-2" x1="268.3" y1="790.45" x2="325.67" y2="790.45"/><path class="cls-2" d="m268.28,818.93v-222.23c.05-7.44.7-13.5,6.28-20.8,6.8-8.88,22.35-18.55,22.35-18.55,0,0,15.69,9.67,22.49,18.55,5.57,7.28,6.23,13.33,6.28,20.74v222.28h-57.41Z"/><path class="cls-2" d="m282.6,567.77c3.07,2.58,6.01,5.4,8.11,8.14,5.57,7.28,6.23,13.33,6.28,20.74v222.28"/><path class="cls-2" d="m311.37,567.77c-3.07,2.58-6.01,5.4-8.11,8.14-5.57,7.28-6.23,13.33-6.28,20.74v222.28"/></g><g><path class="cls-2" d="m264.1,590.87v-216.75c.06-7.75.8-14.06,7.2-21.66,7.79-9.26,25.61-20.85,25.61-20.85,0,0,17.98,11.6,25.77,20.85,6.38,7.58,7.13,13.89,7.2,21.61v216.81"/><line class="cls-2" x1="268.3" y1="387.62" x2="325.67" y2="387.62"/><line class="cls-2" x1="268.3" y1="424.23" x2="325.67" y2="424.23"/><line class="cls-2" x1="268.3" y1="460.84" x2="325.67" y2="460.84"/><line class="cls-2" x1="268.3" y1="497.45" x2="325.67" y2="497.45"/><line class="cls-2" x1="268.3" y1="534.06" x2="325.67" y2="534.06"/><path class="cls-2" d="m268.28,576.36v-199.44c.05-7.44.7-13.5,6.28-20.8,6.8-8.88,22.35-18.55,22.35-18.55,0,0,15.69,9.67,22.49,18.55,5.57,7.28,6.23,13.33,6.28,24.55v195.65"/><path class="cls-2" d="m282.6,347.99c3.07,2.58,6.01,5.4,8.11,8.14,5.57,7.28,6.23,13.33,6.28,20.74"/><path class="cls-2" d="m311.37,347.99c-3.07,2.58-6.01,5.4-8.11,8.14-5.57,7.28-6.23,13.33-6.28,20.74v174.57"/></g><g><path class="cls-2" d="m264.1,370.55v-216.75c.06-7.75.8-14.06,7.2-21.66,7.79-9.26,25.61-20.85,25.61-20.85,0,0,17.98,11.6,25.77,20.85,6.38,7.58,7.13,13.89,7.2,21.61v216.81"/><line class="cls-2" x1="268.3" y1="167.3" x2="325.67" y2="167.3"/><line class="cls-2" x1="268.3" y1="203.91" x2="325.67" y2="203.91"/><line class="cls-2" x1="268.3" y1="240.52" x2="325.67" y2="240.52"/><line class="cls-2" x1="268.3" y1="277.13" x2="325.67" y2="277.13"/><line class="cls-2" x1="268.3" y1="313.74" x2="325.67" y2="313.74"/><path class="cls-2" d="m268.28,356.04v-199.44c.05-7.44.7-13.5,6.28-20.8,6.8-8.88,22.35-18.55,22.35-18.55,0,0,15.69,9.67,22.49,18.55,5.57,7.28,6.23,13.33,6.28,24.55v195.65"/><path class="cls-2" d="m282.6,127.67c3.07,2.58,6.01,5.4,8.11,8.14,5.57,7.28,6.23,13.33,6.28,20.74"/><path class="cls-2" d="m311.37,127.67c-3.07,2.58-6.01,5.4-8.11,8.14-5.57,7.28-6.23,13.33-6.28,20.74v174.57"/></g></g><g><g><path class="cls-2" d="m329.87,713.09v-229.47c.06-7.75.8-14.06,7.2-21.66,7.79-9.26,25.61-20.85,25.61-20.85,0,0,17.98,11.6,25.77,20.85,6.38,7.58,7.13,13.89,7.2,21.61v229.53h-65.77Z"/><line class="cls-2" x1="334.07" y1="497.12" x2="391.44" y2="497.12"/><line class="cls-2" x1="334.07" y1="533.73" x2="391.44" y2="533.73"/><line class="cls-2" x1="334.07" y1="570.34" x2="391.44" y2="570.34"/><line class="cls-2" x1="334.07" y1="606.95" x2="391.44" y2="606.95"/><line class="cls-2" x1="334.07" y1="643.56" x2="391.44" y2="643.56"/><line class="cls-2" x1="334.07" y1="680.17" x2="391.44" y2="680.17"/><path class="cls-2" d="m334.05,708.64v-222.23c.05-7.44.7-13.5,6.28-20.8,6.8-8.88,22.35-18.55,22.35-18.55,0,0,15.69,9.67,22.49,18.55,5.57,7.28,6.23,13.33,6.28,20.74v222.28h-57.41Z"/><path class="cls-2" d="m348.37,457.49c3.07,2.58,6.01,5.4,8.11,8.14,5.57,7.28,6.23,13.33,6.28,20.74v222.28"/><path class="cls-2" d="m377.15,457.49c-3.07,2.58-6.01,5.4-8.11,8.14-5.57,7.28-6.23,13.33-6.28,20.74v222.28"/></g><g><path class="cls-2" d="m329.87,480.58v-216.75c.06-7.75.8-14.06,7.2-21.66,7.79-9.26,25.61-20.85,25.61-20.85,0,0,17.98,11.6,25.77,20.85,6.38,7.58,7.13,13.89,7.2,21.61v216.81"/><line class="cls-2" x1="334.07" y1="277.34" x2="391.44" y2="277.34"/><line class="cls-2" x1="334.07" y1="313.95" x2="391.44" y2="313.95"/><line class="cls-2" x1="334.07" y1="350.56" x2="391.44" y2="350.56"/><line class="cls-2" x1="334.07" y1="387.17" x2="391.44" y2="387.17"/><line class="cls-2" x1="334.07" y1="423.78" x2="391.44" y2="423.78"/><path class="cls-2" d="m334.05,466.08v-199.44c.05-7.44.7-13.5,6.28-20.8,6.8-8.88,22.35-18.55,22.35-18.55,0,0,15.69,9.67,22.49,18.55,5.57,7.28,6.23,13.33,6.28,24.55v195.65"/><path class="cls-2" d="m348.37,237.7c3.07,2.58,6.01,5.4,8.11,8.14,5.57,7.28,6.23,13.33,6.28,20.74"/><path class="cls-2" d="m377.15,237.7c-3.07,2.58-6.01,5.4-8.11,8.14-5.57,7.28-6.23,13.33-6.28,20.74v174.57"/></g><g><path class="cls-2" d="m329.87,260.27V43.51c.06-7.75.8-14.06,7.2-21.66,7.79-9.26,25.61-20.85,25.61-20.85,0,0,17.98,11.6,25.77,20.85,6.38,7.58,7.13,13.89,7.2,21.61v216.81"/><line class="cls-2" x1="334.07" y1="57.02" x2="391.44" y2="57.02"/><line class="cls-2" x1="334.07" y1="93.63" x2="391.44" y2="93.63"/><line class="cls-2" x1="334.07" y1="130.24" x2="391.44" y2="130.24"/><line class="cls-2" x1="334.07" y1="166.85" x2="391.44" y2="166.85"/><line class="cls-2" x1="334.07" y1="203.46" x2="391.44" y2="203.46"/><path class="cls-2" d="m334.05,245.76V46.32c.05-7.44.7-13.5,6.28-20.8,6.8-8.88,22.35-18.55,22.35-18.55,0,0,15.69,9.67,22.49,18.55,5.57,7.28,6.23,13.33,6.28,24.55v195.65"/><path class="cls-2" d="m348.37,17.39c3.07,2.58,6.01,5.4,8.11,8.14,5.57,7.28,6.23,13.33,6.28,20.74"/><path class="cls-2" d="m377.15,17.39c-3.07,2.58-6.01,5.4-8.11,8.14-5.57,7.28-6.23,13.33-6.28,20.74v174.57"/></g></g></g><g><g><g><path class="cls-2" d="m395.65,823.37v-229.47c.06-7.75.8-14.06,7.2-21.66,7.79-9.26,25.61-20.85,25.61-20.85,0,0,17.98,11.6,25.77,20.85,6.38,7.58,7.13,13.89,7.2,21.61v229.53h-65.77Z"/><line class="cls-2" x1="399.85" y1="607.4" x2="457.22" y2="607.4"/><line class="cls-2" x1="399.85" y1="644.01" x2="457.22" y2="644.01"/><line class="cls-2" x1="399.85" y1="680.62" x2="457.22" y2="680.62"/><line class="cls-2" x1="399.85" y1="717.23" x2="457.22" y2="717.23"/><line class="cls-2" x1="399.85" y1="753.84" x2="457.22" y2="753.84"/><line class="cls-2" x1="399.85" y1="790.45" x2="457.22" y2="790.45"/><path class="cls-2" d="m399.83,818.93v-222.23c.05-7.44.7-13.5,6.28-20.8,6.8-8.88,22.35-18.55,22.35-18.55,0,0,15.69,9.67,22.49,18.55,5.57,7.28,6.23,13.33,6.28,20.74v222.28h-57.41Z"/><path class="cls-2" d="m414.15,567.77c3.07,2.58,6.01,5.4,8.11,8.14,5.57,7.28,6.23,13.33,6.28,20.74v222.28"/><path class="cls-2" d="m442.92,567.77c-3.07,2.58-6.01,5.4-8.11,8.14-5.57,7.28-6.23,13.33-6.28,20.74v222.28"/></g><g><path class="cls-2" d="m395.65,590.87v-216.75c.06-7.75.8-14.06,7.2-21.66,7.79-9.26,25.61-20.85,25.61-20.85,0,0,17.98,11.6,25.77,20.85,6.38,7.58,7.13,13.89,7.2,21.61v216.81"/><line class="cls-2" x1="399.85" y1="387.62" x2="457.22" y2="387.62"/><line class="cls-2" x1="399.85" y1="424.23" x2="457.22" y2="424.23"/><line class="cls-2" x1="399.85" y1="460.84" x2="457.22" y2="460.84"/><line class="cls-2" x1="399.85" y1="497.45" x2="457.22" y2="497.45"/><line class="cls-2" x1="399.85" y1="534.06" x2="457.22" y2="534.06"/><path class="cls-2" d="m399.83,576.36v-199.44c.05-7.44.7-13.5,6.28-20.8,6.8-8.88,22.35-18.55,22.35-18.55,0,0,15.69,9.67,22.49,18.55,5.57,7.28,6.23,13.33,6.28,24.55v195.65"/><path class="cls-2" d="m414.15,347.99c3.07,2.58,6.01,5.4,8.11,8.14,5.57,7.28,6.23,13.33,6.28,20.74"/><path class="cls-2" d="m442.92,347.99c-3.07,2.58-6.01,5.4-8.11,8.14-5.57,7.28-6.23,13.33-6.28,20.74v174.57"/></g><g><path class="cls-2" d="m395.65,370.55v-216.75c.06-7.75.8-14.06,7.2-21.66,7.79-9.26,25.61-20.85,25.61-20.85,0,0,17.98,11.6,25.77,20.85,6.38,7.58,7.13,13.89,7.2,21.61v216.81"/><line class="cls-2" x1="399.85" y1="167.3" x2="457.22" y2="167.3"/><line class="cls-2" x1="399.85" y1="203.91" x2="457.22" y2="203.91"/><line class="cls-2" x1="399.85" y1="240.52" x2="457.22" y2="240.52"/><line class="cls-2" x1="399.85" y1="277.13" x2="457.22" y2="277.13"/><line class="cls-2" x1="399.85" y1="313.74" x2="457.22" y2="313.74"/><path class="cls-2" d="m399.83,356.04v-199.44c.05-7.44.7-13.5,6.28-20.8,6.8-8.88,22.35-18.55,22.35-18.55,0,0,15.69,9.67,22.49,18.55,5.57,7.28,6.23,13.33,6.28,24.55v195.65"/><path class="cls-2" d="m414.15,127.67c3.07,2.58,6.01,5.4,8.11,8.14,5.57,7.28,6.23,13.33,6.28,20.74"/><path class="cls-2" d="m442.92,127.67c-3.07,2.58-6.01,5.4-8.11,8.14-5.57,7.28-6.23,13.33-6.28,20.74v174.57"/></g></g><g><g><path class="cls-2" d="m461.42,713.09v-229.47c.06-7.75.8-14.06,7.2-21.66,7.79-9.26,25.61-20.85,25.61-20.85,0,0,17.98,11.6,25.77,20.85,6.38,7.58,7.13,13.89,7.2,21.61v229.53h-65.77Z"/><line class="cls-2" x1="465.62" y1="497.12" x2="522.99" y2="497.12"/><line class="cls-2" x1="465.62" y1="533.73" x2="522.99" y2="533.73"/><line class="cls-2" x1="465.62" y1="570.34" x2="522.99" y2="570.34"/><line class="cls-2" x1="465.62" y1="606.95" x2="522.99" y2="606.95"/><line class="cls-2" x1="465.62" y1="643.56" x2="522.99" y2="643.56"/><line class="cls-2" x1="465.62" y1="680.17" x2="522.99" y2="680.17"/><path class="cls-2" d="m465.6,708.64v-222.23c.05-7.44.7-13.5,6.28-20.8,6.8-8.88,22.35-18.55,22.35-18.55,0,0,15.69,9.67,22.49,18.55,5.57,7.28,6.23,13.33,6.28,20.74v222.28h-57.41Z"/><path class="cls-2" d="m479.92,457.49c3.07,2.58,6.01,5.4,8.11,8.14,5.57,7.28,6.23,13.33,6.28,20.74v222.28"/><path class="cls-2" d="m508.7,457.49c-3.07,2.58-6.01,5.4-8.11,8.14-5.57,7.28-6.23,13.33-6.28,20.74v222.28"/></g><g><path class="cls-2" d="m461.42,480.58v-216.75c.06-7.75.8-14.06,7.2-21.66,7.79-9.26,25.61-20.85,25.61-20.85,0,0,17.98,11.6,25.77,20.85,6.38,7.58,7.13,13.89,7.2,21.61v216.81"/><line class="cls-2" x1="465.62" y1="277.34" x2="522.99" y2="277.34"/><line class="cls-2" x1="465.62" y1="313.95" x2="522.99" y2="313.95"/><line class="cls-2" x1="465.62" y1="350.56" x2="522.99" y2="350.56"/><line class="cls-2" x1="465.62" y1="387.17" x2="522.99" y2="387.17"/><line class="cls-2" x1="465.62" y1="423.78" x2="522.99" y2="423.78"/><path class="cls-2" d="m465.6,466.08v-199.44c.05-7.44.7-13.5,6.28-20.8,6.8-8.88,22.35-18.55,22.35-18.55,0,0,15.69,9.67,22.49,18.55,5.57,7.28,6.23,13.33,6.28,24.55v195.65"/><path class="cls-2" d="m479.92,237.7c3.07,2.58,6.01,5.4,8.11,8.14,5.57,7.28,6.23,13.33,6.28,20.74"/><path class="cls-2" d="m508.7,237.7c-3.07,2.58-6.01,5.4-8.11,8.14-5.57,7.28-6.23,13.33-6.28,20.74v174.57"/></g><g><path class="cls-2" d="m461.42,260.27V43.51c.06-7.75.8-14.06,7.2-21.66,7.79-9.26,25.61-20.85,25.61-20.85,0,0,17.98,11.6,25.77,20.85,6.38,7.58,7.13,13.89,7.2,21.61v216.81"/><line class="cls-2" x1="465.62" y1="57.02" x2="522.99" y2="57.02"/><line class="cls-2" x1="465.62" y1="93.63" x2="522.99" y2="93.63"/><line class="cls-2" x1="465.62" y1="130.24" x2="522.99" y2="130.24"/><line class="cls-2" x1="465.62" y1="166.85" x2="522.99" y2="166.85"/><line class="cls-2" x1="465.62" y1="203.46" x2="522.99" y2="203.46"/><path class="cls-2" d="m465.6,245.76V46.32c.05-7.44.7-13.5,6.28-20.8,6.8-8.88,22.35-18.55,22.35-18.55,0,0,15.69,9.67,22.49,18.55,5.57,7.28,6.23,13.33,6.28,24.55v195.65"/><path class="cls-2" d="m479.92,17.39c3.07,2.58,6.01,5.4,8.11,8.14,5.57,7.28,6.23,13.33,6.28,20.74"/><path class="cls-2" d="m508.7,17.39c-3.07,2.58-6.01,5.4-8.11,8.14-5.57,7.28-6.23,13.33-6.28,20.74v174.57"/></g></g></g><g><g><g><path class="cls-2" d="m527.2,823.37v-229.47c.06-7.75.8-14.06,7.2-21.66,7.79-9.26,25.61-20.85,25.61-20.85,0,0,17.98,11.6,25.77,20.85,6.38,7.58,7.13,13.89,7.2,21.61v229.53h-65.77Z"/><line class="cls-2" x1="531.4" y1="607.4" x2="588.77" y2="607.4"/><line class="cls-2" x1="531.4" y1="644.01" x2="588.77" y2="644.01"/><line class="cls-2" x1="531.4" y1="680.62" x2="588.77" y2="680.62"/><line class="cls-2" x1="531.4" y1="717.23" x2="588.77" y2="717.23"/><line class="cls-2" x1="531.4" y1="753.84" x2="588.77" y2="753.84"/><line class="cls-2" x1="531.4" y1="790.45" x2="588.77" y2="790.45"/><path class="cls-2" d="m531.38,818.93v-222.23c.05-7.44.7-13.5,6.28-20.8,6.8-8.88,22.35-18.55,22.35-18.55,0,0,15.69,9.67,22.49,18.55,5.57,7.28,6.23,13.33,6.28,20.74v222.28h-57.41Z"/><path class="cls-2" d="m545.7,567.77c3.07,2.58,6.01,5.4,8.11,8.14,5.57,7.28,6.23,13.33,6.28,20.74v222.28"/><path class="cls-2" d="m574.47,567.77c-3.07,2.58-6.01,5.4-8.11,8.14-5.57,7.28-6.23,13.33-6.28,20.74v222.28"/></g><g><path class="cls-2" d="m527.2,590.87v-216.75c.06-7.75.8-14.06,7.2-21.66,7.79-9.26,25.61-20.85,25.61-20.85,0,0,17.98,11.6,25.77,20.85,6.38,7.58,7.13,13.89,7.2,21.61v216.81"/><line class="cls-2" x1="531.4" y1="387.62" x2="588.77" y2="387.62"/><line class="cls-2" x1="531.4" y1="424.23" x2="588.77" y2="424.23"/><line class="cls-2" x1="531.4" y1="460.84" x2="588.77" y2="460.84"/><line class="cls-2" x1="531.4" y1="497.45" x2="588.77" y2="497.45"/><line class="cls-2" x1="531.4" y1="534.06" x2="588.77" y2="534.06"/><path class="cls-2" d="m531.38,576.36v-199.44c.05-7.44.7-13.5,6.28-20.8,6.8-8.88,22.35-18.55,22.35-18.55,0,0,15.69,9.67,22.49,18.55,5.57,7.28,6.23,13.33,6.28,24.55v195.65"/><path class="cls-2" d="m545.7,347.99c3.07,2.58,6.01,5.4,8.11,8.14,5.57,7.28,6.23,13.33,6.28,20.74"/><path class="cls-2" d="m574.47,347.99c-3.07,2.58-6.01,5.4-8.11,8.14-5.57,7.28-6.23,13.33-6.28,20.74v174.57"/></g><g><path class="cls-2" d="m527.2,370.55v-216.75c.06-7.75.8-14.06,7.2-21.66,7.79-9.26,25.61-20.85,25.61-20.85,0,0,17.98,11.6,25.77,20.85,6.38,7.58,7.13,13.89,7.2,21.61v216.81"/><line class="cls-2" x1="531.4" y1="167.3" x2="588.77" y2="167.3"/><line class="cls-2" x1="531.4" y1="203.91" x2="588.77" y2="203.91"/><line class="cls-2" x1="531.4" y1="240.52" x2="588.77" y2="240.52"/><line class="cls-2" x1="531.4" y1="277.13" x2="588.77" y2="277.13"/><line class="cls-2" x1="531.4" y1="313.74" x2="588.77" y2="313.74"/><path class="cls-2" d="m531.38,356.04v-199.44c.05-7.44.7-13.5,6.28-20.8,6.8-8.88,22.35-18.55,22.35-18.55,0,0,15.69,9.67,22.49,18.55,5.57,7.28,6.23,13.33,6.28,24.55v195.65"/><path class="cls-2" d="m545.7,127.67c3.07,2.58,6.01,5.4,8.11,8.14,5.57,7.28,6.23,13.33,6.28,20.74"/><path class="cls-2" d="m574.47,127.67c-3.07,2.58-6.01,5.4-8.11,8.14-5.57,7.28-6.23,13.33-6.28,20.74v174.57"/></g></g><g><g><path class="cls-2" d="m592.97,713.09v-229.47c.06-7.75.8-14.06,7.2-21.66,7.79-9.26,25.61-20.85,25.61-20.85,0,0,17.98,11.6,25.77,20.85,6.38,7.58,7.13,13.89,7.2,21.61v229.53h-65.77Z"/><line class="cls-2" x1="597.17" y1="497.12" x2="654.54" y2="497.12"/><line class="cls-2" x1="597.17" y1="533.73" x2="654.54" y2="533.73"/><line class="cls-2" x1="597.17" y1="570.34" x2="654.54" y2="570.34"/><line class="cls-2" x1="597.17" y1="606.95" x2="654.54" y2="606.95"/><line class="cls-2" x1="597.17" y1="643.56" x2="654.54" y2="643.56"/><line class="cls-2" x1="597.17" y1="680.17" x2="654.54" y2="680.17"/><path class="cls-2" d="m597.15,708.64v-222.23c.05-7.44.7-13.5,6.28-20.8,6.8-8.88,22.35-18.55,22.35-18.55,0,0,15.69,9.67,22.49,18.55,5.57,7.28,6.23,13.33,6.28,20.74v222.28h-57.41Z"/><path class="cls-2" d="m611.47,457.49c3.07,2.58,6.01,5.4,8.11,8.14,5.57,7.28,6.23,13.33,6.28,20.74v222.28"/><path class="cls-2" d="m640.24,457.49c-3.07,2.58-6.01,5.4-8.11,8.14-5.57,7.28-6.23,13.33-6.28,20.74v222.28"/></g><g><path class="cls-2" d="m592.97,480.58v-216.75c.06-7.75.8-14.06,7.2-21.66,7.79-9.26,25.61-20.85,25.61-20.85,0,0,17.98,11.6,25.77,20.85,6.38,7.58,7.13,13.89,7.2,21.61v216.81"/><line class="cls-2" x1="597.17" y1="277.34" x2="654.54" y2="277.34"/><line class="cls-2" x1="597.17" y1="313.95" x2="654.54" y2="313.95"/><line class="cls-2" x1="597.17" y1="350.56" x2="654.54" y2="350.56"/><line class="cls-2" x1="597.17" y1="387.17" x2="654.54" y2="387.17"/><line class="cls-2" x1="597.17" y1="423.78" x2="654.54" y2="423.78"/><path class="cls-2" d="m597.15,466.08v-199.44c.05-7.44.7-13.5,6.28-20.8,6.8-8.88,22.35-18.55,22.35-18.55,0,0,15.69,9.67,22.49,18.55,5.57,7.28,6.23,13.33,6.28,24.55v195.65"/><path class="cls-2" d="m611.47,237.7c3.07,2.58,6.01,5.4,8.11,8.14,5.57,7.28,6.23,13.33,6.28,20.74"/><path class="cls-2" d="m640.24,237.7c-3.07,2.58-6.01,5.4-8.11,8.14-5.57,7.28-6.23,13.33-6.28,20.74v174.57"/></g><g><path class="cls-2" d="m592.97,260.27V43.51c.06-7.75.8-14.06,7.2-21.66,7.79-9.26,25.61-20.85,25.61-20.85,0,0,17.98,11.6,25.77,20.85,6.38,7.58,7.13,13.89,7.2,21.61v216.81"/><line class="cls-2" x1="597.17" y1="57.02" x2="654.54" y2="57.02"/><line class="cls-2" x1="597.17" y1="93.63" x2="654.54" y2="93.63"/><line class="cls-2" x1="597.17" y1="130.24" x2="654.54" y2="130.24"/><line class="cls-2" x1="597.17" y1="166.85" x2="654.54" y2="166.85"/><line class="cls-2" x1="597.17" y1="203.46" x2="654.54" y2="203.46"/><path class="cls-2" d="m597.15,245.76V46.32c.05-7.44.7-13.5,6.28-20.8,6.8-8.88,22.35-18.55,22.35-18.55,0,0,15.69,9.67,22.49,18.55,5.57,7.28,6.23,13.33,6.28,24.55v195.65"/><path class="cls-2" d="m611.47,17.39c3.07,2.58,6.01,5.4,8.11,8.14,5.57,7.28,6.23,13.33,6.28,20.74"/><path class="cls-2" d="m640.24,17.39c-3.07,2.58-6.01,5.4-8.11,8.14-5.57,7.28-6.23,13.33-6.28,20.74v174.57"/></g></g></g><g><g><g><path class="cls-2" d="m658.74,823.37v-229.47c.06-7.75.8-14.06,7.2-21.66,7.79-9.26,25.61-20.85,25.61-20.85,0,0,17.98,11.6,25.77,20.85,6.38,7.58,7.13,13.89,7.2,21.61v229.53h-65.77Z"/><line class="cls-2" x1="662.95" y1="607.4" x2="720.32" y2="607.4"/><line class="cls-2" x1="662.95" y1="644.01" x2="720.32" y2="644.01"/><line class="cls-2" x1="662.95" y1="680.62" x2="720.32" y2="680.62"/><line class="cls-2" x1="662.95" y1="717.23" x2="720.32" y2="717.23"/><line class="cls-2" x1="662.95" y1="753.84" x2="720.32" y2="753.84"/><line class="cls-2" x1="662.95" y1="790.45" x2="720.32" y2="790.45"/><path class="cls-2" d="m662.93,818.93v-222.23c.05-7.44.7-13.5,6.28-20.8,6.8-8.88,22.35-18.55,22.35-18.55,0,0,15.69,9.67,22.49,18.55,5.57,7.28,6.23,13.33,6.28,20.74v222.28h-57.41Z"/><path class="cls-2" d="m677.24,567.77c3.07,2.58,6.01,5.4,8.11,8.14,5.57,7.28,6.23,13.33,6.28,20.74v222.28"/><path class="cls-2" d="m706.02,567.77c-3.07,2.58-6.01,5.4-8.11,8.14-5.57,7.28-6.23,13.33-6.28,20.74v222.28"/></g><g><path class="cls-2" d="m658.74,590.87v-216.75c.06-7.75.8-14.06,7.2-21.66,7.79-9.26,25.61-20.85,25.61-20.85,0,0,17.98,11.6,25.77,20.85,6.38,7.58,7.13,13.89,7.2,21.61v216.81"/><line class="cls-2" x1="662.95" y1="387.62" x2="720.32" y2="387.62"/><line class="cls-2" x1="662.95" y1="424.23" x2="720.32" y2="424.23"/><line class="cls-2" x1="662.95" y1="460.84" x2="720.32" y2="460.84"/><line class="cls-2" x1="662.95" y1="497.45" x2="720.32" y2="497.45"/><line class="cls-2" x1="662.95" y1="534.06" x2="720.32" y2="534.06"/><path class="cls-2" d="m662.93,576.36v-199.44c.05-7.44.7-13.5,6.28-20.8,6.8-8.88,22.35-18.55,22.35-18.55,0,0,15.69,9.67,22.49,18.55,5.57,7.28,6.23,13.33,6.28,24.55v195.65"/><path class="cls-2" d="m677.24,347.99c3.07,2.58,6.01,5.4,8.11,8.14,5.57,7.28,6.23,13.33,6.28,20.74"/><path class="cls-2" d="m706.02,347.99c-3.07,2.58-6.01,5.4-8.11,8.14-5.57,7.28-6.23,13.33-6.28,20.74v174.57"/></g><g><path class="cls-2" d="m658.74,370.55v-216.75c.06-7.75.8-14.06,7.2-21.66,7.79-9.26,25.61-20.85,25.61-20.85,0,0,17.98,11.6,25.77,20.85,6.38,7.58,7.13,13.89,7.2,21.61v216.81"/><line class="cls-2" x1="662.95" y1="167.3" x2="720.32" y2="167.3"/><line class="cls-2" x1="662.95" y1="203.91" x2="720.32" y2="203.91"/><line class="cls-2" x1="662.95" y1="240.52" x2="720.32" y2="240.52"/><line class="cls-2" x1="662.95" y1="277.13" x2="720.32" y2="277.13"/><line class="cls-2" x1="662.95" y1="313.74" x2="720.32" y2="313.74"/><path class="cls-2" d="m662.93,356.04v-199.44c.05-7.44.7-13.5,6.28-20.8,6.8-8.88,22.35-18.55,22.35-18.55,0,0,15.69,9.67,22.49,18.55,5.57,7.28,6.23,13.33,6.28,24.55v195.65"/><path class="cls-2" d="m677.24,127.67c3.07,2.58,6.01,5.4,8.11,8.14,5.57,7.28,6.23,13.33,6.28,20.74"/><path class="cls-2" d="m706.02,127.67c-3.07,2.58-6.01,5.4-8.11,8.14-5.57,7.28-6.23,13.33-6.28,20.74v174.57"/></g></g><g><g><path class="cls-2" d="m724.52,713.09v-229.47c.06-7.75.8-14.06,7.2-21.66,7.79-9.26,25.61-20.85,25.61-20.85,0,0,17.98,11.6,25.77,20.85,6.38,7.58,7.13,13.89,7.2,21.61v229.53h-65.77Z"/><line class="cls-2" x1="728.72" y1="497.12" x2="786.09" y2="497.12"/><line class="cls-2" x1="728.72" y1="533.73" x2="786.09" y2="533.73"/><line class="cls-2" x1="728.72" y1="570.34" x2="786.09" y2="570.34"/><line class="cls-2" x1="728.72" y1="606.95" x2="786.09" y2="606.95"/><line class="cls-2" x1="728.72" y1="643.56" x2="786.09" y2="643.56"/><line class="cls-2" x1="728.72" y1="680.17" x2="786.09" y2="680.17"/><path class="cls-2" d="m728.7,708.64v-222.23c.05-7.44.7-13.5,6.28-20.8,6.8-8.88,22.35-18.55,22.35-18.55,0,0,15.69,9.67,22.49,18.55,5.57,7.28,6.23,13.33,6.28,20.74v222.28h-57.41Z"/><path class="cls-2" d="m743.02,457.49c3.07,2.58,6.01,5.4,8.11,8.14,5.57,7.28,6.23,13.33,6.28,20.74v222.28"/><path class="cls-2" d="m771.79,457.49c-3.07,2.58-6.01,5.4-8.11,8.14-5.57,7.28-6.23,13.33-6.28,20.74v222.28"/></g><g><path class="cls-2" d="m724.52,480.58v-216.75c.06-7.75.8-14.06,7.2-21.66,7.79-9.26,25.61-20.85,25.61-20.85,0,0,17.98,11.6,25.77,20.85,6.38,7.58,7.13,13.89,7.2,21.61v216.81"/><line class="cls-2" x1="728.72" y1="277.34" x2="786.09" y2="277.34"/><line class="cls-2" x1="728.72" y1="313.95" x2="786.09" y2="313.95"/><line class="cls-2" x1="728.72" y1="350.56" x2="786.09" y2="350.56"/><line class="cls-2" x1="728.72" y1="387.17" x2="786.09" y2="387.17"/><line class="cls-2" x1="728.72" y1="423.78" x2="786.09" y2="423.78"/><path class="cls-2" d="m728.7,466.08v-199.44c.05-7.44.7-13.5,6.28-20.8,6.8-8.88,22.35-18.55,22.35-18.55,0,0,15.69,9.67,22.49,18.55,5.57,7.28,6.23,13.33,6.28,24.55v195.65"/><path class="cls-2" d="m743.02,237.7c3.07,2.58,6.01,5.4,8.11,8.14,5.57,7.28,6.23,13.33,6.28,20.74"/><path class="cls-2" d="m771.79,237.7c-3.07,2.58-6.01,5.4-8.11,8.14-5.57,7.28-6.23,13.33-6.28,20.74v174.57"/></g><g><path class="cls-2" d="m724.52,260.27V43.51c.06-7.75.8-14.06,7.2-21.66,7.79-9.26,25.61-20.85,25.61-20.85,0,0,17.98,11.6,25.77,20.85,6.38,7.58,7.13,13.89,7.2,21.61v216.81"/><line class="cls-2" x1="728.72" y1="57.02" x2="786.09" y2="57.02"/><line class="cls-2" x1="728.72" y1="93.63" x2="786.09" y2="93.63"/><line class="cls-2" x1="728.72" y1="130.24" x2="786.09" y2="130.24"/><line class="cls-2" x1="728.72" y1="166.85" x2="786.09" y2="166.85"/><line class="cls-2" x1="728.72" y1="203.46" x2="786.09" y2="203.46"/><path class="cls-2" d="m728.7,245.76V46.32c.05-7.44.7-13.5,6.28-20.8,6.8-8.88,22.35-18.55,22.35-18.55,0,0,15.69,9.67,22.49,18.55,5.57,7.28,6.23,13.33,6.28,24.55v195.65"/><path class="cls-2" d="m743.02,17.39c3.07,2.58,6.01,5.4,8.11,8.14,5.57,7.28,6.23,13.33,6.28,20.74"/><path class="cls-2" d="m771.79,17.39c-3.07,2.58-6.01,5.4-8.11,8.14-5.57,7.28-6.23,13.33-6.28,20.74v174.57"/></g></g></g><g><g><g><path class="cls-2" d="m790.29,823.37v-229.47c.06-7.75.8-14.06,7.2-21.66,7.79-9.26,25.61-20.85,25.61-20.85,0,0,17.98,11.6,25.77,20.85,6.38,7.58,7.13,13.89,7.2,21.61v229.53h-65.77Z"/><line class="cls-2" x1="794.5" y1="607.4" x2="851.87" y2="607.4"/><line class="cls-2" x1="794.5" y1="644.01" x2="851.87" y2="644.01"/><line class="cls-2" x1="794.5" y1="680.62" x2="851.87" y2="680.62"/><line class="cls-2" x1="794.5" y1="717.23" x2="851.87" y2="717.23"/><line class="cls-2" x1="794.5" y1="753.84" x2="851.87" y2="753.84"/><line class="cls-2" x1="794.5" y1="790.45" x2="851.87" y2="790.45"/><path class="cls-2" d="m794.48,818.93v-222.23c.05-7.44.7-13.5,6.28-20.8,6.8-8.88,22.35-18.55,22.35-18.55,0,0,15.69,9.67,22.49,18.55,5.57,7.28,6.23,13.33,6.28,20.74v222.28h-57.41Z"/><path class="cls-2" d="m808.79,567.77c3.07,2.58,6.01,5.4,8.11,8.14,5.57,7.28,6.23,13.33,6.28,20.74v222.28"/><path class="cls-2" d="m837.57,567.77c-3.07,2.58-6.01,5.4-8.11,8.14-5.57,7.28-6.23,13.33-6.28,20.74v222.28"/></g><g><path class="cls-2" d="m790.29,590.87v-216.75c.06-7.75.8-14.06,7.2-21.66,7.79-9.26,25.61-20.85,25.61-20.85,0,0,17.98,11.6,25.77,20.85,6.38,7.58,7.13,13.89,7.2,21.61v216.81"/><line class="cls-2" x1="794.5" y1="387.62" x2="851.87" y2="387.62"/><line class="cls-2" x1="794.5" y1="424.23" x2="851.87" y2="424.23"/><line class="cls-2" x1="794.5" y1="460.84" x2="851.87" y2="460.84"/><line class="cls-2" x1="794.5" y1="497.45" x2="851.87" y2="497.45"/><line class="cls-2" x1="794.5" y1="534.06" x2="851.87" y2="534.06"/><path class="cls-2" d="m794.48,576.36v-199.44c.05-7.44.7-13.5,6.28-20.8,6.8-8.88,22.35-18.55,22.35-18.55,0,0,15.69,9.67,22.49,18.55,5.57,7.28,6.23,13.33,6.28,24.55v195.65"/><path class="cls-2" d="m808.79,347.99c3.07,2.58,6.01,5.4,8.11,8.14,5.57,7.28,6.23,13.33,6.28,20.74"/><path class="cls-2" d="m837.57,347.99c-3.07,2.58-6.01,5.4-8.11,8.14-5.57,7.28-6.23,13.33-6.28,20.74v174.57"/></g><g><path class="cls-2" d="m790.29,370.55v-216.75c.06-7.75.8-14.06,7.2-21.66,7.79-9.26,25.61-20.85,25.61-20.85,0,0,17.98,11.6,25.77,20.85,6.38,7.58,7.13,13.89,7.2,21.61v216.81"/><line class="cls-2" x1="794.5" y1="167.3" x2="851.87" y2="167.3"/><line class="cls-2" x1="794.5" y1="203.91" x2="851.87" y2="203.91"/><line class="cls-2" x1="794.5" y1="240.52" x2="851.87" y2="240.52"/><line class="cls-2" x1="794.5" y1="277.13" x2="851.87" y2="277.13"/><line class="cls-2" x1="794.5" y1="313.74" x2="851.87" y2="313.74"/><path class="cls-2" d="m794.48,356.04v-199.44c.05-7.44.7-13.5,6.28-20.8,6.8-8.88,22.35-18.55,22.35-18.55,0,0,15.69,9.67,22.49,18.55,5.57,7.28,6.23,13.33,6.28,24.55v195.65"/><path class="cls-2" d="m808.79,127.67c3.07,2.58,6.01,5.4,8.11,8.14,5.57,7.28,6.23,13.33,6.28,20.74"/><path class="cls-2" d="m837.57,127.67c-3.07,2.58-6.01,5.4-8.11,8.14-5.57,7.28-6.23,13.33-6.28,20.74v174.57"/></g></g><g><g><path class="cls-2" d="m856.07,713.09v-229.47c.06-7.75.8-14.06,7.2-21.66,7.79-9.26,25.61-20.85,25.61-20.85,0,0,17.98,11.6,25.77,20.85,6.38,7.58,7.13,13.89,7.2,21.61v229.53h-65.77Z"/><line class="cls-2" x1="860.27" y1="497.12" x2="917.64" y2="497.12"/><line class="cls-2" x1="860.27" y1="533.73" x2="917.64" y2="533.73"/><line class="cls-2" x1="860.27" y1="570.34" x2="917.64" y2="570.34"/><line class="cls-2" x1="860.27" y1="606.95" x2="917.64" y2="606.95"/><line class="cls-2" x1="860.27" y1="643.56" x2="917.64" y2="643.56"/><line class="cls-2" x1="860.27" y1="680.17" x2="917.64" y2="680.17"/><path class="cls-2" d="m860.25,708.64v-222.23c.05-7.44.7-13.5,6.28-20.8,6.8-8.88,22.35-18.55,22.35-18.55,0,0,15.69,9.67,22.49,18.55,5.57,7.28,6.23,13.33,6.28,20.74v222.28h-57.41Z"/><path class="cls-2" d="m874.57,457.49c3.07,2.58,6.01,5.4,8.11,8.14,5.57,7.28,6.23,13.33,6.28,20.74v222.28"/><path class="cls-2" d="m903.34,457.49c-3.07,2.58-6.01,5.4-8.11,8.14-5.57,7.28-6.23,13.33-6.28,20.74v222.28"/></g><g><path class="cls-2" d="m856.07,480.58v-216.75c.06-7.75.8-14.06,7.2-21.66,7.79-9.26,25.61-20.85,25.61-20.85,0,0,17.98,11.6,25.77,20.85,6.38,7.58,7.13,13.89,7.2,21.61v216.81"/><line class="cls-2" x1="860.27" y1="277.34" x2="917.64" y2="277.34"/><line class="cls-2" x1="860.27" y1="313.95" x2="917.64" y2="313.95"/><line class="cls-2" x1="860.27" y1="350.56" x2="917.64" y2="350.56"/><line class="cls-2" x1="860.27" y1="387.17" x2="917.64" y2="387.17"/><line class="cls-2" x1="860.27" y1="423.78" x2="917.64" y2="423.78"/><path class="cls-2" d="m860.25,466.08v-199.44c.05-7.44.7-13.5,6.28-20.8,6.8-8.88,22.35-18.55,22.35-18.55,0,0,15.69,9.67,22.49,18.55,5.57,7.28,6.23,13.33,6.28,24.55v195.65"/><path class="cls-2" d="m874.57,237.7c3.07,2.58,6.01,5.4,8.11,8.14,5.57,7.28,6.23,13.33,6.28,20.74"/><path class="cls-2" d="m903.34,237.7c-3.07,2.58-6.01,5.4-8.11,8.14-5.57,7.28-6.23,13.33-6.28,20.74v174.57"/></g><g><path class="cls-2" d="m856.07,260.27V43.51c.06-7.75.8-14.06,7.2-21.66,7.79-9.26,25.61-20.85,25.61-20.85,0,0,17.98,11.6,25.77,20.85,6.38,7.58,7.13,13.89,7.2,21.61v216.81"/><line class="cls-2" x1="860.27" y1="57.02" x2="917.64" y2="57.02"/><line class="cls-2" x1="860.27" y1="93.63" x2="917.64" y2="93.63"/><line class="cls-2" x1="860.27" y1="130.24" x2="917.64" y2="130.24"/><line class="cls-2" x1="860.27" y1="166.85" x2="917.64" y2="166.85"/><line class="cls-2" x1="860.27" y1="203.46" x2="917.64" y2="203.46"/><path class="cls-2" d="m860.25,245.76V46.32c.05-7.44.7-13.5,6.28-20.8,6.8-8.88,22.35-18.55,22.35-18.55,0,0,15.69,9.67,22.49,18.55,5.57,7.28,6.23,13.33,6.28,24.55v195.65"/><path class="cls-2" d="m874.57,17.39c3.07,2.58,6.01,5.4,8.11,8.14,5.57,7.28,6.23,13.33,6.28,20.74"/><path class="cls-2" d="m903.34,17.39c-3.07,2.58-6.01,5.4-8.11,8.14-5.57,7.28-6.23,13.33-6.28,20.74v174.57"/></g></g></g><g><g><g><path class="cls-2" d="m921.84,823.37v-229.47c.06-7.75.8-14.06,7.2-21.66,7.79-9.26,25.61-20.85,25.61-20.85,0,0,17.98,11.6,25.77,20.85,6.38,7.58,7.13,13.89,7.2,21.61v229.53h-65.77Z"/><line class="cls-2" x1="926.04" y1="607.4" x2="983.42" y2="607.4"/><line class="cls-2" x1="926.04" y1="644.01" x2="983.42" y2="644.01"/><line class="cls-2" x1="926.04" y1="680.62" x2="983.42" y2="680.62"/><line class="cls-2" x1="926.04" y1="717.23" x2="983.42" y2="717.23"/><line class="cls-2" x1="926.04" y1="753.84" x2="983.42" y2="753.84"/><line class="cls-2" x1="926.04" y1="790.45" x2="983.42" y2="790.45"/><path class="cls-2" d="m926.02,818.93v-222.23c.05-7.44.7-13.5,6.28-20.8,6.8-8.88,22.35-18.55,22.35-18.55,0,0,15.69,9.67,22.49,18.55,5.57,7.28,6.23,13.33,6.28,20.74v222.28h-57.41Z"/><path class="cls-2" d="m940.34,567.77c3.07,2.58,6.01,5.4,8.11,8.14,5.57,7.28,6.23,13.33,6.28,20.74v222.28"/><path class="cls-2" d="m969.12,567.77c-3.07,2.58-6.01,5.4-8.11,8.14-5.57,7.28-6.23,13.33-6.28,20.74v222.28"/></g><g><path class="cls-2" d="m921.84,590.87v-216.75c.06-7.75.8-14.06,7.2-21.66,7.79-9.26,25.61-20.85,25.61-20.85,0,0,17.98,11.6,25.77,20.85,6.38,7.58,7.13,13.89,7.2,21.61v216.81"/><line class="cls-2" x1="926.04" y1="387.62" x2="983.42" y2="387.62"/><line class="cls-2" x1="926.04" y1="424.23" x2="983.42" y2="424.23"/><line class="cls-2" x1="926.04" y1="460.84" x2="983.42" y2="460.84"/><line class="cls-2" x1="926.04" y1="497.45" x2="983.42" y2="497.45"/><line class="cls-2" x1="926.04" y1="534.06" x2="983.42" y2="534.06"/><path class="cls-2" d="m926.02,576.36v-199.44c.05-7.44.7-13.5,6.28-20.8,6.8-8.88,22.35-18.55,22.35-18.55,0,0,15.69,9.67,22.49,18.55,5.57,7.28,6.23,13.33,6.28,24.55v195.65"/><path class="cls-2" d="m940.34,347.99c3.07,2.58,6.01,5.4,8.11,8.14,5.57,7.28,6.23,13.33,6.28,20.74"/><path class="cls-2" d="m969.12,347.99c-3.07,2.58-6.01,5.4-8.11,8.14-5.57,7.28-6.23,13.33-6.28,20.74v174.57"/></g><g><path class="cls-2" d="m921.84,370.55v-216.75c.06-7.75.8-14.06,7.2-21.66,7.79-9.26,25.61-20.85,25.61-20.85,0,0,17.98,11.6,25.77,20.85,6.38,7.58,7.13,13.89,7.2,21.61v216.81"/><line class="cls-2" x1="926.04" y1="167.3" x2="983.42" y2="167.3"/><line class="cls-2" x1="926.04" y1="203.91" x2="983.42" y2="203.91"/><line class="cls-2" x1="926.04" y1="240.52" x2="983.42" y2="240.52"/><line class="cls-2" x1="926.04" y1="277.13" x2="983.42" y2="277.13"/><line class="cls-2" x1="926.04" y1="313.74" x2="983.42" y2="313.74"/><path class="cls-2" d="m926.02,356.04v-199.44c.05-7.44.7-13.5,6.28-20.8,6.8-8.88,22.35-18.55,22.35-18.55,0,0,15.69,9.67,22.49,18.55,5.57,7.28,6.23,13.33,6.28,24.55v195.65"/><path class="cls-2" d="m940.34,127.67c3.07,2.58,6.01,5.4,8.11,8.14,5.57,7.28,6.23,13.33,6.28,20.74"/><path class="cls-2" d="m969.12,127.67c-3.07,2.58-6.01,5.4-8.11,8.14-5.57,7.28-6.23,13.33-6.28,20.74v174.57"/></g></g><g><g><path class="cls-2" d="m987.62,713.09v-229.47c.06-7.75.8-14.06,7.2-21.66,7.79-9.26,25.61-20.85,25.61-20.85,0,0,17.98,11.6,25.77,20.85,6.38,7.58,7.13,13.89,7.2,21.61v229.53h-65.77Z"/><line class="cls-2" x1="991.82" y1="497.12" x2="1049.19" y2="497.12"/><line class="cls-2" x1="991.82" y1="533.73" x2="1049.19" y2="533.73"/><line class="cls-2" x1="991.82" y1="570.34" x2="1049.19" y2="570.34"/><line class="cls-2" x1="991.82" y1="606.95" x2="1049.19" y2="606.95"/><line class="cls-2" x1="991.82" y1="643.56" x2="1049.19" y2="643.56"/><line class="cls-2" x1="991.82" y1="680.17" x2="1049.19" y2="680.17"/><path class="cls-2" d="m991.8,708.64v-222.23c.05-7.44.7-13.5,6.28-20.8,6.8-8.88,22.35-18.55,22.35-18.55,0,0,15.69,9.67,22.49,18.55,5.57,7.28,6.23,13.33,6.28,20.74v222.28h-57.41Z"/><path class="cls-2" d="m1006.12,457.49c3.07,2.58,6.01,5.4,8.11,8.14,5.57,7.28,6.23,13.33,6.28,20.74v222.28"/><path class="cls-2" d="m1034.89,457.49c-3.07,2.58-6.01,5.4-8.11,8.14-5.57,7.28-6.23,13.33-6.28,20.74v222.28"/></g><g><path class="cls-2" d="m987.62,480.58v-216.75c.06-7.75.8-14.06,7.2-21.66,7.79-9.26,25.61-20.85,25.61-20.85,0,0,17.98,11.6,25.77,20.85,6.38,7.58,7.13,13.89,7.2,21.61v216.81"/><line class="cls-2" x1="991.82" y1="277.34" x2="1049.19" y2="277.34"/><line class="cls-2" x1="991.82" y1="313.95" x2="1049.19" y2="313.95"/><line class="cls-2" x1="991.82" y1="350.56" x2="1049.19" y2="350.56"/><line class="cls-2" x1="991.82" y1="387.17" x2="1049.19" y2="387.17"/><line class="cls-2" x1="991.82" y1="423.78" x2="1049.19" y2="423.78"/><path class="cls-2" d="m991.8,466.08v-199.44c.05-7.44.7-13.5,6.28-20.8,6.8-8.88,22.35-18.55,22.35-18.55,0,0,15.69,9.67,22.49,18.55,5.57,7.28,6.23,13.33,6.28,24.55v195.65"/><path class="cls-2" d="m1006.12,237.7c3.07,2.58,6.01,5.4,8.11,8.14,5.57,7.28,6.23,13.33,6.28,20.74"/><path class="cls-2" d="m1034.89,237.7c-3.07,2.58-6.01,5.4-8.11,8.14-5.57,7.28-6.23,13.33-6.28,20.74v174.57"/></g><g><path class="cls-2" d="m987.62,260.27V43.51c.06-7.75.8-14.06,7.2-21.66,7.79-9.26,25.61-20.85,25.61-20.85,0,0,17.98,11.6,25.77,20.85,6.38,7.58,7.13,13.89,7.2,21.61v216.81"/><line class="cls-2" x1="991.82" y1="57.02" x2="1049.19" y2="57.02"/><line class="cls-2" x1="991.82" y1="93.63" x2="1049.19" y2="93.63"/><line class="cls-2" x1="991.82" y1="130.24" x2="1049.19" y2="130.24"/><line class="cls-2" x1="991.82" y1="166.85" x2="1049.19" y2="166.85"/><line class="cls-2" x1="991.82" y1="203.46" x2="1049.19" y2="203.46"/><path class="cls-2" d="m991.8,245.76V46.32c.05-7.44.7-13.5,6.28-20.8,6.8-8.88,22.35-18.55,22.35-18.55,0,0,15.69,9.67,22.49,18.55,5.57,7.28,6.23,13.33,6.28,24.55v195.65"/><path class="cls-2" d="m1006.12,17.39c3.07,2.58,6.01,5.4,8.11,8.14,5.57,7.28,6.23,13.33,6.28,20.74"/><path class="cls-2" d="m1034.89,17.39c-3.07,2.58-6.01,5.4-8.11,8.14-5.57,7.28-6.23,13.33-6.28,20.74v174.57"/></g></g></g><g><g><g><path class="cls-2" d="m1053.39,823.37v-229.47c.06-7.75.8-14.06,7.2-21.66,7.79-9.26,25.61-20.85,25.61-20.85,0,0,17.98,11.6,25.77,20.85,6.38,7.58,7.13,13.89,7.2,21.61v229.53h-65.77Z"/><line class="cls-2" x1="1057.59" y1="607.4" x2="1114.96" y2="607.4"/><line class="cls-2" x1="1057.59" y1="644.01" x2="1114.96" y2="644.01"/><line class="cls-2" x1="1057.59" y1="680.62" x2="1114.96" y2="680.62"/><line class="cls-2" x1="1057.59" y1="717.23" x2="1114.96" y2="717.23"/><line class="cls-2" x1="1057.59" y1="753.84" x2="1114.96" y2="753.84"/><line class="cls-2" x1="1057.59" y1="790.45" x2="1114.96" y2="790.45"/><path class="cls-2" d="m1057.57,818.93v-222.23c.05-7.44.7-13.5,6.28-20.8,6.8-8.88,22.35-18.55,22.35-18.55,0,0,15.69,9.67,22.49,18.55,5.57,7.28,6.23,13.33,6.28,20.74v222.28h-57.41Z"/><path class="cls-2" d="m1071.89,567.77c3.07,2.58,6.01,5.4,8.11,8.14,5.57,7.28,6.23,13.33,6.28,20.74v222.28"/><path class="cls-2" d="m1100.67,567.77c-3.07,2.58-6.01,5.4-8.11,8.14-5.57,7.28-6.23,13.33-6.28,20.74v222.28"/></g><g><path class="cls-2" d="m1053.39,590.87v-216.75c.06-7.75.8-14.06,7.2-21.66,7.79-9.26,25.61-20.85,25.61-20.85,0,0,17.98,11.6,25.77,20.85,6.38,7.58,7.13,13.89,7.2,21.61v216.81"/><line class="cls-2" x1="1057.59" y1="387.62" x2="1114.96" y2="387.62"/><line class="cls-2" x1="1057.59" y1="424.23" x2="1114.96" y2="424.23"/><line class="cls-2" x1="1057.59" y1="460.84" x2="1114.96" y2="460.84"/><line class="cls-2" x1="1057.59" y1="497.45" x2="1114.96" y2="497.45"/><line class="cls-2" x1="1057.59" y1="534.06" x2="1114.96" y2="534.06"/><path class="cls-2" d="m1057.57,576.36v-199.44c.05-7.44.7-13.5,6.28-20.8,6.8-8.88,22.35-18.55,22.35-18.55,0,0,15.69,9.67,22.49,18.55,5.57,7.28,6.23,13.33,6.28,24.55v195.65"/><path class="cls-2" d="m1071.89,347.99c3.07,2.58,6.01,5.4,8.11,8.14,5.57,7.28,6.23,13.33,6.28,20.74"/><path class="cls-2" d="m1100.67,347.99c-3.07,2.58-6.01,5.4-8.11,8.14-5.57,7.28-6.23,13.33-6.28,20.74v174.57"/></g><g><path class="cls-2" d="m1053.39,370.55v-216.75c.06-7.75.8-14.06,7.2-21.66,7.79-9.26,25.61-20.85,25.61-20.85,0,0,17.98,11.6,25.77,20.85,6.38,7.58,7.13,13.89,7.2,21.61v216.81"/><line class="cls-2" x1="1057.59" y1="167.3" x2="1114.96" y2="167.3"/><line class="cls-2" x1="1057.59" y1="203.91" x2="1114.96" y2="203.91"/><line class="cls-2" x1="1057.59" y1="240.52" x2="1114.96" y2="240.52"/><line class="cls-2" x1="1057.59" y1="277.13" x2="1114.96" y2="277.13"/><line class="cls-2" x1="1057.59" y1="313.74" x2="1114.96" y2="313.74"/><path class="cls-2" d="m1057.57,356.04v-199.44c.05-7.44.7-13.5,6.28-20.8,6.8-8.88,22.35-18.55,22.35-18.55,0,0,15.69,9.67,22.49,18.55,5.57,7.28,6.23,13.33,6.28,24.55v195.65"/><path class="cls-2" d="m1071.89,127.67c3.07,2.58,6.01,5.4,8.11,8.14,5.57,7.28,6.23,13.33,6.28,20.74"/><path class="cls-2" d="m1100.67,127.67c-3.07,2.58-6.01,5.4-8.11,8.14-5.57,7.28-6.23,13.33-6.28,20.74v174.57"/></g></g><g><g><path class="cls-2" d="m1119.17,713.09v-229.47c.06-7.75.8-14.06,7.2-21.66,7.79-9.26,25.61-20.85,25.61-20.85,0,0,17.98,11.6,25.77,20.85,6.38,7.58,7.13,13.89,7.2,21.61v229.53h-65.77Z"/><line class="cls-2" x1="1123.37" y1="497.12" x2="1180.74" y2="497.12"/><line class="cls-2" x1="1123.37" y1="533.73" x2="1180.74" y2="533.73"/><line class="cls-2" x1="1123.37" y1="570.34" x2="1180.74" y2="570.34"/><line class="cls-2" x1="1123.37" y1="606.95" x2="1180.74" y2="606.95"/><line class="cls-2" x1="1123.37" y1="643.56" x2="1180.74" y2="643.56"/><line class="cls-2" x1="1123.37" y1="680.17" x2="1180.74" y2="680.17"/><path class="cls-2" d="m1123.35,708.64v-222.23c.05-7.44.7-13.5,6.28-20.8,6.8-8.88,22.35-18.55,22.35-18.55,0,0,15.69,9.67,22.49,18.55,5.57,7.28,6.23,13.33,6.28,20.74v222.28h-57.41Z"/><path class="cls-2" d="m1137.67,457.49c3.07,2.58,6.01,5.4,8.11,8.14,5.57,7.28,6.23,13.33,6.28,20.74v222.28"/><path class="cls-2" d="m1166.44,457.49c-3.07,2.58-6.01,5.4-8.11,8.14-5.57,7.28-6.23,13.33-6.28,20.74v222.28"/></g><g><path class="cls-2" d="m1119.17,480.58v-216.75c.06-7.75.8-14.06,7.2-21.66,7.79-9.26,25.61-20.85,25.61-20.85,0,0,17.98,11.6,25.77,20.85,6.38,7.58,7.13,13.89,7.2,21.61v216.81"/><line class="cls-2" x1="1123.37" y1="277.34" x2="1180.74" y2="277.34"/><line class="cls-2" x1="1123.37" y1="313.95" x2="1180.74" y2="313.95"/><line class="cls-2" x1="1123.37" y1="350.56" x2="1180.74" y2="350.56"/><line class="cls-2" x1="1123.37" y1="387.17" x2="1180.74" y2="387.17"/><line class="cls-2" x1="1123.37" y1="423.78" x2="1180.74" y2="423.78"/><path class="cls-2" d="m1123.35,466.08v-199.44c.05-7.44.7-13.5,6.28-20.8,6.8-8.88,22.35-18.55,22.35-18.55,0,0,15.69,9.67,22.49,18.55,5.57,7.28,6.23,13.33,6.28,24.55v195.65"/><path class="cls-2" d="m1137.67,237.7c3.07,2.58,6.01,5.4,8.11,8.14,5.57,7.28,6.23,13.33,6.28,20.74"/><path class="cls-2" d="m1166.44,237.7c-3.07,2.58-6.01,5.4-8.11,8.14-5.57,7.28-6.23,13.33-6.28,20.74v174.57"/></g><g><path class="cls-2" d="m1119.17,260.27V43.51c.06-7.75.8-14.06,7.2-21.66,7.79-9.26,25.61-20.85,25.61-20.85,0,0,17.98,11.6,25.77,20.85,6.38,7.58,7.13,13.89,7.2,21.61v216.81"/><line class="cls-2" x1="1123.37" y1="57.02" x2="1180.74" y2="57.02"/><line class="cls-2" x1="1123.37" y1="93.63" x2="1180.74" y2="93.63"/><line class="cls-2" x1="1123.37" y1="130.24" x2="1180.74" y2="130.24"/><line class="cls-2" x1="1123.37" y1="166.85" x2="1180.74" y2="166.85"/><line class="cls-2" x1="1123.37" y1="203.46" x2="1180.74" y2="203.46"/><path class="cls-2" d="m1123.35,245.76V46.32c.05-7.44.7-13.5,6.28-20.8,6.8-8.88,22.35-18.55,22.35-18.55,0,0,15.69,9.67,22.49,18.55,5.57,7.28,6.23,13.33,6.28,24.55v195.65"/><path class="cls-2" d="m1137.67,17.39c3.07,2.58,6.01,5.4,8.11,8.14,5.57,7.28,6.23,13.33,6.28,20.74"/><path class="cls-2" d="m1166.44,17.39c-3.07,2.58-6.01,5.4-8.11,8.14-5.57,7.28-6.23,13.33-6.28,20.74v174.57"/></g></g></g><g><g><g><path class="cls-2" d="m1184.94,823.37v-229.47c.06-7.75.8-14.06,7.2-21.66,7.79-9.26,25.61-20.85,25.61-20.85,0,0,17.98,11.6,25.77,20.85,6.38,7.58,7.13,13.89,7.2,21.61v229.53h-65.77Z"/><line class="cls-2" x1="1189.14" y1="607.4" x2="1246.51" y2="607.4"/><line class="cls-2" x1="1189.14" y1="644.01" x2="1246.51" y2="644.01"/><line class="cls-2" x1="1189.14" y1="680.62" x2="1246.51" y2="680.62"/><line class="cls-2" x1="1189.14" y1="717.23" x2="1246.51" y2="717.23"/><line class="cls-2" x1="1189.14" y1="753.84" x2="1246.51" y2="753.84"/><line class="cls-2" x1="1189.14" y1="790.45" x2="1246.51" y2="790.45"/><path class="cls-2" d="m1189.12,818.93v-222.23c.05-7.44.7-13.5,6.28-20.8,6.8-8.88,22.35-18.55,22.35-18.55,0,0,15.69,9.67,22.49,18.55,5.57,7.28,6.23,13.33,6.28,20.74v222.28h-57.41Z"/><path class="cls-2" d="m1203.44,567.77c3.07,2.58,6.01,5.4,8.11,8.14,5.57,7.28,6.23,13.33,6.28,20.74v222.28"/><path class="cls-2" d="m1232.21,567.77c-3.07,2.58-6.01,5.4-8.11,8.14-5.57,7.28-6.23,13.33-6.28,20.74v222.28"/></g><g><path class="cls-2" d="m1184.94,590.87v-216.75c.06-7.75.8-14.06,7.2-21.66,7.79-9.26,25.61-20.85,25.61-20.85,0,0,17.98,11.6,25.77,20.85,6.38,7.58,7.13,13.89,7.2,21.61v216.81"/><line class="cls-2" x1="1189.14" y1="387.62" x2="1246.51" y2="387.62"/><line class="cls-2" x1="1189.14" y1="424.23" x2="1246.51" y2="424.23"/><line class="cls-2" x1="1189.14" y1="460.84" x2="1246.51" y2="460.84"/><line class="cls-2" x1="1189.14" y1="497.45" x2="1246.51" y2="497.45"/><line class="cls-2" x1="1189.14" y1="534.06" x2="1246.51" y2="534.06"/><path class="cls-2" d="m1189.12,576.36v-199.44c.05-7.44.7-13.5,6.28-20.8,6.8-8.88,22.35-18.55,22.35-18.55,0,0,15.69,9.67,22.49,18.55,5.57,7.28,6.23,13.33,6.28,24.55v195.65"/><path class="cls-2" d="m1203.44,347.99c3.07,2.58,6.01,5.4,8.11,8.14,5.57,7.28,6.23,13.33,6.28,20.74"/><path class="cls-2" d="m1232.21,347.99c-3.07,2.58-6.01,5.4-8.11,8.14-5.57,7.28-6.23,13.33-6.28,20.74v174.57"/></g><g><path class="cls-2" d="m1184.94,370.55v-216.75c.06-7.75.8-14.06,7.2-21.66,7.79-9.26,25.61-20.85,25.61-20.85,0,0,17.98,11.6,25.77,20.85,6.38,7.58,7.13,13.89,7.2,21.61v216.81"/><line class="cls-2" x1="1189.14" y1="167.3" x2="1246.51" y2="167.3"/><line class="cls-2" x1="1189.14" y1="203.91" x2="1246.51" y2="203.91"/><line class="cls-2" x1="1189.14" y1="240.52" x2="1246.51" y2="240.52"/><line class="cls-2" x1="1189.14" y1="277.13" x2="1246.51" y2="277.13"/><line class="cls-2" x1="1189.14" y1="313.74" x2="1246.51" y2="313.74"/><path class="cls-2" d="m1189.12,356.04v-199.44c.05-7.44.7-13.5,6.28-20.8,6.8-8.88,22.35-18.55,22.35-18.55,0,0,15.69,9.67,22.49,18.55,5.57,7.28,6.23,13.33,6.28,24.55v195.65"/><path class="cls-2" d="m1203.44,127.67c3.07,2.58,6.01,5.4,8.11,8.14,5.57,7.28,6.23,13.33,6.28,20.74"/><path class="cls-2" d="m1232.21,127.67c-3.07,2.58-6.01,5.4-8.11,8.14-5.57,7.28-6.23,13.33-6.28,20.74v174.57"/></g></g><g><g><path class="cls-2" d="m1250.71,713.09v-229.47c.06-7.75.8-14.06,7.2-21.66,7.79-9.26,25.61-20.85,25.61-20.85,0,0,17.98,11.6,25.77,20.85,6.38,7.58,7.13,13.89,7.2,21.61v229.53h-65.77Z"/><line class="cls-2" x1="1254.92" y1="497.12" x2="1312.29" y2="497.12"/><line class="cls-2" x1="1254.92" y1="533.73" x2="1312.29" y2="533.73"/><line class="cls-2" x1="1254.92" y1="570.34" x2="1312.29" y2="570.34"/><line class="cls-2" x1="1254.92" y1="606.95" x2="1312.29" y2="606.95"/><line class="cls-2" x1="1254.92" y1="643.56" x2="1312.29" y2="643.56"/><line class="cls-2" x1="1254.92" y1="680.17" x2="1312.29" y2="680.17"/><path class="cls-2" d="m1254.9,708.64v-222.23c.05-7.44.7-13.5,6.28-20.8,6.8-8.88,22.35-18.55,22.35-18.55,0,0,15.69,9.67,22.49,18.55,5.57,7.28,6.23,13.33,6.28,20.74v222.28h-57.41Z"/><path class="cls-2" d="m1269.22,457.49c3.07,2.58,6.01,5.4,8.11,8.14,5.57,7.28,6.23,13.33,6.28,20.74v222.28"/><path class="cls-2" d="m1297.99,457.49c-3.07,2.58-6.01,5.4-8.11,8.14-5.57,7.28-6.23,13.33-6.28,20.74v222.28"/></g><g><path class="cls-2" d="m1250.71,480.58v-216.75c.06-7.75.8-14.06,7.2-21.66,7.79-9.26,25.61-20.85,25.61-20.85,0,0,17.98,11.6,25.77,20.85,6.38,7.58,7.13,13.89,7.2,21.61v216.81"/><line class="cls-2" x1="1254.92" y1="277.34" x2="1312.29" y2="277.34"/><line class="cls-2" x1="1254.92" y1="313.95" x2="1312.29" y2="313.95"/><line class="cls-2" x1="1254.92" y1="350.56" x2="1312.29" y2="350.56"/><line class="cls-2" x1="1254.92" y1="387.17" x2="1312.29" y2="387.17"/><line class="cls-2" x1="1254.92" y1="423.78" x2="1312.29" y2="423.78"/><path class="cls-2" d="m1254.9,466.08v-199.44c.05-7.44.7-13.5,6.28-20.8,6.8-8.88,22.35-18.55,22.35-18.55,0,0,15.69,9.67,22.49,18.55,5.57,7.28,6.23,13.33,6.28,24.55v195.65"/><path class="cls-2" d="m1269.22,237.7c3.07,2.58,6.01,5.4,8.11,8.14,5.57,7.28,6.23,13.33,6.28,20.74"/><path class="cls-2" d="m1297.99,237.7c-3.07,2.58-6.01,5.4-8.11,8.14-5.57,7.28-6.23,13.33-6.28,20.74v174.57"/></g><g><path class="cls-2" d="m1250.71,260.27V43.51c.06-7.75.8-14.06,7.2-21.66,7.79-9.26,25.61-20.85,25.61-20.85,0,0,17.98,11.6,25.77,20.85,6.38,7.58,7.13,13.89,7.2,21.61v216.81"/><line class="cls-2" x1="1254.92" y1="57.02" x2="1312.29" y2="57.02"/><line class="cls-2" x1="1254.92" y1="93.63" x2="1312.29" y2="93.63"/><line class="cls-2" x1="1254.92" y1="130.24" x2="1312.29" y2="130.24"/><line class="cls-2" x1="1254.92" y1="166.85" x2="1312.29" y2="166.85"/><line class="cls-2" x1="1254.92" y1="203.46" x2="1312.29" y2="203.46"/><path class="cls-2" d="m1254.9,245.76V46.32c.05-7.44.7-13.5,6.28-20.8,6.8-8.88,22.35-18.55,22.35-18.55,0,0,15.69,9.67,22.49,18.55,5.57,7.28,6.23,13.33,6.28,24.55v195.65"/><path class="cls-2" d="m1269.22,17.39c3.07,2.58,6.01,5.4,8.11,8.14,5.57,7.28,6.23,13.33,6.28,20.74"/><path class="cls-2" d="m1297.99,17.39c-3.07,2.58-6.01,5.4-8.11,8.14-5.57,7.28-6.23,13.33-6.28,20.74v174.57"/></g></g></g><g><g><g><path class="cls-2" d="m1316.49,823.37v-229.47c.06-7.75.8-14.06,7.2-21.66,7.79-9.26,25.61-20.85,25.61-20.85,0,0,17.98,11.6,25.77,20.85,6.38,7.58,7.13,13.89,7.2,21.61v229.53h-65.77Z"/><line class="cls-2" x1="1320.69" y1="607.4" x2="1378.06" y2="607.4"/><line class="cls-2" x1="1320.69" y1="644.01" x2="1378.06" y2="644.01"/><line class="cls-2" x1="1320.69" y1="680.62" x2="1378.06" y2="680.62"/><line class="cls-2" x1="1320.69" y1="717.23" x2="1378.06" y2="717.23"/><line class="cls-2" x1="1320.69" y1="753.84" x2="1378.06" y2="753.84"/><line class="cls-2" x1="1320.69" y1="790.45" x2="1378.06" y2="790.45"/><path class="cls-2" d="m1320.67,818.93v-222.23c.05-7.44.7-13.5,6.28-20.8,6.8-8.88,22.35-18.55,22.35-18.55,0,0,15.69,9.67,22.49,18.55,5.57,7.28,6.23,13.33,6.28,20.74v222.28h-57.41Z"/><path class="cls-2" d="m1334.99,567.77c3.07,2.58,6.01,5.4,8.11,8.14,5.57,7.28,6.23,13.33,6.28,20.74v222.28"/><path class="cls-2" d="m1363.76,567.77c-3.07,2.58-6.01,5.4-8.11,8.14-5.57,7.28-6.23,13.33-6.28,20.74v222.28"/></g><g><path class="cls-2" d="m1316.49,590.87v-216.75c.06-7.75.8-14.06,7.2-21.66,7.79-9.26,25.61-20.85,25.61-20.85,0,0,17.98,11.6,25.77,20.85,6.38,7.58,7.13,13.89,7.2,21.61v216.81"/><line class="cls-2" x1="1320.69" y1="387.62" x2="1378.06" y2="387.62"/><line class="cls-2" x1="1320.69" y1="424.23" x2="1378.06" y2="424.23"/><line class="cls-2" x1="1320.69" y1="460.84" x2="1378.06" y2="460.84"/><line class="cls-2" x1="1320.69" y1="497.45" x2="1378.06" y2="497.45"/><line class="cls-2" x1="1320.69" y1="534.06" x2="1378.06" y2="534.06"/><path class="cls-2" d="m1320.67,576.36v-199.44c.05-7.44.7-13.5,6.28-20.8,6.8-8.88,22.35-18.55,22.35-18.55,0,0,15.69,9.67,22.49,18.55,5.57,7.28,6.23,13.33,6.28,24.55v195.65"/><path class="cls-2" d="m1334.99,347.99c3.07,2.58,6.01,5.4,8.11,8.14,5.57,7.28,6.23,13.33,6.28,20.74"/><path class="cls-2" d="m1363.76,347.99c-3.07,2.58-6.01,5.4-8.11,8.14-5.57,7.28-6.23,13.33-6.28,20.74v174.57"/></g><g><path class="cls-2" d="m1316.49,370.55v-216.75c.06-7.75.8-14.06,7.2-21.66,7.79-9.26,25.61-20.85,25.61-20.85,0,0,17.98,11.6,25.77,20.85,6.38,7.58,7.13,13.89,7.2,21.61v216.81"/><line class="cls-2" x1="1320.69" y1="167.3" x2="1378.06" y2="167.3"/><line class="cls-2" x1="1320.69" y1="203.91" x2="1378.06" y2="203.91"/><line class="cls-2" x1="1320.69" y1="240.52" x2="1378.06" y2="240.52"/><line class="cls-2" x1="1320.69" y1="277.13" x2="1378.06" y2="277.13"/><line class="cls-2" x1="1320.69" y1="313.74" x2="1378.06" y2="313.74"/><path class="cls-2" d="m1320.67,356.04v-199.44c.05-7.44.7-13.5,6.28-20.8,6.8-8.88,22.35-18.55,22.35-18.55,0,0,15.69,9.67,22.49,18.55,5.57,7.28,6.23,13.33,6.28,24.55v195.65"/><path class="cls-2" d="m1334.99,127.67c3.07,2.58,6.01,5.4,8.11,8.14,5.57,7.28,6.23,13.33,6.28,20.74"/><path class="cls-2" d="m1363.76,127.67c-3.07,2.58-6.01,5.4-8.11,8.14-5.57,7.28-6.23,13.33-6.28,20.74v174.57"/></g></g><g><g><path class="cls-2" d="m1382.26,713.09v-229.47c.06-7.75.8-14.06,7.2-21.66,7.79-9.26,25.61-20.85,25.61-20.85,0,0,17.98,11.6,25.77,20.85,6.38,7.58,7.13,13.89,7.2,21.61v229.53h-65.77Z"/><line class="cls-2" x1="1386.47" y1="497.12" x2="1443.84" y2="497.12"/><line class="cls-2" x1="1386.47" y1="533.73" x2="1443.84" y2="533.73"/><line class="cls-2" x1="1386.47" y1="570.34" x2="1443.84" y2="570.34"/><line class="cls-2" x1="1386.47" y1="606.95" x2="1443.84" y2="606.95"/><line class="cls-2" x1="1386.47" y1="643.56" x2="1443.84" y2="643.56"/><line class="cls-2" x1="1386.47" y1="680.17" x2="1443.84" y2="680.17"/><path class="cls-2" d="m1386.45,708.64v-222.23c.05-7.44.7-13.5,6.28-20.8,6.8-8.88,22.35-18.55,22.35-18.55,0,0,15.69,9.67,22.49,18.55,5.57,7.28,6.23,13.33,6.28,20.74v222.28h-57.41Z"/><path class="cls-2" d="m1400.76,457.49c3.07,2.58,6.01,5.4,8.11,8.14,5.57,7.28,6.23,13.33,6.28,20.74v222.28"/><path class="cls-2" d="m1429.54,457.49c-3.07,2.58-6.01,5.4-8.11,8.14-5.57,7.28-6.23,13.33-6.28,20.74v222.28"/></g><g><path class="cls-2" d="m1382.26,480.58v-216.75c.06-7.75.8-14.06,7.2-21.66,7.79-9.26,25.61-20.85,25.61-20.85,0,0,17.98,11.6,25.77,20.85,6.38,7.58,7.13,13.89,7.2,21.61v216.81"/><line class="cls-2" x1="1386.47" y1="277.34" x2="1443.84" y2="277.34"/><line class="cls-2" x1="1386.47" y1="313.95" x2="1443.84" y2="313.95"/><line class="cls-2" x1="1386.47" y1="350.56" x2="1443.84" y2="350.56"/><line class="cls-2" x1="1386.47" y1="387.17" x2="1443.84" y2="387.17"/><line class="cls-2" x1="1386.47" y1="423.78" x2="1443.84" y2="423.78"/><path class="cls-2" d="m1386.45,466.08v-199.44c.05-7.44.7-13.5,6.28-20.8,6.8-8.88,22.35-18.55,22.35-18.55,0,0,15.69,9.67,22.49,18.55,5.57,7.28,6.23,13.33,6.28,24.55v195.65"/><path class="cls-2" d="m1400.76,237.7c3.07,2.58,6.01,5.4,8.11,8.14,5.57,7.28,6.23,13.33,6.28,20.74"/><path class="cls-2" d="m1429.54,237.7c-3.07,2.58-6.01,5.4-8.11,8.14-5.57,7.28-6.23,13.33-6.28,20.74v174.57"/></g><g><path class="cls-2" d="m1382.26,260.27V43.51c.06-7.75.8-14.06,7.2-21.66,7.79-9.26,25.61-20.85,25.61-20.85,0,0,17.98,11.6,25.77,20.85,6.38,7.58,7.13,13.89,7.2,21.61v216.81"/><line class="cls-2" x1="1386.47" y1="57.02" x2="1443.84" y2="57.02"/><line class="cls-2" x1="1386.47" y1="93.63" x2="1443.84" y2="93.63"/><line class="cls-2" x1="1386.47" y1="130.24" x2="1443.84" y2="130.24"/><line class="cls-2" x1="1386.47" y1="166.85" x2="1443.84" y2="166.85"/><line class="cls-2" x1="1386.47" y1="203.46" x2="1443.84" y2="203.46"/><path class="cls-2" d="m1386.45,245.76V46.32c.05-7.44.7-13.5,6.28-20.8,6.8-8.88,22.35-18.55,22.35-18.55,0,0,15.69,9.67,22.49,18.55,5.57,7.28,6.23,13.33,6.28,24.55v195.65"/><path class="cls-2" d="m1400.76,17.39c3.07,2.58,6.01,5.4,8.11,8.14,5.57,7.28,6.23,13.33,6.28,20.74"/><path class="cls-2" d="m1429.54,17.39c-3.07,2.58-6.01,5.4-8.11,8.14-5.57,7.28-6.23,13.33-6.28,20.74v174.57"/></g></g></g></g></g></g></svg>