<?xml version="1.0" encoding="utf-8"?>
<!-- Generator: Adobe Illustrator 27.0.0, SVG Export Plug-In . SVG Version: 6.00 Build 0)  -->
<svg version="1.1" id="Layer_2_00000098938562245883380330000014875730965461971124_"
	 xmlns="http://www.w3.org/2000/svg" xmlns:xlink="http://www.w3.org/1999/xlink" x="0px" y="0px" viewBox="0 0 1895.5 1112"
	 style="enable-background:new 0 0 1895.5 1112;" xml:space="preserve">
<style type="text/css">
	.st0{fill:#0B48E4;}
	.st1{fill:#0C125D;}
	.st2{fill:none;stroke:#FFC300;stroke-width:2;stroke-linecap:round;stroke-linejoin:round;stroke-dasharray:0,0,2,5;}
</style>
<g id="Layer_1-2">
	<g>
		<g>
			<path class="st0" d="M2001,234V50.3c-61,15.9-136.1-27.6-221.1,5.3C1639.7,109.8,1503,59.7,1447,45
				c-39.6-10.4-93-14.3-142.2,12.7c-172.4,94.7-202.6-2.1-326.3,3.7c-76.4,3.6-126,33.2-170.8,60.7c-73.3,45.1-133.9,84.9-278.1-3.2
				c0,0,0,0,0,0C475.1,85.6,404,23.8,288.9,15.9C143.6,5.9,25.8,110.9,1,113.3V234H2001z"/>
			<path class="st1" d="M1184.6,233.7c0.1-42.5-81.1-18.1-120.8-49.4c-101.3-79.9-166.9,14.4-286.8-82.6
				c-63.1-51-90.1-107.6-306.3-37.2c-38.5,12.5-155.2,36-214.8,4.3C151.1,12.9,29.7,59.5,1,70.1V234L1184.6,233.7z"/>
			<path class="st2" d="M1,15.9c0,0,41.9,63.4,121.3,54.2c67.2-7.7,77.9-51.4,145.5-65.2c75.8-15.5,163.3,19.3,181.6,26.6
				C560.5,75.7,667,157.3,744.3,157.3c134.7,0,243-93.2,352.3-92.7s175.7,57.4,270.8,54.6s145.2-79.4,258.8-84
				c51.8-2.1,130.2,31.6,205.2,44c88,14.5,169.5,8.2,169.5,8.2"/>
		</g>
		<rect id="Rectangle_69" x="1" y="229" class="st1" width="1184.6" height="883"/>
		<rect id="Rectangle_70" x="1185.5" y="229" class="st0" width="815.5" height="883"/>
	</g>
</g>
</svg>
