<?xml version="1.0" encoding="utf-8"?>
<!-- Generator: Adobe Illustrator 27.0.0, SVG Export Plug-In . SVG Version: 6.00 Build 0)  -->
<svg version="1.1" id="Layer_1" xmlns="http://www.w3.org/2000/svg" xmlns:xlink="http://www.w3.org/1999/xlink" x="0px" y="0px"
	 viewBox="0 0 110.6 111.3" style="enable-background:new 0 0 110.6 111.3;" xml:space="preserve">
<style type="text/css">
	.st0{fill:#FFFFFF;}
	.st1{clip-path:url(#SVGID_00000181793486401327659880000002603700002752804260_);}
	.st2{fill:#0B48E4;fill-opacity:0;}
	.st3{clip-path:url(#SVGID_00000142143078426001298620000005333406356034405530_);}
	.st4{clip-path:url(#SVGID_00000043415730466049593130000010344112940152400812_);}
	.st5{clip-path:url(#SVGID_00000152949587290000005560000003777307067848273055_);}
	.st6{fill:#0C125D;}
	.st7{fill:#FFC300;}
	.st8{fill:#A7A9AC;}
	.st9{fill:#C7C8CA;}
	.st10{fill:#003B71;}
	
		.st11{fill:none;stroke:#FFC300;stroke-width:1.5;stroke-linecap:round;stroke-linejoin:round;stroke-opacity:0;stroke-dasharray:1,3;}
	.st12{fill-rule:evenodd;clip-rule:evenodd;fill:#FFC300;}
	.st13{fill-rule:evenodd;clip-rule:evenodd;fill:#0B48E4;}
</style>
<circle class="st0" cx="59.2" cy="55.1" r="42.7"/>
<g>
	<defs>
		<rect id="SVGID_1_" y="0" width="359" height="111.3"/>
	</defs>
	<clipPath id="SVGID_00000062877739390138984000000008816099210622297244_">
		<use xlink:href="#SVGID_1_"  style="overflow:visible;"/>
	</clipPath>
	
		<g id="Group_1394" transform="translate(0 0)" style="clip-path:url(#SVGID_00000062877739390138984000000008816099210622297244_);">
		<g id="Group_3518">
			<path id="Path_3531" class="st2" d="M90.8,98.4H39.1c-5.1,0-9.3-19.5-9.3-43.6s4.2-43.6,9.3-43.6h51.7c5.1,0,9.3,19.5,9.3,43.6
				S95.9,98.4,90.8,98.4"/>
			<g id="Group_3517" transform="translate(13.66 7.717)">
				<g>
					<defs>
						<rect id="SVGID_00000085961357787735938780000011512119355571678344_" x="-7" y="0" width="98.4" height="107.2"/>
					</defs>
					<clipPath id="SVGID_00000049215333290102321920000014257687636459591344_">
						<use xlink:href="#SVGID_00000085961357787735938780000011512119355571678344_"  style="overflow:visible;"/>
					</clipPath>
					
						<g id="Group_1957" transform="translate(-7)" style="clip-path:url(#SVGID_00000049215333290102321920000014257687636459591344_);">
						<g id="Group_2030" transform="translate(52.769 58.095)">
							<g id="Group_2027" transform="translate(-43.593 -50.593)">
								<g>
									<defs>
										<rect id="SVGID_00000016765920738436792180000004301749423567977884_" x="0" y="0" width="81.2" height="135.2"/>
									</defs>
									<clipPath id="SVGID_00000084500917601100154540000000934052623082287255_">
										<use xlink:href="#SVGID_00000016765920738436792180000004301749423567977884_"  style="overflow:visible;"/>
									</clipPath>
									<g id="Group_2026" style="clip-path:url(#SVGID_00000084500917601100154540000000934052623082287255_);">
										<path id="Path_3338" class="st0" d="M81.2,40.6C81.2,63,63,81.2,40.6,81.2S0,63,0,40.6S18.2,0,40.6,0c0,0,0,0,0,0
											C63,0,81.2,18.2,81.2,40.6"/>
									</g>
								</g>
							</g>
							<g id="Group_2029" transform="translate(-60.401 -67.401)">
								<g>
									<defs>
										<circle id="SVGID_00000005261430985806277740000000896708594362759042_" cx="57.4" cy="57.4" r="40.6"/>
									</defs>
									<clipPath id="SVGID_00000130605163555964180490000015616877045330224005_">
										<use xlink:href="#SVGID_00000005261430985806277740000000896708594362759042_"  style="overflow:visible;"/>
									</clipPath>
									<g id="Group_2028" style="clip-path:url(#SVGID_00000130605163555964180490000015616877045330224005_);">
										<path id="Path_3339" class="st6" d="M82.6,47.4c-0.7-0.7-2.6-7-2.6-7c0.4-0.4,0.7-0.9,0.7-1.4c0.1-0.9,1.6-2.7,1.6-2.7
											l0.1-0.5c0,0-5.9,0.3-8.7-3.6c0,0,0.2-1.6-1-2c0,0,0.7-1.1,0.3-1.7c-0.4-0.6-1.9-1.1-2.2-2.5s-0.1-1.8-0.6-1.6
											c-0.6,0.2-0.6,1.5-0.6,1.5c-0.2,0.2-0.3,0.5-0.2,0.7c0.1,0.4,0.1,0.9,0,1.3v0.6c0,0-0.4,0.5-0.8,0.2
											c-2.2-1.4-3.5-3.8-3.4-6.3h-2.1c0,0-0.3-4.6-5.7-4.6s-5.7,4.6-5.7,4.6h-2.1c0,2.6-1.3,5-3.4,6.3c-0.4,0.2-0.8-0.2-0.8-0.2
											v-0.6c-0.1-0.4-0.1-0.9,0-1.3c0.1-0.3,0-0.6-0.2-0.7c0,0,0-1.3-0.6-1.5c-0.6-0.2-0.4,0.2-0.6,1.6
											c-0.2,1.4-1.8,1.9-2.2,2.5s0.3,1.7,0.3,1.7c-1.2,0.4-1,2-1,2c-2.8,3.9-8.7,3.6-8.7,3.6l0.1,0.5c0,0,1.5,1.8,1.6,2.7
											c0.1,0.6,0.3,1.1,0.7,1.4c0,0-1.8,6.3-2.6,7c-0.7,0.7,0.1,1.9,0.1,1.9l0.3,1.7c6.8-13.7,23.4-19.3,37-12.5
											c5.4,2.7,9.8,7.1,12.5,12.5l0.3-1.7C82.5,49.3,83.3,48.1,82.6,47.4"/>
										<path id="Path_3340" class="st7" d="M63.4,33.1c-0.1,0.4-0.1,0.4-0.5,0.3l-0.1,0.3l2.8,0.7l0.3-1l-0.3-0.1
											c-0.2,0.5-0.4,0.6-1,0.5c-0.5-0.1-0.6-0.2-0.5-0.4l0.4-1.6c0.1-0.4,0.1-0.4,0.5-0.3l0.1-0.3l-1.6-0.4l-0.1,0.3
											c0.4,0.1,0.4,0.1,0.3,0.5L63.4,33.1z"/>
										<path id="Path_3341" class="st7" d="M66.5,34c-0.1,0.4-0.2,0.4-0.6,0.3l-0.1,0.3l2.7,1l0.4-0.9l-0.3-0.1
											c-0.2,0.4-0.5,0.5-0.9,0.3c-0.5-0.2-0.6-0.3-0.5-0.6l0.3-0.7l0.3,0.1c0.3,0.1,0.3,0.2,0.2,0.5l0.2,0.1l0.4-1l-0.2-0.1
											c-0.1,0.3-0.2,0.3-0.5,0.3l-0.3-0.1l0.3-0.9l0.6,0.2c0.4,0.1,0.4,0.3,0.3,0.7l0.3,0.1l0.2-0.8l-2.5-0.9L66.7,32
											c0.4,0.1,0.4,0.2,0.3,0.6L66.5,34z"/>
										<path id="Path_3342" class="st7" d="M59.5,30.5l0.4,0c0.3,0,0.4,0.2,0.4,0.6l0.3,0l0-0.9l-3.1-0.2L57.5,31l0.3,0
											c0.1-0.4,0.2-0.6,0.4-0.6l0.5,0l-0.1,2c0,0.4-0.1,0.4-0.5,0.4l0,0.3l1.7,0.1l0-0.3c-0.4,0-0.5-0.1-0.4-0.5L59.5,30.5z"/>
										<path id="Path_3343" class="st7" d="M71.9,34.1L71.9,34.1l0.1,0.1c0.1,0,0.1,0.1,0.1,0.2c0,0,0,0.1-0.1,0.1l-0.5,0.2
											c0,0-0.1,0-0.1,0.1c0,0,0-0.1,0-0.1l-0.1-0.4c0-0.1,0-0.1,0-0.2c0-0.1,0.1-0.1,0.2,0l0.1,0.1l0,0l0.1-0.3l-1.6-0.8
											L70,33.2c0.3,0.1,0.3,0.2,0.4,0.4l0.2,1.3l-1.1,0.4c-0.2,0.1-0.4,0.1-0.6,0l-0.1,0l-0.1,0.3l1.2,0.6l0.1-0.3l-0.1-0.1
											c-0.1,0-0.1-0.1-0.1-0.2c0,0,0.1-0.1,0.1-0.1l0.7-0.3c0,0,0.1,0,0.1-0.1c0,0,0,0,0,0v0c0,0,0,0.1,0,0.1l0.1,0.7
											c0,0,0,0.1,0,0.1c0,0.1-0.1,0.1-0.2,0l-0.1,0l0,0l-0.1,0.3l1.6,0.8l0.1-0.3c-0.2-0.1-0.3-0.2-0.3-0.4L71.5,35l1-0.4
											c0.2-0.1,0.4-0.1,0.6,0l0,0l0,0l0.1-0.3L72,33.8L71.9,34.1z"/>
										<path id="Path_3344" class="st7" d="M42.8,36.9l0.1,0.3l2.6-1.2L45.2,35l-0.3,0.1c0.2,0.5,0.1,0.7-0.5,1
											c-0.5,0.2-0.5,0.2-0.7,0l-0.7-1.5c-0.2-0.4-0.2-0.4,0.2-0.6l-0.1-0.3l-1.5,0.7l0.1,0.3c0.4-0.2,0.4-0.2,0.6,0.2l0.6,1.4
											C43.2,36.7,43.2,36.7,42.8,36.9"/>
										<path id="Path_3345" class="st7" d="M54.5,33l0,0.3l2.9-0.2v-0.9l-0.3,0c0,0.4-0.2,0.6-0.7,0.7c-0.5,0-0.7,0-0.7-0.3
											l-0.1-0.8l0.3,0c0.3,0,0.4,0.1,0.4,0.4l0.3,0L56.5,31l-0.3,0c0,0.3-0.1,0.4-0.3,0.4l-0.3,0l-0.1-1l0.7,0
											c0.4,0,0.5,0.1,0.6,0.5l0.3,0l-0.1-0.8l-2.7,0.2l0,0.3c0.4,0,0.4,0,0.5,0.4l0.1,1.5C54.9,33,54.9,33,54.5,33"/>
										<path id="Path_3346" class="st7" d="M47.2,35.4c0.9-0.4,1.2-0.8,0.9-1.6l-0.4-1.2c-0.1-0.3-0.1-0.4,0.3-0.5l-0.1-0.3
											l-1.2,0.4l0.1,0.3l0.1,0c0.3-0.1,0.3-0.1,0.5,0.2l0.5,1.2c0.2,0.5,0,0.8-0.5,1c-0.5,0.2-0.8,0.1-1-0.5l-0.4-1.1
											c-0.1-0.4-0.1-0.4,0.2-0.6l-0.1-0.3l-1.6,0.6l0.1,0.3c0.4-0.1,0.4-0.1,0.6,0.3l0.5,1.2C45.8,35.6,46.3,35.7,47.2,35.4"/>
										<path id="Path_3347" class="st7" d="M50.6,33.9l-0.1,0l0,0l0.1,0.3l1.7-0.5l-0.1-0.3c-0.2,0.1-0.4,0-0.5-0.1l-1.2-0.9
											l0.5-0.9c0.1-0.2,0.2-0.3,0.4-0.4l0,0l0,0l-0.1-0.3l-1.3,0.4l0.1,0.3l0,0l0.1,0c0.1,0,0.1,0,0.2,0.1c0,0,0,0.1,0,0.2
											l-0.2,0.5c0,0,0,0.1,0,0.1c0,0-0.1-0.1-0.1-0.1l-0.4-0.3c0,0-0.1-0.1-0.1-0.1c0-0.1,0-0.1,0.1-0.1l0.1,0l0,0l-0.1-0.3
											l-1.7,0.5l0.1,0.3c0.3-0.1,0.4-0.1,0.6,0.1l1,0.8l-0.5,1c-0.1,0.2-0.2,0.4-0.5,0.4l-0.1,0l0.1,0.3l1.3-0.3L50,34l-0.2,0
											c-0.1,0-0.2,0-0.2-0.1c0-0.1,0-0.1,0-0.2l0.3-0.6c0,0,0-0.1,0-0.1c0,0,0,0,0,0l0,0c0,0,0,0.1,0.1,0.1l0.5,0.4
											c0,0,0.1,0.1,0.1,0.1C50.8,33.8,50.7,33.8,50.6,33.9"/>
										<path id="Path_3348" class="st8" d="M58,44.8h-0.2l-1,1.9l-1-1.9h-0.4l1.1,2.2l0.1,0.1l-1,2h0.2l0.9-1.8l0.9,1.8l0.4,0
											L57,46.9L58,44.8z"/>
										<rect id="Rectangle_1795" x="58.3" y="44.8" class="st8" width="0.3" height="4.3"/>
										<rect id="Rectangle_1796" x="59" y="44.8" class="st8" width="0.3" height="4.3"/>
										<path id="Path_3349" class="st8" d="M66.3,47.1l-2.1,3.7l0.3,0.2l1.9-3.2l0.3-0.5L66.3,47.1z"/>
										<path id="Path_3350" class="st8" d="M73.1,53.7l-0.2-0.3l-3.6,2.1l-0.1,0.1l0.2,0.3L73.1,53.7L73.1,53.7z"/>
										<path id="Path_3351" class="st8" d="M73.3,54l-3.7,2.1l0.2,0.3l3.2-1.9l0.5-0.3L73.3,54z"/>
										<rect id="Rectangle_1797" x="71.4" y="62.1" class="st8" width="4.3" height="0.3"/>
										<rect id="Rectangle_1798" x="71.4" y="62.8" class="st8" width="4.3" height="0.3"/>
										<rect id="Rectangle_1799" x="71.4" y="63.5" class="st8" width="4.3" height="0.3"/>
										<path id="Path_3352" class="st8" d="M70.3,68.7L70.2,69l3.6,2.1l0.1,0l0.2-0.3L70.3,68.7z"/>
										<path id="Path_3353" class="st8" d="M69.3,70.5L69.3,70.5l-0.1,0.1l3.1,3.3l0.1-0.2l-2.8-2.9l3.9,0.9l0.2-0.4l-4.4-1
											L69.3,70.5z"/>
										<path id="Path_3354" class="st8" d="M67.8,78.2l-3.3-3.1l-0.2,0.1l-0.1,0.1l0,0l1.1,4.4l0.2-0.1l-0.9-3.9l2.9,2.7
											L67.8,78.2z"/>
										<path id="Path_3355" class="st8" d="M57.9,77.1h-0.3l-1.3,4.3h0.2l1.1-3.8l1.2,3.8h0.4L57.9,77.1z"/>
										<rect id="Rectangle_1800" x="55.9" y="77.1" class="st8" width="0.3" height="4.3"/>
										<path id="Path_3356" class="st8" d="M51,75.5L51,75.5l-0.1-0.1l-3.3,3.1l0.2,0.1l2.9-2.8l-0.9,3.9l0.4,0.2l1-4.4L51,75.5z
											"/>
										<path id="Path_3357" class="st8" d="M49.4,74.6l-1.9,3.2l-0.3,0.5l0.3,0.2l2.1-3.7L49.4,74.6z"/>
										<path id="Path_3358" class="st8" d="M48.8,74.3l-1.9,3.2L46.6,78l0.3,0.2l2.1-3.7L48.8,74.3z"/>
										<path id="Path_3359" class="st8" d="M45.8,70.9L45.8,70.9L41.4,72l0.1,0.2l3.9-0.9l-2.7,2.9l0.2,0.4l3.1-3.3L45.8,70.9
											L45.8,70.9z"/>
										<path id="Path_3360" class="st8" d="M45,69.7l-0.2-0.3l-3.6,2.1l-0.1,0l0.2,0.3l3.6-2.1L45,69.7z"/>
										<path id="Path_3361" class="st8" d="M44.7,69.1l-0.2-0.3l-3.2,1.9l-0.5,0.3l0.2,0.3l3.6-2.1L44.7,69.1z"/>
										<path id="Path_3362" class="st8" d="M44.1,68.2L40.9,70l-0.5,0.3l0.2,0.3l3.7-2.1L44.1,68.2z"/>
										<rect id="Rectangle_1801" x="39.1" y="64.4" class="st8" width="4.3" height="0.3"/>
										<path id="Path_3363" class="st8" d="M41.6,62.7l1.8-0.9l0-0.4l-2.2,1.1l-2.1-1.1v0.2l1.9,1l-1.9,1V64l2.2-1.1l0.1-0.1l2,1
											v-0.2L41.6,62.7z"/>
										<path id="Path_3364" class="st8" d="M45.9,55l-2.5-0.1l-1.3-2L42,53.1l1.2,1.8l-2.1-0.1l-0.2,0.4l2.4,0.1l0.1,0l1.2,1.9
											l0.1-0.2l-1.1-1.7l2,0.1L45.9,55z"/>
										<path id="Path_3365" class="st8" d="M49,46.8l-0.2,0.1l0.1,2.1l-1.8-1.2l-0.4,0.2l2.1,1.3l0.1,0.1l0.1,2.3l0.2-0.1l-0.1-2
											l1.7,1.1l0.4-0.2l-2.1-1.3L49,46.8z"/>
										<path id="Path_3366" class="st8" d="M49.8,47l-0.3-0.5l-0.3,0.2l2.1,3.6l0.1,0.1l0.3-0.2L49.8,47z"/>
										<path id="Path_3367" class="st9" d="M57.4,44l-0.2-0.5l0.2-0.5l0.2,0.5L57.4,44z"/>
										<path id="Path_3368" class="st9" d="M66.9,46.5L67,46l0.4-0.3l-0.1,0.5L66.9,46.5z"/>
										<path id="Path_3369" class="st9" d="M73.9,53.5l0.3-0.4l0.5-0.1l-0.3,0.4L73.9,53.5z"/>
										<path id="Path_3370" class="st9" d="M76.5,63.1l0.5-0.2l0.5,0.2L77,63.3L76.5,63.1z"/>
										<path id="Path_3371" class="st9" d="M73.9,72.7l0.5,0.1l0.3,0.4l-0.5-0.1L73.9,72.7z"/>
										<path id="Path_3372" class="st9" d="M66.9,79.7l0.4,0.3l0.1,0.5L67,80.2L66.9,79.7z"/>
										<path id="Path_3373" class="st9" d="M57.4,82.2l0.2,0.5l-0.2,0.5l-0.2-0.5L57.4,82.2z"/>
										<path id="Path_3374" class="st9" d="M47.8,79.7l-0.1,0.5l-0.4,0.3l0.1-0.5L47.8,79.7z"/>
										<path id="Path_3375" class="st9" d="M40.8,72.7l-0.3,0.4l-0.5,0.1l0.3-0.4L40.8,72.7z"/>
										<path id="Path_3376" class="st9" d="M38.3,63.1l-0.5,0.2l-0.5-0.2l0.5-0.2L38.3,63.1z"/>
										<path id="Path_3377" class="st9" d="M40.8,53.5l-0.5-0.1L39.9,53l0.5,0.1L40.8,53.5z"/>
										<path id="Path_3378" class="st9" d="M47.8,46.5l-0.4-0.3l-0.1-0.5l0.4,0.3L47.8,46.5z"/>
										
											<rect id="Rectangle_1802" x="59" y="43.4" transform="matrix(0.1046 -0.9945 0.9945 0.1046 9.8828 98.133)" class="st9" width="0.8" height="0.3"/>
										
											<rect id="Rectangle_1803" x="61.1" y="43.7" transform="matrix(0.2078 -0.9782 0.9782 0.2078 5.7548 94.905)" class="st9" width="0.8" height="0.3"/>
										
											<rect id="Rectangle_1804" x="63" y="44.3" transform="matrix(0.3087 -0.9512 0.9512 0.3087 1.6047 91.0719)" class="st9" width="0.8" height="0.3"/>
										
											<rect id="Rectangle_1805" x="65" y="45" transform="matrix(0.4067 -0.9136 0.9136 0.4067 -2.4796 86.5204)" class="st9" width="0.8" height="0.3"/>
										
											<rect id="Rectangle_1806" x="68.5" y="47" transform="matrix(0.5879 -0.8089 0.8089 0.5879 -9.7976 75.2121)" class="st9" width="0.8" height="0.3"/>
										
											<rect id="Rectangle_1807" x="70.1" y="48.3" transform="matrix(0.6694 -0.7429 0.7429 0.6694 -12.728 68.4332)" class="st9" width="0.8" height="0.3"/>
										
											<rect id="Rectangle_1808" x="71.6" y="49.8" transform="matrix(0.7431 -0.6691 0.6691 0.7431 -14.9497 60.9945)" class="st9" width="0.8" height="0.3"/>
										
											<rect id="Rectangle_1809" x="72.9" y="51.4" transform="matrix(0.8089 -0.5879 0.5879 0.8089 -16.3176 52.9294)" class="st9" width="0.8" height="0.3"/>
										
											<rect id="Rectangle_1810" x="74.9" y="54.9" transform="matrix(0.9136 -0.4067 0.4067 0.9136 -15.9073 35.3936)" class="st9" width="0.8" height="0.3"/>
										
											<rect id="Rectangle_1811" x="75.7" y="56.9" transform="matrix(0.9512 -0.3086 0.3086 0.9512 -13.8917 26.2575)" class="st9" width="0.8" height="0.3"/>
										
											<rect id="Rectangle_1812" x="76.2" y="58.9" transform="matrix(0.9782 -0.2078 0.2078 0.9782 -10.592 17.1989)" class="st9" width="0.8" height="0.3"/>
										
											<rect id="Rectangle_1813" x="76.5" y="60.9" transform="matrix(0.9945 -0.1046 0.1046 0.9945 -5.9635 8.3777)" class="st9" width="0.8" height="0.3"/>
										
											<rect id="Rectangle_1814" x="76.7" y="64.8" transform="matrix(0.1046 -0.9945 0.9945 0.1046 4.0603 134.8279)" class="st9" width="0.3" height="0.8"/>
										
											<rect id="Rectangle_1815" x="76.4" y="66.8" transform="matrix(0.2078 -0.9782 0.9782 0.2078 -5.0518 128.1415)" class="st9" width="0.3" height="0.8"/>
										
											<rect id="Rectangle_1816" x="75.9" y="68.8" transform="matrix(0.3086 -0.9512 0.9512 0.3086 -13.2187 120.1614)" class="st9" width="0.3" height="0.8"/>
										
											<rect id="Rectangle_1817" x="75.1" y="70.7" transform="matrix(0.4067 -0.9136 0.9136 0.4067 -20.2621 110.9852)" class="st9" width="0.3" height="0.8"/>
										
											<rect id="Rectangle_1818" x="73.1" y="74.2" transform="matrix(0.5879 -0.8089 0.8089 0.5879 -30.194 90.0196)" class="st9" width="0.3" height="0.8"/>
										
											<rect id="Rectangle_1819" x="71.8" y="75.8" transform="matrix(0.6691 -0.7431 0.7431 0.6691 -32.8482 78.7078)" class="st9" width="0.3" height="0.8"/>
										
											<rect id="Rectangle_1820" x="70.3" y="77.3" transform="matrix(0.7429 -0.6694 0.6694 0.7429 -33.8801 67.1719)" class="st9" width="0.3" height="0.8"/>
										
											<rect id="Rectangle_1821" x="68.7" y="78.6" transform="matrix(0.8089 -0.5879 0.5879 0.8089 -33.2707 55.612)" class="st9" width="0.3" height="0.8"/>
										
											<rect id="Rectangle_1822" x="65.2" y="80.6" transform="matrix(0.9136 -0.4067 0.4067 0.9136 -27.3078 33.5845)" class="st9" width="0.3" height="0.8"/>
										
											<rect id="Rectangle_1823" x="63.3" y="81.4" transform="matrix(0.9512 -0.3087 0.3087 0.9512 -22.1427 23.5742)" class="st9" width="0.3" height="0.8"/>
										
											<rect id="Rectangle_1824" x="61.3" y="81.9" transform="matrix(0.9782 -0.2078 0.2078 0.9782 -15.7588 14.5641)" class="st9" width="0.3" height="0.8"/>
										
											<rect id="Rectangle_1825" x="59.3" y="82.2" transform="matrix(0.9945 -0.1046 0.1046 0.9945 -8.314 6.6668)" class="st9" width="0.3" height="0.8"/>
										
											<rect id="Rectangle_1826" x="54.9" y="82.5" transform="matrix(0.1046 -0.9945 0.9945 0.1046 -32.6349 129.0066)" class="st9" width="0.8" height="0.3"/>
										
											<rect id="Rectangle_1827" x="52.9" y="82.1" transform="matrix(0.2078 -0.9782 0.9782 0.2078 -38.2872 117.3364)" class="st9" width="0.8" height="0.3"/>
										
											<rect id="Rectangle_1828" x="50.9" y="81.6" transform="matrix(0.3087 -0.9512 0.9512 0.3087 -42.3072 105.3368)" class="st9" width="0.8" height="0.3"/>
										
											<rect id="Rectangle_1829" x="49" y="80.9" transform="matrix(0.4067 -0.9136 0.9136 0.4067 -44.7266 93.2026)" class="st9" width="0.8" height="0.3"/>
										
											<rect id="Rectangle_1830" x="45.4" y="78.8" transform="matrix(0.5877 -0.8091 0.8091 0.5877 -45.0038 69.6497)" class="st9" width="0.8" height="0.3"/>
										
											<rect id="Rectangle_1831" x="43.8" y="77.5" transform="matrix(0.6694 -0.7429 0.7429 0.6694 -43.09 58.5542)" class="st9" width="0.8" height="0.3"/>
										
											<rect id="Rectangle_1832" x="42.4" y="76.1" transform="matrix(0.7429 -0.6694 0.6694 0.7429 -40.0297 48.2375)" class="st9" width="0.8" height="0.3"/>
										
											<rect id="Rectangle_1833" x="41.1" y="74.5" transform="matrix(0.8089 -0.5879 0.5879 0.8089 -35.9529 38.6588)" class="st9" width="0.8" height="0.3"/>
										
											<rect id="Rectangle_1834" x="39" y="70.9" transform="matrix(0.9135 -0.4068 0.4068 0.9135 -25.5047 22.1923)" class="st9" width="0.8" height="0.3"/>
										
											<rect id="Rectangle_1835" x="38.3" y="69" transform="matrix(0.9511 -0.309 0.309 0.9511 -19.4784 15.3465)" class="st9" width="0.8" height="0.3"/>
										
											<rect id="Rectangle_1836" x="37.8" y="67" transform="matrix(0.9782 -0.2078 0.2078 0.9782 -13.1241 9.3972)" class="st9" width="0.8" height="0.3"/>
										
											<rect id="Rectangle_1837" x="37.5" y="65" transform="matrix(0.9945 -0.1046 0.1046 0.9945 -6.6048 4.3154)" class="st9" width="0.8" height="0.3"/>
										
											<rect id="Rectangle_1838" x="37.7" y="60.6" transform="matrix(0.1046 -0.9945 0.9945 0.1046 -26.8129 92.3104)" class="st9" width="0.3" height="0.8"/>
										
											<rect id="Rectangle_1839" x="38" y="58.6" transform="matrix(0.2078 -0.9782 0.9782 0.2078 -27.4815 84.0997)" class="st9" width="0.3" height="0.8"/>
										
											<rect id="Rectangle_1840" x="38.5" y="56.6" transform="matrix(0.309 -0.9511 0.9511 0.309 -27.4913 76.2234)" class="st9" width="0.3" height="0.8"/>
										
											<rect id="Rectangle_1841" x="39.3" y="54.7" transform="matrix(0.4068 -0.9135 0.9135 0.4068 -26.946 68.7301)" class="st9" width="0.3" height="0.8"/>
										
											<rect id="Rectangle_1842" x="41.3" y="51.2" transform="matrix(0.5879 -0.8089 0.8089 0.5879 -24.6055 54.8161)" class="st9" width="0.3" height="0.8"/>
										
											<rect id="Rectangle_1843" x="42.6" y="49.6" transform="matrix(0.6694 -0.7429 0.7429 0.6694 -22.9694 48.3126)" class="st9" width="0.3" height="0.8"/>
										
											<rect id="Rectangle_1844" x="44.1" y="48.1" transform="matrix(0.7429 -0.6694 0.6694 0.7429 -21.0961 42.0877)" class="st9" width="0.3" height="0.8"/>
										
											<rect id="Rectangle_1845" x="45.7" y="46.8" transform="matrix(0.8091 -0.5877 0.5877 0.8091 -18.9963 35.9576)" class="st9" width="0.3" height="0.8"/>
										
											<rect id="Rectangle_1846" x="49.2" y="44.8" transform="matrix(0.9136 -0.4067 0.4067 0.9136 -14.0983 23.9931)" class="st9" width="0.3" height="0.8"/>
										
											<rect id="Rectangle_1847" x="51.1" y="44" transform="matrix(0.9512 -0.3087 0.3087 0.9512 -11.2077 18.009)" class="st9" width="0.3" height="0.8"/>
										
											<rect id="Rectangle_1848" x="53.1" y="43.5" transform="matrix(0.9782 -0.2078 0.2078 0.9782 -7.9571 12.0322)" class="st9" width="0.3" height="0.8"/>
										
											<rect id="Rectangle_1849" x="55.2" y="43.2" transform="matrix(0.9945 -0.1046 0.1046 0.9945 -4.2533 6.0247)" class="st9" width="0.3" height="0.8"/>
										<path id="Path_3379" class="st7" d="M57.4,85c-12.1,0-22-9.8-22-22s9.8-22,22-22c12.1,0,22,9.8,22,22
											C79.3,75.2,69.5,85,57.4,85 M57.4,42.7C46.1,42.7,37,51.8,37,63.1s9.1,20.4,20.4,20.4c11.3,0,20.4-9.1,20.4-20.4
											C77.8,51.8,68.7,42.7,57.4,42.7"/>
										<path id="Path_3380" class="st7" d="M57.4,85.1c2.9-0.3,5.7-0.9,8.5-1.7l0.7,3.5c-2.9,1.1-6,1.7-9.1,1.9
											c-4.3,0-9.6-2.2-9.6-2.2l1.4-3.3C49.1,83.3,55.3,85.1,57.4,85.1"/>
										<path id="Path_3381" class="st6" d="M63.2,85.4c0-0.2-0.2-0.3-0.4-0.3c0,0,0,0,0,0c-0.2,0-0.2,0.2-0.2,0.3c0,0,0,0,0,0
											c0.1,0.2,0.2,0.3,0.6,0.3C63.3,85.7,63.3,85.6,63.2,85.4"/>
										<path id="Path_3382" class="st6" d="M63,86.3c-0.1,0.1-0.1,0.3-0.1,0.5c0.1,0.2,0.3,0.4,0.5,0.3c0,0,0,0,0,0
											c0.2,0,0.3-0.2,0.3-0.4c0,0,0,0,0,0C63.7,86.4,63.4,86.3,63,86.3"/>
										<path id="Path_3383" class="st6" d="M57.4,37c-14.4,0-26,11.7-26,26s11.7,26,26,26s26-11.7,26-26
											C83.4,48.7,71.8,37,57.4,37 M48.7,86.1l0.1-0.2c0.3,0.2,0.4,0.1,0.5-0.1l0.5-1.1c0.1-0.3,0.1-0.3-0.2-0.5l0.1-0.2
											c0.6,0.3,1.3,0.6,2,0.8c-0.1,0.3-0.1,0.4-0.1,0.6l-0.2-0.1c0.1-0.3,0-0.4-0.3-0.5c-0.2-0.1-0.3-0.1-0.5-0.2l-0.3,0.7
											l0.2,0.1c0.2,0.1,0.3,0,0.4-0.2l0.2,0.1l-0.3,0.8L50.6,86c0.1-0.2,0.1-0.3-0.2-0.4l-0.2-0.1l-0.2,0.6
											c-0.1,0.2,0,0.3,0.4,0.5c0.4,0.2,0.7,0.1,0.8-0.2l0.2,0.1c-0.1,0.3-0.2,0.4-0.3,0.7C50.3,86.8,49.5,86.5,48.7,86.1
											 M53.6,86l-0.2-0.1c0-0.3-0.2-0.6-0.5-0.6c-0.2-0.1-0.4,0-0.4,0.1c0,0.1,0,0.2,0.2,0.4c0.1,0.1,0.2,0.2,0.3,0.3
											c0.5,0.4,0.6,0.6,0.5,0.9c-0.1,0.5-0.6,0.7-1.1,0.5c-0.3-0.1-0.6-0.2-0.8-0.5l-0.1,0.2l-0.2-0.1l0.2-0.7l0.2,0.1
											c0,0.4,0.3,0.7,0.7,0.8c0.3,0.1,0.5,0,0.5-0.2s0-0.2-0.5-0.6c-0.5-0.4-0.6-0.6-0.5-0.9c0.1-0.4,0.6-0.6,0.9-0.4
											c0,0,0,0,0,0c0.2,0.1,0.4,0.2,0.6,0.3l0.1-0.1l0.2,0L53.6,86 M55.8,85.9c-0.1,0-0.2,0-0.3,0l-0.2,1.5c0,0.3,0,0.3,0.4,0.4
											l0,0.2c-0.6-0.1-0.9-0.1-1.5-0.2l0-0.2c0.4,0.1,0.4,0,0.5-0.3l0.2-1.5c-0.1,0-0.2,0-0.4-0.1c-0.2,0-0.3,0.1-0.4,0.4
											l-0.2,0c0.1-0.3,0.1-0.4,0.2-0.7c0.8,0.2,1.6,0.3,2.4,0.3c0,0.3,0,0.4,0,0.7l-0.2,0C56.1,86.1,56,86,55.8,85.9 M56.6,88.1
											c-0.2,0-0.3-0.1-0.4-0.3s0.1-0.3,0.3-0.4c0,0,0.1,0,0.1,0c0.2,0,0.3,0.1,0.4,0.3S56.8,88.1,56.6,88.1
											C56.6,88.1,56.6,88.1,56.6,88.1 M58.7,88.1l0-0.2h0c0.3,0,0.3-0.1,0.3-0.3c0-0.6-0.1-0.9-0.1-1.4c-0.1,0-0.2,0-0.3,0
											c0-0.1,0-0.1,0-0.2c0.3,0,0.5-0.1,0.7-0.3c0,0,0,0,0,0c0,0,0,0,0,0l0,0.1l0.2,1.8c0,0.2,0.1,0.3,0.3,0.2l0.1,0
											c0,0.1,0,0.1,0,0.2C59.5,88,59.3,88,58.7,88.1 M61.4,87.2c-0.1,0.5-0.1,0.6-0.4,0.6c-0.2,0-0.3,0-0.3-0.2
											c0-0.1,0-0.1,0-0.2c0.3-0.6,0.4-1,0.6-1.6c0,0,0-0.1,0.1-0.1c0,0-0.1,0.1-0.1,0.1c-0.3,0.1-0.4,0.1-0.7,0.1
											c-0.2,0-0.3,0.2-0.3,0.4l-0.2,0c0-0.3,0-0.5,0-0.8l0.2,0c0,0.1,0.1,0.1,0.1,0.1h0c0.5-0.1,0.7-0.1,1.2-0.2
											C61.6,86.1,61.5,86.5,61.4,87.2 M63.4,87.2c-0.6,0.2-1,0-1.1-0.3c-0.1-0.2,0-0.4,0.4-0.7c-0.3,0-0.5-0.2-0.5-0.4
											c-0.1-0.4,0.1-0.7,0.6-0.8c0.4-0.1,0.8,0,0.9,0.3c0.1,0.2,0,0.5-0.2,0.6c0.4,0,0.6,0.2,0.7,0.4
											C64.3,86.7,64,87.1,63.4,87.2 M65.2,86.6c-0.2,0.1-0.3,0-0.4-0.1c0-0.1,0-0.1,0-0.2c0.1-0.7,0.2-1,0.3-1.7
											c0,0,0-0.1,0-0.1c0,0,0,0.1-0.1,0.1c-0.3,0.1-0.4,0.2-0.7,0.3c-0.2,0.1-0.3,0.2-0.2,0.4L64,85.3c-0.1-0.3-0.1-0.5-0.2-0.8
											l0.2-0.1c0,0.1,0.1,0.1,0.2,0l0,0c0.5-0.2,0.7-0.3,1.1-0.5c0.1,0.8,0.1,1.1,0.2,1.9C65.5,86.4,65.4,86.5,65.2,86.6
											 M57.4,84.3c-11.7,0-21.2-9.5-21.2-21.2s9.5-21.2,21.2-21.2c11.7,0,21.2,9.5,21.2,21.2C78.6,74.8,69.1,84.3,57.4,84.3
											C57.4,84.3,57.4,84.3,57.4,84.3"/>
										<path id="Path_3384" class="st6" d="M56.6,61.5c-0.9,0.4-1.3,1.5-0.8,2.4c0,0,0,0,0,0c0.1,0.3,0.3,0.5,0.6,0.7L57,76.8
											c-1.4,0.9-0.3,2.3-0.1,2.5c0.2,0.6,0.3,1.3,0.3,2c-0.1,0.1,0,0.2,0,0.3c0.1,0.1,0.2,0,0.3,0c0-0.1,0-0.2,0-0.2
											c0-0.7,0.2-1.3,0.3-2c0.1-0.2,1.3-1.6-0.1-2.5l0.7-12.2c0.2-0.2,0.4-0.4,0.6-0.7c0.4-0.9,0.1-2-0.8-2.4
											c-0.1,0-0.1,0-0.2-0.1c0.1-0.8,0.4-1.6,0.7-2.3c-0.5,0-1-0.3-1.3-0.7c-0.3,0.4-0.8,0.7-1.3,0.7c0.4,0.7,0.6,1.5,0.7,2.3
											C56.7,61.4,56.7,61.5,56.6,61.5"/>
										<path id="Path_3385" class="st6" d="M55.3,56.6l1.3,6.7l1.4-0.4l-2-6.5c1.2-1.2-0.3-2.3-0.5-2.5c-0.3-0.6-0.6-1.2-0.8-1.8
											c0-0.1,0-0.2-0.1-0.2c-0.1,0-0.2,0-0.2,0.1c0,0.1,0,0.2,0.1,0.2c0.1,0.7,0.2,1.3,0.1,2C54.5,54.4,53.7,56.1,55.3,56.6"/>
										<path id="Path_3386" class="st6" d="M58.5,64.4c0.4-0.4,0.7-0.9,0.6-1.5l-3.4,0.9c0.2,0.6,0.8,1,1.4,1
											c0.1,0.8,0.1,1.6-0.1,2.4c0.5-0.1,1.1,0,1.5,0.4c0.3-0.5,0.7-1,1.1-1c-0.5-0.6-1-1.3-1.3-2.1
											C58.4,64.5,58.5,64.5,58.5,64.4"/>
										<path id="Path_3387" class="st10" d="M55.6,63.5c-0.2-1,0.4-1.9,1.4-2.1s1.9,0.4,2.1,1.4c0.2,1-0.4,1.9-1.4,2.1
											C56.8,65.1,55.8,64.5,55.6,63.5C55.6,63.5,55.6,63.5,55.6,63.5"/>
										<path id="Path_3388" class="st6" d="M57.5,90.7h-0.2h-0.2c-6.8,0.1-13.5-2.5-18.5-7.1c0,0,2.7,3.1,2.7,4
											c0,0,2.2-0.7,3.9,3.2c-0.4,0.8-0.1,1.8,0.8,2.2c0.1,0.1,0.2,0.1,0.3,0.1c0,0.9,0.8,1.6,1.7,1.6c1.7,0.2,1.5-1.9,1.5-1.9
											s3-0.5,3.1,2.3c0.1,1.6-0.9,2-0.9,2v2.1L51,99.9v1.8h12.8v-1.8l-0.9-0.5v-2.1c0,0-0.9-0.4-0.9-2c0.1-2.8,3.1-2.3,3.1-2.3
											s-0.2,2,1.5,1.9c0.9,0,1.7-0.7,1.7-1.6c0.9-0.2,1.4-1.1,1.2-2c0-0.1-0.1-0.2-0.1-0.3c1.7-3.9,3.9-3.2,3.9-3.2
											c-0.1-0.9,2.7-4,2.7-4C71,88.2,64.4,90.8,57.5,90.7"/>
									</g>
								</g>
							</g>
						</g>
					</g>
				</g>
			</g>
			<path id="Path_3532" class="st11" d="M55.7,110.6c30.3,0,54.9-24.6,54.9-54.9S86,0.8,55.7,0.8S0.8,25.3,0.8,55.7c0,0,0,0,0,0
				C0.8,86,25.3,110.6,55.7,110.6z"/>
			<path id="Path_3533" class="st12" d="M99.2,81.2c-13.9,24.1-44.6,32.3-68.7,18.4S-1.8,54.9,12.1,30.9C26,6.8,56.7-1.4,80.8,12.5
				c0.5,0.3,1,0.6,1.5,0.9C59.4,1.2,31.1,9.9,18.9,32.8S15.5,84,38.3,96.2c21.7,11.5,48.7,4.3,61.7-16.5
				C99.8,80.2,99.5,80.7,99.2,81.2"/>
			<path id="Path_3534" class="st13" d="M97.9,76.5c-12,20.8-38.6,27.9-59.3,15.9c-0.4-0.3-0.9-0.5-1.3-0.8
				c19.7,10.5,44.2,3,54.7-16.8s3-44.2-16.8-54.7c-18.7-9.9-42-3.7-53.3,14.3c0.2-0.4,0.5-0.9,0.7-1.3C34.7,12.3,61.3,5.2,82,17.2
				S109.9,55.7,97.9,76.5"/>
		</g>
	</g>
</g>
</svg>
