<svg xmlns="http://www.w3.org/2000/svg" width="1442.5" height="311.358" data-name="Group 2008"><defs><clipPath id="a"><path fill="none" d="M0 0h1442.5v311.358H0z" data-name="Rectangle 1793"/></clipPath></defs><g clip-path="url(#a)" data-name="Group 2007"><path fill="none" stroke="#ffc300" stroke-linecap="round" stroke-miterlimit="10" stroke-width="2.5" d="M1.25 75.694s.3-.163.88-.465" data-name="Path 3304"/><path fill="none" stroke="#ffc300" stroke-dasharray="2 4.999" stroke-linecap="round" stroke-miterlimit="10" stroke-width="2.5" d="M6.613 73.025C28.048 62.92 111.352 28.9 213.162 55.51c91.019 23.791 173.3 84.209 275.831 81.7 91.395-2.236 160.956-51.611 252.238-53.6s151.436 17.357 216.631 39.831c42.774 14.745 130.6 18.341 211.956-2.5 75.372-19.3 114.586-50.744 172.134-54.713 48.083-3.316 85.138 8.308 96.026 12.221" data-name="Path 3305"/><path fill="none" stroke="#ffc300" stroke-linecap="round" stroke-miterlimit="10" stroke-width="2.5" d="M1440.325 79.332c.611.237.925.368.925.368" data-name="Path 3306"/><path fill="#0c125d" d="M1440.589 178.058h-26.558v11.563l-409.9 7.94-47.792-7.94v121.737h484.611Z" data-name="Path 3307"/><path fill="#0c125d" d="M991.508 141.506H930.6v-16.279h6.5v-4.865h-3.251l-7.31-8.959s6.5-14.617-21.94-33.294c0 0-.792-22.773-7.292-22.773s-7.316 22.773-7.316 22.773C861.55 96.786 868.052 111.4 868.052 111.4l-7.3 8.959H857.5v4.865h6.5V161h-13v12.173h-25.185v-7.3c-4.065-4.876-27.616-5.69-27.616-5.69V174h-4.873l-1.623-1.618v-5.69c0-13.021-18.677-8.949-18.677-8.949h-23.559v-16.237h-73.1v12.162h-13.814v-12.162h-41.416v12.162h-17.871V122.4h-5.686V53.718H585.4v-6.494h-44.681v7.319l-16.237 9.741v86.963c-15.434 0-17.056 19.514-17.056 19.514l-7.31 7.3h-64.985v19.5H413.2v-24.39h-32.481V78.923h-93.411v34.12H85.88v57.718H63.138v14.606h-14.63v12.195H.715v113.8h990.793Z" data-name="Path 3308"/><path fill="none" stroke="#fff" stroke-linecap="round" stroke-miterlimit="10" stroke-width="1.5" d="M35.252 294.724v-97.253" data-name="Line 247"/><path fill="none" stroke="#fff" stroke-linecap="round" stroke-miterlimit="10" stroke-width="1.5" d="M35.493 209.294h31.154v14.461h16.8v69.087" data-name="Path 3309"/><path fill="none" stroke="#fff" stroke-linecap="round" stroke-miterlimit="10" stroke-width="1.5" d="M63.137 185.276h59.292v31.434h23.277" data-name="Path 3310"/><path fill="none" stroke="#fff" stroke-linecap="round" stroke-miterlimit="10" stroke-width="1.5" d="M145.706 292.842v-95.371H197.7V246.1" data-name="Path 3311"/><path fill="none" stroke="#fff" stroke-linecap="round" stroke-miterlimit="10" stroke-width="1.5" d="M166.283 112.952v72.324" data-name="Line 248"/><path fill="none" stroke="#fff" stroke-linecap="round" stroke-miterlimit="10" stroke-width="1.5" d="M199.316 223.413H242.1v-8.86h41.15v76.374" data-name="Path 3312"/><path fill="none" stroke="#fff" stroke-linecap="round" stroke-miterlimit="10" stroke-width="1.5" d="M311.96 290.927V201h22.188v10.819H379.1" data-name="Path 3313"/><path fill="none" stroke="#fff" stroke-linecap="round" stroke-miterlimit="10" stroke-width="1.5" d="M380.719 173.081v117.846" data-name="Line 249"/><path fill="none" stroke="#fff" stroke-linecap="round" stroke-miterlimit="10" stroke-width="1.5" d="M435.132 197.471v93.456" data-name="Line 250"/><path fill="none" stroke="#fff" stroke-linecap="round" stroke-miterlimit="10" stroke-width="1.5" d="M992.505 294.724v-106.33" data-name="Line 251"/><path fill="none" stroke="#fff" stroke-linecap="round" stroke-miterlimit="10" stroke-width="1.5" d="M992.746 209.294h31.154v14.461h16.8" data-name="Path 3314"/><path fill="none" stroke="#fff" stroke-linecap="round" stroke-miterlimit="10" stroke-width="1.5" d="M486.112 179.17v47.742" data-name="Line 252"/><path fill="none" stroke="#fff" stroke-linecap="round" stroke-miterlimit="10" stroke-width="1.5" d="M524.482 151.156H554v22.75h-8.129v18.425h-8.124v46.04" data-name="Path 3315"/><path fill="none" stroke="#fff" stroke-linecap="round" stroke-miterlimit="10" stroke-width="1.5" d="M554 163.747h23.827v127.18" data-name="Path 3316"/><path fill="none" stroke="#fff" stroke-linecap="round" stroke-miterlimit="10" stroke-width="1.5" d="M577.394 191.618h74.071v99.309" data-name="Path 3317"/><path fill="none" stroke="#fff" stroke-linecap="round" stroke-miterlimit="10" stroke-width="1.5" d="m701.141 273.971 38.036-25.837v-27.087H791.7v69.88" data-name="Path 3318"/><path fill="none" stroke="#fff" stroke-linecap="round" stroke-miterlimit="10" stroke-width="1.5" d="M793.326 265.469h42.247V227h41.147v63.925" data-name="Path 3319"/><path fill="none" stroke="#fff" stroke-linecap="round" stroke-miterlimit="10" stroke-width="1.5" d="m840.441 173.081 22.2 19.525v22.751" data-name="Path 3320"/><path fill="none" stroke="#fff" stroke-linecap="round" stroke-miterlimit="10" stroke-width="1.5" d="M930.6 141.415v28.231" data-name="Line 253"/><path fill="none" stroke="#fff" stroke-linecap="round" stroke-miterlimit="10" stroke-width="1.5" d="M905.959 290.927V189.1l40.069-16.014h14.894v-8.233l30.587-11.931" data-name="Path 3321"/><path fill="none" stroke="#ffc300" stroke-linecap="round" stroke-miterlimit="10" stroke-width="2.5" d="M1.25 75.694q.439-.235.881-.468" data-name="Path 3322"/><path fill="none" stroke="#ffc300" stroke-dasharray="1.994 4.986" stroke-linecap="round" stroke-miterlimit="10" stroke-width="2.5" d="M6.587 72.989c6.3-3.017 12.833-5.589 19.355-8a316.14 316.14 0 0 1 66.035-16.424 312.373 312.373 0 0 1 95.317 1.365c32.517 5.556 63.656 16.82 94.115 29.21 29.786 12.117 59.123 25.377 89.425 36.191q3.951 1.41 7.924 2.761" data-name="Path 3323"/><path fill="none" stroke="#ffc300" stroke-linecap="round" stroke-miterlimit="10" stroke-width="2.5" d="m381.122 118.89.95.316" data-name="Path 3324"/><path fill="none" stroke="#fff" stroke-linecap="round" stroke-miterlimit="10" stroke-width="1.5" d="M1414.031 172.051v117.846" data-name="Line 254"/><path fill="#0c125d" d="M1040.7 286.307v-97.944l7.624-17.6h83.876v-29.906h11.729v31.084h9.971l8.211-8.8V59.089h-2.875v-13.11h5.89V13.49L1169.492 0l5.187 13.3v32.679h2.412V58.9h-2.412v23.178h5.262v-7.029l3.895-3.9h5.415l3.278 3.277v7.837h2.612V65.739h3.61V13.49l4.75-11.78 4.94 10.83v33.439l2.47 2.47v13.3h-2.66v102.218l7.885 7.885h11.114V142.5h10.26v27.74h82.807l9.78 16.378v99.692Z" data-name="Path 3325"/><path fill="none" stroke="#fff" stroke-linecap="round" stroke-miterlimit="10" stroke-width="1.5" d="M1039.703 188.363v101.56" data-name="Line 255"/><path fill="none" stroke="#fff" stroke-linecap="round" stroke-miterlimit="10" stroke-width="1.5" d="M1330.097 186.615v103.308" data-name="Line 256"/><path fill="none" stroke="#fff" stroke-linecap="round" stroke-miterlimit="10" stroke-width="1.5" d="m1320.396 169.902 9.466 16.319" data-name="Line 257"/><path fill="none" stroke="#fff" stroke-linecap="round" stroke-miterlimit="10" stroke-width="1.5" d="M1172.687 286.307v-28.885a12.714 12.714 0 1 1 25.427 0v28.885" data-name="Path 3326"/><path fill="none" stroke="#fff" stroke-linecap="round" stroke-miterlimit="10" stroke-width="1.5" d="M1198.114 230.974h-25.427v-57.782a12.714 12.714 0 0 1 25.427 0Z" data-name="Path 3327"/><path fill="none" stroke="#fff" stroke-linecap="round" stroke-miterlimit="10" stroke-width="1.5" d="M1153.185 230.974h-20.253v-29.3a8.285 8.285 0 0 1 8.285-8.285h3.683a8.285 8.285 0 0 1 8.285 8.285Z" data-name="Path 3328"/><path fill="none" stroke="#fff" stroke-linecap="round" stroke-miterlimit="10" stroke-width="1.5" d="M1116.456 230.974H1096.2v-29.3a8.285 8.285 0 0 1 8.285-8.285h3.683a8.285 8.285 0 0 1 8.285 8.285Z" data-name="Path 3329"/><path fill="none" stroke="#fff" stroke-linecap="round" stroke-miterlimit="10" stroke-width="1.5" d="M1079.726 230.974h-20.253v-29.3a8.285 8.285 0 0 1 8.285-8.285h3.683a8.285 8.285 0 0 1 8.285 8.285Z" data-name="Path 3330"/><path fill="none" stroke="#fff" stroke-linecap="round" stroke-miterlimit="10" stroke-width="1.5" d="M1311.445 230.974h-20.253v-29.3a8.285 8.285 0 0 1 8.285-8.285h3.683a8.285 8.285 0 0 1 8.285 8.285Z" data-name="Path 3331"/><path fill="none" stroke="#fff" stroke-linecap="round" stroke-miterlimit="10" stroke-width="1.5" d="M1274.715 230.974h-20.253v-29.3a8.285 8.285 0 0 1 8.285-8.285h3.683a8.285 8.285 0 0 1 8.285 8.285Z" data-name="Path 3332"/><path fill="none" stroke="#fff" stroke-linecap="round" stroke-miterlimit="10" stroke-width="1.5" d="M1237.986 230.974h-20.253v-29.3a8.285 8.285 0 0 1 8.285-8.285h3.683a8.285 8.285 0 0 1 8.285 8.285Z" data-name="Path 3333"/><path fill="none" stroke="#fff" stroke-linecap="round" stroke-miterlimit="10" stroke-width="1.5" d="M1177.468 98.527h15.11v44.626h-15.11z" data-name="Rectangle 1786"/><path fill="none" stroke="#fff" stroke-linecap="round" stroke-miterlimit="10" stroke-width="1.5" d="M1132.932 243.195h20.253v29.996h-20.253z" data-name="Rectangle 1787"/><path fill="none" stroke="#fff" stroke-linecap="round" stroke-miterlimit="10" stroke-width="1.5" d="M1096.203 243.195h20.253v29.996h-20.253z" data-name="Rectangle 1788"/><path fill="none" stroke="#fff" stroke-linecap="round" stroke-miterlimit="10" stroke-width="1.5" d="M1059.473 243.195h20.253v29.996h-20.253z" data-name="Rectangle 1789"/><path fill="none" stroke="#fff" stroke-linecap="round" stroke-miterlimit="10" stroke-width="1.5" d="M1291.192 243.195h20.253v29.996h-20.253z" data-name="Rectangle 1790"/><path fill="none" stroke="#fff" stroke-linecap="round" stroke-miterlimit="10" stroke-width="1.5" d="M1254.462 243.195h20.253v29.996h-20.253z" data-name="Rectangle 1791"/><path fill="none" stroke="#fff" stroke-linecap="round" stroke-miterlimit="10" stroke-width="1.5" d="M1217.733 243.195h20.253v29.996h-20.253z" data-name="Rectangle 1792"/><path fill="none" stroke="#fff" stroke-linecap="round" stroke-miterlimit="10" stroke-width="1.5" d="M1330.1 224.216h42.781v-8.86h41.152v76.374" data-name="Path 3334"/></g></svg>