<svg xmlns="http://www.w3.org/2000/svg" width="121.907" height="105.964"><defs><clipPath id="a"><path fill="#0c125d" d="M.5 0h121.907v105.964H.5z" data-name="Rectangle 1456"/></clipPath></defs><g fill="#0c125d" clip-path="url(#a)" data-name="Secondary logo" transform="translate(-.5)"><path d="M60.384 49.672a.783.783 0 0 1-.972.778c-.875-.1-1.167-1.167-1.458-1.75-2.333-5.055-7.1-10.6-13.027-10.6-4.472 0-7.68 3.5-8.166 8.166-.292 3.305 1.069 7.1 4.277 11.277 5.93 7.777 17.11 18.276 30.72 30.331 0 0 3.4-4.958 3.791-9.916.875-10.985-9.138-6.611-9.138-9.721 0-1.069 1.458-.875 2.236-.875h14.68c.875 0 1.361.194 1.361 1.167-.1 2.528-3.791 0-4.18 3.889a41.183 41.183 0 0 1-5.736 18.276 42.554 42.554 0 0 0 16.235 9.721 18.043 18.043 0 0 0 2.722.681c4.375.972 5.444.681 5.444.681-2.236 2.139-7.68 2.625-11.958 1.653-7.874-1.75-15.457-7.972-15.457-7.972a31.79 31.79 0 0 1-24.109 10.5c-18.665 0-26.831-12.832-27.123-23.332-.389-10.985 7.583-21.1 16.235-20.8-.1 0-7.874-8.36-4.472-17.013 2.43-6.125 6.805-8.944 14.485-8.944 6.222 0 9.43 2.819 10.3 2.819.778 0 .972-1.069 1.847-1.069 1.361 0 1.167 1.847 1.167 2.722Zm7.972 42.872C54.163 80.396 41.622 67.758 39.192 65.523c-.1-.1-.292-.292-.389-.292l-.389-.194a6.546 6.546 0 0 0-.972-.1c-6.125.292-11.374 7.388-11.666 13.124-.778 16.04 12.93 22.845 25.47 22.262a24.56 24.56 0 0 0 17.11-7.775Z" data-name="Path 299"/><path d="M26.262 3.5c-6.805 0-12.444 1.069-12.346 6.222l-.1 18.471c0 4.18-.1 4.375 3.111 4.375h7.583c8.263 0 6.027-8.166 7.972-8.166.681 0 1.167 1.069 1.167 1.847v17.887a1.149 1.149 0 0 1-1.166 1.264c-2.43 0 .194-9.235-6.416-9.235H15.374c-1.847 0-1.458 2.139-1.458 3.6v20.508c.1 10.208 7.874 5.638 7.972 8.652 0 1.361-1.069 1.264-1.555 1.264H3.222c-2.042 0-2.722.1-2.722-.875.1-3.986 7.777.875 6.9-13.513V13.416c-.486-4.958.681-9.819-3.6-10.6-.681-.194-2.43-.389-2.43-1.555C1.375.389 1.764 0 4.194 0c15.749.1 24.984.1 30.234.1 1.847 0 7-.1 11.277-.1.68 0 .778.972.778 2.236 0 11.082-.681 11.763-1.555 11.86-1.944.1-.875-4.764-2.139-7.1C40.747 3.6 32.97 3.5 29.761 3.5h-3.5Z" data-name="Path 300"/><path d="M116.672 61.343c.292 9.138 5.736 4.666 5.736 8.166 0 .972-1.069.972-1.944.972h-14.486a.81.81 0 0 1-.875-.875c0-3.014 5.25.292 4.958-8.166l-.778-38.594-.194-7s-1.167 3.111-1.75 4.375l-17.4 43.747c-.389.875-1.653 4.958-2.43 4.958s-1.361-2.139-1.555-2.916l-17.21-46.081c-.292-.778-1.847-4.083-1.847-4.083l.486 6.222-.972 34.9c-.292 15.068 7.972 8.847 7.972 12.346 0 .972-.389 1.167-1.458 1.167s-4.958-.194-7.291-.1h-6.417c.389 0-2.625.389-2.722-.875-.292-3.5 5.736 1.167 6.319-9.819.972-16.235 1.069-26.734 1.069-37.331 0-23.332-7.194-17.4-7.1-21.193C56.884.194 57.468 0 58.148 0h8.648c1.361 0 1.069 1.653 1.653 2.819L87.41 53.371c.875 2.042 1.167 3.014 1.75 3.014.389 0 1.167-2.042 2.43-5.347L110.547 3.5c.486-1.07 1.361-3.306 1.949-3.306 2.722.1 3.5 0 3.889 0 1.653 0 2.236-.1 3.791 0 .486 0 .778.583.778 1.167 0 3.208-5.736-1.069-5.444 10.791Z" data-name="Path 301"/></g></svg>