<svg id="logo" xmlns="http://www.w3.org/2000/svg" viewBox="0 0 210.523 39.5258">
  <path fill="#0C125D"
    d="M72.837,8.812c-.028-1.982-1.68-1.239-1.793-1.955-.0021-.1673,.0971-.3194,.251-.385h2.478c.661,0,1.349-.028,2.038-.028,4.764,0,2.092,1.074,1.019,.854-.276-.054-.551,0-.496-.028-.551,.138-1.68-.082-1.79,1.515v14.622c.027,1.955,1.928,1.212,1.928,2.037,0,.193-.138,.33-.661,.33-.468,0-1.184-.028-2.12,0-1.377,0-1.79,0-2.148,.028-.386,0-.441-.193-.413-.468,.055-.661,1.845,.193,1.707-2.589V8.812Zm6.526,3.029c.193-6.225-2.671-3.552-2.891-4.957-.024-.168,0-.303,.11-.303-.134,0-.606-.193,1.68-.082,.358,.028,.661-.083,.854,.083,.468,.386,.413,.33,.523,.523l10.409,14.429c.138,.193,.22,.3,.248,.3s.055-.083,.055-.3V10.161c-.166-3.938-2.479-2.345-2.424-3.445,0-.193,.33-.275,.33-.275,.248,0,1.432,.028,2.038,0,.854,0,1.79,0,2.286-.028,.083,0,.386,0,.413,.275,.028,.826-1.707-.11-1.735,2.175v15.753c0,.8-.028,1.157-.193,1.157s-.358-.138-.826-.771l-9.362-13.161c-.055-.055-.3-.523-.468-.523-.083,0-.165,.083-.165,.633v11.125c.027,2.34,1.927,1.432,1.927,2.231,0,.2753-.11,.413-.33,.413h-2.148c-.771,0-1.57,0-2.038,.028-.2136-.0223-.3782-.1984-.386-.413,.358-.964,2.038,.3,2.038-3.5l.055-9.994ZM4.571,10.602c0,1.239-.055,1.4,1.1,1.4h2.15c3.029,0,2.231-3.084,2.919-3.084,.2525,.0408,.4318,.2679,.413,.523v6.526c0,.33-.22,.633-.413,.633-.909,0,.083-3.36-2.341-3.36h-3.3c-.661,0-.523,.771-.523,1.322v7.49c-.193,3.58,2.148,2.368,2.561,3.167,.083,.165,.083,.578-.606,.578-.193,0-.11,0-2.809-.028-.633,0-2.754,.028-2.809,.028-.744,0-.661-.5-.606-.606,.3-.578,2.4,.165,2.313-3.773V4.681c0-1.625,.193-3.139-1.735-3.662-.252-.028-.885-.109-.885-.551C0,.168,.165-.055,1.019,.027,2.203,.137,10.019,.027,11.619,.055h3.828c.468,0,.468,.358,.413,.771-.358,3.635-.11,4.241-.578,4.323-.771,.11-.386-1.845-.854-2.754-.744-1.377-2.4-1.239-3.5-1.267-2.584-.054-6.715-.329-6.412,2.645l.055,6.829Zm45.244,4.516c0,.165,.055,.275,.11,.275,.0994-.0057,.1907-.0565,.248-.138l4.378-4.956c.6472-.6305,1.1706-1.3767,1.543-2.2,.192-.912-1.295-.554-1.212-1.27,.027-.33,.248-.33,.275-.33h4.324c.138,0,.578,.055,.578,.193,.083,1.046-.688-.138-3.167,2.4l-5.122,5.641c-.193,.22-.33,.386-.33,.523,.0222,.1971,.1095,.3811,.248,.523l6.058,7.931c1.459,1.9,2.4,.881,2.4,1.707-.0008,.2073-.1529,.3828-.358,.413h-1.299c-.358,0-.523,0-1.129,.028-.275,0-.606-.5-.8-.744l-6.167-8.041c-.137-.192-.278-.274-.385-.274s-.193,.082-.193,.274v-1.955Zm14.182,7.27c0,1.6-.165,2.258,1.652,2.258,5.039,0,5.783-2.809,6.058-2.809,.165,0,.165,.275,.165,.33-.0893,.968-.463,1.8879-1.074,2.644-.4085,.7498-1.2542,1.1502-2.093,.991-1.652,0-3.249-.028-4.957,0h-2.587c-.193,0-.386-.055-.416-.275-.083-.578,.606-.5,.964-.771,.5-.413,.606-1.1,.606-2.368V8.591c.003-1.404-1.87-1.074-1.87-1.707,0-.357,.248-.413,.468-.413,.468-.028,1.184,0,2.258,0,1.239,0,1.707-.055,2.038-.028,.11,0,.661-.138,.633,.386-.055,.798-1.927-.22-1.817,2.313l-.028,13.246ZM17.018,15.972c2.341,.055,3.084,1.927,3.912,3.527,.909,1.762,1.432,4.1,2.533,5.039,.8188,.5695,1.7176,1.0144,2.667,1.32l-.63-.059-.551,.055-.826-.028-.248,.055h-.523c-.4745-.1165-.9109-.3535-1.267-.688-1.4-1.267-2.616-4.544-3.167-5.507-.605-1.071-1.188-3.053-2.946-3.053h-.055c-.688,0-.551,.5-.551,.771v5.755c-.055,2.478,2.364,1.405,2.364,2.313,0,.275-.138,.358-.358,.386h-2.584c-1.129,0-1.817,.055-2.451,.028-.138,0-.633-.11-.606-.468,.083-.661,1.928-.055,1.928-2.286V9.28c0-2.616-1.873-1.487-1.873-2.423,0-.165,.193-.33,.468-.33,.2935-.0157,.5875-.0157,.881,0l.744-.028c2.286,0,.523,.028,3.635,.028,.386,0,5.865-.578,5.865,4.681-.0349,2.0328-1.2346,3.8646-3.084,4.709-.9589,.4738-2.0145,.7189-3.084,.716l-.193-.661Zm-1.652-7.6v6.553c0,.275-.028,.771,.661,.771,.275,0,.964,.055,1.377,.028,.33,0,.5-.083,.716-.083,1.046,0,3.415-.5,3.415-3.855-.005-3.332-2.038-4.433-4.462-4.433-.881,.027-1.735-.028-1.707,1.019Zm21.039,16.439c.633-.22,1.487,.33,1.459-2.919V11.841c0-5.672-2.644-4.079-2.644-5.094,0-.165,.22-.275,.33-.275h1.074c.2478,.0145,.4962,.0145,.744,0,.275,.028,.633,.441,.744,.633l10.189,14.209c.1212,.1796,.2595,.3471,.413,.5,0,0-.633,.275-.413-.441l-.028-11.239c.11-3.718-2.285-2.313-2.065-3.442,.028-.193,.3-.22,.441-.22h2.148c.744,0,1.459,0,2.038-.028,.028,0,.578,0,.633,.193,.358,1.1-1.707,.11-1.707,2.258v15.751c0,1.129-.083,1.1-.248,1.1s-.3-.083-.771-.688l-9.363-13.162c-.055-.055-.3-.523-.468-.523-.083,0-.165,.083-.165,.633v11.126c0,2.451,1.817,1.515,1.928,2.231,.028,.275-.11,.413-.33,.413-.358,0-1.019,0-2.148-.028h-3c-.688,.028-1.046,0-1.652,0-.138,0-.441-.055-.441-.33,0-.661,1.4-.275,1.294-1.4-.2302-.88-.5154-1.7447-.854-2.589l-.854-2.231c-.22-.633-.358-1.046-.964-1.046h-5.261c-.413,0-.633,0-.854,.578l-1.212,3.8c-.1189,.2804-.1931,.5776-.22,.881,0,1.68,2.286,1.294,2.4,1.735,.165,.688-.413,.633-1.6,.633-.4147,.0117-.8296-.0161-1.239-.083l-.716-.275c-.716-.441-.22-.964,.028-1.762l4.927-13.828c1.267-3.387,1.515-3.855,1.515-3.855,.275-.138,.468,.8,.578,1.019l4.847,13.521c.3799,1.2273,.8303,2.4316,1.349,3.607,.413,.854,.854,.413,1.239,.523l-1.101,.165Zm-9.969-8.288c-.165,.386,0,.5,.275,.5h4.627c.468,0,.468-.193,.358-.551l-2.534-6.558c-.11-.33-.22-.33-.358,0l-2.368,6.609Zm98.556,5.837c-.193,3.662,2.286,1.707,2.286,2.974,0,.358-.386,.413-.688,.413h-5.2c-.248,0-.5-.11-.5-.386,0-.964,1.983,.083,1.9-2.974l-.33-13.824-.193-2.313s-.716,1.487-.881,1.983l-6,15.338c-.138,.33-.606,1.817-.909,1.817s-.5-.8-.578-1.046l-6.2-16.191c-.083-.275-.523-1.6-.523-1.6l-.028,1.738-.307,12.557c0,5.507,2.864,2.891,2.7,4.6-.028,.358-.413,.33-.826,.33h-4.982c.578,.028-.33-.083-.3,0-.028-.083-.33,.028-.386-.358-.11-1.1,2.093,.193,2.341-3.58,.386-5.921,.661-9.583,.661-13.411,.025-8.95-2.808-6.802-2.866-7.959-.028-.413,.385-.44,.55-.44,.551,0,1.019,.028,1.57,.028,.523,0,.826-.028,1.377-.028,.413,.028,.716,.881,.854,1.267l6.907,18.422c.33,.771,.441,1.1,.633,1.074,.138,0,.441-.771,.909-1.955L122.899,1.487c.166-.387,.689-1.487,1.042-1.487,1.019,0,.936,.028,1.1,.028,.661,0,.909,0,1.4-.028,.165,0,.523,.193,.441,.523-.241,1.184-2.523-1.023-2.385,4.077l.495,17.76Zm36.79-13.552c-.193-2.2-1.9-1.126-1.928-2.062,0-.248,.358-.3,.633-.3,.909,0,1.349,.028,2.148,0,.771,0,1.1-.028,1.735-.028,.744,0,.909,.165,.909,.275,.083,.964-1.707-.138-1.79,2.093v5.891c0,.386,0,.5,.33,.5h7.958c.22,0,.165-.688,.165-.8v-5.593c-.11-2.038-1.6-1.239-1.625-1.955,.0273-.2503,.249-.4334,.5-.413,.744-.028,1.57,.028,1.983,.028,.8,0,1.294-.028,1.735-.028,.578,0,.771,.028,.8,.413,.055,.688-1.707-.083-1.652,1.983v14.43c-.138,2.258,1.349,1.239,1.322,1.735,0,.083,.578,.771,.413,.771-.578,0-1.239,.028-2.01,.028h-2.4c-.193,0-.606,0-.688-.386-.138-.744,1.652,0,1.625-1.983v-6.527c0-.441,.083-.688-.165-.688h-8.043c-.275,0-.275,.165-.275,.468v6.774c-.083,2.038,2.427,1.074,2.227,2.038-.0636,.1749-.227,.2936-.413,.3h-2.861c-.6788,.0381-1.3592,.0381-2.038,0-.028,0-.688,0-.688-.358-.028-1.019,1.983,.248,2.038-2.671l.055-13.935Zm30.264,13.58c0,1.6-.165,2.258,1.652,2.258,5.039,0,5.755-2.809,6.058-2.809,.165,0,.165,.275,.165,.33-.0861,.9735-.4702,1.8967-1.1,2.644-.688,.991-1.294,.936-2.258,.964-1.652,.028-3.057-.028-4.736,0-.936,.028-1.873-.028-2.754-.028-.193,0-.441-.5-.441-.716,.055-.33,.3-.083,1.074-.275,.633-.138,.606-1.1,.606-2.368V8.591c.027-1.569-1.736-1.129-1.818-1.707-.056-.275,.247-.44,.523-.44,.47-.028,1.101,0,2.175,0,1.267,0,1.102-.028,1.9-.028,.275,0,.688,0,.688,.33,.028,.744-1.873,.055-1.735,2.4l.001,13.242Zm-12.061-12.475c1.294-3.442,1.294-3.662,1.432-3.91,.165-.248,.358,.441,.578,1.046l4.681,13.521c.3844,1.2257,.8348,2.4298,1.349,3.607,.523,1.1,2.231,.248,2.093,1.184-.028,.275-.165,.413-.3,.413h-2.564c-.578,0-1.239,.055-1.79,.028-.138,0-.606-.083-.606-.386,.028-.633,1.652-.386,1.349-1.294-.193-.578-.716-1.79-.936-2.533l-.77-2.286c-.22-.633-.358-1.046-.964-1.046h-4.792c-.413,0-.633,0-.854,.578l-1.183,3.966c-.055,.193-.028,.138-.193,.661-.551,1.762,1.542,1.267,1.57,1.9,.028,.441-.468,.441-.771,.441h-1.488c-.4775,.0182-.9556,.0089-1.432-.028-.138,0-.083-.551-.083-.716,.028-.606,.633,.22,.991-1.239l4.683-13.907Zm-1.35,6.609c-.165,.386,0,.5,.275,.5h4.131c.468,0,.468-.193,.358-.551l-2.313-6.558c-.11-.33-.22-.33-.358,0l-2.093,6.609Zm24.013,5.866c0,1.6-.165,2.258,1.652,2.258,5.039,0,5.783-2.809,6.058-2.809,.165,0,.165,.275,.165,.33-.0893,.968-.463,1.8879-1.074,2.644-.688,.991-1.267,.964-2.231,.964h-4.433c-.881,0-2.12,.028-3,.028-.193,0-.413-.083-.413-.3,.055-.33,.275-.275,.964-.716,.578-.33,.606-1.1,.606-2.368V8.619c-.002-1.542-1.819-1.129-1.819-1.762,0-.303,.248-.386,.523-.386h4.241c.275,0,.578,.083,.606,.413,.055,.771-1.817-.165-1.817,2.313l-.028,13.191Zm-62.097-14.072v6.551c.041,.4676,.4534,.8135,.921,.7724,.005-.0004,.01-.0009,.015-.0014,.5884,.1214,1.1911,.1584,1.79,.11,.33,0,.22,.028,.413-.028,1.1-.22,3.167-.551,3.3-3.938,.165-3.3-2.286-4.434-4.681-4.434-.881,0-1.817-.138-1.79,1.074l.055,.358-.023-.464Zm-11.758,8.234c-.165,.386,0,.5,.275,.5h4.626c.468,0,.468-.193,.358-.551l-2.532-6.558c-.11-.33-.22-.33-.358,0l-2.369,6.609Zm13.851-.583c2.341,.055,3.883,2.726,4.874,4.213,.7161,1.0947,1.4882,2.1517,2.313,3.167,.9947,1.1146,2.3915,1.7884,3.883,1.873,.055,0,.991-.055,1.074-.055,2.451-.578,4.048-2.368,3.47-4.984-.8-3.69-8.647-2.423-8.647-9.28,0-3.466,2.509-4.871,5.009-4.871,2.644,0,3.36,1.1,3.662,.991,.165-.083,.248-.3,.468-.3,.138,0,.248,.028,.275,.386l.33,3.69c.028,.22-.028,.413-.248,.413-.248,0-.386-.578-.468-.826-.3823-1.9827-2.1069-3.4226-4.126-3.445-1.4-.055-3.332,.606-3.332,3.442,0,4.792,8.041,3.883,9.087,8.729,.578,2.589-.716,6.526-5.645,7.022l-1.1,.028c-1.9959,.0924-3.9469-.6106-5.425-1.955-1.2344-1.4467-2.3837-2.9639-3.442-4.544-.716-.991-1.79-3.057-3.222-3.057-.4327-.0512-.8259,.2558-.881,.688v5.755c-.11,2.533,2.451,1.349,2.258,2.423-.028,.193-.441,.3-.468,.275h-4.38c-.578,0-1.157,.028-1.735,.028-.138,0-.744,.11-.8-.275-.11-.991,1.487-.165,1.432-1.4-.2176-.8837-.5031-1.7493-.854-2.589l-.854-2.231c-.22-.633-.358-1.046-.964-1.046h-5.258c-.413,0-.633,0-.854,.578l-1.046,3.8c-.055,.193-.193,.716-.248,.991-.358,1.735,1.9,.881,1.873,1.762-.028,.5-.33,.413-.606,.413-1.157,0-1.459,0-2.2-.028l-.829-1.102c.165-.358,.22-.165,.441-.744l4.959-13.935c1.292-3.441,1.484-3.909,1.484-3.909,.248-.358,.358,.441,.5,.661l4.984,13.879c.4218,1.2397,.9373,2.4455,1.542,3.607,.275,.551,.551,.936,.964,1.019l-1.019-.028c.413-.3,0-.5,0-2.148V9.197c-.11-2.478-2.231-1.4-2.175-2.341,.028-.386,.5-.413,.633-.413,.661-.028,.771,.028,1.294,0h4.571c1.322,0,5.4-.3,5.728,4.736,.1263,2.0907-1.1096,4.0245-3.06,4.788-.9395,.4936-1.9988,.7129-3.057,.633m-39.021,1.465c.0072,.1622-.1184,.2996-.2806,.3068-.026,.0012-.052-.0011-.0774-.0068-.33-.028-.441-.441-.551-.661-.883-1.87-2.671-4.097-4.874-3.963-1.6658,.1532-2.9975,1.4507-3.194,3.112-.22,1.184,.085,2.423,1.763,4.379,3.5974,3.9218,7.4227,7.6282,11.456,11.1,.7413-1.1106,1.2301-2.3701,1.432-3.69,.1942-.8238-.0328-1.6903-.606-2.313-.1307-.1088-.2802-.1928-.441-.248-.2073-.0759-.4186-.1403-.633-.193-.3062-.0757-.6206-.1126-.936-.11,0,0-.661-.248-.413-.138-.2304-.1115-.3715-.3504-.358-.606-.0017-.2308,.184-.4194,.4149-.4211,.0286-.0002,.0571,.0025,.0851,.0081,1.487,.055,3.084,.055,3.635,.055,1.212,0,.5,0,2.038,.028,.33,0,.688,.11,.661,.468-.055,.936-1.4-.028-1.542,1.459-.1663,2.4011-.8923,4.7299-2.12,6.8,1.7147,1.6481,3.7839,2.8819,6.049,3.607,.3245,.1115,.6554,.2033,.991,.275,.6586,.2061,1.3492,.2901,2.038,.248-.854,.826-2.836,.991-4.378,.716-2.2174-.4241-4.2588-1.4976-5.865-3.084-2.2721,2.5659-5.55,4.0137-8.977,3.965-5.309,0-9.909-3.387-10.109-9.032-.138-4.1,2.726-7.242,5.948-7.242-1.7978-1.5707-2.5258-4.0391-1.868-6.334,.606-2.4,2.726-3.718,5.7-3.525,1.3271,.1236,2.6225,.4775,3.828,1.046,.3,0,.358-.413,.688-.413,.5,0,.441,.688,.441,1.019l.055,3.388Zm2.947,16.027c-5.287-4.544-9.969-9.2-10.85-10.106-.0642-.0527-.1394-.0903-.22-.11l-.33-.11c-.1189-.015-.2391-.015-.358,0-2.286,.083-3.91,2.809-4.1,4.626-.606,5.7,4.791,8.812,9.445,8.592,2.4423-.0503,4.7584-1.0948,6.413-2.892Zm25.086,3.882c-1.1677-1.094-1.8011-2.6423-1.735-4.241,.0153-1.4597,.5876-2.8584,1.6-3.91,1.1712-1.0973,2.7471-1.6562,4.348-1.542,.6914,.0045,1.3816,.0596,2.065,.165,.4805,.1076,.9681,.1811,1.459,.22,.165,.028,.193,.083,.193,.165,0,.11-.055,.275-.083,.8-.028,.468-.028,1.267-.055,1.487s-.055,.3-.138,.3c-.11,0-.11-.11-.11-.3,.0158-.5506-.2048-1.0816-.606-1.459-.8381-.5815-1.8439-.8721-2.863-.827-1.1909-.1236-2.3793,.2568-3.277,1.049-.9497,1.003-1.4212,2.3666-1.294,3.742-.0381,2.8512,2.2423,5.1934,5.0935,5.2316,.0278,.0004,.0557,.0005,.0835,.0004,.8892,.1112,1.7851-.1477,2.478-.716,.2827-.3481,.4637-.7675,.523-1.212,.028-.165,.055-.22,.138-.22s.11,.11,.11,.22c-.0627,.6205-.1629,1.2366-.3,1.845-.083,.275-.11,.3-.386,.413-.8411,.2414-1.7142,.3527-2.589,.33-1.6911,.0961-3.3553-.4548-4.655-1.541Zm17.542-8.041c2.836,0,4.984,1.735,4.984,4.571,.0583,2.6807-2.0676,4.9011-4.7483,4.9594-.0969,.0021-.1938,.0013-.2907-.0024-2.5792,.1406-4.784-1.8363-4.9247-4.4155-.0068-.1254-.0086-.251-.0053-.3765,.0161-2.6343,2.1647-4.7569,4.7991-4.7408,.062,.0004,.124,.002,.1859,.0048Zm.275,9.032c1.129,0,3.415-.606,3.415-4.131,0-2.918-1.763-4.46-3.775-4.46-2.093,0-3.635,1.322-3.635,3.965,.03,2.836,1.709,4.626,3.995,4.626Zm11.728-3.167c0,1.79,.028,2.533,.248,2.726,.193,.193,.688,.275,1.68,.275,.661,0,1.212-.028,1.515-.386,.1546-.2014,.2576-.4376,.3-.688-.0064-.0833,.0548-.1566,.138-.165,.055,0,.083,.055,.083,.193-.0268,.4091-.0914,.8148-.193,1.212-.083,.275-.138,.33-.8,.33-.909,0-1.6-.028-2.175-.055s-.986-.027-1.371-.027c-.1754,.0005-.3507,.0105-.525,.03-.238,.0221-.477,.0314-.716,.028-.138,0-.193-.028-.193-.11-.0103-.0543,.0254-.1066,.0797-.1168,.0097-.0018,.0195-.0022,.0293-.0012,.1307-.003,.2608-.0197,.388-.05,.248-.055,.275-.275,.33-.633,.0814-.8788,.1088-1.7618,.082-2.644v-2.148c0-1.873,0-2.231-.028-2.616-.026-.409-.108-.609-.521-.661-.11,0-.303-.028-.441-.028-.027,0-.11-.055-.11-.11,0-.082,.055-.11,.193-.11,.578,0,1.349,.028,1.432,.028,.055,0,.991-.028,1.375-.028,.138,0,.193,.028,.193,.11,0,.055-.055,.083-.11,.083-.1379-.003-.2757,.0061-.412,.027-.385,.08-.44,.248-.471,.689v4.846Zm10.519,0c0,1.79,.028,2.533,.248,2.726,.193,.193,.688,.275,1.68,.275,.661,0,1.212-.028,1.515-.386,.1546-.2014,.2576-.4376,.3-.688,.028-.083,.055-.165,.138-.165,.055,0,.083,.055,.083,.193-.0268,.4091-.0914,.8148-.193,1.212-.083,.275-.138,.33-.8,.33-.909,0-1.6-.028-2.175-.055s-.986-.027-1.371-.027c-.1754,.0005-.3507,.0105-.525,.03-.238,.0221-.477,.0314-.716,.028-.138,0-.193-.028-.193-.11-.0103-.0543,.0254-.1066,.0797-.1168,.0097-.0018,.0195-.0022,.0293-.0012,.1307-.003,.2608-.0197,.388-.05,.248-.055,.275-.275,.33-.633,.0814-.8788,.1088-1.7618,.082-2.644v-2.148c0-1.873,0-2.231-.028-2.616-.026-.409-.108-.609-.521-.661-.11,0-.303-.028-.441-.028-.027,0-.11-.055-.11-.11,0-.082,.055-.11,.193-.11,.578,0,1.349,.028,1.432,.028,.055,0,.991-.028,1.375-.028,.138,0,.193,.028,.193,.11,0,.055-.055,.083-.11,.083-.1379-.003-.2757,.0061-.412,.027-.385,.08-.44,.248-.471,.689-.028,.386-.028,.744-.028,2.616v2.23h.028Zm9.392-2.175c0-1.9,0-2.231-.028-2.616-.026-.413-.108-.606-.521-.661-.11,0-.303-.028-.441-.028-.027,0-.11-.055-.11-.11,0-.082,.055-.11,.193-.11,.578,0,1.377,.028,1.459,.028s2.726,.028,3,0c.196-.0036,.3908-.0315,.58-.083,.055,0,.11-.055,.168-.055s.055,.055,.055,.11c-.0503,.1898-.0871,.383-.11,.578,0,.11-.055,.661-.083,.8-.028,.055-.055,.138-.11,.138-.083,0-.11-.055-.11-.165,.0061-.1514-.0223-.3022-.083-.441-.085-.194-.223-.276-.911-.359-.22-.028-1.68-.055-1.817-.055-.055,0-.083,.055-.083,.138v3.3c0,.083,0,.138,.083,.138,.165,0,1.817,0,2.093-.028,.2145,.0115,.427-.0463,.606-.165,.083-.083,.138-.165,.193-.165,.028,0,.083,.028,.083,.11-.0493,.2181-.086,.4387-.11,.661-.028,.248-.055,.688-.055,.8s-.028,.22-.11,.22c-.055,0-.083-.055-.083-.11,.0055-.1398-.0131-.2795-.055-.413-.055-.165-.165-.3-.633-.386-.358-.055-1.68-.055-1.9-.055-.083,0-.083,.055-.083,.083v3.087c.028,.826,.248,.964,1.515,.964,.427,.0224,.8548-.0242,1.267-.138,.3457-.1439,.5729-.4795,.578-.854,.028-.138,.055-.193,.138-.193s.083,.11,.083,.193-.11,.909-.165,1.184c-.083,.3-.22,.3-.688,.3-.936,0-1.68-.028-2.2-.055s-.86-.022-1.053-.022h-.552c-.2473,.0226-.4957,.0319-.744,.028-.138,0-.193-.028-.193-.11-.0105-.0542,.025-.1067,.0792-.1171,.0108-.0021,.0219-.0024,.0328-.0009,.11,0,.275-.055,.386-.055,.248-.055,.275-.275,.33-.633,.0817-.8788,.1094-1.7618,.083-2.644v-2.033h.026Zm16.662,2.589c0-.991-.028-1.129-.551-1.239-.11,0-.3-.028-.441-.028-.0591-.0039-.1061-.0509-.11-.11,0-.083,.055-.11,.193-.11,.578,0,1.4,.028,1.487,.028,.055,0,.854-.028,1.239-.028,.138,0,.193,.028,.193,.11-.0039,.0591-.0509,.1061-.11,.11-.1007-.0019-.2014,.0075-.3,.028-.33,.055-.441,.248-.468,.661v2.615c0,.551-.028,.578-.165,.661-.8409,.3719-1.7516,.5598-2.671,.551-1.4956,.0682-2.9678-.3897-4.161-1.294-.9724-.8908-1.5227-2.1513-1.515-3.47-.0569-1.6073,.7388-3.1253,2.093-3.993,1.0269-.5624,2.1896-.8292,3.359-.771,.6471,.0071,1.2923,.0717,1.928,.193,.3348,.0783,.6764,.1241,1.02,.137,.138,0,.165,.055,.165,.11-.0596,.567-.0873,1.1369-.083,1.707,0,.193-.055,.248-.138,.248s-.083-.083-.083-.193c-.0191-.2863-.114-.5624-.275-.8-.303-.466-1.267-.934-2.892-.934-.9488-.0598-1.8875,.2242-2.644,.8-.8638,.7715-1.321,1.8998-1.238,3.055-.0066,1.2481,.4667,2.451,1.322,3.36,.8591,.8391,2.0205,1.2959,3.221,1.267,.4585,.0159,.9157-.0592,1.345-.221,.1678-.0482,.2739-.2133,.248-.386v-2.064h.032Zm7.819-2.589c0-1.9,0-2.231-.028-2.616-.026-.413-.108-.606-.521-.661-.11,0-.303-.028-.441-.028-.0591-.0039-.1061-.0509-.11-.11,0-.082,.055-.11,.193-.11,.578,0,1.377,.028,1.459,.028s2.726,.028,3,0c.196-.0036,.3908-.0315,.58-.083,.055,0,.11-.055,.168-.055s.055,.055,.055,.11c-.0503,.1898-.0871,.383-.11,.578-.028,.11-.055,.661-.083,.8-.028,.055-.055,.138-.11,.138-.083,0-.11-.055-.11-.165-.0079-.15-.0358-.2983-.083-.441-.085-.194-.223-.276-.911-.359-.22-.028-1.68-.055-1.817-.055-.055,0-.083,.055-.083,.138v3.3c0,.083,0,.138,.083,.138,.165,0,1.817,0,2.093-.028,.2145,.0115,.427-.0463,.606-.165,.083-.083,.138-.165,.193-.165s.083,.028,.083,.11c-.0493,.2181-.086,.4387-.11,.661-.028,.248-.055,.688-.055,.8s-.028,.22-.11,.22c-.055,0-.083-.055-.083-.11,.0055-.1398-.0131-.2795-.055-.413-.055-.165-.165-.3-.633-.386-.358-.055-1.68-.055-1.9-.055-.083,0-.083,.055-.083,.083v3.087c.028,.826,.248,.964,1.515,.964,.427,.0224,.8548-.0242,1.267-.138,.3457-.1439,.5729-.4795,.578-.854,.028-.138,.055-.193,.138-.193s.083,.11,.083,.193-.11,.909-.165,1.184c-.083,.3-.22,.3-.688,.3-.936,0-1.68-.028-2.175-.055-.53-.022-.857-.022-1.05-.022h-.551c-.2473,.0226-.4957,.0319-.744,.028-.138,0-.193-.028-.193-.11-.0102-.0543,.0255-.1066,.0798-.1168,.0093-.0017,.0188-.0022,.0282-.0012,.11,0,.275-.055,.386-.055,.248-.055,.275-.275,.33-.633,.0818-.8771,.1099-1.7584,.084-2.639v-2.038Z"
  />
</svg>