<svg xmlns="http://www.w3.org/2000/svg" width="108.455" height="108.455"><defs><clipPath id="a"><path fill="none" d="M27.09 27.138a38.345 38.345 0 1 1 0 54.18 38.427 38.427 0 0 1 0-54.18Z" data-name="Path 3337"/></clipPath></defs><g data-name="Group 2025"><g fill="#0c125d" clip-path="url(#a)" data-name="Group 2024"><path d="M57.331 39.248a.641.641 0 0 1-.7.56c-.561-.14-.842-.84-.982-1.26-1.683-3.64-5.19-7.841-9.4-7.7-3.226.14-5.61 2.66-6.171 6.02-.421 2.24.14 4.621 3.366 8.4 4.634 5.321 12.344 12.741 22.162 21.422a16.452 16.452 0 0 0 2.805-7.141c.14-2.52-.28-3.64-1.122-4.48a1.214 1.214 0 0 0-.842-.42 12.965 12.965 0 0 0-1.262-.42 8.216 8.216 0 0 0-1.823-.28l-.842-.28a1.158 1.158 0 0 1-.7-1.12c0-.42.28-.84.982-.84 2.805.14 5.891.14 7.013.14h3.927c.561 0 1.262.14 1.262.84-.14 1.82-2.665 0-2.945 2.8a29.433 29.433 0 0 1-4.068 13.161 30.9 30.9 0 0 0 11.782 7c1.4.42.982.28 1.964.56 3.226.7 3.927.42 3.927.42-1.683 1.54-5.47 1.96-8.416 1.4a22.319 22.319 0 0 1-11.361-6.02 22.841 22.841 0 0 1-17.392 7.7c-10.239 0-19.216-6.581-19.5-17.362-.281-7.981 5.33-14 11.5-14a11.92 11.92 0 0 1-3.647-12.181c1.13-4.62 5.33-7.142 11.085-6.72 4.488.28 6.873 2.1 7.434 1.96.561 0 .7-.84 1.262-.84.982 0 .842 1.26.842 1.96Zm5.747 30.942c-10.236-8.68-19.212-17.781-21.036-19.465a2.025 2.025 0 0 1-.421-.28l-.561-.14h-.7c-4.348.14-7.574 5.461-7.854 8.961-1.122 11.061 9.257 16.941 18.234 16.521 8.275-.56 12.343-5.6 12.343-5.6" data-name="Path 3335"/><path d="M48.495 81.124a22.3 22.3 0 0 1-14.394-4.97 18.093 18.093 0 0 1-6.517-13.767 15.886 15.886 0 0 1 4.255-11.592 12.592 12.592 0 0 1 5.779-3.479 13.289 13.289 0 0 1-2.138-11.491c1.28-5.271 6.094-8.256 12.557-7.787a19.268 19.268 0 0 1 6.759 1.709l.3.127a2.051 2.051 0 0 1 1.537-.719 2.116 2.116 0 0 1 1.553.628 3.347 3.347 0 0 1 .707 2.535v.239l-.14 6.711a2.052 2.052 0 0 1-2.116 1.953 1.419 1.419 0 0 1-.343-.042 2.918 2.918 0 0 1-1.953-2.1c-1.629-3.483-4.74-6.929-8.035-6.816-2.451.106-4.35 2.007-4.823 4.841v.028c-.292 1.553-.124 3.5 3.053 7.225C48.805 49.264 55.97 56.222 65.3 64.521a13.275 13.275 0 0 0 1.713-5.061c.128-2.343-.281-2.958-.711-3.388l-.018-.017a1.385 1.385 0 0 1-.271-.061c-.383-.127-.587-.205-.722-.256a2.821 2.821 0 0 0-.435-.133 1.42 1.42 0 0 1-.2-.067 9.523 9.523 0 0 0-1.284-.17 1.368 1.368 0 0 1-.441-.073l-.782-.26-.034-.012-.042-.013-.085-.028a1.575 1.575 0 0 1-.1-.044h-.008a1.858 1.858 0 0 1-.206-.113 2.552 2.552 0 0 1-1.269-2.266 2.25 2.25 0 0 1 2.4-2.253h.071c2.77.138 5.8.138 6.942.138h3.927c1.976 0 2.678 1.214 2.678 2.253v.108a2.453 2.453 0 0 1-2.389 2.283 2.8 2.8 0 0 0-.455.1 1.293 1.293 0 0 0-.1.453 31.374 31.374 0 0 1-3.688 12.752 30.08 30.08 0 0 0 10.418 5.922c.829.248.991.291 1.215.351.144.039.312.084.669.185a11.913 11.913 0 0 0 3.22.425 1.413 1.413 0 0 1 1.319 2.407c-2.126 1.946-6.457 2.352-9.637 1.746a24.146 24.146 0 0 1-11.062-5.425 24.324 24.324 0 0 1-17.438 7.119M33.073 53.681a13.3 13.3 0 0 0-2.66 8.619 15.349 15.349 0 0 0 5.511 11.692 19.471 19.471 0 0 0 12.571 4.306A21.306 21.306 0 0 0 64.84 71.06a1.417 1.417 0 0 1 2.094 0 21.129 21.129 0 0 0 10.586 5.585 12.12 12.12 0 0 0 1.262.17 32.174 32.174 0 0 1-11.807-7.18 1.411 1.411 0 0 1-.2-1.711 28.059 28.059 0 0 0 3.873-12.58 3.486 3.486 0 0 1 .827-2.082h-1.661c-.612 0-1.758 0-3.12-.02l.042.014a2.676 2.676 0 0 1 1.554.815c1.241 1.239 1.685 2.849 1.535 5.558v.03a17.784 17.784 0 0 1-3.068 7.858 1.417 1.417 0 0 1-2.087.232c-10.038-8.875-17.746-16.328-22.293-21.555-3.151-3.693-4.253-6.554-3.691-9.573a9.643 9.643 0 0 1 1.1-3.161 7.005 7.005 0 0 0-1.562 3.041 10.466 10.466 0 0 0 3.143 10.736 1.413 1.413 0 0 1 .368 1.786l.225.056a1.415 1.415 0 0 1 .616.332c.026.017.07.043.1.058a1.463 1.463 0 0 1 .321.223 136.65 136.65 0 0 1 2.128 2.052c3.525 3.435 10.86 10.582 18.867 17.371a1.411 1.411 0 0 1 .186 1.963c-.182.225-4.557 5.529-13.349 6.124H50.8a20.71 20.71 0 0 1-15.679-5.919 14.946 14.946 0 0 1-4.031-12.141 12.652 12.652 0 0 1 1.978-5.46M40.377 51.719c-3.408.128-6.228 4.658-6.469 7.661v.03a12.2 12.2 0 0 0 3.268 9.927 17.821 17.821 0 0 0 21.961 2.321 15.337 15.337 0 0 0 1.858-1.388c-7.621-6.544-14.47-13.218-17.846-16.508-.884-.861-1.547-1.508-1.945-1.881a3.623 3.623 0 0 1-.217-.136l-.1-.026Zm26.062 4.34Zm-1.894-.569c.017.008.037.019.06.029l-.06-.029m-21.941-6.059.018.018-.018-.018m9.748-17.627a17.229 17.229 0 0 1 3.628 4.35l.072-3.457a1.888 1.888 0 0 1-.532.117 3.569 3.569 0 0 1-1.845-.473c-.362-.156-.8-.345-1.323-.536" data-name="Path 3336"/></g></g></svg>