<svg xmlns="http://www.w3.org/2000/svg" width="114.771" height="114.771" viewBox="0 0 114.771 114.771">
  <g id="Group_3527" data-name="Group 3527" transform="translate(-653.029 -526.412)">
    <g id="Group_3526" data-name="Group 3526">
      <path id="Path_3338" data-name="Path 3338" d="M81.155,40.577A40.578,40.578,0,1,1,40.578,0,40.577,40.577,0,0,1,81.155,40.577" transform="translate(669.836 543.219)" fill="#fff"/>
      <path id="Path_3339" data-name="Path 3339" d="M111.211,33.9c-.722-.722-2.567-6.977-2.567-6.977a2.371,2.371,0,0,0,.722-1.444c.08-.882,1.6-2.726,1.6-2.726l.08-.482s-5.935.322-8.742-3.609c0,0,.241-1.6-.963-2.005,0,0,.723-1.123.321-1.684S99.74,13.846,99.5,12.484s-.08-1.845-.641-1.6S98.3,12.4,98.3,12.4a.682.682,0,0,0-.241.721,3.433,3.433,0,0,1,0,1.283v.642s-.4.481-.8.241a7.458,7.458,0,0,1-3.448-6.336H91.721s-.257-4.568-5.685-4.568-5.684,4.568-5.684,4.568H78.267a7.458,7.458,0,0,1-3.448,6.336c-.4.24-.8-.241-.8-.241v-.642a3.433,3.433,0,0,1,0-1.283.682.682,0,0,0-.241-.721s0-1.283-.562-1.524-.4.241-.641,1.6-1.765,1.924-2.165,2.486.321,1.684.321,1.684c-1.2.4-.963,2.005-.963,2.005-2.807,3.932-8.742,3.609-8.742,3.609l.08.482s1.524,1.844,1.6,2.726a2.372,2.372,0,0,0,.722,1.444s-1.845,6.255-2.567,6.977.081,1.926.081,1.926l.322,1.684a27.644,27.644,0,0,1,49.541,0l.322-1.684s.8-1.2.081-1.926" transform="translate(624.379 539.927)" fill="#0c125d"/>
      <path id="Path_3340" data-name="Path 3340" d="M185.028,58.449c-.1.4-.147.423-.531.323l-.076.292,2.8.727.313-.952-.284-.074c-.19.532-.365.617-.971.46-.523-.136-.564-.175-.493-.449l.411-1.583c.1-.4.147-.423.531-.323l.076-.292-1.626-.423-.076.293c.384.1.409.144.306.54Z" transform="translate(531.404 501.067)" fill="#ffc300"/>
      <path id="Path_3341" data-name="Path 3341" d="M197.152,61.953c-.141.386-.187.407-.56.271l-.1.284,2.71.989.377-.851-.267-.1c-.194.4-.463.493-.933.322-.516-.188-.591-.273-.484-.566l.266-.728.275.1c.279.1.32.213.21.528l.237.086.383-1.05-.237-.086c-.12.287-.238.35-.5.255l-.275-.1.334-.914.631.23c.356.13.446.316.322.694l.284.1.213-.82-2.519-.919-.1.284c.373.136.394.182.253.567Z" transform="translate(522.346 498.418)" fill="#ffc300"/>
      <path id="Path_3342" data-name="Path 3342" d="M165.028,53.837l.409.025c.342.021.442.158.445.614l.293.018.009-.889-3.077-.188-.1.883.3.018c.053-.421.18-.576.45-.559l.459.028L164.1,55.74c-.025.414-.059.443-.486.417l-.019.3,1.732.106.018-.3c-.427-.026-.457-.06-.431-.473Z" transform="translate(547.479 503.122)" fill="#ffc300"/>
      <path id="Path_3343" data-name="Path 3343" d="M211.462,65.8l.037.017.1.047c.089.043.116.091.087.152-.016.033-.039.052-.131.088l-.492.194a.291.291,0,0,0-.1.074.346.346,0,0,0,.005-.147l-.092-.444a.236.236,0,0,1,0-.159c.025-.053.08-.062.169-.019l.118.057.033.016.13-.272-1.577-.756-.13.272c.27.135.328.192.37.417l.245,1.272-1.075.419a.722.722,0,0,1-.633.027l-.051-.019-.13.272,1.179.565.13-.272-.146-.07c-.077-.037-.114-.1-.087-.162a.227.227,0,0,1,.137-.1l.661-.253a.19.19,0,0,0,.092-.056c0-.008.01-.01.02-.02l0,.014a.2.2,0,0,0-.008.111l.132.663a.224.224,0,0,1-.01.135c-.027.057-.09.062-.185.022l-.1-.045-.045-.022-.13.272,1.585.759.13-.272a.477.477,0,0,1-.346-.436l-.291-1.448.968-.371a.581.581,0,0,1,.573.025l.028.014.028.013.13-.272-1.195-.573Z" transform="translate(513.445 494.697)" fill="#ffc300"/>
      <path id="Path_3344" data-name="Path 3344" d="M100.878,71.045l.129.273,2.616-1.236-.371-.932-.265.125c.2.53.115.708-.451.976-.489.231-.545.228-.667-.029l-.7-1.479c-.175-.371-.158-.419.2-.589l-.129-.273-1.52.719.129.273c.359-.169.407-.152.582.218l.646,1.366c.175.371.158.419-.2.588" transform="translate(594.982 492.265)" fill="#ffc300"/>
      <path id="Path_3345" data-name="Path 3345" d="M150.386,56.379l.022.3,2.879-.21,0-.931-.284.021c-.013.444-.22.64-.719.676-.549.041-.652-.006-.674-.317l-.056-.774.292-.021c.3-.022.38.062.409.4l.252-.018-.081-1.115-.252.018c.009.312-.074.417-.348.437l-.293.022-.071-.972.67-.049c.378-.027.537.106.579.5l.3-.022-.142-.835-2.676.2.022.3c.4-.029.434,0,.464.413l.11,1.507c.03.409,0,.448-.4.477" transform="translate(557.102 503.071)" fill="#ffc300"/>
      <path id="Path_3346" data-name="Path 3346" d="M113.366,63.862c.923-.352,1.168-.8.866-1.586l-.448-1.175c-.106-.278-.057-.364.291-.5l-.108-.282-1.158.442.108.283.068-.026c.265-.1.346-.065.456.221l.465,1.217c.2.514.038.835-.5,1.043-.513.2-.814.055-1.015-.472l-.435-1.137c-.146-.383-.126-.429.245-.571l-.107-.283-1.571.6.108.283c.371-.142.417-.121.564.262l.476,1.247c.238.623.817.774,1.7.436" transform="translate(586.879 497.944)" fill="#ffc300"/>
      <path id="Path_3347" data-name="Path 3347" d="M128.131,59.322l-.107.035-.048.013.08.291,1.7-.466-.08-.292a.479.479,0,0,1-.548-.1l-1.17-.9.488-.916a.581.581,0,0,1,.449-.357l.03-.009.03-.008-.08-.291-1.279.352.08.291.039-.011.1-.028c.1-.026.148-.008.166.058.009.034,0,.064-.042.152l-.245.47a.293.293,0,0,0-.024.118.353.353,0,0,0-.092-.115l-.361-.275a.235.235,0,0,1-.1-.121c-.016-.056.019-.1.115-.125l.126-.035.035-.009-.08-.291-1.688.464.08.291c.293-.076.374-.07.553.072l1.02.8-.538,1.022a.723.723,0,0,1-.461.436l-.051.019.08.291,1.262-.347-.08-.291-.157.043c-.083.023-.155,0-.172-.065a.224.224,0,0,1,.039-.165l.333-.625a.194.194,0,0,0,.033-.1.1.1,0,0,1,0-.028l.008.011a.2.2,0,0,0,.066.09l.535.414a.222.222,0,0,1,.081.108c.017.061-.027.105-.126.137" transform="translate(575.541 500.946)" fill="#ffc300"/>
      <path id="Path_3348" data-name="Path 3348" d="M157.527,112.271H157.3l-.959,1.9-.971-1.893h-.415l1.139,2.158.057.116-1.014,2.018h.228l.9-1.79.913,1.773.418.011-1.141-2.172Z" transform="translate(553.523 458.945)" fill="#a7a9ac"/>
      <rect id="Rectangle_1795" data-name="Rectangle 1795" width="0.341" height="4.293" transform="translate(711.301 571.216)" fill="#a7a9ac"/>
      <rect id="Rectangle_1796" data-name="Rectangle 1796" width="0.341" height="4.293" transform="translate(712 571.216)" fill="#a7a9ac"/>
      <path id="Path_3349" data-name="Path 3349" d="M192.016,121.575l-2.146,3.718.3.171,1.862-3.225.285-.493Z" transform="translate(527.314 451.961)" fill="#a7a9ac"/>
      <path id="Path_3350" data-name="Path 3350" d="M214,147.128l-.17-.294-3.607,2.083-.11.063.171.3,3.635-2.1Z" transform="translate(512.121 433.001)" fill="#a7a9ac"/>
      <path id="Path_3351" data-name="Path 3351" d="M215.23,149.261l-3.718,2.146.171.3,3.225-1.862.493-.284Z" transform="translate(511.07 431.18)" fill="#a7a9ac"/>
      <rect id="Rectangle_1797" data-name="Rectangle 1797" width="4.293" height="0.341" transform="translate(724.414 588.553)" fill="#a7a9ac"/>
      <rect id="Rectangle_1798" data-name="Rectangle 1798" width="4.293" height="0.341" transform="translate(724.414 589.251)" fill="#a7a9ac"/>
      <rect id="Rectangle_1799" data-name="Rectangle 1799" width="4.293" height="0.341" transform="translate(724.414 589.95)" fill="#a7a9ac"/>
      <path id="Path_3352" data-name="Path 3352" d="M214.081,208.085l-.171.3,3.636,2.1.083.046.17-.294Z" transform="translate(509.27 387.024)" fill="#a7a9ac"/>
      <path id="Path_3353" data-name="Path 3353" d="M210.131,214.637l-.052.09-.01.017,3.124,3.265.11-.188-2.765-2.892,3.916.9.217-.376-4.439-.99Z" transform="translate(512.152 382.238)" fill="#a7a9ac"/>
      <path id="Path_3354" data-name="Path 3354" d="M193.593,236.989l-3.349-3.077-.176.1-.09.052-.017.01,1.073,4.39.189-.108-.948-3.887,2.942,2.736Z" transform="translate(527.246 367.637)" fill="#a7a9ac"/>
      <path id="Path_3355" data-name="Path 3355" d="M160.116,241.643h-.326l-1.266,4.339h.218l1.122-3.84,1.18,3.84h.434Z" transform="translate(550.844 361.834)" fill="#a7a9ac"/>
      <rect id="Rectangle_1800" data-name="Rectangle 1800" width="0.341" height="4.293" transform="translate(708.881 603.519)" fill="#a7a9ac"/>
      <path id="Path_3356" data-name="Path 3356" d="M126.969,235.353l-.09-.052-.017-.01-3.266,3.125.189.108,2.892-2.764-.9,3.916.376.217.99-4.439Z" transform="translate(577.063 366.602)" fill="#a7a9ac"/>
      <path id="Path_3357" data-name="Path 3357" d="M124.06,231.918l-1.862,3.225-.285.492.3.171,2.146-3.718Z" transform="translate(578.326 369.134)" fill="#a7a9ac"/>
      <path id="Path_3358" data-name="Path 3358" d="M121.633,230.517l-1.862,3.225-.285.493.3.171,2.146-3.718Z" transform="translate(580.146 370.186)" fill="#a7a9ac"/>
      <path id="Path_3359" data-name="Path 3359" d="M102.848,216.868l-.01-.017-4.391,1.073.11.189,3.886-.948-2.736,2.942.217.375L103,217.133l-.1-.176Z" transform="translate(595.939 380.444)" fill="#a7a9ac"/>
      <path id="Path_3360" data-name="Path 3360" d="M101.381,211.138l-.171-.3-3.635,2.1-.081.049.17.294,3.607-2.082Z" transform="translate(596.656 384.955)" fill="#a7a9ac"/>
      <path id="Path_3361" data-name="Path 3361" d="M99.977,208.713l-.171-.3-3.225,1.862-.493.284.171.3,3.607-2.082Z" transform="translate(597.711 386.775)" fill="#a7a9ac"/>
      <path id="Path_3362" data-name="Path 3362" d="M98.4,205.991l-3.225,1.862-.493.284.171.3,3.717-2.146Z" transform="translate(598.762 388.596)" fill="#a7a9ac"/>
      <rect id="Rectangle_1801" data-name="Rectangle 1801" width="4.293" height="0.341" transform="translate(692.111 590.806)" fill="#a7a9ac"/>
      <path id="Path_3363" data-name="Path 3363" d="M91.837,180.094l1.773-.913.011-.418L91.449,179.9l-2.125-1.07v.229l1.9.959-1.893.971v.415l2.158-1.139.116-.057,2.018,1.014V181Z" transform="translate(602.787 409.034)" fill="#a7a9ac"/>
      <path id="Path_3364" data-name="Path 3364" d="M101.576,146.692l-2.452-.1-1.305-1.99-.114.2,1.168,1.781-2.124-.105-.208.36,2.439.093.129.008,1.241,1.888.114-.2-1.1-1.676,1.992.1Z" transform="translate(597.371 434.675)" fill="#a7a9ac"/>
      <path id="Path_3365" data-name="Path 3365" d="M122.3,120.381l-.2.113.121,2.128-1.787-1.154-.359.208,2.066,1.3.108.072.131,2.255.2-.114-.114-2,1.678,1.079.367-.2-2.074-1.311Z" transform="translate(579.701 452.857)" fill="#a7a9ac"/>
      <path id="Path_3366" data-name="Path 3366" d="M130.444,119.685l-.284-.493-.3.171,2.083,3.608.064.11.294-.17Z" transform="translate(572.357 453.75)" fill="#a7a9ac"/>
      <path id="Path_3367" data-name="Path 3367" d="M162.063,105.907l-.21-.5.21-.5.222.5Z" transform="translate(548.346 464.479)" fill="#c7c8ca"/>
      <path id="Path_3368" data-name="Path 3368" d="M201.049,116.587l.07-.541.433-.331-.059.547Z" transform="translate(518.924 456.36)" fill="#c7c8ca"/>
      <path id="Path_3369" data-name="Path 3369" d="M229.128,145.772l.331-.433.541-.07-.325.444Z" transform="translate(497.846 434.176)" fill="#c7c8ca"/>
      <path id="Path_3370" data-name="Path 3370" d="M239.408,185.01l.5-.21.5.21-.5.222Z" transform="translate(490.131 404.502)" fill="#c7c8ca"/>
      <path id="Path_3371" data-name="Path 3371" d="M229.133,224l.541.07.331.433-.547-.059Z" transform="translate(497.842 375.081)" fill="#c7c8ca"/>
      <path id="Path_3372" data-name="Path 3372" d="M201.058,252.075l.433.331.07.541-.444-.325Z" transform="translate(518.916 354.004)" fill="#c7c8ca"/>
      <path id="Path_3373" data-name="Path 3373" d="M162.035,262.354l.21.5-.21.5-.222-.5Z" transform="translate(548.375 346.288)" fill="#c7c8ca"/>
      <path id="Path_3374" data-name="Path 3374" d="M122.835,252.08l-.07.541-.433.331.059-.547Z" transform="translate(578.012 354)" fill="#c7c8ca"/>
      <path id="Path_3375" data-name="Path 3375" d="M93.646,224l-.331.433-.541.07.325-.444Z" transform="translate(600.199 375.074)" fill="#c7c8ca"/>
      <path id="Path_3376" data-name="Path 3376" d="M82.96,184.982l-.5.21-.5-.21.5-.222Z" transform="translate(608.32 404.533)" fill="#c7c8ca"/>
      <path id="Path_3377" data-name="Path 3377" d="M93.64,145.781l-.541-.07-.331-.433.547.059Z" transform="translate(600.203 434.169)" fill="#c7c8ca"/>
      <path id="Path_3378" data-name="Path 3378" d="M122.826,116.592l-.433-.331-.07-.541.444.325Z" transform="translate(578.018 456.356)" fill="#c7c8ca"/>
      <rect id="Rectangle_1802" data-name="Rectangle 1802" width="0.806" height="0.346" transform="translate(712.252 570.372) rotate(-83.998)" fill="#c7c8ca"/>
      <rect id="Rectangle_1803" data-name="Rectangle 1803" width="0.806" height="0.346" transform="translate(714.244 570.67) rotate(-78.009)" fill="#c7c8ca"/>
      <rect id="Rectangle_1804" data-name="Rectangle 1804" width="0.806" height="0.346" transform="translate(716.191 571.174) rotate(-72.022)" fill="#c7c8ca"/>
      <rect id="Rectangle_1805" data-name="Rectangle 1805" width="0.806" height="0.346" transform="translate(718.078 571.878) rotate(-66.004)" fill="#c7c8ca"/>
      <rect id="Rectangle_1806" data-name="Rectangle 1806" width="0.806" height="0.346" transform="matrix(0.588, -0.809, 0.809, 0.588, 721.576, 573.858)" fill="#c7c8ca"/>
      <rect id="Rectangle_1807" data-name="Rectangle 1807" width="0.806" height="0.346" transform="translate(723.152 575.111) rotate(-47.982)" fill="#c7c8ca"/>
      <rect id="Rectangle_1808" data-name="Rectangle 1808" width="0.806" height="0.346" transform="matrix(0.743, -0.669, 0.669, 0.743, 724.588, 576.522)" fill="#c7c8ca"/>
      <rect id="Rectangle_1809" data-name="Rectangle 1809" width="0.806" height="0.346" transform="matrix(0.809, -0.588, 0.588, 0.809, 725.867, 578.075)" fill="#c7c8ca"/>
      <rect id="Rectangle_1810" data-name="Rectangle 1810" width="0.806" height="0.346" transform="translate(727.908 581.539) rotate(-23.996)" fill="#c7c8ca"/>
      <rect id="Rectangle_1811" data-name="Rectangle 1811" width="0.806" height="0.346" transform="translate(728.646 583.411) rotate(-17.977)" fill="#c7c8ca"/>
      <rect id="Rectangle_1812" data-name="Rectangle 1812" width="0.806" height="0.346" transform="translate(729.184 585.352) rotate(-11.991)" fill="#c7c8ca"/>
      <rect id="Rectangle_1813" data-name="Rectangle 1813" width="0.806" height="0.346" transform="translate(729.516 587.337) rotate(-6.003)" fill="#c7c8ca"/>
      <rect id="Rectangle_1814" data-name="Rectangle 1814" width="0.346" height="0.806" transform="translate(729.516 591.7) rotate(-83.997)" fill="#c7c8ca"/>
      <rect id="Rectangle_1815" data-name="Rectangle 1815" width="0.346" height="0.806" transform="translate(729.182 593.686) rotate(-78.009)" fill="#c7c8ca"/>
      <rect id="Rectangle_1816" data-name="Rectangle 1816" width="0.346" height="0.806" transform="translate(728.643 595.625) rotate(-72.023)" fill="#c7c8ca"/>
      <rect id="Rectangle_1817" data-name="Rectangle 1817" width="0.346" height="0.806" transform="translate(727.904 597.497) rotate(-66.004)" fill="#c7c8ca"/>
      <rect id="Rectangle_1818" data-name="Rectangle 1818" width="0.346" height="0.806" transform="matrix(0.588, -0.809, 0.809, 0.588, 725.861, 600.96)" fill="#c7c8ca"/>
      <rect id="Rectangle_1819" data-name="Rectangle 1819" width="0.346" height="0.806" transform="matrix(0.669, -0.743, 0.743, 0.669, 724.58, 602.513)" fill="#c7c8ca"/>
      <rect id="Rectangle_1820" data-name="Rectangle 1820" width="0.346" height="0.806" transform="translate(723.145 603.923) rotate(-42.018)" fill="#c7c8ca"/>
      <rect id="Rectangle_1821" data-name="Rectangle 1821" width="0.346" height="0.806" transform="matrix(0.809, -0.588, 0.588, 0.809, 721.568, 605.175)" fill="#c7c8ca"/>
      <rect id="Rectangle_1822" data-name="Rectangle 1822" width="0.346" height="0.806" transform="translate(718.068 607.152) rotate(-23.996)" fill="#c7c8ca"/>
      <rect id="Rectangle_1823" data-name="Rectangle 1823" width="0.346" height="0.806" transform="translate(716.182 607.856) rotate(-17.978)" fill="#c7c8ca"/>
      <rect id="Rectangle_1824" data-name="Rectangle 1824" width="0.346" height="0.806" transform="translate(714.234 608.359) rotate(-11.991)" fill="#c7c8ca"/>
      <rect id="Rectangle_1825" data-name="Rectangle 1825" width="0.346" height="0.806" transform="translate(712.242 608.656) rotate(-6.002)" fill="#c7c8ca"/>
      <rect id="Rectangle_1826" data-name="Rectangle 1826" width="0.806" height="0.346" transform="translate(708.139 609.42) rotate(-83.998)" fill="#c7c8ca"/>
      <rect id="Rectangle_1827" data-name="Rectangle 1827" width="0.806" height="0.346" transform="translate(706.07 609.074) rotate(-78.009)" fill="#c7c8ca"/>
      <rect id="Rectangle_1828" data-name="Rectangle 1828" width="0.806" height="0.346" transform="translate(704.049 608.513) rotate(-72.022)" fill="#c7c8ca"/>
      <rect id="Rectangle_1829" data-name="Rectangle 1829" width="0.806" height="0.346" transform="translate(702.098 607.744) rotate(-66.004)" fill="#c7c8ca"/>
      <rect id="Rectangle_1830" data-name="Rectangle 1830" width="0.806" height="0.346" transform="translate(698.488 605.617) rotate(-54.006)" fill="#c7c8ca"/>
      <rect id="Rectangle_1831" data-name="Rectangle 1831" width="0.806" height="0.346" transform="translate(696.871 604.283) rotate(-47.982)" fill="#c7c8ca"/>
      <rect id="Rectangle_1832" data-name="Rectangle 1832" width="0.806" height="0.346" transform="translate(695.402 602.787) rotate(-42.018)" fill="#c7c8ca"/>
      <rect id="Rectangle_1833" data-name="Rectangle 1833" width="0.806" height="0.346" transform="matrix(0.809, -0.588, 0.588, 0.809, 694.096, 601.146)" fill="#c7c8ca"/>
      <rect id="Rectangle_1834" data-name="Rectangle 1834" width="0.806" height="0.346" transform="matrix(0.914, -0.407, 0.407, 0.914, 692.033, 597.5)" fill="#c7c8ca"/>
      <rect id="Rectangle_1835" data-name="Rectangle 1835" width="0.806" height="0.346" transform="matrix(0.951, -0.309, 0.309, 0.951, 691.301, 595.535)" fill="#c7c8ca"/>
      <rect id="Rectangle_1836" data-name="Rectangle 1836" width="0.806" height="0.346" transform="translate(690.775 593.505) rotate(-11.991)" fill="#c7c8ca"/>
      <rect id="Rectangle_1837" data-name="Rectangle 1837" width="0.806" height="0.346" transform="translate(690.465 591.431) rotate(-6.002)" fill="#c7c8ca"/>
      <rect id="Rectangle_1838" data-name="Rectangle 1838" width="0.346" height="0.806" transform="translate(690.467 587.586) rotate(-83.998)" fill="#c7c8ca"/>
      <rect id="Rectangle_1839" data-name="Rectangle 1839" width="0.346" height="0.806" transform="translate(690.777 585.512) rotate(-78.009)" fill="#c7c8ca"/>
      <rect id="Rectangle_1840" data-name="Rectangle 1840" width="0.346" height="0.806" transform="matrix(0.309, -0.951, 0.951, 0.309, 691.303, 583.482)" fill="#c7c8ca"/>
      <rect id="Rectangle_1841" data-name="Rectangle 1841" width="0.346" height="0.806" transform="matrix(0.407, -0.914, 0.914, 0.407, 692.039, 581.518)" fill="#c7c8ca"/>
      <rect id="Rectangle_1842" data-name="Rectangle 1842" width="0.346" height="0.806" transform="matrix(0.588, -0.809, 0.809, 0.588, 694.102, 577.873)" fill="#c7c8ca"/>
      <rect id="Rectangle_1843" data-name="Rectangle 1843" width="0.346" height="0.806" transform="translate(695.408 576.232) rotate(-47.982)" fill="#c7c8ca"/>
      <rect id="Rectangle_1844" data-name="Rectangle 1844" width="0.346" height="0.806" transform="translate(696.879 574.737) rotate(-42.018)" fill="#c7c8ca"/>
      <rect id="Rectangle_1845" data-name="Rectangle 1845" width="0.346" height="0.806" transform="translate(698.498 573.403) rotate(-35.994)" fill="#c7c8ca"/>
      <rect id="Rectangle_1846" data-name="Rectangle 1846" width="0.346" height="0.806" transform="translate(702.107 571.278) rotate(-23.996)" fill="#c7c8ca"/>
      <rect id="Rectangle_1847" data-name="Rectangle 1847" width="0.346" height="0.806" transform="translate(704.059 570.511) rotate(-17.978)" fill="#c7c8ca"/>
      <rect id="Rectangle_1848" data-name="Rectangle 1848" width="0.346" height="0.806" transform="translate(706.08 569.951) rotate(-11.991)" fill="#c7c8ca"/>
      <rect id="Rectangle_1849" data-name="Rectangle 1849" width="0.346" height="0.806" transform="translate(708.148 569.605) rotate(-6.002)" fill="#c7c8ca"/>
      <path id="Path_3379" data-name="Path 3379" d="M96.62,141.424a21.959,21.959,0,1,1,21.961-21.959A21.984,21.984,0,0,1,96.62,141.424m0-42.377a20.418,20.418,0,1,0,20.419,20.418A20.441,20.441,0,0,0,96.62,99.046" transform="translate(613.795 470.028)" fill="#ffc300"/>
      <path id="Path_3380" data-name="Path 3380" d="M133.743,268.459a45.532,45.532,0,0,0,8.456-1.744l.667,3.529a30.079,30.079,0,0,1-9.123,1.881c-4.254,0-9.627-2.157-9.627-2.157l1.371-3.253s6.137,1.744,8.256,1.744" transform="translate(576.672 343.015)" fill="#ffc300"/>
      <path id="Path_3381" data-name="Path 3381" d="M184.208,274.293a.348.348,0,0,0-.435-.272.286.286,0,0,0-.208.356c.051.176.212.27.62.332a.584.584,0,0,0,.023-.416" transform="translate(532.057 337.543)" fill="#0c125d"/>
      <path id="Path_3382" data-name="Path 3382" d="M184.835,278.6a.608.608,0,0,0-.09.5.425.425,0,0,0,.557.278.338.338,0,0,0,.27-.433c-.066-.2-.294-.3-.737-.345" transform="translate(531.178 334.093)" fill="#0c125d"/>
      <path id="Path_3383" data-name="Path 3383" d="M84.328,81.136a26.042,26.042,0,1,0,26.043,26.041A26.043,26.043,0,0,0,84.328,81.136m-8.709,49.016.1-.208c.324.159.367.144.5-.143l.491-1.055c.133-.287.117-.321-.177-.465l.1-.209a14.8,14.8,0,0,0,2,.833c-.06.254-.09.381-.149.635l-.238-.083c.093-.291.015-.434-.273-.546-.2-.079-.307-.12-.509-.205l-.291.691.231.1c.217.088.317.043.414-.177l.2.075-.3.808-.206-.078c.089-.241.052-.328-.186-.425l-.234-.1-.231.551c-.093.22-.029.3.433.479.42.163.655.093.8-.215l.236.08c-.111.264-.168.4-.281.66a16.664,16.664,0,0,1-2.436-1m4.929-.063-.229-.051a.66.66,0,0,0-.516-.633c-.2-.054-.364,0-.406.146-.032.11.026.214.205.354.138.107.208.159.35.263.479.352.617.561.546.9-.1.458-.561.693-1.134.543a1.847,1.847,0,0,1-.8-.458l-.092.157-.246-.078.237-.73.236.075a.9.9,0,0,0,.67.8c.269.071.48-.012.524-.2s-.029-.247-.537-.636c-.535-.411-.622-.594-.517-.922a.739.739,0,0,1,.976-.43,1.41,1.41,0,0,1,.578.313l.069-.12.22.049-.141.648m2.171-.057c-.131-.013-.2-.02-.328-.035l-.172,1.5c-.037.318-.012.349.366.384l-.022.232c-.62-.058-.929-.1-1.545-.206l.04-.229c.375.065.407.041.455-.275l.226-1.488c-.146-.022-.219-.034-.366-.059-.215-.037-.33.067-.414.383l-.242-.048c.07-.265.1-.4.174-.662a14.878,14.878,0,0,0,2.427.323c0,.274,0,.411-.007.685l-.241-.016c0-.352-.079-.456-.353-.483m.8,2.2a.333.333,0,1,1,.03-.659.333.333,0,1,1-.03.659m2.172-.077-.013-.208.044,0c.3-.026.339-.07.32-.3-.047-.57-.07-.855-.116-1.425-.115.009-.173.014-.288.021,0-.078-.008-.116-.013-.194a1.24,1.24,0,0,0,.742-.3.056.056,0,0,1,.034-.018c.014,0,.023.012.025.032l.006.055.2,1.783c.023.207.089.256.312.232l.051-.006c.011.083.016.124.027.207-.531.068-.8.094-1.332.127m2.655-.843c-.077.458-.137.552-.357.592-.172.031-.31-.036-.33-.155a.372.372,0,0,1,.038-.21c.281-.643.407-.967.629-1.616a.668.668,0,0,1,.052-.122.16.16,0,0,1-.1.071c-.282.061-.423.089-.706.138a.349.349,0,0,0-.321.37l-.192.029c.008-.314.011-.471.014-.785l.162-.025c.028.066.051.069.144.061l.039,0c.473-.08.709-.128,1.177-.24-.075.757-.124,1.137-.249,1.9m2.06.012c-.555.172-1,.031-1.088-.311-.064-.249.044-.442.36-.681a.618.618,0,0,1-.537-.436c-.1-.362.145-.676.6-.818.421-.132.8-.031.9.265a.532.532,0,0,1-.215.615c.377.038.6.171.7.425.137.375-.146.761-.721.94m1.791-.662c-.164.069-.315.035-.36-.078a.367.367,0,0,1-.007-.214c.14-.691.2-1.036.276-1.721a.693.693,0,0,1,.026-.131.165.165,0,0,1-.085.093c-.266.123-.4.182-.67.293a.353.353,0,0,0-.239.433l-.184.07c-.06-.308-.091-.462-.154-.769l.155-.061c.043.058.065.057.156.027l.038-.012c.451-.184.675-.284,1.115-.5.088.756.12,1.14.159,1.911.022.465-.017.57-.226.658m-7.867-2.3a21.189,21.189,0,1,1,21.19-21.189,21.188,21.188,0,0,1-21.19,21.189" transform="translate(626.086 482.315)" fill="#0c125d"/>
      <path id="Path_3384" data-name="Path 3384" d="M156.569,169.833a1.791,1.791,0,0,0-.817,2.4,1.768,1.768,0,0,0,.567.658l.611,12.244c-1.443.881-.254,2.294-.119,2.53a8.328,8.328,0,0,1,.339,1.971.185.185,0,1,0,.3,0,8.341,8.341,0,0,1,.349-1.969c.135-.235,1.332-1.642-.106-2.531l.674-12.24a1.77,1.77,0,0,0,.571-.655,1.791,1.791,0,0,0-.8-2.4,1.719,1.719,0,0,0-.179-.068,6.937,6.937,0,0,1,.729-2.313,1.663,1.663,0,0,1-1.324-.7,1.663,1.663,0,0,1-1.328.7,6.932,6.932,0,0,1,.717,2.317,1.743,1.743,0,0,0-.179.067" transform="translate(553.063 418.05)" fill="#0c125d"/>
      <path id="Path_3385" data-name="Path 3385" d="M151.492,145.263l1.323,6.7,1.432-.362-2.017-6.524c1.18-1.21-.322-2.285-.511-2.481a8.354,8.354,0,0,1-.816-1.826.185.185,0,1,0-.29.073,8.354,8.354,0,0,1,.149,1.994c-.073.262-.884,1.921.729,2.426" transform="translate(556.871 437.739)" fill="#0c125d"/>
      <path id="Path_3386" data-name="Path 3386" d="M158.913,186.5a1.787,1.787,0,0,0,.621-1.486l-3.389.856a1.648,1.648,0,0,0,1.442,1.034,6.939,6.939,0,0,1-.134,2.422,1.663,1.663,0,0,1,1.457.355c.257-.52.716-.991,1.114-1a6.936,6.936,0,0,1-1.268-2.068,1.73,1.73,0,0,0,.157-.109" transform="translate(552.629 404.342)" fill="#0c125d"/>
      <path id="Path_3387" data-name="Path 3387" d="M155.519,180.606a1.8,1.8,0,1,1,2.141,1.378,1.8,1.8,0,0,1-2.141-1.378" transform="translate(553.131 409.288)" fill="#003b71"/>
      <path id="Path_3388" data-name="Path 3388" d="M106.718,274.847l-.163,0-.164,0A26.859,26.859,0,0,1,87.9,267.7s2.749,3.111,2.67,4.048c0,0,2.187-.7,3.906,3.2a1.663,1.663,0,0,0,1.093,2.344,1.713,1.713,0,0,0,1.719,1.641c1.719.157,1.485-1.874,1.485-1.874s2.99-.493,3.124,2.343c.079,1.641-.859,2.032-.859,2.032v2.109l-.859.469v1.795h12.758v-1.795l-.859-.469v-2.109s-.937-.392-.859-2.032c.134-2.836,3.124-2.343,3.124-2.343s-.234,2.031,1.485,1.874a1.713,1.713,0,0,0,1.719-1.641,1.663,1.663,0,0,0,1.093-2.344c1.719-3.906,3.906-3.2,3.906-3.2-.079-.937,2.67-4.048,2.67-4.048a26.859,26.859,0,0,1-18.5,7.144" transform="translate(603.859 342.273)" fill="#0c125d"/>
      <circle id="Ellipse_19" data-name="Ellipse 19" cx="40.578" cy="40.578" r="40.578" transform="translate(653.029 583.797) rotate(-45)" fill="none"/>
      <path id="Path_2885" data-name="Path 2885" d="M99.213,81.165A50.292,50.292,0,1,1,80.8,12.461c.5.292,1,.6,1.5.9a46.879,46.879,0,1,0,17.757,66.278c-.271.512-.552,1.017-.844,1.522" transform="translate(654 528)" fill="#ffc300" fill-rule="evenodd"/>
      <path id="Path_2886" data-name="Path 2886" d="M97.932,76.485A43.436,43.436,0,0,1,38.6,92.382c-.436-.252-.859-.512-1.283-.776a40.471,40.471,0,1,0-15.339-57.24c.236-.44.472-.877.723-1.313A43.432,43.432,0,1,1,97.932,76.485" transform="translate(654 528)" fill="#0b48e4" fill-rule="evenodd"/>
    </g>
  </g>
</svg>
