<?xml version="1.0" encoding="utf-8"?>
<!-- Generator: Adobe Illustrator 27.0.0, SVG Export Plug-In . SVG Version: 6.00 Build 0)  -->
<svg version="1.1" id="Layer_1" xmlns="http://www.w3.org/2000/svg" xmlns:xlink="http://www.w3.org/1999/xlink" x="0px" y="0px"
	 viewBox="0 0 114.8 114.8" style="enable-background:new 0 0 114.8 114.8;" xml:space="preserve">
<style type="text/css">
	.st0{fill:#FFFFFF;}
	.st1{fill-rule:evenodd;clip-rule:evenodd;fill:#FFC300;}
	.st2{fill-rule:evenodd;clip-rule:evenodd;fill:#0B48E4;}
	.st3{clip-path:url(#SVGID_00000055665375225024569470000015526190550254265762_);fill:#0C125D;}
</style>
<g id="Group_3525" transform="translate(-216.014 -709)">
	<path id="Path_2867" class="st0" d="M276.9,807.9c23.3,0,42.3-18.9,42.3-42.3c0-23.3-18.9-42.3-42.3-42.3
		c-23.3,0-42.3,18.9-42.3,42.3C234.6,789,253.6,807.9,276.9,807.9"/>
	<path id="Path_2868" class="st1" d="M317,792c-13.9,24.1-44.6,32.3-68.7,18.4s-32.3-44.6-18.4-68.7c13.9-24.1,44.6-32.3,68.7-18.4
		c0.5,0.3,1,0.6,1.5,0.9c-22.9-12.1-51.2-3.4-63.4,19.4s-3.4,51.2,19.4,63.4c21.7,11.5,48.7,4.3,61.7-16.5
		C317.5,791,317.3,791.5,317,792"/>
	<path id="Path_2881" class="st2" d="M315.7,787.4c-12,20.8-38.6,27.9-59.3,15.9c-0.4-0.3-0.9-0.5-1.3-0.8
		c19.7,10.5,44.2,3,54.7-16.8c10.5-19.7,3-44.2-16.8-54.7c-18.7-9.9-42-3.7-53.3,14.3c0.2-0.4,0.5-0.9,0.7-1.3
		c12-20.8,38.6-27.9,59.3-15.9S327.7,766.6,315.7,787.4"/>
	<g>
		<defs>
			<path id="SVGID_1_" d="M249.3,740.9c15-15,39.2-15,54.2,0c15,15,15,39.2,0,54.2s-39.2,15-54.2,0c0,0,0,0,0,0
				C234.4,780.1,234.4,755.9,249.3,740.9z"/>
		</defs>
		<clipPath id="SVGID_00000094613046941829260080000017393898628254098605_">
			<use xlink:href="#SVGID_1_"  style="overflow:visible;"/>
		</clipPath>
		<path style="clip-path:url(#SVGID_00000094613046941829260080000017393898628254098605_);fill:#0C125D;" d="M309.2,790
			c-0.2-0.8-1-1.2-1.7-1c-1.1,0-2.2-0.1-3.2-0.4c-0.4-0.1-0.5-0.1-0.7-0.2c-0.2-0.1-0.4-0.1-1.2-0.4c-3.8-1.3-7.4-3.3-10.4-5.9
			c2.1-3.9,3.4-8.3,3.7-12.8c0-0.2,0-0.3,0.1-0.5c0.1,0,0.3-0.1,0.5-0.1c1.3,0,2.3-1,2.4-2.3c0,0,0-0.1,0-0.1c0-1-0.7-2.3-2.7-2.3
			H292c-1.1,0-4.2,0-6.9-0.1H285c-0.1,0-0.1,0-0.2,0c-1.2,0-2.2,1-2.2,2.3c0,0.9,0.5,1.8,1.3,2.3c0.1,0,0.1,0.1,0.2,0.1h0
			c0,0,0.1,0,0.1,0l0.1,0l0,0l0,0l0.8,0.3c0.1,0,0.3,0.1,0.4,0.1c0.4,0,0.9,0.1,1.3,0.2c0.1,0,0.1,0,0.2,0.1c0.1,0,0.3,0.1,0.4,0.1
			c0.1,0.1,0.3,0.1,0.7,0.3c0.1,0,0.2,0,0.3,0.1l0,0c0.4,0.4,0.8,1,0.7,3.4c-0.2,1.8-0.8,3.5-1.7,5.1c-9.3-8.3-16.5-15.3-20.8-20.2
			c-3.2-3.7-3.3-5.7-3.1-7.2c0,0,0,0,0,0c0.5-2.8,2.4-4.7,4.8-4.8c3.3-0.1,6.4,3.3,8,6.8c0.2,1,1,1.8,2,2.1c0.1,0,0.2,0,0.3,0
			c1.1,0,2.1-0.8,2.1-2l0.1-6.7c0,0,0,0,0,0c0-0.1,0-0.1,0-0.2c0.1-0.9-0.1-1.8-0.7-2.5c-0.4-0.4-1-0.6-1.6-0.6
			c-0.6,0-1.2,0.3-1.5,0.7l-0.3-0.1c-2.1-1-4.4-1.6-6.8-1.7c-6.5-0.5-11.3,2.5-12.6,7.8c-1.1,4-0.3,8.2,2.1,11.5
			c-2.2,0.6-4.2,1.8-5.8,3.5c-2.9,3.1-4.5,7.3-4.3,11.6c0,5.3,2.4,10.4,6.5,13.8c4.1,3.3,9.2,5.1,14.4,5v0
			c6.5,0.1,12.8-2.5,17.4-7.1c3.2,2.7,7,4.6,11.1,5.4c3.2,0.6,7.5,0.2,9.6-1.7C309.2,791.1,309.4,790.5,309.2,790z M262.6,765.4h0.5
			l0.1,0c0.1,0.1,0.2,0.1,0.2,0.1c0.4,0.4,1.1,1,1.9,1.9c3.4,3.3,10.2,10,17.8,16.5c-0.6,0.5-1.2,1-1.9,1.4c-7,4.4-16.1,3.4-22-2.3
			c-2.5-2.7-3.7-6.3-3.3-9.9c0,0,0,0,0,0C256.3,770.1,259.1,765.6,262.6,765.4z"/>
	</g>
</g>
</svg>
