<?xml version="1.0" encoding="utf-8"?>
<!-- Generator: Adobe Illustrator 27.0.0, SVG Export Plug-In . SVG Version: 6.00 Build 0)  -->
<svg version="1.1" id="Layer_1" xmlns="http://www.w3.org/2000/svg" xmlns:xlink="http://www.w3.org/1999/xlink" x="0px" y="0px"
	 viewBox="0 0 114.8 114.8" style="enable-background:new 0 0 114.8 114.8;" xml:space="preserve">
<style type="text/css">
	.st0{fill:#FFC300;}
	.st1{fill:#FFFFFF;}
	.st2{fill-rule:evenodd;clip-rule:evenodd;fill:#FFC300;}
	.st3{clip-path:url(#SVGID_00000174563944175429556640000000583231932138172349_);}
	.st4{fill:#0C125D;}
	.st5{fill-rule:evenodd;clip-rule:evenodd;fill:#0B48E4;}
</style>
<g id="Group_3529" transform="translate(-1040.014 -709)">
	<path id="Path_2858" class="st0" d="M1096.4,822.4c-0.3,0-0.7,0-1,0c-0.4,0-0.7-0.3-0.7-0.8c0-0.4,0.3-0.7,0.8-0.7c0.7,0,1.3,0,2,0
		c0.4,0,0.8,0.3,0.8,0.7c0,0.4-0.3,0.8-0.7,0.8C1097.1,822.4,1096.7,822.4,1096.4,822.4z M1100.4,822.2c-0.4,0-0.8-0.3-0.8-0.7
		c0-0.4,0.3-0.8,0.7-0.8l0,0c0.3,0,0.7-0.1,1-0.1c0.4,0,0.8,0.3,0.8,0.7s-0.3,0.8-0.7,0.8C1101.1,822.2,1100.8,822.2,1100.4,822.2
		L1100.4,822.2z M1092.4,822.2L1092.4,822.2c-0.4,0-0.7-0.1-1.1-0.1c-0.4,0-0.7-0.4-0.7-0.8c0-0.4,0.4-0.7,0.8-0.7
		c0.3,0,0.7,0.1,1,0.1c0.4,0,0.7,0.4,0.7,0.8C1093.2,821.9,1092.8,822.2,1092.4,822.2L1092.4,822.2L1092.4,822.2z M1104.4,821.8
		c-0.4,0-0.7-0.3-0.7-0.8c0-0.4,0.3-0.7,0.6-0.7c0.3,0,0.7-0.1,1-0.2c0.4-0.1,0.8,0.2,0.9,0.6s-0.2,0.8-0.6,0.9c0,0,0,0,0,0
		c-0.3,0.1-0.7,0.1-1,0.2C1104.4,821.8,1104.4,821.8,1104.4,821.8L1104.4,821.8z M1088.4,821.8c0,0-0.1,0-0.1,0
		c-0.3,0-0.7-0.1-1-0.2c-0.4-0.1-0.7-0.4-0.6-0.9s0.4-0.7,0.9-0.6c0,0,0,0,0,0c0.3,0.1,0.7,0.1,1,0.2c0.4,0.1,0.7,0.4,0.6,0.9
		C1089.1,821.5,1088.8,821.8,1088.4,821.8L1088.4,821.8z M1108.3,821.1c-0.4,0-0.7-0.3-0.7-0.8c0-0.4,0.2-0.7,0.6-0.7
		c0.3-0.1,0.6-0.1,1-0.2c0.4-0.1,0.8,0.1,0.9,0.5c0.1,0.4-0.1,0.8-0.5,0.9c0,0,0,0,0,0c-0.3,0.1-0.7,0.2-1,0.2
		C1108.4,821.1,1108.4,821.1,1108.3,821.1L1108.3,821.1z M1084.5,821.1c-0.1,0-0.1,0-0.2,0c-0.3-0.1-0.7-0.1-1-0.2
		c-0.4-0.1-0.6-0.5-0.5-0.9c0.1-0.4,0.5-0.6,0.9-0.5c0.3,0.1,0.6,0.2,1,0.2c0.4,0.1,0.7,0.5,0.6,0.9
		C1085.1,820.8,1084.8,821.1,1084.5,821.1z M1112.2,820.1c-0.4,0-0.8-0.3-0.8-0.7c0-0.3,0.2-0.6,0.5-0.7c0.3-0.1,0.6-0.2,0.9-0.3
		c0.4-0.1,0.8,0.1,0.9,0.5c0.1,0.4-0.1,0.8-0.5,0.9c-0.3,0.1-0.6,0.2-1,0.3C1112.3,820.1,1112.2,820.1,1112.2,820.1z M1080.6,820.1
		c-0.1,0-0.1,0-0.2,0c-0.3-0.1-0.6-0.2-1-0.3c-0.4-0.1-0.6-0.5-0.5-0.9c0.1-0.4,0.5-0.6,0.9-0.5c0.3,0.1,0.6,0.2,0.9,0.3
		c0.4,0.1,0.6,0.5,0.5,0.9C1081.2,819.8,1081,820.1,1080.6,820.1z M1116,818.8c-0.4,0-0.8-0.3-0.8-0.7c0-0.3,0.2-0.6,0.5-0.7
		c0.3-0.1,0.6-0.2,0.9-0.4c0.4-0.1,0.8,0.1,1,0.4c0.1,0.4,0,0.8-0.4,1c-0.3,0.1-0.6,0.2-0.9,0.4
		C1116.1,818.8,1116.1,818.8,1116,818.8L1116,818.8z M1076.8,818.8c-0.1,0-0.2,0-0.3,0c-0.3-0.1-0.6-0.2-0.9-0.4
		c-0.4-0.2-0.6-0.6-0.4-1c0.2-0.4,0.6-0.5,1-0.4c0.3,0.1,0.6,0.2,0.9,0.4c0.4,0.1,0.6,0.6,0.4,1
		C1077.4,818.6,1077.1,818.8,1076.8,818.8L1076.8,818.8z M1119.6,817.2c-0.4,0-0.7-0.3-0.7-0.8c0-0.3,0.2-0.6,0.4-0.7
		c0.3-0.1,0.6-0.3,0.9-0.4c0.4-0.2,0.8,0,1,0.3s0,0.8-0.3,1c-0.3,0.1-0.6,0.3-0.9,0.4C1119.9,817.2,1119.8,817.2,1119.6,817.2z
		 M1073.2,817.2c-0.1,0-0.2,0-0.3-0.1c-0.3-0.1-0.6-0.3-0.9-0.4c-0.4-0.2-0.5-0.6-0.3-1c0.2-0.4,0.6-0.5,1-0.3l0,0
		c0.3,0.1,0.6,0.3,0.9,0.4c0.4,0.2,0.5,0.6,0.4,1C1073.7,817,1073.4,817.2,1073.2,817.2L1073.2,817.2z M1123.2,815.4
		c-0.4,0-0.7-0.3-0.7-0.8c0-0.3,0.1-0.5,0.4-0.6c0.3-0.2,0.6-0.3,0.9-0.5c0.4-0.2,0.8-0.1,1,0.3c0.2,0.4,0.1,0.8-0.3,1
		c-0.3,0.2-0.6,0.3-0.9,0.5C1123.5,815.4,1123.3,815.4,1123.2,815.4L1123.2,815.4z M1069.6,815.4c-0.1,0-0.3,0-0.4-0.1
		c-0.3-0.2-0.6-0.3-0.9-0.5c-0.4-0.2-0.5-0.7-0.3-1c0.2-0.4,0.7-0.5,1-0.3c0.3,0.2,0.6,0.3,0.9,0.5c0.4,0.2,0.5,0.7,0.3,1
		C1070.1,815.2,1069.9,815.4,1069.6,815.4L1069.6,815.4z M1126.6,813.3c-0.4,0-0.8-0.3-0.8-0.7c0-0.3,0.1-0.5,0.3-0.6
		c0.3-0.2,0.5-0.4,0.8-0.6c0.3-0.2,0.8-0.1,1,0.2c0.2,0.3,0.1,0.8-0.2,1c-0.3,0.2-0.6,0.4-0.8,0.6
		C1126.9,813.3,1126.8,813.3,1126.6,813.3L1126.6,813.3z M1066.2,813.3c-0.1,0-0.3,0-0.4-0.1c-0.3-0.2-0.6-0.4-0.8-0.6
		c-0.3-0.2-0.4-0.7-0.2-1c0.2-0.3,0.7-0.4,1-0.2c0.3,0.2,0.5,0.4,0.8,0.6c0.3,0.2,0.4,0.7,0.2,1
		C1066.7,813.2,1066.4,813.3,1066.2,813.3L1066.2,813.3z M1129.9,811c-0.4,0-0.8-0.3-0.8-0.7c0-0.2,0.1-0.5,0.3-0.6
		c0.3-0.2,0.5-0.4,0.8-0.6c0.3-0.3,0.8-0.2,1.1,0.1c0.3,0.3,0.2,0.8-0.1,1.1l0,0c-0.3,0.2-0.5,0.4-0.8,0.6
		C1130.2,810.9,1130,811,1129.9,811L1129.9,811z M1062.9,811c-0.2,0-0.3-0.1-0.5-0.2c-0.3-0.2-0.5-0.4-0.8-0.6
		c-0.3-0.3-0.4-0.7-0.1-1.1c0.3-0.3,0.7-0.4,1.1-0.1c0.3,0.2,0.5,0.4,0.8,0.6c0.3,0.3,0.4,0.7,0.1,1.1
		C1063.4,810.9,1063.2,811,1062.9,811L1062.9,811z M1132.9,808.4c-0.4,0-0.8-0.3-0.8-0.8c0-0.2,0.1-0.4,0.2-0.6
		c0.2-0.2,0.5-0.4,0.7-0.7c0.3-0.3,0.8-0.2,1.1,0.1c0.3,0.3,0.2,0.8,0,1c-0.2,0.2-0.5,0.5-0.8,0.7
		C1133.3,808.4,1133.1,808.4,1132.9,808.4z M1059.8,808.4c-0.2,0-0.4-0.1-0.5-0.2c-0.3-0.2-0.5-0.5-0.8-0.7c-0.3-0.3-0.3-0.8,0-1.1
		c0.3-0.3,0.7-0.3,1,0c0.2,0.2,0.5,0.4,0.7,0.7c0.3,0.3,0.3,0.8,0.1,1.1C1060.3,808.3,1060.1,808.4,1059.8,808.4L1059.8,808.4z
		 M1135.8,805.7c-0.4,0-0.8-0.3-0.8-0.7c0-0.2,0.1-0.4,0.2-0.5c0.2-0.2,0.5-0.5,0.7-0.7c0.3-0.3,0.8-0.3,1.1,0
		c0.3,0.3,0.3,0.8,0,1.1c-0.2,0.2-0.5,0.5-0.7,0.7C1136.2,805.6,1136,805.7,1135.8,805.7z M1057,805.7c-0.2,0-0.4-0.1-0.5-0.2
		c-0.2-0.2-0.5-0.5-0.7-0.7c-0.3-0.3-0.3-0.8,0-1.1c0.3-0.3,0.8-0.3,1.1,0c0.2,0.2,0.5,0.5,0.7,0.7c0.3,0.3,0.3,0.8,0,1.1
		C1057.3,805.6,1057.2,805.7,1057,805.7L1057,805.7z M1138.5,802.7c-0.4,0-0.8-0.3-0.8-0.7c0-0.2,0.1-0.3,0.2-0.5
		c0.2-0.3,0.4-0.5,0.6-0.8c0.3-0.3,0.7-0.4,1.1-0.1c0.3,0.3,0.4,0.7,0.1,1.1c0,0,0,0,0,0c-0.2,0.3-0.4,0.5-0.6,0.8
		C1138.9,802.6,1138.7,802.7,1138.5,802.7L1138.5,802.7z M1054.3,802.7c-0.2,0-0.4-0.1-0.6-0.3c-0.2-0.3-0.4-0.5-0.6-0.8
		c-0.3-0.3-0.2-0.8,0.1-1.1s0.8-0.2,1.1,0.1c0,0,0,0,0,0c0.2,0.3,0.4,0.5,0.6,0.8c0.3,0.3,0.2,0.8-0.1,1.1
		C1054.6,802.6,1054.5,802.7,1054.3,802.7L1054.3,802.7z M1141,799.5c-0.4,0-0.8-0.3-0.8-0.8c0-0.2,0-0.3,0.1-0.4
		c0.2-0.3,0.4-0.5,0.6-0.8c0.2-0.3,0.7-0.4,1-0.2c0.3,0.2,0.4,0.7,0.2,1c-0.2,0.3-0.4,0.6-0.6,0.8
		C1141.4,799.4,1141.2,799.5,1141,799.5L1141,799.5z M1051.8,799.5c-0.2,0-0.5-0.1-0.6-0.3c-0.2-0.3-0.4-0.6-0.6-0.8
		c-0.2-0.3-0.2-0.8,0.2-1c0.3-0.2,0.8-0.2,1,0.2l0,0c0.2,0.3,0.4,0.5,0.6,0.8c0.2,0.3,0.2,0.8-0.2,1
		C1052.1,799.5,1052,799.5,1051.8,799.5z M1143.2,796.2c-0.4,0-0.8-0.3-0.8-0.7c0-0.1,0-0.3,0.1-0.4c0.2-0.3,0.3-0.6,0.5-0.8
		c0.2-0.4,0.7-0.5,1-0.2c0.3,0.2,0.5,0.7,0.3,1c-0.2,0.3-0.3,0.6-0.5,0.9C1143.7,796.1,1143.4,796.2,1143.2,796.2L1143.2,796.2z
		 M1049.6,796.2c-0.3,0-0.5-0.1-0.6-0.4c-0.2-0.3-0.4-0.6-0.5-0.9c-0.2-0.4-0.1-0.8,0.3-1c0.4-0.2,0.8-0.1,1,0.3
		c0.2,0.3,0.3,0.6,0.5,0.8c0.2,0.4,0.1,0.8-0.2,1C1049.9,796.2,1049.8,796.2,1049.6,796.2L1049.6,796.2z M1145.2,792.7
		c-0.4,0-0.8-0.3-0.8-0.7c0-0.1,0-0.2,0.1-0.4c0.2-0.3,0.3-0.6,0.4-0.9c0.2-0.4,0.6-0.5,1-0.3c0.4,0.2,0.5,0.6,0.3,1l0,0
		c-0.1,0.3-0.3,0.6-0.5,0.9C1145.7,792.6,1145.4,792.7,1145.2,792.7L1145.2,792.7z M1047.6,792.7c-0.3,0-0.5-0.2-0.7-0.4
		c-0.2-0.3-0.3-0.6-0.5-0.9c-0.2-0.4,0-0.8,0.3-1c0.4-0.2,0.8,0,1,0.3c0.1,0.3,0.3,0.6,0.4,0.9c0.2,0.4,0.1,0.8-0.3,1
		C1047.9,792.7,1047.8,792.7,1047.6,792.7L1047.6,792.7z M1146.9,789.1c-0.4,0-0.8-0.3-0.7-0.8c0-0.1,0-0.2,0.1-0.3
		c0.1-0.3,0.3-0.6,0.4-0.9c0.2-0.4,0.6-0.6,1-0.4s0.6,0.6,0.4,1c-0.1,0.3-0.3,0.6-0.4,0.9C1147.4,788.9,1147.2,789.1,1146.9,789.1
		L1146.9,789.1z M1045.9,789.1c-0.3,0-0.6-0.2-0.7-0.5c-0.1-0.3-0.3-0.6-0.4-0.9c-0.2-0.4,0-0.8,0.4-1s0.8,0,1,0.4
		c0.1,0.3,0.3,0.6,0.4,0.9c0.2,0.4,0,0.8-0.4,1C1046.1,789.1,1046,789.1,1045.9,789.1z M1148.3,785.4c-0.4,0-0.8-0.3-0.7-0.8
		c0-0.1,0-0.2,0-0.2c0.1-0.3,0.2-0.6,0.3-0.9c0.1-0.4,0.6-0.6,0.9-0.5s0.6,0.6,0.5,0.9l0,0c-0.1,0.3-0.2,0.6-0.3,1
		C1148.9,785.2,1148.6,785.4,1148.3,785.4L1148.3,785.4z M1044.5,785.4c-0.3,0-0.6-0.2-0.7-0.5c-0.1-0.3-0.2-0.6-0.3-1
		c-0.1-0.4,0.1-0.8,0.5-0.9c0.4-0.1,0.8,0.1,0.9,0.5c0.1,0.3,0.2,0.6,0.3,0.9c0.1,0.4-0.1,0.8-0.5,1
		C1044.7,785.4,1044.6,785.4,1044.5,785.4L1044.5,785.4z M1149.5,781.6c-0.4,0-0.8-0.3-0.7-0.8c0-0.1,0-0.1,0-0.2
		c0.1-0.3,0.2-0.6,0.2-1c0.1-0.4,0.5-0.6,0.9-0.5s0.6,0.5,0.6,0.9c-0.1,0.3-0.2,0.7-0.3,1C1150.1,781.3,1149.8,781.6,1149.5,781.6z
		 M1043.3,781.6c-0.3,0-0.6-0.2-0.7-0.6c-0.1-0.3-0.2-0.7-0.3-1c-0.1-0.4,0.1-0.8,0.5-0.9c0.4-0.1,0.8,0.1,0.9,0.5
		c0.1,0.3,0.2,0.6,0.2,1c0.1,0.4-0.1,0.8-0.5,0.9C1043.5,781.6,1043.4,781.6,1043.3,781.6L1043.3,781.6z M1150.4,777.7
		c-0.4,0-0.8-0.3-0.8-0.8c0,0,0-0.1,0-0.1c0.1-0.3,0.1-0.6,0.2-1c0.1-0.4,0.5-0.7,0.9-0.6c0.4,0.1,0.7,0.5,0.6,0.9c0,0,0,0,0,0
		c-0.1,0.3-0.1,0.7-0.2,1C1151,777.4,1150.7,777.7,1150.4,777.7z M1042.4,777.7c-0.4,0-0.7-0.3-0.7-0.6c-0.1-0.3-0.1-0.7-0.2-1
		c-0.1-0.4,0.2-0.8,0.6-0.9c0.4-0.1,0.8,0.2,0.9,0.6c0,0,0,0,0,0c0.1,0.3,0.1,0.6,0.2,1c0.1,0.4-0.2,0.8-0.6,0.9
		C1042.5,777.7,1042.5,777.7,1042.4,777.7L1042.4,777.7z M1150.9,773.7C1150.9,773.7,1150.9,773.7,1150.9,773.7
		c-0.5,0-0.8-0.4-0.7-0.8c0,0,0,0,0,0c0-0.3,0.1-0.7,0.1-1c0-0.4,0.4-0.7,0.8-0.7c0.4,0,0.7,0.4,0.7,0.8c0,0,0,0,0,0
		c0,0.3-0.1,0.7-0.1,1C1151.6,773.4,1151.3,773.7,1150.9,773.7z M1041.8,773.7c-0.4,0-0.7-0.3-0.7-0.7c0-0.3-0.1-0.7-0.1-1
		c0-0.4,0.2-0.8,0.7-0.8c0.4,0,0.8,0.2,0.8,0.7c0,0,0,0,0,0c0,0.3,0.1,0.7,0.1,1C1042.6,773.3,1042.3,773.7,1041.8,773.7
		C1041.9,773.7,1041.9,773.7,1041.8,773.7C1041.9,773.7,1041.9,773.7,1041.8,773.7L1041.8,773.7z M1151.3,769.7L1151.3,769.7
		c-0.4,0-0.8-0.4-0.8-0.8c0,0,0,0,0,0c0-0.3,0-0.7,0-1c0-0.4,0.4-0.7,0.8-0.7s0.7,0.4,0.7,0.8l0,0c0,0.3,0,0.7,0,1
		C1152,769.4,1151.7,769.7,1151.3,769.7L1151.3,769.7z M1041.5,769.7c-0.4,0-0.7-0.3-0.7-0.7c0-0.3,0-0.7,0-1c0-0.4,0.3-0.8,0.7-0.8
		s0.8,0.3,0.8,0.7c0,0.3,0,0.7,0,1C1042.3,769.3,1042,769.7,1041.5,769.7C1041.6,769.7,1041.6,769.7,1041.5,769.7L1041.5,769.7z
		 M1151.3,765.7c-0.4,0-0.7-0.3-0.7-0.7c0-0.3,0-0.7,0-1c0-0.4,0.3-0.8,0.7-0.8c0.4,0,0.8,0.3,0.8,0.7c0,0.3,0,0.7,0,1
		C1152,765.4,1151.7,765.7,1151.3,765.7L1151.3,765.7z M1041.5,765.7L1041.5,765.7c-0.4,0-0.8-0.4-0.8-0.8c0-0.3,0-0.7,0-1
		c0-0.4,0.4-0.7,0.8-0.7s0.7,0.4,0.7,0.8c0,0.3,0,0.7,0,1C1042.3,765.4,1041.9,765.7,1041.5,765.7z M1151,761.7
		c-0.4,0-0.7-0.3-0.7-0.7c0-0.3-0.1-0.7-0.1-1c-0.1-0.4,0.2-0.8,0.7-0.8s0.8,0.2,0.8,0.7c0,0.3,0.1,0.7,0.1,1
		C1151.8,761.3,1151.5,761.7,1151,761.7C1151.1,761.7,1151,761.7,1151,761.7L1151,761.7z M1041.8,761.7
		C1041.8,761.7,1041.7,761.7,1041.8,761.7c-0.5,0-0.8-0.4-0.7-0.8c0,0,0,0,0,0c0-0.3,0.1-0.7,0.1-1c0.1-0.4,0.4-0.7,0.8-0.7
		c0.4,0.1,0.7,0.4,0.7,0.8c0,0.3-0.1,0.7-0.1,1C1042.5,761.4,1042.2,761.7,1041.8,761.7L1041.8,761.7z M1150.4,757.8
		c-0.4,0-0.7-0.3-0.7-0.6c-0.1-0.3-0.1-0.6-0.2-1c-0.1-0.4,0.2-0.8,0.6-0.9s0.8,0.2,0.9,0.6c0.1,0.3,0.1,0.7,0.2,1
		c0.1,0.4-0.2,0.8-0.6,0.9C1150.5,757.8,1150.5,757.8,1150.4,757.8L1150.4,757.8z M1042.4,757.8c-0.4,0-0.8-0.3-0.8-0.8
		c0,0,0-0.1,0-0.1c0.1-0.3,0.1-0.7,0.2-1c0.1-0.4,0.5-0.7,0.9-0.6c0.4,0.1,0.7,0.5,0.6,0.9c-0.1,0.3-0.1,0.6-0.2,1
		C1043,757.5,1042.7,757.8,1042.4,757.8z M1149.6,753.9c-0.3,0-0.6-0.2-0.7-0.6c-0.1-0.3-0.2-0.6-0.3-1c-0.1-0.4,0.1-0.8,0.5-0.9
		c0.4-0.1,0.8,0.1,0.9,0.5c0.1,0.3,0.2,0.7,0.3,1c0.1,0.4-0.1,0.8-0.5,0.9C1149.7,753.8,1149.7,753.9,1149.6,753.9L1149.6,753.9z
		 M1043.2,753.9c-0.4,0-0.8-0.3-0.8-0.8c0-0.1,0-0.1,0-0.2c0.1-0.3,0.2-0.7,0.3-1c0.1-0.4,0.5-0.6,0.9-0.5c0.4,0.1,0.6,0.5,0.5,0.9
		l0,0c-0.1,0.3-0.2,0.6-0.3,1C1043.8,753.6,1043.5,753.9,1043.2,753.9L1043.2,753.9z M1148.5,750c-0.3,0-0.6-0.2-0.7-0.5
		c-0.1-0.3-0.2-0.6-0.3-0.9c-0.1-0.4,0.1-0.8,0.5-0.9c0.4-0.1,0.8,0.1,0.9,0.4c0.1,0.3,0.2,0.6,0.3,1c0.1,0.4-0.1,0.8-0.5,0.9
		C1148.6,750,1148.6,750,1148.5,750L1148.5,750z M1044.3,750c-0.4,0-0.8-0.3-0.7-0.8c0-0.1,0-0.2,0-0.2c0.1-0.3,0.2-0.6,0.3-1
		c0.1-0.4,0.5-0.6,0.9-0.5c0.4,0.1,0.6,0.5,0.5,0.9c0,0,0,0,0,0.1c-0.1,0.3-0.2,0.6-0.3,0.9C1044.9,749.8,1044.7,750,1044.3,750
		L1044.3,750z M1147.1,746.3c-0.3,0-0.6-0.2-0.7-0.5c-0.1-0.3-0.3-0.6-0.4-0.9c-0.1-0.4,0-0.8,0.4-1c0.4-0.1,0.8,0,0.9,0.4
		c0.1,0.3,0.3,0.6,0.4,0.9c0.2,0.4,0,0.8-0.4,1C1147.3,746.3,1147.2,746.3,1147.1,746.3L1147.1,746.3z M1045.7,746.3
		c-0.4,0-0.7-0.3-0.7-0.8c0-0.1,0-0.2,0.1-0.3c0.1-0.3,0.3-0.6,0.4-0.9c0.2-0.4,0.6-0.5,1-0.3c0.3,0.2,0.5,0.6,0.4,0.9
		c-0.1,0.3-0.3,0.6-0.4,0.9C1046.3,746.1,1046,746.3,1045.7,746.3L1045.7,746.3z M1145.4,742.7c-0.3,0-0.5-0.2-0.7-0.4
		c-0.1-0.3-0.3-0.6-0.5-0.9c-0.2-0.4,0-0.8,0.4-1c0.4-0.2,0.8,0,1,0.3c0.2,0.3,0.3,0.6,0.5,0.9c0.2,0.4,0,0.8-0.3,1
		C1145.6,742.6,1145.5,742.7,1145.4,742.7L1145.4,742.7z M1047.4,742.7c-0.4,0-0.8-0.3-0.8-0.7c0-0.1,0-0.2,0.1-0.4
		c0.2-0.3,0.3-0.6,0.5-0.9c0.2-0.4,0.7-0.5,1-0.3c0.3,0.2,0.5,0.6,0.3,1c-0.2,0.3-0.3,0.6-0.5,0.9
		C1048,742.5,1047.7,742.6,1047.4,742.7L1047.4,742.7z M1143.5,739.2c-0.3,0-0.5-0.1-0.6-0.4c-0.2-0.3-0.3-0.6-0.5-0.8
		c-0.2-0.4-0.1-0.8,0.2-1c0.4-0.2,0.8-0.1,1,0.2c0.2,0.3,0.4,0.6,0.5,0.9c0.2,0.4,0.1,0.8-0.3,1
		C1143.7,739.1,1143.6,739.1,1143.5,739.2L1143.5,739.2z M1049.4,739.2c-0.4,0-0.7-0.3-0.7-0.8c0-0.1,0-0.3,0.1-0.4
		c0.2-0.3,0.4-0.6,0.5-0.9c0.2-0.4,0.7-0.5,1-0.2c0.4,0.2,0.5,0.7,0.2,1c-0.2,0.3-0.3,0.6-0.5,0.8
		C1049.9,739,1049.6,739.1,1049.4,739.2L1049.4,739.2z M1141.3,735.8c-0.2,0-0.5-0.1-0.6-0.3c-0.2-0.3-0.4-0.5-0.6-0.8
		c-0.2-0.3-0.2-0.8,0.2-1c0.3-0.2,0.8-0.2,1,0.2c0.2,0.3,0.4,0.5,0.6,0.8c0.2,0.3,0.2,0.8-0.2,1
		C1141.6,735.8,1141.4,735.8,1141.3,735.8z M1051.5,735.8c-0.4,0-0.7-0.3-0.7-0.8c0-0.2,0-0.3,0.1-0.4c0.2-0.3,0.4-0.6,0.6-0.8
		c0.2-0.3,0.7-0.4,1-0.2c0.3,0.2,0.4,0.7,0.2,1c-0.2,0.3-0.4,0.5-0.6,0.8C1052,735.7,1051.8,735.8,1051.5,735.8L1051.5,735.8z
		 M1138.8,732.6c-0.2,0-0.4-0.1-0.6-0.3c-0.2-0.3-0.4-0.5-0.6-0.8c-0.3-0.3-0.3-0.8,0.1-1.1c0.3-0.3,0.8-0.3,1.1,0.1c0,0,0,0,0,0
		c0.2,0.3,0.4,0.5,0.7,0.8c0.3,0.3,0.2,0.8-0.1,1.1C1139.2,732.6,1139,732.6,1138.8,732.6z M1054,732.6c-0.4,0-0.7-0.3-0.7-0.8
		c0-0.2,0.1-0.3,0.2-0.5c0.2-0.3,0.4-0.5,0.7-0.8c0.3-0.3,0.7-0.4,1.1-0.1s0.4,0.7,0.1,1.1c0,0,0,0,0,0c-0.2,0.2-0.4,0.5-0.6,0.8
		C1054.4,732.5,1054.2,732.6,1054,732.6L1054,732.6z M1136.2,729.6c-0.2,0-0.4-0.1-0.5-0.2c-0.2-0.2-0.5-0.5-0.7-0.7
		c-0.3-0.3-0.3-0.8,0-1.1c0.3-0.3,0.8-0.3,1,0c0.2,0.2,0.5,0.5,0.7,0.7c0.3,0.3,0.3,0.8,0,1.1
		C1136.6,729.6,1136.4,729.6,1136.2,729.6L1136.2,729.6z M1056.6,729.6c-0.4,0-0.7-0.3-0.7-0.8c0-0.2,0.1-0.4,0.2-0.5
		c0.2-0.2,0.5-0.5,0.7-0.7c0.3-0.3,0.7-0.4,1.1-0.1c0.3,0.3,0.4,0.7,0.1,1.1c0,0-0.1,0.1-0.1,0.1c-0.2,0.2-0.5,0.5-0.7,0.7
		C1057,729.5,1056.8,729.6,1056.6,729.6L1056.6,729.6z M1133.3,726.8c-0.2,0-0.4-0.1-0.5-0.2c-0.2-0.2-0.5-0.4-0.7-0.7
		c-0.3-0.3-0.3-0.7-0.1-1.1s0.7-0.3,1.1-0.1c0.3,0.2,0.5,0.4,0.8,0.7c0.3,0.3,0.3,0.8,0,1.1C1133.7,726.7,1133.5,726.8,1133.3,726.8
		L1133.3,726.8z M1059.5,726.8c-0.4,0-0.7-0.3-0.7-0.8c0-0.2,0.1-0.4,0.2-0.5c0.2-0.2,0.5-0.5,0.8-0.7c0.3-0.3,0.8-0.2,1.1,0.1
		c0.3,0.3,0.2,0.8-0.1,1.1l0,0c-0.2,0.2-0.5,0.4-0.7,0.7C1059.8,726.8,1059.7,726.8,1059.5,726.8L1059.5,726.8z M1130.3,724.3
		c-0.2,0-0.3-0.1-0.5-0.2c-0.3-0.2-0.5-0.4-0.8-0.6c-0.3-0.2-0.4-0.7-0.2-1c0.2-0.3,0.7-0.4,1.1-0.2c0.3,0.2,0.5,0.4,0.8,0.6
		c0.3,0.3,0.4,0.7,0.1,1.1C1130.7,724.2,1130.5,724.3,1130.3,724.3L1130.3,724.3z M1062.5,724.3c-0.4,0-0.8-0.3-0.8-0.7
		c0-0.2,0.1-0.4,0.3-0.6c0.3-0.2,0.5-0.4,0.8-0.6c0.3-0.2,0.8-0.2,1.1,0.1s0.2,0.8-0.1,1.1c0,0,0,0,0,0c-0.3,0.2-0.5,0.4-0.8,0.6
		C1062.9,724.2,1062.7,724.3,1062.5,724.3L1062.5,724.3z M1127,721.9c-0.1,0-0.3,0-0.4-0.1c-0.3-0.2-0.5-0.4-0.8-0.5
		c-0.4-0.2-0.5-0.7-0.2-1c0.2-0.4,0.7-0.5,1-0.2l0,0c0.3,0.2,0.6,0.4,0.8,0.6c0.3,0.2,0.4,0.7,0.2,1
		C1127.5,721.8,1127.3,721.9,1127,721.9L1127,721.9z M1065.8,721.9c-0.4,0-0.8-0.3-0.8-0.7c0-0.2,0.1-0.5,0.3-0.6
		c0.3-0.2,0.6-0.4,0.8-0.6c0.3-0.2,0.8-0.1,1,0.2c0.2,0.3,0.1,0.8-0.2,1c0,0,0,0,0,0c-0.3,0.2-0.6,0.4-0.8,0.5
		C1066.1,721.9,1065.9,721.9,1065.8,721.9L1065.8,721.9z M1123.6,719.8c-0.1,0-0.3,0-0.4-0.1c-0.3-0.2-0.6-0.3-0.9-0.5
		c-0.4-0.2-0.5-0.6-0.3-1c0.2-0.4,0.6-0.5,1-0.3c0,0,0,0,0,0c0.3,0.2,0.6,0.3,0.9,0.5c0.4,0.2,0.5,0.7,0.3,1
		C1124.2,719.6,1123.9,719.8,1123.6,719.8L1123.6,719.8z M1069.2,719.8c-0.4,0-0.7-0.3-0.7-0.8c0-0.3,0.1-0.5,0.4-0.6
		c0.3-0.2,0.6-0.3,0.9-0.5c0.4-0.2,0.8,0,1,0.3c0.2,0.4,0.1,0.8-0.3,1c-0.3,0.2-0.6,0.3-0.9,0.5
		C1069.4,719.7,1069.3,719.8,1069.2,719.8L1069.2,719.8z M1120.1,717.9c-0.1,0-0.2,0-0.3-0.1c-0.3-0.1-0.6-0.3-0.9-0.4
		c-0.4-0.2-0.5-0.6-0.3-1c0.2-0.4,0.6-0.5,1-0.4c0.3,0.1,0.6,0.3,0.9,0.4c0.4,0.2,0.5,0.6,0.4,1
		C1120.7,717.8,1120.4,717.9,1120.1,717.9L1120.1,717.9z M1072.7,717.9c-0.4,0-0.8-0.3-0.8-0.7c0-0.3,0.2-0.6,0.4-0.7
		c0.3-0.1,0.6-0.3,0.9-0.4c0.4-0.2,0.8,0,1,0.4c0.2,0.4,0,0.8-0.4,1c-0.3,0.1-0.6,0.3-0.9,0.4
		C1072.9,717.9,1072.8,717.9,1072.7,717.9L1072.7,717.9z M1116.4,716.3c-0.1,0-0.2,0-0.3-0.1c-0.3-0.1-0.6-0.2-0.9-0.4
		c-0.4-0.1-0.6-0.6-0.5-1c0.1-0.4,0.6-0.6,1-0.5c0,0,0,0,0,0c0.3,0.1,0.6,0.2,0.9,0.4c0.4,0.2,0.6,0.6,0.4,1
		C1117,716.1,1116.7,716.3,1116.4,716.3L1116.4,716.3z M1076.4,716.3c-0.4,0-0.7-0.3-0.7-0.8c0-0.3,0.2-0.6,0.5-0.7
		c0.3-0.1,0.6-0.2,0.9-0.4c0.4-0.1,0.8,0.1,1,0.5c0.1,0.4-0.1,0.8-0.4,0.9c-0.3,0.1-0.6,0.2-0.9,0.4
		C1076.6,716.3,1076.5,716.3,1076.4,716.3L1076.4,716.3z M1112.7,715c-0.1,0-0.2,0-0.2,0c-0.3-0.1-0.6-0.2-0.9-0.3
		c-0.4-0.1-0.6-0.5-0.5-0.9c0.1-0.4,0.5-0.6,0.9-0.5c0.3,0.1,0.7,0.2,1,0.3c0.4,0.1,0.6,0.5,0.5,0.9
		C1113.3,714.8,1113,715,1112.7,715L1112.7,715z M1080.1,715c-0.4,0-0.8-0.3-0.8-0.7c0-0.3,0.2-0.6,0.5-0.7c0.3-0.1,0.6-0.2,1-0.3
		c0.4-0.1,0.8,0.1,0.9,0.5c0.1,0.4-0.1,0.8-0.5,0.9l0,0c-0.3,0.1-0.6,0.2-0.9,0.3C1080.3,715,1080.2,715,1080.1,715L1080.1,715z
		 M1108.8,714c-0.1,0-0.1,0-0.2,0c-0.3-0.1-0.6-0.1-1-0.2c-0.4-0.1-0.7-0.5-0.6-0.9c0.1-0.4,0.5-0.7,0.9-0.6c0.3,0.1,0.7,0.1,1,0.2
		c0.4,0.1,0.7,0.5,0.6,0.9C1109.4,713.7,1109.1,714,1108.8,714z M1084,714c-0.4,0-0.8-0.3-0.8-0.7c0-0.3,0.2-0.7,0.6-0.7
		c0.3-0.1,0.7-0.1,1-0.2c0.4-0.1,0.8,0.2,0.9,0.6c0.1,0.4-0.2,0.8-0.6,0.9c-0.3,0.1-0.6,0.1-1,0.2C1084.1,714,1084.1,714,1084,714
		L1084,714z M1104.9,713.2c0,0-0.1,0-0.1,0c-0.3,0-0.7-0.1-1-0.1c-0.4-0.1-0.7-0.5-0.6-0.9c0.1-0.4,0.4-0.7,0.8-0.6
		c0.3,0,0.7,0.1,1,0.1c0.4,0.1,0.7,0.4,0.6,0.9C1105.5,712.9,1105.2,713.2,1104.9,713.2L1104.9,713.2z M1087.9,713.2
		c-0.4,0-0.7-0.3-0.7-0.8c0-0.4,0.3-0.7,0.6-0.7c0.3-0.1,0.7-0.1,1-0.1c0.4-0.1,0.8,0.2,0.8,0.6s-0.2,0.8-0.6,0.8
		c-0.3,0-0.7,0.1-1,0.1C1088,713.2,1088,713.2,1087.9,713.2z M1100.9,712.7L1100.9,712.7c-0.4,0-0.7,0-1-0.1c-0.4,0-0.7-0.4-0.7-0.8
		c0-0.4,0.4-0.7,0.8-0.7c0.3,0,0.7,0,1,0.1c0.4,0,0.7,0.4,0.7,0.8C1101.7,712.4,1101.3,712.8,1100.9,712.7L1100.9,712.7z
		 M1091.9,712.7c-0.4,0-0.8-0.3-0.8-0.7c0-0.4,0.3-0.8,0.7-0.8c0.3,0,0.7-0.1,1-0.1c0.4,0,0.8,0.3,0.8,0.7c0,0.4-0.3,0.8-0.7,0.8
		C1092.6,712.7,1092.3,712.7,1091.9,712.7L1091.9,712.7z M1096.9,712.6L1096.9,712.6c-0.3,0-0.7,0-1,0c-0.4,0-0.8-0.3-0.8-0.7
		c0-0.4,0.3-0.8,0.7-0.8c0.3,0,0.7,0,1,0c0.4,0,0.7,0.3,0.7,0.8C1097.7,712.2,1097.3,712.6,1096.9,712.6L1096.9,712.6z"/>
	<path id="Path_2860" class="st1" d="M1099.9,808.1c23.3,0,42.3-18.9,42.3-42.3c0-23.3-18.9-42.3-42.3-42.3
		c-23.3,0-42.3,18.9-42.3,42.3C1057.6,789.2,1076.6,808.1,1099.9,808.1"/>
	<path id="Path_2861" class="st2" d="M1140,792.2c-13.9,24.1-44.6,32.3-68.7,18.4c-24.1-13.9-32.3-44.6-18.4-68.7
		c13.9-24.1,44.6-32.3,68.7-18.4c0.5,0.3,1,0.6,1.5,0.9c-22.9-12.1-51.2-3.4-63.4,19.4s-3.4,51.2,19.4,63.4
		c21.7,11.5,48.7,4.3,61.7-16.5C1140.5,791.2,1140.3,791.7,1140,792.2"/>
	<g id="Group_1359" transform="translate(1040 709)">
		<g>
			<defs>
				<path id="SVGID_1_" d="M17.6,56.8c0,23.4,18.9,42.3,42.3,42.3c23.4,0,42.3-18.9,42.3-42.3c0-23.4-18.9-42.3-42.3-42.3
					c0,0,0,0,0,0C36.6,14.6,17.6,33.5,17.6,56.8"/>
			</defs>
			<clipPath id="SVGID_00000019675202078477871540000007674797781065530543_">
				<use xlink:href="#SVGID_1_"  style="overflow:visible;"/>
			</clipPath>
			<g id="Group_1358" style="clip-path:url(#SVGID_00000019675202078477871540000007674797781065530543_);">
				<path id="Path_2862" class="st4" d="M82,101.6l-19.6-5.4v0.6l18.8,5.2l0.6,1.1l-19.4-5.2v0.4l19,5.4v0.2
					c-0.4,0.2-0.6,0.4-1.1,0.4l-18.2-4.8v0.6l17.1,4.6c-0.4,0.2-0.8,0.4-1.2,0.6l-15.9-4.2v0.6l15.1,4c-0.6,0.2-1.1,0.4-1.7,0.6
					l-13.2-3.3v0.4l12.6,3.3c-0.6,0.2-1.1,0.4-1.7,0.6l-10.9-2.7v0.4l9.5,2.5c-0.8,0.2-1.4,0.4-2.3,0.6l-7.2-1.9v0.6l6.2,1.5
					c-1,0.2-2.3,0.4-3.3,0.6l-3.1-1.1v0.6l1.7,0.4c-1.3,0.2-2.6,0.2-4,0.2h-0.4l0.1-15.7l21.7,5.7l3.3-2.5l1.2-1.4l-25.6-7.7
					l-3.5,1.9l-4.9-0.9v-6.2l1.9,0.6v0.2l3.5,0.6l2.1-1.1V83l0.8-0.4l0.6-0.2l1.2,0.4l0.2-0.2l8.6,2.9l0.2,0.4l1.2,0.2l0.2-0.2
					l8,2.3l0.2-0.2l1.1,0.4l0.8-0.6l-0.6-0.2v-0.4l-0.4-0.2l-0.2-0.2c-0.2-0.2-0.4-0.2-0.4-0.4v-0.4c0-0.2,0.2-0.2,0.4-0.4
					c0.2-0.2,0.4-0.5,0.4-0.8c0-0.2,0-0.6-0.2-0.6c0-0.1-0.1-0.2-0.2-0.2c0,0,0,0,0,0c-0.1,0-0.2-0.1-0.2-0.2c0,0,0,0,0,0v-0.4
					c0.1-0.1,0.2-0.3,0.2-0.4c0-0.2,0-1.1-0.2-1.2h-0.4c-0.2,0-0.2,0.2-0.2,0.8s0,0.4,0.2,0.8V84c-0.2,0.2,0,0.2-0.2,0.2
					c0,0-0.4,0.2-0.4,0.4v1.1l0.4,0.4c0.2,0.2,0.2,0,0.2,0.4c0,0.6,0,0.4-0.2,0.4c-0.2,0.2,0,0-0.4,0.2l-7.2-1.9v-0.4l-1.4-0.4
					l-0.2,0.2L63.4,82v-2.7l12,3.6l1.2-0.6l-13.2-4v-1.1l8.9,2.7v-0.4l-8.9-2.9v-3.5l8.9,2.9v-0.8l-8.9-2.9v-1.1l8.9,2.9v-0.8
					l-8.9-2.9v-0.6l9.1,2.9l0.4-1.1l-9.5-3.2l0.4-0.9l9.9,3.3l0.8,2.3l0.4-0.4l-1.1-2.7l-2.9-1v-0.6l-0.2-0.2l0.1-8.6l0.2-0.2
					l-0.2-0.2v-0.2l0.2-0.2l-0.2-0.2l0.2-0.2l0.4-0.2l-1.2-0.6c0-0.5-0.1-1-0.2-1.4c-0.4-1.3-1.3-2.4-2.5-3.1l0.2-0.6l-1.2-0.4v0.6
					c-1.4-0.4-2.3,0.4-2.7,2.5L63,55.1h-0.2l-0.2-5.2l7.7,3.3l1.2,4.3l0.4-0.4l-1.2-5.4v-0.2l0.2-0.8l0.4-0.4l-0.4-0.2l0.4-0.6
					l0.6,0.2l0.2-0.2v-0.2l-1-0.4l-1.1,1l-0.8-0.2l0.6-0.6l0.4,0.2l0.4-0.4l-0.8-0.4l-1.2,0.8L68,49.1l0.6-0.6l0.6,0.2l0.4-0.2
					L68.9,48l-1.2,1l-0.8-0.2l0.8-0.6l0.2-0.4l0.2-0.2l-0.8-0.4L66,48l-0.8-0.2l0.8-0.6l0.4,0.2l0.4-0.4l-1.1-0.4l-1.2,0.8L64,47.2
					l0.6-0.6l0.4,0.2l0.4-0.2l-1.1-0.4l-1.2,0.8l-0.6-0.4l0.6-0.6l0.4,0.2l0.4-0.4L62.8,45v-0.4l9.2,4l0.2,0.6v0.2l1,5.4l0.2-0.6
					l-1-6.2l-9.7-4v-0.2l9.9,4l1,6.2h0.2l-1-6.4l-1.4-0.6l-0.4-2.3l-9.5-3.8l-0.2-0.6l6.4,2.5L67,42.1l-6-2.3l-0.2-1l-0.2-0.6
					l4.9,2.1l0.2-0.8l-4.8-2.1l-0.2-0.4l4.5,1.7l-0.4-0.8l-4.3-1.9l-0.2-0.6l4.1,1.7l-0.4-0.8l-3.9-1.7l-0.4-1.9l3.5,1.2l-0.4-0.8
					l-3.3-1.2l-0.2-0.4l3.1,1l-0.4-0.6l-2.7-1.1l-0.2-0.6l1.9,0.6l-0.2-0.4l-1.2-0.4v-0.8l0.4-0.4l-0.2-0.8c-0.5-0.1-0.9-0.5-1-1
					c0,0,0.2-0.8,0-1c-0.2-0.4-0.4-0.4-0.4-0.8c0.7-0.3,1-1,0.7-1.7c-0.2-0.4-0.5-0.7-0.9-0.8c0.2,0,0.4-0.2,0.4-0.5
					c0-0.2-0.2-0.4-0.4-0.4c0.1,0,0.2-0.1,0.2-0.2c0-0.1-0.1-0.2-0.2-0.2v-3.7l-0.4,0V22c-0.2,0-0.4,0.2-0.4,0.4
					c0,0.1,0.1,0.2,0.2,0.2c0,0,0,0,0,0c-0.2,0-0.4,0.2-0.4,0.4c0,0.2,0.1,0.3,0.2,0.4c-0.6,0.1-1,0.6-1,1.2c0,0.5,0.3,1,0.8,1.2
					v0.6c0,0-0.8,0.4-0.2,1c-0.1,0.6-0.6,1.1-1.2,1.2l0.2,0.8l0.2,0.2v0.6c-0.8,0.5-1.6,1.1-2.3,1.9C53,33.1,52.4,34,52,35
					c-0.5,1.8-1.3,3.5-2.3,5.1c-0.2,0.2-2.1,3.1-2.3,3.5c-0.4,0.4-3.7,2.7-3.7,2.7l0.4,1.7l0.2-0.2V48l-2.7,1.4l2,6.2h0.4l0.2,0.6
					l0.4,0.4v2l-0.8,0.8l0.6,1.7l-0.1,8.7l-0.6,0.6v0.2L41.6,72l1.6,4.6V78L43,78.2l0.2,0.4l0.2,0.2l-0.2,0.8L43,79.8v0.2l0.2,0.2
					l-0.4,1.4l-2.5,1.2l1.2,2.7v0.8L36,89.2v-0.6c0-0.2,0.2-0.2,0.4-0.4c0.1-0.3,0.1-0.5,0.2-0.8c0-0.2-0.2-0.6-0.2-0.8L36,86.1
					v-0.2l0.2-0.2v-0.4c0-0.3-0.1-0.5-0.2-0.8c0-0.1-0.1-0.2-0.2-0.2c-0.1,0-0.2,0.1-0.2,0.2c-0.1,0.5-0.1,1,0,1.4v0.2
					c-0.1,0.1-0.3,0.2-0.4,0.2c-0.2,0.2-0.4,0.4-0.4,0.6v0.6c0.1,0.3,0.2,0.5,0.4,0.6c0.2,0.2,0,0.4,0.2,0.6s0,0.2-0.4,0.4
					c-0.2,0.2,0,0.2-0.2,0.4L34.1,90v0.4h0.2v0.4l-0.2,0.2l0.2,0.2v4.1L34.1,96l-6-2.5c0,0-0.2,3.1-0.3,3.6
					c14.6,14,36.6,16.9,54.4,7.1C82.2,103.9,82,101.6,82,101.6 M63.1,61.9l0.2-0.3v-0.2l0.5-0.4l-0.7-0.2c0.2-0.4,0.4-1.6,1.6-1.4
					l0.5,0.4v-0.2c0.8,0.6,1.4,1.5,1.6,2.5h-0.2v1.6h0.2l-0.1,7.6h-0.2v0.5l-3.3-1V70l-0.2-0.4l-0.2-7.3l0.3-0.3L63.1,61.9z
					 M62.4,61.9l-0.1,7.6l-0.2,0.7h-0.4v-0.5l-0.2-0.2l-0.2-7.7L62.4,61.9z M56.4,58.9v0.2h0.7v-0.2c1,0,1.9,0.8,1.9,1.8h-0.5v0.2
					l0.3,0.3v0.4l0.2,0.2v0.4H59v8.2l-4.2,0.3v-0.4l-0.2-0.3v-0.4l-0.2-7.7h0.2v-0.4l0.2-0.2v-0.2L55,61v-0.2h-0.5
					C54.5,59.8,55.3,59,56.4,58.9 M51,51.7l0.2,0.2L45,56l-0.2-0.4L51,51.7z M46.4,56.3l-0.2-0.5l-0.4,0.4v0.5l-0.4,0.2v-0.5
					l-0.4,0.2L45,56.2l6.3-4v0.4l-0.2,0.2v0.7l-0.4,0.2v-0.7l-0.5,0.4v0.7l-0.4,0.2v-0.5l-0.3,0.2v0.5l-0.4,0.4l-0.2-0.5l-0.5,0.4
					V55l-0.4,0.2L48,54.7L47.7,55v0.5l-0.4,0.4v-0.5l-0.5,0.4v0.5L46.4,56.3z M52.1,53.9v0.4L46.6,58v-0.2L52.1,53.9z M52,74.4
					l-5.8,3.5L46,77.5l6-3.6V74.4z M52,73l-6.3,3.8l-0.2-0.5l6.5-4L52,73z M45.5,75.7l-0.3-0.7l6.5-3.6l0.4,0.5L45.5,75.7z
					 M52.2,57.4L49.6,59v1.6c0,0,0.8-0.4,1,0.7l-0.4,0.5V62h0.2l0.2,0.4h0.2v0.5l0.2,0.2l0,7.6l-0.4,0.4v0.2l-2.3,1.4l0.2-7.9h0.2
					v-0.2l0.2-0.2v-0.2h-0.2V64h0.2v-0.2l-0.5-0.2c0,0-0.4-1,0.9-2.6v-1.5L47,60.8l-0.2-0.7l5.4-3.5L52.2,57.4z M52.2,55.9L52.1,56
					l-4.9,3.3l-0.5-1l5.5-3.7l0.2,0.2L52.2,55.9z"/>
			</g>
		</g>
	</g>
	<path id="Path_2864" class="st5" d="M1138.7,787.5c-12,20.8-38.6,27.9-59.3,15.9c-0.4-0.3-0.9-0.5-1.3-0.8
		c19.7,10.5,44.2,3,54.7-16.8c10.5-19.7,3-44.2-16.8-54.7c-18.7-9.9-42-3.7-53.3,14.3c0.2-0.4,0.5-0.9,0.7-1.3
		c12-20.8,38.6-27.9,59.3-15.9S1150.7,766.8,1138.7,787.5"/>
</g>
</svg>
