<?xml version="1.0" encoding="utf-8"?>
<!-- Generator: Adobe Illustrator 27.0.0, SVG Export Plug-In . SVG Version: 6.00 Build 0)  -->
<svg version="1.1" id="Layer_1" xmlns="http://www.w3.org/2000/svg" xmlns:xlink="http://www.w3.org/1999/xlink" x="0px" y="0px"
	 viewBox="0 0 114.8 114.8" style="enable-background:new 0 0 114.8 114.8;" xml:space="preserve">
<style type="text/css">
	.st0{fill:#FFFFFF;}
	.st1{fill-rule:evenodd;clip-rule:evenodd;fill:#FFC300;}
	.st2{clip-path:url(#SVGID_00000176748336854547920130000004779411137602743971_);}
	.st3{fill:#0C125D;}
	.st4{fill-rule:evenodd;clip-rule:evenodd;fill:#0B48E4;}
</style>
<g id="Group_3529" transform="translate(-1040.014 -709)">
	<path id="Path_2860" class="st0" d="M1099.9,808.1c23.3,0,42.3-18.9,42.3-42.3c0-23.3-18.9-42.3-42.3-42.3
		c-23.3,0-42.3,18.9-42.3,42.3C1057.6,789.2,1076.6,808.1,1099.9,808.1"/>
	<path id="Path_2861" class="st1" d="M1140,792.2c-13.9,24.1-44.6,32.3-68.7,18.4c-24.1-13.9-32.3-44.6-18.4-68.7
		c13.9-24.1,44.6-32.3,68.7-18.4c0.5,0.3,1,0.6,1.5,0.9c-22.9-12.1-51.2-3.4-63.4,19.4s-3.4,51.2,19.4,63.4
		c21.7,11.5,48.7,4.3,61.7-16.5C1140.5,791.2,1140.3,791.7,1140,792.2"/>
	<g id="Group_1359" transform="translate(1040 709)">
		<g>
			<defs>
				<path id="SVGID_1_" d="M17.6,56.8c0,23.4,18.9,42.3,42.3,42.3c23.4,0,42.3-18.9,42.3-42.3c0-23.4-18.9-42.3-42.3-42.3
					c0,0,0,0,0,0C36.6,14.6,17.6,33.5,17.6,56.8"/>
			</defs>
			<clipPath id="SVGID_00000052821112317787665710000001497169451363677332_">
				<use xlink:href="#SVGID_1_"  style="overflow:visible;"/>
			</clipPath>
			<g id="Group_1358" style="clip-path:url(#SVGID_00000052821112317787665710000001497169451363677332_);">
				<path id="Path_2862" class="st3" d="M82,101.6l-19.6-5.4v0.6l18.8,5.2l0.6,1.1l-19.4-5.2v0.4l19,5.4v0.2
					c-0.4,0.2-0.6,0.4-1.1,0.4l-18.2-4.8v0.6l17.1,4.6c-0.4,0.2-0.8,0.4-1.2,0.6l-15.9-4.2v0.6l15.1,4c-0.6,0.2-1.1,0.4-1.7,0.6
					l-13.2-3.3v0.4l12.6,3.3c-0.6,0.2-1.1,0.4-1.7,0.6l-10.9-2.7v0.4l9.5,2.5c-0.8,0.2-1.4,0.4-2.3,0.6l-7.2-1.9v0.6l6.2,1.5
					c-1,0.2-2.3,0.4-3.3,0.6l-3.1-1.1v0.6l1.7,0.4c-1.3,0.2-2.6,0.2-4,0.2h-0.4l0.1-15.7l21.7,5.7l3.3-2.5l1.2-1.4l-25.6-7.7
					l-3.5,1.9l-4.9-0.9v-6.2l1.9,0.6v0.2l3.5,0.6l2.1-1.1V83l0.8-0.4l0.6-0.2l1.2,0.4l0.2-0.2l8.6,2.9l0.2,0.4l1.2,0.2l0.2-0.2
					l8,2.3l0.2-0.2l1.1,0.4l0.8-0.6l-0.6-0.2v-0.4l-0.4-0.2l-0.2-0.2c-0.2-0.2-0.4-0.2-0.4-0.4v-0.4c0-0.2,0.2-0.2,0.4-0.4
					c0.2-0.2,0.4-0.5,0.4-0.8c0-0.2,0-0.6-0.2-0.6c0-0.1-0.1-0.2-0.2-0.2c0,0,0,0,0,0c-0.1,0-0.2-0.1-0.2-0.2c0,0,0,0,0,0v-0.4
					c0.1-0.1,0.2-0.3,0.2-0.4c0-0.2,0-1.1-0.2-1.2h-0.4c-0.2,0-0.2,0.2-0.2,0.8s0,0.4,0.2,0.8V84c-0.2,0.2,0,0.2-0.2,0.2
					c0,0-0.4,0.2-0.4,0.4v1.1l0.4,0.4c0.2,0.2,0.2,0,0.2,0.4c0,0.6,0,0.4-0.2,0.4c-0.2,0.2,0,0-0.4,0.2l-7.2-1.9v-0.4l-1.4-0.4
					l-0.2,0.2L63.4,82v-2.7l12,3.6l1.2-0.6l-13.2-4v-1.1l8.9,2.7v-0.4l-8.9-2.9v-3.5l8.9,2.9v-0.8l-8.9-2.9v-1.1l8.9,2.9v-0.8
					l-8.9-2.9v-0.6l9.1,2.9l0.4-1.1l-9.5-3.2l0.4-0.9l9.9,3.3l0.8,2.3l0.4-0.4l-1.1-2.7l-2.9-1v-0.6l-0.2-0.2l0.1-8.6l0.2-0.2
					l-0.2-0.2v-0.2l0.2-0.2l-0.2-0.2l0.2-0.2l0.4-0.2l-1.2-0.6c0-0.5-0.1-1-0.2-1.4c-0.4-1.3-1.3-2.4-2.5-3.1l0.2-0.6l-1.2-0.4v0.6
					c-1.4-0.4-2.3,0.4-2.7,2.5L63,55.1h-0.2l-0.2-5.2l7.7,3.3l1.2,4.3l0.4-0.4l-1.2-5.4v-0.2l0.2-0.8l0.4-0.4l-0.4-0.2l0.4-0.6
					l0.6,0.2l0.2-0.2v-0.2l-1-0.4l-1.1,1l-0.8-0.2l0.6-0.6l0.4,0.2l0.4-0.4l-0.8-0.4l-1.2,0.8L68,49.1l0.6-0.6l0.6,0.2l0.4-0.2
					L68.9,48l-1.2,1l-0.8-0.2l0.8-0.6l0.2-0.4l0.2-0.2l-0.8-0.4L66,48l-0.8-0.2l0.8-0.6l0.4,0.2l0.4-0.4l-1.1-0.4l-1.2,0.8L64,47.2
					l0.6-0.6l0.4,0.2l0.4-0.2l-1.1-0.4l-1.2,0.8l-0.6-0.4l0.6-0.6l0.4,0.2l0.4-0.4L62.8,45v-0.4l9.2,4l0.2,0.6v0.2l1,5.4l0.2-0.6
					l-1-6.2l-9.7-4v-0.2l9.9,4l1,6.2h0.2l-1-6.4l-1.4-0.6l-0.4-2.3l-9.5-3.8l-0.2-0.6l6.4,2.5L67,42.1l-6-2.3l-0.2-1l-0.2-0.6
					l4.9,2.1l0.2-0.8l-4.8-2.1l-0.2-0.4l4.5,1.7l-0.4-0.8l-4.3-1.9l-0.2-0.6l4.1,1.7l-0.4-0.8l-3.9-1.7l-0.4-1.9l3.5,1.2l-0.4-0.8
					l-3.3-1.2l-0.2-0.4l3.1,1l-0.4-0.6l-2.7-1.1l-0.2-0.6l1.9,0.6l-0.2-0.4l-1.2-0.4v-0.8l0.4-0.4l-0.2-0.8c-0.5-0.1-0.9-0.5-1-1
					c0,0,0.2-0.8,0-1c-0.2-0.4-0.4-0.4-0.4-0.8c0.7-0.3,1-1,0.7-1.7c-0.2-0.4-0.5-0.7-0.9-0.8c0.2,0,0.4-0.2,0.4-0.5
					c0-0.2-0.2-0.4-0.4-0.4c0.1,0,0.2-0.1,0.2-0.2c0-0.1-0.1-0.2-0.2-0.2v-3.7l-0.4,0V22c-0.2,0-0.4,0.2-0.4,0.4
					c0,0.1,0.1,0.2,0.2,0.2c0,0,0,0,0,0c-0.2,0-0.4,0.2-0.4,0.4c0,0.2,0.1,0.3,0.2,0.4c-0.6,0.1-1,0.6-1,1.2c0,0.5,0.3,1,0.8,1.2
					v0.6c0,0-0.8,0.4-0.2,1c-0.1,0.6-0.6,1.1-1.2,1.2l0.2,0.8l0.2,0.2v0.6c-0.8,0.5-1.6,1.1-2.3,1.9C53,33.1,52.4,34,52,35
					c-0.5,1.8-1.3,3.5-2.3,5.1c-0.2,0.2-2.1,3.1-2.3,3.5c-0.4,0.4-3.7,2.7-3.7,2.7l0.4,1.7l0.2-0.2V48l-2.7,1.4l2,6.2h0.4l0.2,0.6
					l0.4,0.4v2l-0.8,0.8l0.6,1.7l-0.1,8.7l-0.6,0.6v0.2L41.6,72l1.6,4.6V78L43,78.2l0.2,0.4l0.2,0.2l-0.2,0.8L43,79.8v0.2l0.2,0.2
					l-0.4,1.4l-2.5,1.2l1.2,2.7v0.8L36,89.2v-0.6c0-0.2,0.2-0.2,0.4-0.4c0.1-0.3,0.1-0.5,0.2-0.8c0-0.2-0.2-0.6-0.2-0.8L36,86.1
					v-0.2l0.2-0.2v-0.4c0-0.3-0.1-0.5-0.2-0.8c0-0.1-0.1-0.2-0.2-0.2c-0.1,0-0.2,0.1-0.2,0.2c-0.1,0.5-0.1,1,0,1.4v0.2
					c-0.1,0.1-0.3,0.2-0.4,0.2c-0.2,0.2-0.4,0.4-0.4,0.6v0.6c0.1,0.3,0.2,0.5,0.4,0.6c0.2,0.2,0,0.4,0.2,0.6s0,0.2-0.4,0.4
					c-0.2,0.2,0,0.2-0.2,0.4L34.1,90v0.4h0.2v0.4l-0.2,0.2l0.2,0.2v4.1L34.1,96l-6-2.5c0,0-0.2,3.1-0.3,3.6
					c14.6,14,36.6,16.9,54.4,7.1C82.2,103.9,82,101.6,82,101.6 M63.1,61.9l0.2-0.3v-0.2l0.5-0.4l-0.7-0.2c0.2-0.4,0.4-1.6,1.6-1.4
					l0.5,0.4v-0.2c0.8,0.6,1.4,1.5,1.6,2.5h-0.2v1.6h0.2l-0.1,7.6h-0.2v0.5l-3.3-1V70l-0.2-0.4l-0.2-7.3l0.3-0.3L63.1,61.9z
					 M62.4,61.9l-0.1,7.6l-0.2,0.7h-0.4v-0.5l-0.2-0.2l-0.2-7.7L62.4,61.9z M56.4,58.9v0.2h0.7v-0.2c1,0,1.9,0.8,1.9,1.8h-0.5v0.2
					l0.3,0.3v0.4l0.2,0.2v0.4H59v8.2l-4.2,0.3v-0.4l-0.2-0.3v-0.4l-0.2-7.7h0.2v-0.4l0.2-0.2v-0.2L55,61v-0.2h-0.5
					C54.5,59.8,55.3,59,56.4,58.9 M51,51.7l0.2,0.2L45,56l-0.2-0.4L51,51.7z M46.4,56.3l-0.2-0.5l-0.4,0.4v0.5l-0.4,0.2v-0.5
					l-0.4,0.2L45,56.2l6.3-4v0.4l-0.2,0.2v0.7l-0.4,0.2v-0.7l-0.5,0.4v0.7l-0.4,0.2v-0.5l-0.3,0.2v0.5l-0.4,0.4l-0.2-0.5l-0.5,0.4
					V55l-0.4,0.2L48,54.7L47.7,55v0.5l-0.4,0.4v-0.5l-0.5,0.4v0.5L46.4,56.3z M52.1,53.9v0.4L46.6,58v-0.2L52.1,53.9z M52,74.4
					l-5.8,3.5L46,77.5l6-3.6V74.4z M52,73l-6.3,3.8l-0.2-0.5l6.5-4L52,73z M45.5,75.7l-0.3-0.7l6.5-3.6l0.4,0.5L45.5,75.7z
					 M52.2,57.4L49.6,59v1.6c0,0,0.8-0.4,1,0.7l-0.4,0.5V62h0.2l0.2,0.4h0.2v0.5l0.2,0.2l0,7.6l-0.4,0.4v0.2l-2.3,1.4l0.2-7.9h0.2
					v-0.2l0.2-0.2v-0.2h-0.2V64h0.2v-0.2l-0.5-0.2c0,0-0.4-1,0.9-2.6v-1.5L47,60.8l-0.2-0.7l5.4-3.5L52.2,57.4z M52.2,55.9L52.1,56
					l-4.9,3.3l-0.5-1l5.5-3.7l0.2,0.2L52.2,55.9z"/>
			</g>
		</g>
	</g>
	<path id="Path_2864" class="st4" d="M1138.7,787.5c-12,20.8-38.6,27.9-59.3,15.9c-0.4-0.3-0.9-0.5-1.3-0.8
		c19.7,10.5,44.2,3,54.7-16.8c10.5-19.7,3-44.2-16.8-54.7c-18.7-9.9-42-3.7-53.3,14.3c0.2-0.4,0.5-0.9,0.7-1.3
		c12-20.8,38.6-27.9,59.3-15.9S1150.7,766.8,1138.7,787.5"/>
</g>
</svg>
