<?xml version="1.0" encoding="utf-8"?>
<!-- Generator: Adobe Illustrator 27.0.0, SVG Export Plug-In . SVG Version: 6.00 Build 0)  -->
<svg version="1.1" id="Layer_1" xmlns="http://www.w3.org/2000/svg" xmlns:xlink="http://www.w3.org/1999/xlink" x="0px" y="0px"
	 viewBox="0 0 114.8 114.8" style="enable-background:new 0 0 114.8 114.8;" xml:space="preserve">
<style type="text/css">
	.st0{fill:#FFC300;}
	.st1{fill:#FFFFFF;}
	.st2{fill-rule:evenodd;clip-rule:evenodd;fill:#FFC300;}
	.st3{fill-rule:evenodd;clip-rule:evenodd;fill:#0B48E4;}
	.st4{clip-path:url(#SVGID_00000121975199747545009990000003867262060439868087_);fill:#0C125D;}
</style>
<g id="Group_3525" transform="translate(-216.014 -709)">
	<path id="Path_2865" class="st0" d="M273.4,822.2c-0.3,0-0.7,0-1,0c-0.4,0-0.7-0.3-0.7-0.8c0-0.4,0.3-0.7,0.8-0.7c0.7,0,1.3,0,2,0
		c0.4,0,0.8,0.3,0.8,0.7c0,0.4-0.3,0.8-0.7,0.8C274.1,822.2,273.7,822.2,273.4,822.2z M277.4,822c-0.4,0-0.8-0.3-0.8-0.7
		c0-0.4,0.3-0.8,0.7-0.8l0,0c0.3,0,0.7-0.1,1-0.1c0.4,0,0.8,0.3,0.8,0.7c0,0.4-0.3,0.8-0.7,0.8C278.1,822,277.8,822,277.4,822
		L277.4,822z M269.4,822L269.4,822c-0.4,0-0.7-0.1-1.1-0.1c-0.4,0-0.7-0.4-0.7-0.8c0-0.4,0.4-0.7,0.8-0.7c0.3,0,0.7,0.1,1,0.1
		c0.4,0,0.7,0.4,0.7,0.8C270.2,821.7,269.8,822.1,269.4,822L269.4,822L269.4,822z M281.4,821.6c-0.4,0-0.7-0.3-0.7-0.8
		c0-0.4,0.3-0.7,0.6-0.7c0.3,0,0.7-0.1,1-0.2c0.4-0.1,0.8,0.2,0.9,0.6s-0.2,0.8-0.6,0.9c0,0,0,0,0,0c-0.3,0.1-0.7,0.1-1,0.2
		C281.4,821.6,281.4,821.6,281.4,821.6L281.4,821.6z M265.4,821.6c0,0-0.1,0-0.1,0c-0.3,0-0.7-0.1-1-0.2c-0.4-0.1-0.7-0.4-0.6-0.9
		c0.1-0.4,0.4-0.7,0.9-0.6c0,0,0,0,0,0c0.3,0.1,0.7,0.1,1,0.2c0.4,0.1,0.7,0.4,0.6,0.9C266.1,821.3,265.8,821.6,265.4,821.6
		L265.4,821.6z M285.3,820.9c-0.4,0-0.7-0.3-0.7-0.8c0-0.4,0.2-0.7,0.6-0.7c0.3-0.1,0.6-0.1,1-0.2c0.4-0.1,0.8,0.1,0.9,0.5
		c0.1,0.4-0.1,0.8-0.5,0.9c0,0,0,0,0,0c-0.3,0.1-0.7,0.2-1,0.2C285.4,820.9,285.4,820.9,285.3,820.9L285.3,820.9z M261.5,820.9
		c-0.1,0-0.1,0-0.2,0c-0.3-0.1-0.7-0.1-1-0.2c-0.4-0.1-0.6-0.5-0.5-0.9c0.1-0.4,0.5-0.6,0.9-0.5c0.3,0.1,0.6,0.2,1,0.2
		c0.4,0.1,0.7,0.5,0.6,0.9C262.1,820.6,261.8,820.9,261.5,820.9z M289.2,819.9c-0.4,0-0.8-0.3-0.8-0.7c0-0.3,0.2-0.6,0.5-0.7
		c0.3-0.1,0.6-0.2,0.9-0.3c0.4-0.1,0.8,0.1,0.9,0.5c0.1,0.4-0.1,0.8-0.5,0.9c-0.3,0.1-0.6,0.2-1,0.3
		C289.3,819.9,289.2,819.9,289.2,819.9z M257.6,819.9c-0.1,0-0.1,0-0.2,0c-0.3-0.1-0.6-0.2-1-0.3c-0.4-0.1-0.6-0.5-0.5-0.9
		c0.1-0.4,0.5-0.6,0.9-0.5c0.3,0.1,0.6,0.2,0.9,0.3c0.4,0.1,0.6,0.5,0.5,0.9C258.2,819.7,258,819.9,257.6,819.9z M293,818.6
		c-0.4,0-0.8-0.3-0.8-0.7c0-0.3,0.2-0.6,0.5-0.7c0.3-0.1,0.6-0.2,0.9-0.4c0.4-0.1,0.8,0.1,1,0.4c0.1,0.4,0,0.8-0.4,1
		c-0.3,0.1-0.6,0.2-0.9,0.4C293.1,818.6,293.1,818.6,293,818.6L293,818.6z M253.8,818.6c-0.1,0-0.2,0-0.3,0
		c-0.3-0.1-0.6-0.2-0.9-0.4c-0.4-0.2-0.6-0.6-0.4-1c0.2-0.4,0.6-0.5,1-0.4c0.3,0.1,0.6,0.2,0.9,0.4c0.4,0.1,0.6,0.6,0.4,1
		C254.4,818.4,254.1,818.6,253.8,818.6L253.8,818.6z M296.6,817c-0.4,0-0.7-0.3-0.7-0.8c0-0.3,0.2-0.6,0.4-0.7
		c0.3-0.1,0.6-0.3,0.9-0.4c0.4-0.2,0.8,0,1,0.3s0,0.8-0.3,1c-0.3,0.1-0.6,0.3-0.9,0.4C296.9,817,296.8,817,296.6,817z M250.2,817
		c-0.1,0-0.2,0-0.3-0.1c-0.3-0.1-0.6-0.3-0.9-0.4c-0.4-0.2-0.5-0.6-0.3-1s0.6-0.5,1-0.3l0,0c0.3,0.1,0.6,0.3,0.9,0.4
		c0.4,0.2,0.5,0.6,0.4,1C250.7,816.9,250.4,817,250.2,817L250.2,817z M300.2,815.2c-0.4,0-0.7-0.3-0.7-0.8c0-0.3,0.1-0.5,0.4-0.6
		c0.3-0.2,0.6-0.3,0.9-0.5c0.4-0.2,0.8-0.1,1,0.3c0.2,0.4,0.1,0.8-0.3,1c-0.3,0.2-0.6,0.3-0.9,0.5
		C300.5,815.2,300.3,815.2,300.2,815.2L300.2,815.2z M246.6,815.2c-0.1,0-0.3,0-0.4-0.1c-0.3-0.2-0.6-0.3-0.9-0.5
		c-0.4-0.2-0.5-0.7-0.3-1c0.2-0.4,0.7-0.5,1-0.3c0.3,0.2,0.6,0.3,0.9,0.5c0.4,0.2,0.5,0.7,0.3,1
		C247.1,815.1,246.9,815.2,246.6,815.2L246.6,815.2z M303.6,813.1c-0.4,0-0.8-0.3-0.8-0.7c0-0.3,0.1-0.5,0.3-0.6
		c0.3-0.2,0.5-0.4,0.8-0.6c0.3-0.2,0.8-0.1,1,0.2c0.2,0.3,0.1,0.8-0.2,1c-0.3,0.2-0.6,0.4-0.8,0.6
		C303.9,813.1,303.8,813.1,303.6,813.1L303.6,813.1z M243.2,813.1c-0.1,0-0.3,0-0.4-0.1c-0.3-0.2-0.6-0.4-0.8-0.6
		c-0.3-0.2-0.4-0.7-0.2-1c0.2-0.3,0.7-0.4,1-0.2c0.3,0.2,0.5,0.4,0.8,0.6c0.3,0.2,0.4,0.7,0.2,1C243.7,813,243.4,813.1,243.2,813.1
		L243.2,813.1z M306.9,810.8c-0.4,0-0.8-0.3-0.8-0.7c0-0.2,0.1-0.5,0.3-0.6c0.3-0.2,0.5-0.4,0.8-0.6c0.3-0.3,0.8-0.2,1.1,0.1
		c0.3,0.3,0.2,0.8-0.1,1.1l0,0c-0.3,0.2-0.5,0.4-0.8,0.6C307.2,810.8,307,810.8,306.9,810.8L306.9,810.8z M239.9,810.8
		c-0.2,0-0.3-0.1-0.5-0.2c-0.3-0.2-0.5-0.4-0.8-0.6c-0.3-0.3-0.4-0.7-0.1-1.1c0.3-0.3,0.7-0.4,1.1-0.1c0.3,0.2,0.5,0.4,0.8,0.6
		c0.3,0.3,0.4,0.7,0.1,1.1C240.4,810.7,240.2,810.8,239.9,810.8L239.9,810.8z M309.9,808.3c-0.4,0-0.8-0.3-0.8-0.8
		c0-0.2,0.1-0.4,0.2-0.6c0.2-0.2,0.5-0.4,0.7-0.7c0.3-0.3,0.8-0.2,1.1,0.1c0.3,0.3,0.2,0.8,0,1c-0.2,0.2-0.5,0.5-0.8,0.7
		C310.3,808.2,310.1,808.3,309.9,808.3z M236.8,808.3c-0.2,0-0.4-0.1-0.5-0.2c-0.3-0.2-0.5-0.5-0.8-0.7c-0.3-0.3-0.3-0.8,0-1.1
		c0.3-0.3,0.7-0.3,1,0c0.2,0.2,0.5,0.4,0.7,0.7c0.3,0.3,0.3,0.8,0.1,1.1C237.3,808.2,237.1,808.3,236.8,808.3L236.8,808.3z
		 M312.8,805.5c-0.4,0-0.8-0.3-0.8-0.7c0-0.2,0.1-0.4,0.2-0.5c0.2-0.2,0.5-0.5,0.7-0.7c0.3-0.3,0.8-0.3,1.1,0s0.3,0.8,0,1.1
		c-0.2,0.2-0.5,0.5-0.7,0.7C313.2,805.4,313,805.5,312.8,805.5z M234,805.5c-0.2,0-0.4-0.1-0.5-0.2c-0.2-0.2-0.5-0.5-0.7-0.7
		c-0.3-0.3-0.3-0.8,0-1.1c0.3-0.3,0.8-0.3,1.1,0c0.2,0.2,0.5,0.5,0.7,0.7c0.3,0.3,0.3,0.8,0,1.1C234.3,805.4,234.2,805.5,234,805.5
		L234,805.5z M315.5,802.5c-0.4,0-0.8-0.3-0.8-0.7c0-0.2,0.1-0.3,0.2-0.5c0.2-0.3,0.4-0.5,0.6-0.8c0.3-0.3,0.7-0.4,1.1-0.1
		s0.4,0.7,0.1,1.1c0,0,0,0,0,0c-0.2,0.3-0.4,0.5-0.6,0.8C315.9,802.4,315.7,802.5,315.5,802.5L315.5,802.5z M231.3,802.5
		c-0.2,0-0.4-0.1-0.6-0.3c-0.2-0.3-0.4-0.5-0.6-0.8c-0.3-0.3-0.2-0.8,0.1-1.1c0.3-0.3,0.8-0.2,1.1,0.1c0,0,0,0,0,0
		c0.2,0.3,0.4,0.5,0.6,0.8c0.3,0.3,0.2,0.8-0.1,1.1C231.6,802.4,231.5,802.5,231.3,802.5L231.3,802.5z M318,799.4
		c-0.4,0-0.7-0.3-0.7-0.8c0-0.2,0-0.3,0.1-0.4c0.2-0.3,0.4-0.5,0.6-0.8c0.2-0.3,0.7-0.4,1-0.2c0.3,0.2,0.4,0.7,0.2,1
		c-0.2,0.3-0.4,0.6-0.6,0.8C318.4,799.2,318.2,799.4,318,799.4L318,799.4z M228.8,799.4c-0.2,0-0.5-0.1-0.6-0.3
		c-0.2-0.3-0.4-0.6-0.6-0.8c-0.2-0.3-0.2-0.8,0.2-1c0.3-0.2,0.8-0.2,1,0.2l0,0c0.2,0.3,0.4,0.5,0.6,0.8c0.2,0.3,0.2,0.8-0.2,1
		C229.1,799.3,229,799.4,228.8,799.4z M320.2,796c-0.4,0-0.8-0.3-0.8-0.7c0-0.1,0-0.3,0.1-0.4c0.2-0.3,0.3-0.6,0.5-0.8
		c0.2-0.4,0.7-0.5,1-0.2c0.3,0.2,0.5,0.7,0.3,1c-0.2,0.3-0.3,0.6-0.5,0.9C320.7,795.9,320.4,796,320.2,796L320.2,796z M226.6,796
		c-0.3,0-0.5-0.1-0.6-0.4c-0.2-0.3-0.4-0.6-0.5-0.9c-0.2-0.4-0.1-0.8,0.3-1s0.8-0.1,1,0.3c0.2,0.3,0.3,0.6,0.5,0.8
		c0.2,0.4,0.1,0.8-0.2,1C226.9,796,226.8,796,226.6,796L226.6,796z M322.2,792.6c-0.4,0-0.8-0.3-0.8-0.7c0-0.1,0-0.2,0.1-0.4
		c0.2-0.3,0.3-0.6,0.4-0.9c0.2-0.4,0.6-0.5,1-0.3c0.4,0.2,0.5,0.6,0.3,1l0,0c-0.1,0.3-0.3,0.6-0.5,0.9
		C322.7,792.4,322.4,792.5,322.2,792.6L322.2,792.6z M224.6,792.6c-0.3,0-0.5-0.2-0.7-0.4c-0.2-0.3-0.3-0.6-0.5-0.9
		c-0.2-0.4,0-0.8,0.3-1c0.4-0.2,0.8,0,1,0.3c0.1,0.3,0.3,0.6,0.4,0.9c0.2,0.4,0.1,0.8-0.3,1C224.9,792.5,224.8,792.6,224.6,792.6
		L224.6,792.6z M323.9,788.9c-0.4,0-0.7-0.3-0.7-0.8c0-0.1,0-0.2,0.1-0.3c0.1-0.3,0.3-0.6,0.4-0.9c0.2-0.4,0.6-0.6,1-0.4
		c0.4,0.2,0.6,0.6,0.4,1c-0.1,0.3-0.3,0.6-0.4,0.9C324.4,788.8,324.2,788.9,323.9,788.9L323.9,788.9z M222.9,788.9
		c-0.3,0-0.6-0.2-0.7-0.5c-0.1-0.3-0.3-0.6-0.4-0.9c-0.2-0.4,0-0.8,0.4-1s0.8,0,1,0.4c0.1,0.3,0.3,0.6,0.4,0.9c0.2,0.4,0,0.8-0.4,1
		C223.1,788.9,223,788.9,222.9,788.9z M325.3,785.2c-0.4,0-0.8-0.3-0.7-0.8c0-0.1,0-0.2,0-0.2c0.1-0.3,0.2-0.6,0.3-0.9
		c0.1-0.4,0.6-0.6,0.9-0.5c0.4,0.1,0.6,0.6,0.5,0.9l0,0c-0.1,0.3-0.2,0.6-0.3,1C325.9,785,325.6,785.2,325.3,785.2L325.3,785.2z
		 M221.5,785.2c-0.3,0-0.6-0.2-0.7-0.5c-0.1-0.3-0.2-0.6-0.3-1c-0.1-0.4,0.1-0.8,0.5-0.9c0.4-0.1,0.8,0.1,0.9,0.5
		c0.1,0.3,0.2,0.6,0.3,0.9c0.1,0.4-0.1,0.8-0.5,1C221.7,785.2,221.6,785.2,221.5,785.2L221.5,785.2z M326.5,781.4
		c-0.4,0-0.8-0.3-0.7-0.8c0-0.1,0-0.1,0-0.2c0.1-0.3,0.2-0.6,0.2-1c0.1-0.4,0.5-0.6,0.9-0.5c0.4,0.1,0.6,0.5,0.5,0.9
		c-0.1,0.3-0.2,0.7-0.3,1C327.1,781.2,326.8,781.4,326.5,781.4z M220.3,781.4c-0.3,0-0.6-0.2-0.7-0.6c-0.1-0.3-0.2-0.7-0.3-1
		c-0.1-0.4,0.1-0.8,0.5-0.9c0.4-0.1,0.8,0.1,0.9,0.5c0.1,0.3,0.2,0.6,0.2,1c0.1,0.4-0.1,0.8-0.5,0.9
		C220.5,781.4,220.4,781.4,220.3,781.4L220.3,781.4z M327.4,777.5c-0.4,0-0.8-0.3-0.8-0.8c0,0,0-0.1,0-0.1c0.1-0.3,0.1-0.6,0.2-1
		c0.1-0.4,0.5-0.7,0.9-0.6c0.4,0.1,0.7,0.5,0.6,0.9c0,0,0,0,0,0c-0.1,0.3-0.1,0.7-0.2,1C328,777.2,327.7,777.5,327.4,777.5z
		 M219.4,777.5c-0.4,0-0.7-0.3-0.7-0.6c-0.1-0.3-0.1-0.7-0.2-1c-0.1-0.4,0.2-0.8,0.6-0.9c0.4-0.1,0.8,0.2,0.9,0.6c0,0,0,0,0,0
		c0.1,0.3,0.1,0.6,0.2,1c0.1,0.4-0.2,0.8-0.6,0.9C219.5,777.5,219.5,777.5,219.4,777.5L219.4,777.5z M327.9,773.5
		C327.9,773.5,327.9,773.5,327.9,773.5c-0.5,0-0.8-0.4-0.7-0.8c0,0,0,0,0,0c0-0.3,0.1-0.7,0.1-1c0-0.4,0.4-0.7,0.8-0.7
		c0.4,0,0.7,0.4,0.7,0.8c0,0,0,0,0,0c0,0.3-0.1,0.7-0.1,1C328.6,773.2,328.3,773.5,327.9,773.5z M218.8,773.5
		c-0.4,0-0.7-0.3-0.7-0.7c0-0.3-0.1-0.7-0.1-1c0-0.4,0.2-0.8,0.7-0.8c0.4,0,0.8,0.2,0.8,0.7c0,0,0,0,0,0c0,0.3,0.1,0.7,0.1,1
		C219.6,773.1,219.3,773.5,218.8,773.5C218.9,773.5,218.9,773.5,218.8,773.5C218.9,773.5,218.9,773.5,218.8,773.5L218.8,773.5z
		 M328.3,769.5L328.3,769.5c-0.4,0-0.8-0.4-0.8-0.8c0,0,0,0,0,0c0-0.3,0-0.7,0-1c0-0.4,0.4-0.7,0.8-0.7s0.7,0.4,0.7,0.8l0,0
		c0,0.3,0,0.7,0,1C329,769.2,328.7,769.5,328.3,769.5L328.3,769.5z M218.5,769.5c-0.4,0-0.7-0.3-0.7-0.7c0-0.3,0-0.7,0-1
		c0-0.4,0.3-0.8,0.7-0.8c0.4,0,0.8,0.3,0.8,0.7c0,0.3,0,0.7,0,1C219.3,769.2,219,769.5,218.5,769.5
		C218.6,769.5,218.6,769.5,218.5,769.5L218.5,769.5z M328.3,765.5c-0.4,0-0.7-0.3-0.7-0.7c0-0.3,0-0.7,0-1c0-0.4,0.3-0.8,0.7-0.8
		c0.4,0,0.8,0.3,0.8,0.7c0,0.3,0,0.7,0,1C329,765.2,328.7,765.5,328.3,765.5L328.3,765.5z M218.5,765.5L218.5,765.5
		c-0.4,0-0.8-0.4-0.8-0.8c0-0.3,0-0.7,0-1c0-0.4,0.4-0.7,0.8-0.7c0.4,0,0.7,0.4,0.7,0.8c0,0.3,0,0.7,0,1
		C219.3,765.2,218.9,765.5,218.5,765.5z M328,761.5c-0.4,0-0.7-0.3-0.7-0.7c0-0.3-0.1-0.7-0.1-1c-0.1-0.4,0.2-0.8,0.7-0.8
		c0.4-0.1,0.8,0.2,0.8,0.7c0,0.3,0.1,0.7,0.1,1C328.8,761.1,328.5,761.5,328,761.5C328.1,761.5,328,761.5,328,761.5L328,761.5z
		 M218.8,761.5C218.8,761.5,218.7,761.5,218.8,761.5c-0.5,0-0.8-0.4-0.7-0.8c0,0,0,0,0,0c0-0.3,0.1-0.7,0.1-1
		c0.1-0.4,0.4-0.7,0.8-0.7c0.4,0.1,0.7,0.4,0.7,0.8c0,0.3-0.1,0.7-0.1,1C219.5,761.3,219.2,761.5,218.8,761.5L218.8,761.5z
		 M327.4,757.6c-0.4,0-0.7-0.3-0.7-0.6c-0.1-0.3-0.1-0.6-0.2-1c-0.1-0.4,0.2-0.8,0.6-0.9c0.4-0.1,0.8,0.2,0.9,0.6
		c0.1,0.3,0.1,0.7,0.2,1c0.1,0.4-0.2,0.8-0.6,0.9C327.5,757.6,327.5,757.6,327.4,757.6L327.4,757.6z M219.4,757.6
		c-0.4,0-0.8-0.3-0.8-0.8c0,0,0-0.1,0-0.1c0.1-0.3,0.1-0.7,0.2-1c0.1-0.4,0.5-0.7,0.9-0.6c0.4,0.1,0.7,0.5,0.6,0.9
		c-0.1,0.3-0.1,0.6-0.2,1C220,757.3,219.7,757.6,219.4,757.6z M326.6,753.7c-0.3,0-0.6-0.2-0.7-0.6c-0.1-0.3-0.2-0.6-0.3-1
		c-0.1-0.4,0.1-0.8,0.5-0.9c0.4-0.1,0.8,0.1,0.9,0.5c0.1,0.3,0.2,0.7,0.3,1c0.1,0.4-0.1,0.8-0.5,0.9
		C326.7,753.7,326.7,753.7,326.6,753.7L326.6,753.7z M220.2,753.7c-0.4,0-0.8-0.3-0.8-0.8c0-0.1,0-0.1,0-0.2c0.1-0.3,0.2-0.7,0.3-1
		c0.1-0.4,0.5-0.6,0.9-0.5c0.4,0.1,0.6,0.5,0.5,0.9l0,0c-0.1,0.3-0.2,0.6-0.3,1C220.8,753.4,220.5,753.7,220.2,753.7L220.2,753.7z
		 M325.5,749.8c-0.3,0-0.6-0.2-0.7-0.5c-0.1-0.3-0.2-0.6-0.3-0.9c-0.1-0.4,0.1-0.8,0.5-0.9c0.4-0.1,0.8,0.1,0.9,0.4
		c0.1,0.3,0.2,0.6,0.3,1c0.1,0.4-0.1,0.8-0.5,0.9C325.6,749.8,325.6,749.8,325.5,749.8L325.5,749.8z M221.3,749.8
		c-0.4,0-0.8-0.3-0.7-0.8c0-0.1,0-0.2,0-0.2c0.1-0.3,0.2-0.6,0.3-1c0.1-0.4,0.5-0.6,0.9-0.5c0.4,0.1,0.6,0.5,0.5,0.9c0,0,0,0,0,0.1
		c-0.1,0.3-0.2,0.6-0.3,0.9C221.9,749.6,221.7,749.8,221.3,749.8L221.3,749.8z M324.1,746.1c-0.3,0-0.6-0.2-0.7-0.5
		c-0.1-0.3-0.3-0.6-0.4-0.9c-0.1-0.4,0-0.8,0.4-1c0.4-0.1,0.8,0,0.9,0.4c0.1,0.3,0.3,0.6,0.4,0.9c0.2,0.4,0,0.8-0.4,1
		C324.3,746.1,324.2,746.1,324.1,746.1L324.1,746.1z M222.7,746.1c-0.4,0-0.7-0.3-0.7-0.8c0-0.1,0-0.2,0.1-0.3
		c0.1-0.3,0.3-0.6,0.4-0.9c0.2-0.4,0.6-0.5,1-0.3c0.3,0.2,0.5,0.6,0.4,0.9c-0.1,0.3-0.3,0.6-0.4,0.9
		C223.3,745.9,223,746.1,222.7,746.1L222.7,746.1z M322.4,742.5c-0.3,0-0.5-0.2-0.7-0.4c-0.1-0.3-0.3-0.6-0.5-0.9
		c-0.2-0.4,0-0.8,0.4-1c0.4-0.2,0.8,0,1,0.3c0.2,0.3,0.3,0.6,0.5,0.9c0.2,0.4,0,0.8-0.3,1C322.6,742.4,322.5,742.5,322.4,742.5
		L322.4,742.5z M224.4,742.5c-0.4,0-0.8-0.3-0.8-0.7c0-0.1,0-0.2,0.1-0.4c0.2-0.3,0.3-0.6,0.5-0.9c0.2-0.4,0.7-0.5,1-0.3
		c0.3,0.2,0.5,0.6,0.3,1c-0.2,0.3-0.3,0.6-0.5,0.9C225,742.3,224.7,742.5,224.4,742.5L224.4,742.5z M320.5,739
		c-0.3,0-0.5-0.1-0.6-0.4c-0.2-0.3-0.3-0.6-0.5-0.8c-0.2-0.4-0.1-0.8,0.2-1c0.4-0.2,0.8-0.1,1,0.2c0.2,0.3,0.4,0.6,0.5,0.9
		c0.2,0.4,0.1,0.8-0.3,1C320.7,738.9,320.6,739,320.5,739L320.5,739z M226.4,739c-0.4,0-0.7-0.3-0.7-0.8c0-0.1,0-0.3,0.1-0.4
		c0.2-0.3,0.4-0.6,0.5-0.9c0.2-0.4,0.7-0.5,1-0.2c0.4,0.2,0.5,0.7,0.2,1c-0.2,0.3-0.3,0.6-0.5,0.8C226.9,738.8,226.6,739,226.4,739
		L226.4,739z M318.3,735.6c-0.2,0-0.5-0.1-0.6-0.3c-0.2-0.3-0.4-0.5-0.6-0.8c-0.2-0.3-0.2-0.8,0.2-1c0.3-0.2,0.8-0.2,1,0.2
		c0.2,0.3,0.4,0.5,0.6,0.8c0.2,0.3,0.2,0.8-0.2,1C318.6,735.6,318.4,735.6,318.3,735.6z M228.5,735.6c-0.4,0-0.7-0.3-0.7-0.8
		c0-0.2,0-0.3,0.1-0.4c0.2-0.3,0.4-0.6,0.6-0.8c0.2-0.3,0.7-0.4,1-0.2c0.3,0.2,0.4,0.7,0.2,1c-0.2,0.3-0.4,0.5-0.6,0.8
		C229,735.5,228.8,735.6,228.5,735.6L228.5,735.6z M315.8,732.4c-0.2,0-0.4-0.1-0.6-0.3c-0.2-0.3-0.4-0.5-0.6-0.8
		c-0.3-0.3-0.3-0.8,0.1-1.1c0.3-0.3,0.8-0.3,1.1,0.1c0,0,0,0,0,0c0.2,0.3,0.4,0.5,0.7,0.8c0.3,0.3,0.2,0.8-0.1,1.1
		C316.2,732.4,316,732.4,315.8,732.4z M231,732.4c-0.4,0-0.7-0.3-0.7-0.8c0-0.2,0.1-0.3,0.2-0.5c0.2-0.3,0.4-0.5,0.7-0.8
		c0.3-0.3,0.7-0.4,1.1-0.1s0.4,0.7,0.1,1.1c0,0,0,0,0,0c-0.2,0.2-0.4,0.5-0.6,0.8C231.4,732.3,231.2,732.4,231,732.4L231,732.4z
		 M313.2,729.5c-0.2,0-0.4-0.1-0.5-0.2c-0.2-0.2-0.5-0.5-0.7-0.7c-0.3-0.3-0.3-0.8,0-1.1c0.3-0.3,0.8-0.3,1,0
		c0.2,0.2,0.5,0.5,0.7,0.7c0.3,0.3,0.3,0.8,0,1.1C313.6,729.4,313.4,729.5,313.2,729.5L313.2,729.5z M233.6,729.5
		c-0.4,0-0.7-0.3-0.7-0.8c0-0.2,0.1-0.4,0.2-0.5c0.2-0.2,0.5-0.5,0.7-0.7c0.3-0.3,0.7-0.4,1.1-0.1c0.3,0.3,0.4,0.7,0.1,1.1
		c0,0-0.1,0.1-0.1,0.1c-0.2,0.2-0.5,0.5-0.7,0.7C234,729.4,233.8,729.4,233.6,729.5L233.6,729.5z M310.3,726.7
		c-0.2,0-0.4-0.1-0.5-0.2c-0.2-0.2-0.5-0.4-0.7-0.7c-0.3-0.3-0.3-0.7-0.1-1.1c0.3-0.3,0.7-0.3,1.1-0.1c0.3,0.2,0.5,0.4,0.8,0.7
		c0.3,0.3,0.3,0.8,0,1.1C310.7,726.6,310.5,726.6,310.3,726.7L310.3,726.7z M236.5,726.7c-0.4,0-0.7-0.3-0.7-0.8
		c0-0.2,0.1-0.4,0.2-0.5c0.2-0.2,0.5-0.5,0.8-0.7c0.3-0.3,0.8-0.2,1.1,0.1c0.3,0.3,0.2,0.8-0.1,1.1l0,0c-0.2,0.2-0.5,0.4-0.7,0.7
		C236.8,726.6,236.7,726.7,236.5,726.7L236.5,726.7z M307.3,724.1c-0.2,0-0.3-0.1-0.5-0.2c-0.3-0.2-0.5-0.4-0.8-0.6
		c-0.3-0.2-0.4-0.7-0.1-1c0.2-0.3,0.7-0.4,1.1-0.2c0.3,0.2,0.5,0.4,0.8,0.6c0.3,0.3,0.4,0.7,0.1,1.1
		C307.7,724,307.5,724.1,307.3,724.1L307.3,724.1z M239.5,724.1c-0.4,0-0.8-0.3-0.8-0.7c0-0.2,0.1-0.4,0.3-0.6
		c0.3-0.2,0.5-0.4,0.8-0.6c0.3-0.2,0.8-0.2,1.1,0.1s0.2,0.8-0.1,1.1c0,0,0,0,0,0c-0.3,0.2-0.5,0.4-0.8,0.6
		C239.9,724,239.7,724.1,239.5,724.1L239.5,724.1z M304,721.7c-0.1,0-0.3,0-0.4-0.1c-0.3-0.2-0.5-0.4-0.8-0.5
		c-0.4-0.2-0.5-0.7-0.2-1c0.2-0.4,0.7-0.5,1-0.2l0,0c0.3,0.2,0.6,0.4,0.8,0.6c0.3,0.2,0.4,0.7,0.2,1
		C304.5,721.6,304.3,721.7,304,721.7L304,721.7z M242.8,721.7c-0.4,0-0.8-0.3-0.8-0.7c0-0.2,0.1-0.5,0.3-0.6
		c0.3-0.2,0.6-0.4,0.8-0.6c0.3-0.2,0.8-0.1,1,0.2c0.2,0.3,0.1,0.8-0.2,1c0,0,0,0,0,0c-0.3,0.2-0.6,0.4-0.8,0.5
		C243.1,721.7,242.9,721.7,242.8,721.7L242.8,721.7z M300.6,719.6c-0.1,0-0.3,0-0.4-0.1c-0.3-0.2-0.6-0.3-0.9-0.5
		c-0.4-0.2-0.5-0.6-0.3-1s0.6-0.5,1-0.3c0,0,0,0,0,0c0.3,0.2,0.6,0.3,0.9,0.5c0.4,0.2,0.5,0.7,0.3,1
		C301.2,719.5,300.9,719.6,300.6,719.6L300.6,719.6z M246.2,719.6c-0.4,0-0.7-0.3-0.7-0.8c0-0.3,0.1-0.5,0.4-0.6
		c0.3-0.2,0.6-0.3,0.9-0.5c0.4-0.2,0.8,0,1,0.3c0.2,0.4,0.1,0.8-0.3,1c-0.3,0.2-0.6,0.3-0.9,0.5
		C246.4,719.6,246.3,719.6,246.2,719.6L246.2,719.6z M297.1,717.7c-0.1,0-0.2,0-0.3-0.1c-0.3-0.1-0.6-0.3-0.9-0.4
		c-0.4-0.2-0.5-0.6-0.3-1c0.2-0.4,0.6-0.5,1-0.4c0.3,0.1,0.6,0.3,0.9,0.4c0.4,0.2,0.5,0.6,0.4,1
		C297.7,717.6,297.4,717.7,297.1,717.7L297.1,717.7z M249.7,717.7c-0.4,0-0.8-0.3-0.8-0.7c0-0.3,0.2-0.6,0.4-0.7
		c0.3-0.1,0.6-0.3,0.9-0.4c0.4-0.2,0.8,0,1,0.4c0.2,0.4,0,0.8-0.4,1c-0.3,0.1-0.6,0.3-0.9,0.4C249.9,717.7,249.8,717.7,249.7,717.7
		L249.7,717.7z M293.4,716.1c-0.1,0-0.2,0-0.3-0.1c-0.3-0.1-0.6-0.2-0.9-0.4c-0.4-0.1-0.6-0.6-0.5-1s0.6-0.6,1-0.5c0,0,0,0,0,0
		c0.3,0.1,0.6,0.2,0.9,0.4c0.4,0.2,0.6,0.6,0.4,1C294,716,293.7,716.1,293.4,716.1L293.4,716.1z M253.4,716.1
		c-0.4,0-0.7-0.3-0.7-0.8c0-0.3,0.2-0.6,0.5-0.7c0.3-0.1,0.6-0.2,0.9-0.4c0.4-0.1,0.8,0.1,1,0.5c0.1,0.4-0.1,0.8-0.4,0.9
		c-0.3,0.1-0.6,0.2-0.9,0.4C253.6,716.1,253.5,716.1,253.4,716.1L253.4,716.1z M289.7,714.8c-0.1,0-0.2,0-0.2,0
		c-0.3-0.1-0.6-0.2-0.9-0.3c-0.4-0.1-0.6-0.5-0.5-0.9c0.1-0.4,0.5-0.6,0.9-0.5c0.3,0.1,0.6,0.2,1,0.3c0.4,0.1,0.6,0.5,0.5,0.9
		C290.3,714.6,290,714.8,289.7,714.8L289.7,714.8z M257.1,714.8c-0.4,0-0.8-0.3-0.8-0.7c0-0.3,0.2-0.6,0.5-0.7
		c0.3-0.1,0.6-0.2,1-0.3c0.4-0.1,0.8,0.1,0.9,0.5c0.1,0.4-0.1,0.8-0.5,0.9l0,0c-0.3,0.1-0.6,0.2-0.9,0.3
		C257.3,714.8,257.2,714.8,257.1,714.8L257.1,714.8z M285.8,713.8c-0.1,0-0.1,0-0.2,0c-0.3-0.1-0.6-0.1-1-0.2
		c-0.4-0.1-0.7-0.5-0.6-0.9c0.1-0.4,0.5-0.7,0.9-0.6c0.3,0.1,0.7,0.1,1,0.2c0.4,0.1,0.7,0.5,0.6,0.9
		C286.4,713.5,286.1,713.8,285.8,713.8z M261,713.8c-0.4,0-0.8-0.3-0.8-0.7c0-0.3,0.2-0.7,0.6-0.7c0.3-0.1,0.7-0.1,1-0.2
		c0.4-0.1,0.8,0.2,0.9,0.6c0.1,0.4-0.2,0.8-0.6,0.9c-0.3,0.1-0.6,0.1-1,0.2C261.1,713.8,261.1,713.8,261,713.8L261,713.8z
		 M281.9,713c0,0-0.1,0-0.1,0c-0.3,0-0.7-0.1-1-0.1c-0.4-0.1-0.7-0.5-0.6-0.9c0.1-0.4,0.4-0.7,0.8-0.6c0.3,0,0.7,0.1,1,0.1
		c0.4,0.1,0.7,0.4,0.6,0.9C282.5,712.8,282.2,713,281.9,713L281.9,713z M264.9,713c-0.4,0-0.7-0.3-0.7-0.8c0-0.4,0.3-0.7,0.6-0.7
		c0.3-0.1,0.7-0.1,1-0.1c0.4-0.1,0.8,0.2,0.8,0.6s-0.2,0.8-0.6,0.8c-0.3,0-0.7,0.1-1,0.1C265,713,265,713,264.9,713z M277.9,712.6
		L277.9,712.6c-0.4,0-0.7,0-1-0.1c-0.4,0-0.7-0.4-0.7-0.8c0-0.4,0.4-0.7,0.8-0.7c0.3,0,0.7,0,1,0.1c0.4,0,0.7,0.4,0.7,0.8
		C278.7,712.3,278.3,712.6,277.9,712.6L277.9,712.6z M268.9,712.6c-0.4,0-0.8-0.3-0.8-0.7c0-0.4,0.3-0.8,0.7-0.8
		c0.3,0,0.7-0.1,1-0.1c0.4,0,0.8,0.3,0.8,0.7c0,0.4-0.3,0.8-0.7,0.8C269.6,712.5,269.3,712.5,268.9,712.6L268.9,712.6z M273.9,712.4
		L273.9,712.4c-0.3,0-0.7,0-1,0c-0.4,0-0.8-0.3-0.8-0.7s0.3-0.8,0.7-0.8c0.3,0,0.7,0,1,0c0.4,0,0.7,0.3,0.7,0.8
		C274.7,712,274.3,712.4,273.9,712.4L273.9,712.4z"/>
	<path id="Path_2867" class="st1" d="M276.9,807.9c23.3,0,42.3-18.9,42.3-42.3c0-23.3-18.9-42.3-42.3-42.3
		c-23.3,0-42.3,18.9-42.3,42.3C234.6,789,253.6,807.9,276.9,807.9"/>
	<path id="Path_2868" class="st2" d="M317,792c-13.9,24.1-44.6,32.3-68.7,18.4s-32.3-44.6-18.4-68.7c13.9-24.1,44.6-32.3,68.7-18.4
		c0.5,0.3,1,0.6,1.5,0.9c-22.9-12.1-51.2-3.4-63.4,19.4s-3.4,51.2,19.4,63.4c21.7,11.5,48.7,4.3,61.7-16.5
		C317.5,791,317.3,791.5,317,792"/>
	<path id="Path_2881" class="st3" d="M315.7,787.4c-12,20.8-38.6,27.9-59.3,15.9c-0.4-0.3-0.9-0.5-1.3-0.8
		c19.7,10.5,44.2,3,54.7-16.8c10.5-19.7,3-44.2-16.8-54.7c-18.7-9.9-42-3.7-53.3,14.3c0.2-0.4,0.5-0.9,0.7-1.3
		c12-20.8,38.6-27.9,59.3-15.9S327.7,766.6,315.7,787.4"/>
	<g>
		<defs>
			<path id="SVGID_1_" d="M249.3,740.9c15-15,39.2-15,54.2,0c15,15,15,39.2,0,54.2s-39.2,15-54.2,0c0,0,0,0,0,0
				C234.4,780.1,234.4,755.9,249.3,740.9z"/>
		</defs>
		<clipPath id="SVGID_00000103254834152031308260000004720239717912002950_">
			<use xlink:href="#SVGID_1_"  style="overflow:visible;"/>
		</clipPath>
		<path style="clip-path:url(#SVGID_00000103254834152031308260000004720239717912002950_);fill:#0C125D;" d="M309.2,790
			c-0.2-0.8-1-1.2-1.7-1c-1.1,0-2.2-0.1-3.2-0.4c-0.4-0.1-0.5-0.1-0.7-0.2c-0.2-0.1-0.4-0.1-1.2-0.4c-3.8-1.3-7.4-3.3-10.4-5.9
			c2.1-3.9,3.4-8.3,3.7-12.8c0-0.2,0-0.3,0.1-0.5c0.1,0,0.3-0.1,0.5-0.1c1.3,0,2.3-1,2.4-2.3c0,0,0-0.1,0-0.1c0-1-0.7-2.3-2.7-2.3
			H292c-1.1,0-4.2,0-6.9-0.1H285c-0.1,0-0.1,0-0.2,0c-1.2,0-2.2,1-2.2,2.3c0,0.9,0.5,1.8,1.3,2.3c0.1,0,0.1,0.1,0.2,0.1h0
			c0,0,0.1,0,0.1,0l0.1,0l0,0l0,0l0.8,0.3c0.1,0,0.3,0.1,0.4,0.1c0.4,0,0.9,0.1,1.3,0.2c0.1,0,0.1,0,0.2,0.1c0.1,0,0.3,0.1,0.4,0.1
			c0.1,0.1,0.3,0.1,0.7,0.3c0.1,0,0.2,0,0.3,0.1l0,0c0.4,0.4,0.8,1,0.7,3.4c-0.2,1.8-0.8,3.5-1.7,5.1c-9.3-8.3-16.5-15.3-20.8-20.2
			c-3.2-3.7-3.3-5.7-3.1-7.2c0,0,0,0,0,0c0.5-2.8,2.4-4.7,4.8-4.8c3.3-0.1,6.4,3.3,8,6.8c0.2,1,1,1.8,2,2.1c0.1,0,0.2,0,0.3,0
			c1.1,0,2.1-0.8,2.1-2l0.1-6.7c0,0,0,0,0,0c0-0.1,0-0.1,0-0.2c0.1-0.9-0.1-1.8-0.7-2.5c-0.4-0.4-1-0.6-1.6-0.6
			c-0.6,0-1.2,0.3-1.5,0.7l-0.3-0.1c-2.1-1-4.4-1.6-6.8-1.7c-6.5-0.5-11.3,2.5-12.6,7.8c-1.1,4-0.3,8.2,2.1,11.5
			c-2.2,0.6-4.2,1.8-5.8,3.5c-2.9,3.1-4.5,7.3-4.3,11.6c0,5.3,2.4,10.4,6.5,13.8c4.1,3.3,9.2,5.1,14.4,5v0
			c6.5,0.1,12.8-2.5,17.4-7.1c3.2,2.7,7,4.6,11.1,5.4c3.2,0.6,7.5,0.2,9.6-1.7C309.2,791.1,309.4,790.5,309.2,790z M262.6,765.4h0.5
			l0.1,0c0.1,0.1,0.2,0.1,0.2,0.1c0.4,0.4,1.1,1,1.9,1.9c3.4,3.3,10.2,10,17.8,16.5c-0.6,0.5-1.2,1-1.9,1.4c-7,4.4-16.1,3.4-22-2.3
			c-2.5-2.7-3.7-6.3-3.3-9.9c0,0,0,0,0,0C256.3,770.1,259.1,765.6,262.6,765.4z"/>
	</g>
</g>
</svg>
