<svg xmlns="http://www.w3.org/2000/svg" width="84.557" height="84.557" data-name="Group 1359"><defs><clipPath id="a"><path fill="none" d="M0 42.278A42.279 42.279 0 1 0 42.278 0 42.279 42.279 0 0 0 0 42.278" data-name="Path 2863"/></clipPath></defs><g clip-path="url(#a)" data-name="Group 1358"><path fill="#0c125d" d="m64.36 87.077-19.579-5.435v.618l18.776 5.249.618 1.05-19.394-5.25v.432l18.961 5.435v.186c-.432.185-.617.432-1.05.432l-18.158-4.817v.618l17.109 4.633c-.433.185-.8.432-1.236.617l-15.873-4.2v.618l15.07 3.953a16.237 16.237 0 0 0-1.667.617l-13.222-3.335v.432l12.6 3.336c-.618.185-1.05.432-1.668.617l-10.932-2.717v.432l9.511 2.532c-.8.186-1.42.433-2.285.618l-7.226-1.915v.618l6.176 1.482c-1.049.186-2.285.433-3.335.618l-3.088-1.05v.618l1.668.432a27.866 27.866 0 0 1-3.954.185h-.432l.065-15.688 21.68 5.682 3.336-2.47 1.235-1.421-25.571-7.72-3.52 1.852-4.942-.862V67.93l1.853.618v.185l3.521.618 2.1-1.05v.185l.8-.432.617-.185 1.236.432.185-.186 8.647 2.9.186.432 1.235.185.185-.185 8.029 2.285.186-.185 1.05.432.8-.617-.618-.186v-.432l-.432-.185-.185-.186c-.186-.185-.433-.185-.433-.432v-.432c0-.186.185-.186.433-.433a1.72 1.72 0 0 0 .432-.8c0-.186 0-.618-.185-.618a.182.182 0 0 0-.186-.186.181.181 0 0 1-.185-.185v-.432a.685.685 0 0 0 .185-.433c0-.185 0-1.05-.185-1.235h-.432c-.186 0-.186.185-.186.8s0 .432.186.8v.622c-.186.185 0 .185-.186.185 0 0-.432.185-.432.432v1.05l.432.433c.186.185.186 0 .186.432 0 .618 0 .432-.186.432-.185.186 0 0-.432.186l-7.227-1.915v-.432l-1.42-.433-.185.186-7.659-2.533V64.78l11.982 3.583 1.235-.618-13.211-3.953v-1.05l8.894 2.718v-.433l-8.894-2.9v-3.518l8.894 2.9v-.8l-8.894-2.9v-1.05l8.894 2.9v-.8l-8.894-2.9v-.618l9.079 2.9.433-1.05-9.512-3.15.371-.926 9.882 3.335.8 2.286.432-.433-1.05-2.718-2.9-1.049v-.627l-.189-.185.062-8.647.185-.185-.185-.185v-.185l.185-.186-.185-.185.185-.185.433-.186-1.236-.617a5.087 5.087 0 0 0-.185-1.421 5.48 5.48 0 0 0-2.471-3.088l.186-.618-1.232-.427v.618c-1.421-.433-2.285.432-2.717 2.47l-.8-.185h-.186l-.185-5.189 7.659 3.336 1.235 4.323.433-.432-1.236-5.374v-.185l.186-.8.432-.432-.432-.185.432-.618.618.185.184-.185v-.185l-1.049-.433-1.05 1.05-.8-.185.617-.618.433.186.432-.433-.8-.432-1.235.8-.617-.185.617-.618.617.185.433-.185-.8-.432-1.235 1.05-.8-.186.8-.617.185-.433.186-.185-.8-.432-1.235.8-.8-.186.8-.617.432.185.433-.432-1.05-.433-1.236.8-.617-.185.617-.618.433.186.432-.186-1.05-.432-1.235.8-.618-.433.618-.617.432.185.432-.432-1.235-.618v-.426l9.248 3.951.185.617v.186l.988 5.373.186-.618-.988-6.176-9.7-3.953v-.185l9.882 3.953.988 6.176h.185l-.984-6.424-1.42-.618-.433-2.282-9.512-3.77-.185-.618 6.424 2.533-.618-.618-5.991-2.285-.186-1.05-.185-.618 4.941 2.1.186-.8-4.756-2.1-.186-.432 4.509 1.668-.432-.8-4.324-1.852-.185-.618 4.138 1.66-.432-.8-3.895-1.67-.433-1.853 3.521 1.235-.432-.8-3.274-1.236-.185-.432 3.088 1.05-.432-.618-2.653-1.052-.185-.618 1.852.618-.185-.432-1.235-.432v-.8l.432-.433-.185-.8a1.527 1.527 0 0 1-1.05-1.05s.185-.8 0-1.05c-.185-.432-.432-.432-.432-.8a1.3 1.3 0 0 0-.247-2.47.433.433 0 0 0 0-.865.186.186 0 0 0 0-.371V2.983l-.433-.006v4.486a.464.464 0 0 0-.432.432.181.181 0 0 0 .185.185.465.465 0 0 0-.432.433.952.952 0 0 0 .185.432 1.306 1.306 0 0 0-1.05 1.235 1.42 1.42 0 0 0 .8 1.236v.617s-.8.433-.185 1.05a1.579 1.579 0 0 1-1.235 1.235l.185.8.185.185v.617a10.058 10.058 0 0 0-2.285 1.853 7.148 7.148 0 0 0-1.668 2.656 22.034 22.034 0 0 1-2.285 5.131c-.186.185-2.1 3.088-2.285 3.52-.433.433-3.706 2.656-3.706 2.656l.432 1.668.185-.186v.191l-2.717 1.42 2.038 6.177h.432l.185.618.433.432v2.033l-.8.8.618 1.668-.061 8.652-.618.617v.183l-2.285 1.42L25.572 62v1.421l-.185.185.185.432.185.185-.185.8-.185.186v.185l.185.185-.433 1.43-2.47 1.235 1.235 2.718v.8l-5.558 2.841v-.618c0-.185.185-.185.432-.432a5.311 5.311 0 0 0 .185-.8c0-.185-.185-.618-.185-.8l-.432-.444v-.186l.185-.185v-.429a5.281 5.281 0 0 0-.185-.8.185.185 0 0 0-.371 0 3.634 3.634 0 0 0 0 1.42v.18a.682.682 0 0 1-.433.185c-.185.185-.432.432-.432.618v.617a.955.955 0 0 0 .432.618c.186.185 0 .432.186.618s0 .185-.433.432c-.185.185 0 .185-.185.432l-.618.433v.432h.186v.432l-.186.186.186.185v4.142l-.186.618-5.991-2.532s-.238 3.05-.276 3.626a46.157 46.157 0 0 0 54.358 7.073 192.06 192.06 0 0 1-.223-2.547M45.46 47.3l.157-.315v-.157l.525-.368-.682-.157c.157-.367.367-1.574 1.574-1.417l.525.367v-.157a4.06 4.06 0 0 1 1.574 2.467h-.157v1.574h.157l-.052 7.558h-.157v.524l-3.309-1.049v-.682l-.157-.368-.158-7.347.315-.264Zm-.682 0-.053 7.558-.157.682H44.2v-.525l-.157-.157-.158-7.715Zm-6.036-2.939v.157h.682v-.157a1.946 1.946 0 0 1 1.942 1.784h-.525v.158l.263.315v.367l.157.158v.366h.154v8.24l-4.2.315v-.368l-.21-.314v-.368l-.157-7.715h.157v-.367l.158-.158v-.157l.157-.158v-.157h-.525a2.2 2.2 0 0 1 1.942-1.942m-5.352-7.242.157.158-6.14 4.2-.158-.367Zm-4.57 4.671-.157-.524-.368.367v.525l-.367.157v-.525l-.368.21-.157-.367 6.35-3.989v.366l-.21.157v.682l-.367.158v-.682l-.525.367v.682l-.368.158v-.522l-.314.21v.525l-.368.367-.157-.525-.525.367v.525l-.367.158-.158-.525-.367.367v.525l-.368.367v-.524l-.525.367v.525Zm5.616-2.414v.368l-5.459 3.673v-.157Zm-.053 20.521-5.826 3.464-.157-.368 5.983-3.621Zm0-1.417-6.346 3.83-.158-.525 6.508-3.988Zm-6.508 2.624-.315-.735 6.46-3.621.367.525Zm6.718-18.212-2.624 1.575v1.574s.839-.367 1.049.683l-.367.525v.161h.157l.158.368h.157v.524l.158.158-.049 7.55-.367.368v.157l-2.309 1.417.21-7.872h.154v-.158l.158-.157v-.155h-.158v-.157h.158v-.158l-.525-.157s-.368-1.05.892-2.624v-1.522l-2.1 1.207-.157-.682 5.406-3.517Zm0-1.574-.157.157-4.934 3.307-.525-1.05 5.459-3.674.157.158Z" data-name="Path 2862"/></g></svg>