<?xml version="1.0" encoding="utf-8"?>
<!-- Generator: Adobe Illustrator 27.0.0, SVG Export Plug-In . SVG Version: 6.00 Build 0)  -->
<svg version="1.1" id="Layer_2_00000160884261286924950940000013667107421653019268_"
	 xmlns="http://www.w3.org/2000/svg" xmlns:xlink="http://www.w3.org/1999/xlink" x="0px" y="0px" viewBox="0 0 1314.7 219.6"
	 style="enable-background:new 0 0 1314.7 219.6;" xml:space="preserve">
<style type="text/css">
	.st0{clip-path:url(#SVGID_00000048492466419432338710000017634036663875595908_);}
	.st1{clip-path:url(#SVGID_00000047047793061939557910000014583355390746795143_);}
	.st2{fill:none;stroke:#000000;stroke-width:2;stroke-linecap:round;stroke-linejoin:round;}
</style>
<g>
	<defs>
		<rect id="SVGID_1_" x="0.6" width="1314.1" height="219.6"/>
	</defs>
	<clipPath id="SVGID_00000140007399424496520180000002219027731068810918_">
		<use xlink:href="#SVGID_1_"  style="overflow:visible;"/>
	</clipPath>
	<g id="Layer_1-2" style="clip-path:url(#SVGID_00000140007399424496520180000002219027731068810918_);">
		<g>
			<defs>
				<rect id="SVGID_00000073001587420099226540000006891530293286926492_" x="-60.2" y="-36.6" width="1440" height="493.3"/>
			</defs>
			<clipPath id="SVGID_00000003785300802000087680000007062349490041823419_">
				<use xlink:href="#SVGID_00000073001587420099226540000006891530293286926492_"  style="overflow:visible;"/>
			</clipPath>
			<g style="clip-path:url(#SVGID_00000003785300802000087680000007062349490041823419_);">
				<g>
					<g>
						<g>
							<g>
								<path class="st2" d="M-61,603.2V373.8c0.1-7.8,0.8-14.1,7.2-21.7c7.8-9.3,25.6-20.8,25.6-20.8s18,11.6,25.8,20.8
									c6.4,7.6,7.1,13.9,7.2,21.6v229.5L-61,603.2L-61,603.2z"/>
								<line class="st2" x1="-56.8" y1="387.3" x2="0.6" y2="387.3"/>
								<line class="st2" x1="-56.8" y1="423.9" x2="0.6" y2="423.9"/>
								<line class="st2" x1="-56.8" y1="460.5" x2="0.6" y2="460.5"/>
								<line class="st2" x1="-56.8" y1="497.1" x2="0.6" y2="497.1"/>
								<line class="st2" x1="-56.8" y1="533.7" x2="0.6" y2="533.7"/>
								<line class="st2" x1="-56.8" y1="570.3" x2="0.6" y2="570.3"/>
								<path class="st2" d="M-56.8,598.8V376.6c0-7.4,0.7-13.5,6.3-20.8c6.8-8.9,22.4-18.5,22.4-18.5s15.7,9.7,22.5,18.5
									c5.6,7.3,6.2,13.3,6.3,20.7v222.3L-56.8,598.8L-56.8,598.8z"/>
								<path class="st2" d="M-42.5,347.6c3.1,2.6,6,5.4,8.1,8.1c5.6,7.3,6.2,13.3,6.3,20.7v222.3"/>
								<path class="st2" d="M-13.7,347.6c-3.1,2.6-6,5.4-8.1,8.1c-5.6,7.3-6.2,13.3-6.3,20.7v222.3"/>
							</g>
							<g>
								<path class="st2" d="M-61,370.7V154c0.1-7.8,0.8-14.1,7.2-21.7c7.8-9.3,25.6-20.8,25.6-20.8s18,11.6,25.8,20.8
									c6.4,7.6,7.1,13.9,7.2,21.6v216.8"/>
								<line class="st2" x1="-56.8" y1="167.5" x2="0.6" y2="167.5"/>
								<line class="st2" x1="-56.8" y1="204.1" x2="0.6" y2="204.1"/>
								<line class="st2" x1="-56.8" y1="240.7" x2="0.6" y2="240.7"/>
								<line class="st2" x1="-56.8" y1="277.3" x2="0.6" y2="277.3"/>
								<line class="st2" x1="-56.8" y1="313.9" x2="0.6" y2="313.9"/>
								<path class="st2" d="M-56.8,356.2V156.8c0-7.4,0.7-13.5,6.3-20.8c6.8-8.9,22.4-18.5,22.4-18.5s15.7,9.7,22.5,18.5
									c5.6,7.3,6.2,13.3,6.3,24.5v195.6"/>
								<path class="st2" d="M-42.5,127.9c3.1,2.6,6,5.4,8.1,8.1c5.6,7.3,6.2,13.3,6.3,20.7"/>
								<path class="st2" d="M-13.7,127.9c-3.1,2.6-6,5.4-8.1,8.1c-5.6,7.3-6.2,13.3-6.3,20.7v174.6"/>
							</g>
							<g>
								<path class="st2" d="M-61,150.4V-66.3c0.1-7.8,0.8-14.1,7.2-21.7c7.8-9.3,25.6-20.8,25.6-20.8s18,11.6,25.8,20.8
									C4-80.4,4.7-74.1,4.8-66.4v216.8"/>
								<line class="st2" x1="-56.8" y1="-52.8" x2="0.6" y2="-52.8"/>
								<line class="st2" x1="-56.8" y1="-16.2" x2="0.6" y2="-16.2"/>
								<line class="st2" x1="-56.8" y1="20.4" x2="0.6" y2="20.4"/>
								<line class="st2" x1="-56.8" y1="57" x2="0.6" y2="57"/>
								<line class="st2" x1="-56.8" y1="93.6" x2="0.6" y2="93.6"/>
								<path class="st2" d="M-56.8,135.9V-63.5c0-7.4,0.7-13.5,6.3-20.8c6.8-8.9,22.4-18.6,22.4-18.6s15.7,9.7,22.5,18.6
									C-0.1-77,0.5-71,0.6-59.8v195.6"/>
								<path class="st2" d="M-42.5-92.5c3.1,2.6,6,5.4,8.1,8.1c5.6,7.3,6.2,13.3,6.3,20.7"/>
								<path class="st2" d="M-13.7-92.5c-3.1,2.6-6,5.4-8.1,8.1c-5.6,7.3-6.2,13.3-6.3,20.7V111"/>
							</g>
						</g>
						<g>
							<g>
								<path class="st2" d="M4.8,493V263.5c0.1-7.8,0.8-14.1,7.2-21.7c7.8-9.3,25.6-20.9,25.6-20.9s18,11.6,25.8,20.9
									c6.4,7.6,7.1,13.9,7.2,21.6V493L4.8,493L4.8,493z"/>
								<line class="st2" x1="9" y1="277" x2="66.4" y2="277"/>
								<line class="st2" x1="9" y1="313.6" x2="66.4" y2="313.6"/>
								<line class="st2" x1="9" y1="350.2" x2="66.4" y2="350.2"/>
								<line class="st2" x1="9" y1="386.8" x2="66.4" y2="386.8"/>
								<line class="st2" x1="9" y1="423.4" x2="66.4" y2="423.4"/>
								<line class="st2" x1="9" y1="460" x2="66.4" y2="460"/>
								<path class="st2" d="M9,488.5V266.3c0.1-7.4,0.7-13.5,6.3-20.8c6.8-8.9,22.3-18.5,22.3-18.5s15.7,9.7,22.5,18.5
									c5.6,7.3,6.2,13.3,6.3,20.7v222.3L9,488.5L9,488.5z"/>
								<path class="st2" d="M23.3,237.4c3.1,2.6,6,5.4,8.1,8.1c5.6,7.3,6.2,13.3,6.3,20.7v222.3"/>
								<path class="st2" d="M52.1,237.4c-3.1,2.6-6,5.4-8.1,8.1c-5.6,7.3-6.2,13.3-6.3,20.7v222.3"/>
							</g>
							<g>
								<path class="st2" d="M4.8,260.5V43.7C4.8,36,5.6,29.6,12,22c7.8-9.3,25.6-20.9,25.6-20.9s18,11.6,25.8,20.9
									c6.4,7.6,7.1,13.9,7.2,21.6v216.8"/>
								<line class="st2" x1="9" y1="57.2" x2="66.4" y2="57.2"/>
								<line class="st2" x1="9" y1="93.8" x2="66.4" y2="93.8"/>
								<line class="st2" x1="9" y1="130.4" x2="66.4" y2="130.4"/>
								<line class="st2" x1="9" y1="167" x2="66.4" y2="167"/>
								<line class="st2" x1="9" y1="203.7" x2="66.4" y2="203.7"/>
								<path class="st2" d="M9,246V46.5C9,39.1,9.7,33,15.2,25.7C22,16.8,37.6,7.2,37.6,7.2s15.7,9.7,22.5,18.6
									c5.6,7.3,6.2,13.3,6.3,24.6v195.6"/>
								<path class="st2" d="M23.3,17.6c3.1,2.6,6,5.4,8.1,8.1c5.6,7.3,6.2,13.3,6.3,20.7"/>
								<path class="st2" d="M52.1,17.6c-3.1,2.6-6,5.4-8.1,8.1C38.4,33,37.7,39,37.7,46.5V221"/>
							</g>
							<g>
								<path class="st2" d="M4.8,40.1v-216.8c0.1-7.8,0.8-14.1,7.2-21.7c7.8-9.3,25.6-20.9,25.6-20.9s18,11.6,25.8,20.9
									c6.4,7.6,7.1,13.9,7.2,21.6V40.1"/>
								<line class="st2" x1="9" y1="-163.1" x2="66.4" y2="-163.1"/>
								<line class="st2" x1="9" y1="-126.5" x2="66.4" y2="-126.5"/>
								<line class="st2" x1="9" y1="-89.9" x2="66.4" y2="-89.9"/>
								<line class="st2" x1="9" y1="-53.3" x2="66.4" y2="-53.3"/>
								<line class="st2" x1="9" y1="-16.7" x2="66.4" y2="-16.7"/>
								<path class="st2" d="M9,25.6v-199.4c0.1-7.4,0.7-13.5,6.3-20.8c6.8-8.9,22.3-18.6,22.3-18.6s15.7,9.7,22.5,18.6
									c5.6,7.3,6.2,13.3,6.3,24.6V25.6"/>
								<path class="st2" d="M23.3-202.7c3.1,2.6,6,5.4,8.1,8.1c5.6,7.3,6.2,13.3,6.3,20.7"/>
								<path class="st2" d="M52.1-202.7c-3.1,2.6-6,5.4-8.1,8.1c-5.6,7.3-6.2,13.3-6.3,20.7V0.7"/>
							</g>
						</g>
					</g>
					<g>
						<g>
							<g>
								<path class="st2" d="M70.6,603.2V373.8c0.1-7.8,0.8-14.1,7.2-21.7c7.8-9.3,25.6-20.8,25.6-20.8s18,11.6,25.8,20.8
									c6.4,7.6,7.1,13.9,7.2,21.6v229.5L70.6,603.2L70.6,603.2z"/>
								<line class="st2" x1="74.8" y1="387.3" x2="132.1" y2="387.3"/>
								<line class="st2" x1="74.8" y1="423.9" x2="132.1" y2="423.9"/>
								<line class="st2" x1="74.8" y1="460.5" x2="132.1" y2="460.5"/>
								<line class="st2" x1="74.8" y1="497.1" x2="132.1" y2="497.1"/>
								<line class="st2" x1="74.8" y1="533.7" x2="132.1" y2="533.7"/>
								<line class="st2" x1="74.8" y1="570.3" x2="132.1" y2="570.3"/>
								<path class="st2" d="M74.7,598.8V376.6c0.1-7.4,0.7-13.5,6.3-20.8c6.8-8.9,22.4-18.5,22.4-18.5s15.7,9.7,22.5,18.5
									c5.6,7.3,6.2,13.3,6.3,20.7v222.3L74.7,598.8L74.7,598.8z"/>
								<path class="st2" d="M89.1,347.6c3.1,2.6,6,5.4,8.1,8.1c5.6,7.3,6.2,13.3,6.3,20.7v222.3"/>
								<path class="st2" d="M117.8,347.6c-3.1,2.6-6,5.4-8.1,8.1c-5.6,7.3-6.2,13.3-6.3,20.7v222.3"/>
							</g>
							<g>
								<path class="st2" d="M70.6,370.7V154c0.1-7.8,0.8-14.1,7.2-21.7c7.8-9.3,25.6-20.8,25.6-20.8s18,11.6,25.8,20.8
									c6.4,7.6,7.1,13.9,7.2,21.6v216.8"/>
								<line class="st2" x1="74.8" y1="167.5" x2="132.1" y2="167.5"/>
								<line class="st2" x1="74.8" y1="204.1" x2="132.1" y2="204.1"/>
								<line class="st2" x1="74.8" y1="240.7" x2="132.1" y2="240.7"/>
								<line class="st2" x1="74.8" y1="277.3" x2="132.1" y2="277.3"/>
								<line class="st2" x1="74.8" y1="313.9" x2="132.1" y2="313.9"/>
								<path class="st2" d="M74.7,356.2V156.8c0.1-7.4,0.7-13.5,6.3-20.8c6.8-8.9,22.4-18.5,22.4-18.5s15.7,9.7,22.5,18.5
									c5.6,7.3,6.2,13.3,6.3,24.5v195.6"/>
								<path class="st2" d="M89.1,127.9c3.1,2.6,6,5.4,8.1,8.1c5.6,7.3,6.2,13.3,6.3,20.7"/>
								<path class="st2" d="M117.8,127.9c-3.1,2.6-6,5.4-8.1,8.1c-5.6,7.3-6.2,13.3-6.3,20.7v174.6"/>
							</g>
							<g>
								<path class="st2" d="M70.6,150.4V-66.3c0.1-7.8,0.8-14.1,7.2-21.7c7.8-9.3,25.6-20.8,25.6-20.8s18,11.6,25.8,20.8
									c6.4,7.6,7.1,13.9,7.2,21.6v216.8"/>
								<line class="st2" x1="74.8" y1="-52.8" x2="132.1" y2="-52.8"/>
								<line class="st2" x1="74.8" y1="-16.2" x2="132.1" y2="-16.2"/>
								<line class="st2" x1="74.8" y1="20.4" x2="132.1" y2="20.4"/>
								<line class="st2" x1="74.8" y1="57" x2="132.1" y2="57"/>
								<line class="st2" x1="74.8" y1="93.6" x2="132.1" y2="93.6"/>
								<path class="st2" d="M74.7,135.9V-63.5C74.8-71,75.4-77,81-84.3c6.8-8.9,22.4-18.6,22.4-18.6s15.7,9.7,22.5,18.6
									c5.6,7.3,6.2,13.3,6.3,24.5v195.6"/>
								<path class="st2" d="M89.1-92.5c3.1,2.6,6,5.4,8.1,8.1c5.6,7.3,6.2,13.3,6.3,20.7"/>
								<path class="st2" d="M117.8-92.5c-3.1,2.6-6,5.4-8.1,8.1c-5.6,7.3-6.2,13.3-6.3,20.7V111"/>
							</g>
						</g>
						<g>
							<g>
								<path class="st2" d="M136.3,493V263.5c0.1-7.8,0.8-14.1,7.2-21.7c7.8-9.3,25.6-20.9,25.6-20.9s18,11.6,25.8,20.9
									c6.4,7.6,7.1,13.9,7.2,21.6V493L136.3,493L136.3,493z"/>
								<line class="st2" x1="140.5" y1="277" x2="197.9" y2="277"/>
								<line class="st2" x1="140.5" y1="313.6" x2="197.9" y2="313.6"/>
								<line class="st2" x1="140.5" y1="350.2" x2="197.9" y2="350.2"/>
								<line class="st2" x1="140.5" y1="386.8" x2="197.9" y2="386.8"/>
								<line class="st2" x1="140.5" y1="423.4" x2="197.9" y2="423.4"/>
								<line class="st2" x1="140.5" y1="460" x2="197.9" y2="460"/>
								<path class="st2" d="M140.5,488.5V266.3c0.1-7.4,0.7-13.5,6.3-20.8c6.8-8.9,22.4-18.5,22.4-18.5s15.7,9.7,22.5,18.5
									c5.6,7.3,6.2,13.3,6.3,20.7v222.3L140.5,488.5L140.5,488.5z"/>
								<path class="st2" d="M154.8,237.4c3.1,2.6,6,5.4,8.1,8.1c5.6,7.3,6.2,13.3,6.3,20.7v222.3"/>
								<path class="st2" d="M183.6,237.4c-3.1,2.6-6,5.4-8.1,8.1c-5.6,7.3-6.2,13.3-6.3,20.7v222.3"/>
							</g>
							<g>
								<path class="st2" d="M136.3,260.5V43.7c0.1-7.8,0.8-14.1,7.2-21.7c7.8-9.3,25.6-20.9,25.6-20.9s18,11.6,25.8,20.9
									c6.4,7.6,7.1,13.9,7.2,21.6v216.8"/>
								<line class="st2" x1="140.5" y1="57.2" x2="197.9" y2="57.2"/>
								<line class="st2" x1="140.5" y1="93.8" x2="197.9" y2="93.8"/>
								<line class="st2" x1="140.5" y1="130.4" x2="197.9" y2="130.4"/>
								<line class="st2" x1="140.5" y1="167" x2="197.9" y2="167"/>
								<line class="st2" x1="140.5" y1="203.7" x2="197.9" y2="203.7"/>
								<path class="st2" d="M140.5,246V46.5c0.1-7.4,0.7-13.5,6.3-20.8c6.8-8.9,22.4-18.6,22.4-18.6s15.7,9.7,22.5,18.6
									c5.6,7.3,6.2,13.3,6.3,24.6v195.6"/>
								<path class="st2" d="M154.8,17.6c3.1,2.6,6,5.4,8.1,8.1c5.6,7.3,6.2,13.3,6.3,20.7"/>
								<path class="st2" d="M183.6,17.6c-3.1,2.6-6,5.4-8.1,8.1c-5.6,7.3-6.2,13.3-6.3,20.7V221"/>
							</g>
							<g>
								<path class="st2" d="M136.3,40.1v-216.8c0.1-7.8,0.8-14.1,7.2-21.7c7.8-9.3,25.6-20.9,25.6-20.9s18,11.6,25.8,20.9
									c6.4,7.6,7.1,13.9,7.2,21.6V40.1"/>
								<line class="st2" x1="140.5" y1="-163.1" x2="197.9" y2="-163.1"/>
								<line class="st2" x1="140.5" y1="-126.5" x2="197.9" y2="-126.5"/>
								<line class="st2" x1="140.5" y1="-89.9" x2="197.9" y2="-89.9"/>
								<line class="st2" x1="140.5" y1="-53.3" x2="197.9" y2="-53.3"/>
								<line class="st2" x1="140.5" y1="-16.7" x2="197.9" y2="-16.7"/>
								<path class="st2" d="M140.5,25.6v-199.4c0.1-7.4,0.7-13.5,6.3-20.8c6.8-8.9,22.4-18.6,22.4-18.6s15.7,9.7,22.5,18.6
									c5.6,7.3,6.2,13.3,6.3,24.6V25.6"/>
								<path class="st2" d="M154.8-202.7c3.1,2.6,6,5.4,8.1,8.1c5.6,7.3,6.2,13.3,6.3,20.7"/>
								<path class="st2" d="M183.6-202.7c-3.1,2.6-6,5.4-8.1,8.1c-5.6,7.3-6.2,13.3-6.3,20.7V0.7"/>
							</g>
						</g>
					</g>
					<g>
						<g>
							<g>
								<path class="st2" d="M202.1,603.2V373.8c0.1-7.8,0.8-14.1,7.2-21.7c7.8-9.3,25.6-20.8,25.6-20.8s18,11.6,25.8,20.8
									c6.4,7.6,7.1,13.9,7.2,21.6v229.5L202.1,603.2L202.1,603.2z"/>
								<line class="st2" x1="206.3" y1="387.3" x2="263.7" y2="387.3"/>
								<line class="st2" x1="206.3" y1="423.9" x2="263.7" y2="423.9"/>
								<line class="st2" x1="206.3" y1="460.5" x2="263.7" y2="460.5"/>
								<line class="st2" x1="206.3" y1="497.1" x2="263.7" y2="497.1"/>
								<line class="st2" x1="206.3" y1="533.7" x2="263.7" y2="533.7"/>
								<line class="st2" x1="206.3" y1="570.3" x2="263.7" y2="570.3"/>
								<path class="st2" d="M206.3,598.8V376.6c0-7.4,0.7-13.5,6.3-20.8c6.8-8.9,22.4-18.5,22.4-18.5s15.7,9.7,22.5,18.5
									c5.6,7.3,6.2,13.3,6.3,20.7v222.3L206.3,598.8L206.3,598.8z"/>
								<path class="st2" d="M220.6,347.6c3.1,2.6,6,5.4,8.1,8.1c5.6,7.3,6.2,13.3,6.3,20.7v222.3"/>
								<path class="st2" d="M249.4,347.6c-3.1,2.6-6,5.4-8.1,8.1c-5.6,7.3-6.2,13.3-6.3,20.7v222.3"/>
							</g>
							<g>
								<path class="st2" d="M202.1,370.7V154c0.1-7.8,0.8-14.1,7.2-21.7c7.8-9.3,25.6-20.8,25.6-20.8s18,11.6,25.8,20.8
									c6.4,7.6,7.1,13.9,7.2,21.6v216.8"/>
								<line class="st2" x1="206.3" y1="167.5" x2="263.7" y2="167.5"/>
								<line class="st2" x1="206.3" y1="204.1" x2="263.7" y2="204.1"/>
								<line class="st2" x1="206.3" y1="240.7" x2="263.7" y2="240.7"/>
								<line class="st2" x1="206.3" y1="277.3" x2="263.7" y2="277.3"/>
								<line class="st2" x1="206.3" y1="313.9" x2="263.7" y2="313.9"/>
								<path class="st2" d="M206.3,356.2V156.8c0-7.4,0.7-13.5,6.3-20.8c6.8-8.9,22.4-18.5,22.4-18.5s15.7,9.7,22.5,18.5
									c5.6,7.3,6.2,13.3,6.3,24.5v195.6"/>
								<path class="st2" d="M220.6,127.9c3.1,2.6,6,5.4,8.1,8.1c5.6,7.3,6.2,13.3,6.3,20.7"/>
								<path class="st2" d="M249.4,127.9c-3.1,2.6-6,5.4-8.1,8.1c-5.6,7.3-6.2,13.3-6.3,20.7v174.6"/>
							</g>
							<g>
								<path class="st2" d="M202.1,150.4V-66.3c0.1-7.8,0.8-14.1,7.2-21.7c7.8-9.3,25.6-20.8,25.6-20.8s18,11.6,25.8,20.8
									c6.4,7.6,7.1,13.9,7.2,21.6v216.8"/>
								<line class="st2" x1="206.3" y1="-52.8" x2="263.7" y2="-52.8"/>
								<line class="st2" x1="206.3" y1="-16.2" x2="263.7" y2="-16.2"/>
								<line class="st2" x1="206.3" y1="20.4" x2="263.7" y2="20.4"/>
								<line class="st2" x1="206.3" y1="57" x2="263.7" y2="57"/>
								<line class="st2" x1="206.3" y1="93.6" x2="263.7" y2="93.6"/>
								<path class="st2" d="M206.3,135.9V-63.5c0-7.4,0.7-13.5,6.3-20.8c6.8-8.9,22.4-18.6,22.4-18.6s15.7,9.7,22.5,18.6
									c5.6,7.3,6.2,13.3,6.3,24.5v195.6"/>
								<path class="st2" d="M220.6-92.5c3.1,2.6,6,5.4,8.1,8.1c5.6,7.3,6.2,13.3,6.3,20.7"/>
								<path class="st2" d="M249.4-92.5c-3.1,2.6-6,5.4-8.1,8.1C235.7-77,235-71,235-63.6V111"/>
							</g>
						</g>
						<g>
							<g>
								<path class="st2" d="M267.9,493V263.5c0.1-7.8,0.8-14.1,7.2-21.7c7.8-9.3,25.6-20.9,25.6-20.9s18,11.6,25.8,20.9
									c6.4,7.6,7.1,13.9,7.2,21.6V493L267.9,493L267.9,493z"/>
								<line class="st2" x1="272.1" y1="277" x2="329.4" y2="277"/>
								<line class="st2" x1="272.1" y1="313.6" x2="329.4" y2="313.6"/>
								<line class="st2" x1="272.1" y1="350.2" x2="329.4" y2="350.2"/>
								<line class="st2" x1="272.1" y1="386.8" x2="329.4" y2="386.8"/>
								<line class="st2" x1="272.1" y1="423.4" x2="329.4" y2="423.4"/>
								<line class="st2" x1="272.1" y1="460" x2="329.4" y2="460"/>
								<path class="st2" d="M272,488.5V266.3c0-7.4,0.7-13.5,6.3-20.8c6.8-8.9,22.4-18.5,22.4-18.5s15.7,9.7,22.5,18.5
									c5.6,7.3,6.2,13.3,6.3,20.7v222.3L272,488.5L272,488.5z"/>
								<path class="st2" d="M286.4,237.4c3.1,2.6,6,5.4,8.1,8.1c5.6,7.3,6.2,13.3,6.3,20.7v222.3"/>
								<path class="st2" d="M315.1,237.4c-3.1,2.6-6,5.4-8.1,8.1c-5.6,7.3-6.2,13.3-6.3,20.7v222.3"/>
							</g>
							<g>
								<path class="st2" d="M267.9,260.5V43.7c0.1-7.8,0.8-14.1,7.2-21.7c7.8-9.3,25.6-20.9,25.6-20.9s18,11.6,25.8,20.9
									c6.4,7.6,7.1,13.9,7.2,21.6v216.8"/>
								<line class="st2" x1="272.1" y1="57.2" x2="329.4" y2="57.2"/>
								<line class="st2" x1="272.1" y1="93.8" x2="329.4" y2="93.8"/>
								<line class="st2" x1="272.1" y1="130.4" x2="329.4" y2="130.4"/>
								<line class="st2" x1="272.1" y1="167" x2="329.4" y2="167"/>
								<line class="st2" x1="272.1" y1="203.7" x2="329.4" y2="203.7"/>
								<path class="st2" d="M272,246V46.5c0-7.4,0.7-13.5,6.3-20.8c6.8-8.9,22.4-18.6,22.4-18.6s15.7,9.7,22.5,18.6
									c5.6,7.3,6.2,13.3,6.3,24.6v195.6"/>
								<path class="st2" d="M286.4,17.6c3.1,2.6,6,5.4,8.1,8.1c5.6,7.3,6.2,13.3,6.3,20.7"/>
								<path class="st2" d="M315.1,17.6c-3.1,2.6-6,5.4-8.1,8.1c-5.6,7.3-6.2,13.3-6.3,20.7V221"/>
							</g>
							<g>
								<path class="st2" d="M267.9,40.1v-216.8c0.1-7.8,0.8-14.1,7.2-21.7c7.8-9.3,25.6-20.9,25.6-20.9s18,11.6,25.8,20.9
									c6.4,7.6,7.1,13.9,7.2,21.6V40.1"/>
								<line class="st2" x1="272.1" y1="-163.1" x2="329.4" y2="-163.1"/>
								<line class="st2" x1="272.1" y1="-126.5" x2="329.4" y2="-126.5"/>
								<line class="st2" x1="272.1" y1="-89.9" x2="329.4" y2="-89.9"/>
								<line class="st2" x1="272.1" y1="-53.3" x2="329.4" y2="-53.3"/>
								<line class="st2" x1="272.1" y1="-16.7" x2="329.4" y2="-16.7"/>
								<path class="st2" d="M272,25.6v-199.4c0-7.4,0.7-13.5,6.3-20.8c6.8-8.9,22.4-18.6,22.4-18.6s15.7,9.7,22.5,18.6
									c5.6,7.3,6.2,13.3,6.3,24.6V25.6"/>
								<path class="st2" d="M286.4-202.7c3.1,2.6,6,5.4,8.1,8.1c5.6,7.3,6.2,13.3,6.3,20.7"/>
								<path class="st2" d="M315.1-202.7c-3.1,2.6-6,5.4-8.1,8.1c-5.6,7.3-6.2,13.3-6.3,20.7V0.7"/>
							</g>
						</g>
					</g>
					<g>
						<g>
							<g>
								<path class="st2" d="M333.6,603.2V373.8c0.1-7.8,0.8-14.1,7.2-21.7c7.8-9.3,25.6-20.8,25.6-20.8s18,11.6,25.8,20.8
									c6.4,7.6,7.1,13.9,7.2,21.6v229.5L333.6,603.2L333.6,603.2z"/>
								<line class="st2" x1="337.9" y1="387.3" x2="395.2" y2="387.3"/>
								<line class="st2" x1="337.9" y1="423.9" x2="395.2" y2="423.9"/>
								<line class="st2" x1="337.9" y1="460.5" x2="395.2" y2="460.5"/>
								<line class="st2" x1="337.9" y1="497.1" x2="395.2" y2="497.1"/>
								<line class="st2" x1="337.9" y1="533.7" x2="395.2" y2="533.7"/>
								<line class="st2" x1="337.9" y1="570.3" x2="395.2" y2="570.3"/>
								<path class="st2" d="M337.8,598.8V376.6c0-7.4,0.7-13.5,6.3-20.8c6.8-8.9,22.4-18.5,22.4-18.5s15.7,9.7,22.5,18.5
									c5.6,7.3,6.2,13.3,6.3,20.7v222.3L337.8,598.8L337.8,598.8z"/>
								<path class="st2" d="M352.1,347.6c3.1,2.6,6,5.4,8.1,8.1c5.6,7.3,6.2,13.3,6.3,20.7v222.3"/>
								<path class="st2" d="M380.9,347.6c-3.1,2.6-6,5.4-8.1,8.1c-5.6,7.3-6.2,13.3-6.3,20.7v222.3"/>
							</g>
							<g>
								<path class="st2" d="M333.6,370.7V154c0.1-7.8,0.8-14.1,7.2-21.7c7.8-9.3,25.6-20.8,25.6-20.8s18,11.6,25.8,20.8
									c6.4,7.6,7.1,13.9,7.2,21.6v216.8"/>
								<line class="st2" x1="337.9" y1="167.5" x2="395.2" y2="167.5"/>
								<line class="st2" x1="337.9" y1="204.1" x2="395.2" y2="204.1"/>
								<line class="st2" x1="337.9" y1="240.7" x2="395.2" y2="240.7"/>
								<line class="st2" x1="337.9" y1="277.3" x2="395.2" y2="277.3"/>
								<line class="st2" x1="337.9" y1="313.9" x2="395.2" y2="313.9"/>
								<path class="st2" d="M337.8,356.2V156.8c0-7.4,0.7-13.5,6.3-20.8c6.8-8.9,22.4-18.5,22.4-18.5s15.7,9.7,22.5,18.5
									c5.6,7.3,6.2,13.3,6.3,24.5v195.6"/>
								<path class="st2" d="M352.1,127.9c3.1,2.6,6,5.4,8.1,8.1c5.6,7.3,6.2,13.3,6.3,20.7"/>
								<path class="st2" d="M380.9,127.9c-3.1,2.6-6,5.4-8.1,8.1c-5.6,7.3-6.2,13.3-6.3,20.7v174.6"/>
							</g>
							<g>
								<path class="st2" d="M333.6,150.4V-66.3c0.1-7.8,0.8-14.1,7.2-21.7c7.8-9.3,25.6-20.8,25.6-20.8s18,11.6,25.8,20.8
									c6.4,7.6,7.1,13.9,7.2,21.6v216.8"/>
								<line class="st2" x1="337.9" y1="-52.8" x2="395.2" y2="-52.8"/>
								<line class="st2" x1="337.9" y1="-16.2" x2="395.2" y2="-16.2"/>
								<line class="st2" x1="337.9" y1="20.4" x2="395.2" y2="20.4"/>
								<line class="st2" x1="337.9" y1="57" x2="395.2" y2="57"/>
								<line class="st2" x1="337.9" y1="93.6" x2="395.2" y2="93.6"/>
								<path class="st2" d="M337.8,135.9V-63.5c0-7.4,0.7-13.5,6.3-20.8c6.8-8.9,22.4-18.6,22.4-18.6s15.7,9.7,22.5,18.6
									c5.6,7.3,6.2,13.3,6.3,24.5v195.6"/>
								<path class="st2" d="M352.1-92.5c3.1,2.6,6,5.4,8.1,8.1c5.6,7.3,6.2,13.3,6.3,20.7"/>
								<path class="st2" d="M380.9-92.5c-3.1,2.6-6,5.4-8.1,8.1c-5.6,7.3-6.2,13.3-6.3,20.7V111"/>
							</g>
						</g>
						<g>
							<g>
								<path class="st2" d="M399.4,493V263.5c0.1-7.8,0.8-14.1,7.2-21.7c7.8-9.3,25.6-20.9,25.6-20.9s18,11.6,25.8,20.9
									c6.4,7.6,7.1,13.9,7.2,21.6V493L399.4,493L399.4,493z"/>
								<line class="st2" x1="403.6" y1="277" x2="461" y2="277"/>
								<line class="st2" x1="403.6" y1="313.6" x2="461" y2="313.6"/>
								<line class="st2" x1="403.6" y1="350.2" x2="461" y2="350.2"/>
								<line class="st2" x1="403.6" y1="386.8" x2="461" y2="386.8"/>
								<line class="st2" x1="403.6" y1="423.4" x2="461" y2="423.4"/>
								<line class="st2" x1="403.6" y1="460" x2="461" y2="460"/>
								<path class="st2" d="M403.6,488.5V266.3c0-7.4,0.7-13.5,6.3-20.8c6.8-8.9,22.4-18.5,22.4-18.5s15.7,9.7,22.5,18.5
									c5.6,7.3,6.2,13.3,6.3,20.7v222.3L403.6,488.5L403.6,488.5z"/>
								<path class="st2" d="M417.9,237.4c3.1,2.6,6,5.4,8.1,8.1c5.6,7.3,6.2,13.3,6.3,20.7v222.3"/>
								<path class="st2" d="M446.7,237.4c-3.1,2.6-6,5.4-8.1,8.1c-5.6,7.3-6.2,13.3-6.3,20.7v222.3"/>
							</g>
							<g>
								<path class="st2" d="M399.4,260.5V43.7c0.1-7.8,0.8-14.1,7.2-21.7c7.8-9.3,25.6-20.9,25.6-20.9s18,11.6,25.8,20.9
									c6.4,7.6,7.1,13.9,7.2,21.6v216.8"/>
								<line class="st2" x1="403.6" y1="57.2" x2="461" y2="57.2"/>
								<line class="st2" x1="403.6" y1="93.8" x2="461" y2="93.8"/>
								<line class="st2" x1="403.6" y1="130.4" x2="461" y2="130.4"/>
								<line class="st2" x1="403.6" y1="167" x2="461" y2="167"/>
								<line class="st2" x1="403.6" y1="203.7" x2="461" y2="203.7"/>
								<path class="st2" d="M403.6,246V46.5c0-7.4,0.7-13.5,6.3-20.8c6.8-8.9,22.4-18.6,22.4-18.6s15.7,9.7,22.5,18.6
									C460.3,33,461,39,461,50.3v195.6"/>
								<path class="st2" d="M417.9,17.6c3.1,2.6,6,5.4,8.1,8.1c5.6,7.3,6.2,13.3,6.3,20.7"/>
								<path class="st2" d="M446.7,17.6c-3.1,2.6-6,5.4-8.1,8.1c-5.6,7.3-6.2,13.3-6.3,20.7V221"/>
							</g>
							<g>
								<path class="st2" d="M399.4,40.1v-216.8c0.1-7.8,0.8-14.1,7.2-21.7c7.8-9.3,25.6-20.9,25.6-20.9s18,11.6,25.8,20.9
									c6.4,7.6,7.1,13.9,7.2,21.6V40.1"/>
								<line class="st2" x1="403.6" y1="-163.1" x2="461" y2="-163.1"/>
								<line class="st2" x1="403.6" y1="-126.5" x2="461" y2="-126.5"/>
								<line class="st2" x1="403.6" y1="-89.9" x2="461" y2="-89.9"/>
								<line class="st2" x1="403.6" y1="-53.3" x2="461" y2="-53.3"/>
								<line class="st2" x1="403.6" y1="-16.7" x2="461" y2="-16.7"/>
								<path class="st2" d="M403.6,25.6v-199.4c0-7.4,0.7-13.5,6.3-20.8c6.8-8.9,22.4-18.6,22.4-18.6s15.7,9.7,22.5,18.6
									c5.6,7.3,6.2,13.3,6.3,24.6V25.6"/>
								<path class="st2" d="M417.9-202.7c3.1,2.6,6,5.4,8.1,8.1c5.6,7.3,6.2,13.3,6.3,20.7"/>
								<path class="st2" d="M446.7-202.7c-3.1,2.6-6,5.4-8.1,8.1c-5.6,7.3-6.2,13.3-6.3,20.7V0.7"/>
							</g>
						</g>
					</g>
					<g>
						<g>
							<g>
								<path class="st2" d="M465.2,603.2V373.8c0.1-7.8,0.8-14.1,7.2-21.7c7.8-9.3,25.6-20.8,25.6-20.8s18,11.6,25.8,20.8
									c6.4,7.6,7.1,13.9,7.2,21.6v229.5L465.2,603.2L465.2,603.2z"/>
								<line class="st2" x1="469.4" y1="387.3" x2="526.8" y2="387.3"/>
								<line class="st2" x1="469.4" y1="423.9" x2="526.8" y2="423.9"/>
								<line class="st2" x1="469.4" y1="460.5" x2="526.8" y2="460.5"/>
								<line class="st2" x1="469.4" y1="497.1" x2="526.8" y2="497.1"/>
								<line class="st2" x1="469.4" y1="533.7" x2="526.8" y2="533.7"/>
								<line class="st2" x1="469.4" y1="570.3" x2="526.8" y2="570.3"/>
								<path class="st2" d="M469.4,598.8V376.6c0-7.4,0.7-13.5,6.3-20.8c6.8-8.9,22.3-18.5,22.3-18.5s15.7,9.7,22.5,18.5
									c5.6,7.3,6.2,13.3,6.3,20.7v222.3L469.4,598.8L469.4,598.8z"/>
								<path class="st2" d="M483.7,347.6c3.1,2.6,6,5.4,8.1,8.1c5.6,7.3,6.2,13.3,6.3,20.7v222.3"/>
								<path class="st2" d="M512.5,347.6c-3.1,2.6-6,5.4-8.1,8.1c-5.6,7.3-6.2,13.3-6.3,20.7v222.3"/>
							</g>
							<g>
								<path class="st2" d="M465.2,370.7V154c0.1-7.8,0.8-14.1,7.2-21.7c7.8-9.3,25.6-20.8,25.6-20.8s18,11.6,25.8,20.8
									c6.4,7.6,7.1,13.9,7.2,21.6v216.8"/>
								<line class="st2" x1="469.4" y1="167.5" x2="526.8" y2="167.5"/>
								<line class="st2" x1="469.4" y1="204.1" x2="526.8" y2="204.1"/>
								<line class="st2" x1="469.4" y1="240.7" x2="526.8" y2="240.7"/>
								<line class="st2" x1="469.4" y1="277.3" x2="526.8" y2="277.3"/>
								<line class="st2" x1="469.4" y1="313.9" x2="526.8" y2="313.9"/>
								<path class="st2" d="M469.4,356.2V156.8c0-7.4,0.7-13.5,6.3-20.8c6.8-8.9,22.3-18.5,22.3-18.5s15.7,9.7,22.5,18.5
									c5.6,7.3,6.2,13.3,6.3,24.5v195.6"/>
								<path class="st2" d="M483.7,127.9c3.1,2.6,6,5.4,8.1,8.1c5.6,7.3,6.2,13.3,6.3,20.7"/>
								<path class="st2" d="M512.5,127.9c-3.1,2.6-6,5.4-8.1,8.1c-5.6,7.3-6.2,13.3-6.3,20.7v174.6"/>
							</g>
							<g>
								<path class="st2" d="M465.2,150.4V-66.3c0.1-7.8,0.8-14.1,7.2-21.7c7.8-9.3,25.6-20.8,25.6-20.8s18,11.6,25.8,20.8
									c6.4,7.6,7.1,13.9,7.2,21.6v216.8"/>
								<line class="st2" x1="469.4" y1="-52.8" x2="526.8" y2="-52.8"/>
								<line class="st2" x1="469.4" y1="-16.2" x2="526.8" y2="-16.2"/>
								<line class="st2" x1="469.4" y1="20.4" x2="526.8" y2="20.4"/>
								<line class="st2" x1="469.4" y1="57" x2="526.8" y2="57"/>
								<line class="st2" x1="469.4" y1="93.6" x2="526.8" y2="93.6"/>
								<path class="st2" d="M469.4,135.9V-63.5c0-7.4,0.7-13.5,6.3-20.8c6.8-8.9,22.3-18.6,22.3-18.6s15.7,9.7,22.5,18.6
									c5.6,7.3,6.2,13.3,6.3,24.5v195.6"/>
								<path class="st2" d="M483.7-92.5c3.1,2.6,6,5.4,8.1,8.1c5.6,7.3,6.2,13.3,6.3,20.7"/>
								<path class="st2" d="M512.5-92.5c-3.1,2.6-6,5.4-8.1,8.1c-5.6,7.3-6.2,13.3-6.3,20.7V111"/>
							</g>
						</g>
						<g>
							<g>
								<path class="st2" d="M531,493V263.5c0.1-7.8,0.8-14.1,7.2-21.7c7.8-9.3,25.6-20.9,25.6-20.9s18,11.6,25.8,20.9
									c6.4,7.6,7.1,13.9,7.2,21.6V493L531,493L531,493z"/>
								<line class="st2" x1="535.2" y1="277" x2="592.5" y2="277"/>
								<line class="st2" x1="535.2" y1="313.6" x2="592.5" y2="313.6"/>
								<line class="st2" x1="535.2" y1="350.2" x2="592.5" y2="350.2"/>
								<line class="st2" x1="535.2" y1="386.8" x2="592.5" y2="386.8"/>
								<line class="st2" x1="535.2" y1="423.4" x2="592.5" y2="423.4"/>
								<line class="st2" x1="535.2" y1="460" x2="592.5" y2="460"/>
								<path class="st2" d="M535.2,488.5V266.3c0-7.4,0.7-13.5,6.3-20.8c6.8-8.9,22.3-18.5,22.3-18.5s15.7,9.7,22.5,18.5
									c5.6,7.3,6.2,13.3,6.3,20.7v222.3L535.2,488.5L535.2,488.5z"/>
								<path class="st2" d="M549.5,237.4c3.1,2.6,6,5.4,8.1,8.1c5.6,7.3,6.2,13.3,6.3,20.7v222.3"/>
								<path class="st2" d="M578.2,237.4c-3.1,2.6-6,5.4-8.1,8.1c-5.6,7.3-6.2,13.3-6.3,20.7v222.3"/>
							</g>
							<g>
								<path class="st2" d="M531,260.5V43.7c0.1-7.8,0.8-14.1,7.2-21.7c7.8-9.3,25.6-20.9,25.6-20.9s18,11.6,25.8,20.9
									c6.4,7.6,7.1,13.9,7.2,21.6v216.8"/>
								<line class="st2" x1="535.2" y1="57.2" x2="592.5" y2="57.2"/>
								<line class="st2" x1="535.2" y1="93.8" x2="592.5" y2="93.8"/>
								<line class="st2" x1="535.2" y1="130.4" x2="592.5" y2="130.4"/>
								<line class="st2" x1="535.2" y1="167" x2="592.5" y2="167"/>
								<line class="st2" x1="535.2" y1="203.7" x2="592.5" y2="203.7"/>
								<path class="st2" d="M535.2,246V46.5c0-7.4,0.7-13.5,6.3-20.8c6.8-8.9,22.3-18.6,22.3-18.6s15.7,9.7,22.5,18.6
									c5.6,7.3,6.2,13.3,6.3,24.6v195.6"/>
								<path class="st2" d="M549.5,17.6c3.1,2.6,6,5.4,8.1,8.1c5.6,7.3,6.2,13.3,6.3,20.7"/>
								<path class="st2" d="M578.2,17.6c-3.1,2.6-6,5.4-8.1,8.1c-5.6,7.3-6.2,13.3-6.3,20.7V221"/>
							</g>
							<g>
								<path class="st2" d="M531,40.1v-216.8c0.1-7.8,0.8-14.1,7.2-21.7c7.8-9.3,25.6-20.9,25.6-20.9s18,11.6,25.8,20.9
									c6.4,7.6,7.1,13.9,7.2,21.6V40.1"/>
								<line class="st2" x1="535.2" y1="-163.1" x2="592.5" y2="-163.1"/>
								<line class="st2" x1="535.2" y1="-126.5" x2="592.5" y2="-126.5"/>
								<line class="st2" x1="535.2" y1="-89.9" x2="592.5" y2="-89.9"/>
								<line class="st2" x1="535.2" y1="-53.3" x2="592.5" y2="-53.3"/>
								<line class="st2" x1="535.2" y1="-16.7" x2="592.5" y2="-16.7"/>
								<path class="st2" d="M535.2,25.6v-199.4c0-7.4,0.7-13.5,6.3-20.8c6.8-8.9,22.3-18.6,22.3-18.6s15.7,9.7,22.5,18.6
									c5.6,7.3,6.2,13.3,6.3,24.6V25.6"/>
								<path class="st2" d="M549.5-202.7c3.1,2.6,6,5.4,8.1,8.1c5.6,7.3,6.2,13.3,6.3,20.7"/>
								<path class="st2" d="M578.2-202.7c-3.1,2.6-6,5.4-8.1,8.1c-5.6,7.3-6.2,13.3-6.3,20.7V0.7"/>
							</g>
						</g>
					</g>
					<g>
						<g>
							<g>
								<path class="st2" d="M596.7,603.2V373.8c0.1-7.8,0.8-14.1,7.2-21.7c7.8-9.3,25.6-20.8,25.6-20.8s18,11.6,25.8,20.8
									c6.4,7.6,7.1,13.9,7.2,21.6v229.5L596.7,603.2L596.7,603.2z"/>
								<line class="st2" x1="601" y1="387.3" x2="658.3" y2="387.3"/>
								<line class="st2" x1="601" y1="423.9" x2="658.3" y2="423.9"/>
								<line class="st2" x1="601" y1="460.5" x2="658.3" y2="460.5"/>
								<line class="st2" x1="601" y1="497.1" x2="658.3" y2="497.1"/>
								<line class="st2" x1="601" y1="533.7" x2="658.3" y2="533.7"/>
								<line class="st2" x1="601" y1="570.3" x2="658.3" y2="570.3"/>
								<path class="st2" d="M600.9,598.8V376.6c0-7.4,0.7-13.5,6.3-20.8c6.8-8.9,22.3-18.5,22.3-18.5s15.7,9.7,22.5,18.5
									c5.6,7.3,6.2,13.3,6.3,20.7v222.3L600.9,598.8L600.9,598.8z"/>
								<path class="st2" d="M615.2,347.6c3.1,2.6,6,5.4,8.1,8.1c5.6,7.3,6.2,13.3,6.3,20.7v222.3"/>
								<path class="st2" d="M644,347.6c-3.1,2.6-6,5.4-8.1,8.1c-5.6,7.3-6.2,13.3-6.3,20.7v222.3"/>
							</g>
							<g>
								<path class="st2" d="M596.7,370.7V154c0.1-7.8,0.8-14.1,7.2-21.7c7.8-9.3,25.6-20.8,25.6-20.8s18,11.6,25.8,20.8
									c6.4,7.6,7.1,13.9,7.2,21.6v216.8"/>
								<line class="st2" x1="601" y1="167.5" x2="658.3" y2="167.5"/>
								<line class="st2" x1="601" y1="204.1" x2="658.3" y2="204.1"/>
								<line class="st2" x1="601" y1="240.7" x2="658.3" y2="240.7"/>
								<line class="st2" x1="601" y1="277.3" x2="658.3" y2="277.3"/>
								<line class="st2" x1="601" y1="313.9" x2="658.3" y2="313.9"/>
								<path class="st2" d="M600.9,356.2V156.8c0-7.4,0.7-13.5,6.3-20.8c6.8-8.9,22.3-18.5,22.3-18.5s15.7,9.7,22.5,18.5
									c5.6,7.3,6.2,13.3,6.3,24.5v195.6"/>
								<path class="st2" d="M615.2,127.9c3.1,2.6,6,5.4,8.1,8.1c5.6,7.3,6.2,13.3,6.3,20.7"/>
								<path class="st2" d="M644,127.9c-3.1,2.6-6,5.4-8.1,8.1c-5.6,7.3-6.2,13.3-6.3,20.7v174.6"/>
							</g>
							<g>
								<path class="st2" d="M596.7,150.4V-66.3c0.1-7.8,0.8-14.1,7.2-21.7c7.8-9.3,25.6-20.8,25.6-20.8s18,11.6,25.8,20.8
									c6.4,7.6,7.1,13.9,7.2,21.6v216.8"/>
								<line class="st2" x1="601" y1="-52.8" x2="658.3" y2="-52.8"/>
								<line class="st2" x1="601" y1="-16.2" x2="658.3" y2="-16.2"/>
								<line class="st2" x1="601" y1="20.4" x2="658.3" y2="20.4"/>
								<line class="st2" x1="601" y1="57" x2="658.3" y2="57"/>
								<line class="st2" x1="601" y1="93.6" x2="658.3" y2="93.6"/>
								<path class="st2" d="M600.9,135.9V-63.5c0-7.4,0.7-13.5,6.3-20.8c6.8-8.9,22.3-18.6,22.3-18.6s15.7,9.7,22.5,18.6
									c5.6,7.3,6.2,13.3,6.3,24.5v195.6"/>
								<path class="st2" d="M615.2-92.5c3.1,2.6,6,5.4,8.1,8.1c5.6,7.3,6.2,13.3,6.3,20.7"/>
								<path class="st2" d="M644-92.5c-3.1,2.6-6,5.4-8.1,8.1c-5.6,7.3-6.2,13.3-6.3,20.7V111"/>
							</g>
						</g>
						<g>
							<g>
								<path class="st2" d="M662.5,493V263.5c0.1-7.8,0.8-14.1,7.2-21.7c7.8-9.3,25.6-20.9,25.6-20.9s18,11.6,25.8,20.9
									c6.4,7.6,7.1,13.9,7.2,21.6V493L662.5,493L662.5,493z"/>
								<line class="st2" x1="666.7" y1="277" x2="724.1" y2="277"/>
								<line class="st2" x1="666.7" y1="313.6" x2="724.1" y2="313.6"/>
								<line class="st2" x1="666.7" y1="350.2" x2="724.1" y2="350.2"/>
								<line class="st2" x1="666.7" y1="386.8" x2="724.1" y2="386.8"/>
								<line class="st2" x1="666.7" y1="423.4" x2="724.1" y2="423.4"/>
								<line class="st2" x1="666.7" y1="460" x2="724.1" y2="460"/>
								<path class="st2" d="M666.7,488.5V266.3c0-7.4,0.7-13.5,6.3-20.8c6.8-8.9,22.3-18.5,22.3-18.5s15.7,9.7,22.5,18.5
									c5.6,7.3,6.2,13.3,6.3,20.7v222.3L666.7,488.5L666.7,488.5z"/>
								<path class="st2" d="M681,237.4c3.1,2.6,6,5.4,8.1,8.1c5.6,7.3,6.2,13.3,6.3,20.7v222.3"/>
								<path class="st2" d="M709.8,237.4c-3.1,2.6-6,5.4-8.1,8.1c-5.6,7.3-6.2,13.3-6.3,20.7v222.3"/>
							</g>
							<g>
								<path class="st2" d="M662.5,260.5V43.7c0.1-7.8,0.8-14.1,7.2-21.7c7.8-9.3,25.6-20.9,25.6-20.9s18,11.6,25.8,20.9
									c6.4,7.6,7.1,13.9,7.2,21.6v216.8"/>
								<line class="st2" x1="666.7" y1="57.2" x2="724.1" y2="57.2"/>
								<line class="st2" x1="666.7" y1="93.8" x2="724.1" y2="93.8"/>
								<line class="st2" x1="666.7" y1="130.4" x2="724.1" y2="130.4"/>
								<line class="st2" x1="666.7" y1="167" x2="724.1" y2="167"/>
								<line class="st2" x1="666.7" y1="203.7" x2="724.1" y2="203.7"/>
								<path class="st2" d="M666.7,246V46.5c0-7.4,0.7-13.5,6.3-20.8c6.8-8.9,22.3-18.6,22.3-18.6s15.7,9.7,22.5,18.6
									c5.6,7.3,6.2,13.3,6.3,24.6v195.6"/>
								<path class="st2" d="M681,17.6c3.1,2.6,6,5.4,8.1,8.1c5.6,7.3,6.2,13.3,6.3,20.7"/>
								<path class="st2" d="M709.8,17.6c-3.1,2.6-6,5.4-8.1,8.1c-5.6,7.3-6.2,13.3-6.3,20.7V221"/>
							</g>
							<g>
								<path class="st2" d="M662.5,40.1v-216.8c0.1-7.8,0.8-14.1,7.2-21.7c7.8-9.3,25.6-20.9,25.6-20.9s18,11.6,25.8,20.9
									c6.4,7.6,7.1,13.9,7.2,21.6V40.1"/>
								<line class="st2" x1="666.7" y1="-163.1" x2="724.1" y2="-163.1"/>
								<line class="st2" x1="666.7" y1="-126.5" x2="724.1" y2="-126.5"/>
								<line class="st2" x1="666.7" y1="-89.9" x2="724.1" y2="-89.9"/>
								<line class="st2" x1="666.7" y1="-53.3" x2="724.1" y2="-53.3"/>
								<line class="st2" x1="666.7" y1="-16.7" x2="724.1" y2="-16.7"/>
								<path class="st2" d="M666.7,25.6v-199.4c0-7.4,0.7-13.5,6.3-20.8c6.8-8.9,22.3-18.6,22.3-18.6s15.7,9.7,22.5,18.6
									c5.6,7.3,6.2,13.3,6.3,24.6V25.6"/>
								<path class="st2" d="M681-202.7c3.1,2.6,6,5.4,8.1,8.1c5.6,7.3,6.2,13.3,6.3,20.7"/>
								<path class="st2" d="M709.8-202.7c-3.1,2.6-6,5.4-8.1,8.1c-5.6,7.3-6.2,13.3-6.3,20.7V0.7"/>
							</g>
						</g>
					</g>
					<g>
						<g>
							<g>
								<path class="st2" d="M728.3,603.2V373.8c0.1-7.8,0.8-14.1,7.2-21.7c7.8-9.3,25.6-20.8,25.6-20.8s18,11.6,25.8,20.8
									c6.4,7.6,7.1,13.9,7.2,21.6v229.5L728.3,603.2L728.3,603.2z"/>
								<line class="st2" x1="732.5" y1="387.3" x2="789.9" y2="387.3"/>
								<line class="st2" x1="732.5" y1="423.9" x2="789.9" y2="423.9"/>
								<line class="st2" x1="732.5" y1="460.5" x2="789.9" y2="460.5"/>
								<line class="st2" x1="732.5" y1="497.1" x2="789.9" y2="497.1"/>
								<line class="st2" x1="732.5" y1="533.7" x2="789.9" y2="533.7"/>
								<line class="st2" x1="732.5" y1="570.3" x2="789.9" y2="570.3"/>
								<path class="st2" d="M732.5,598.8V376.6c0-7.4,0.7-13.5,6.3-20.8c6.8-8.9,22.3-18.5,22.3-18.5s15.7,9.7,22.5,18.5
									c5.6,7.3,6.2,13.3,6.3,20.7v222.3L732.5,598.8L732.5,598.8z"/>
								<path class="st2" d="M746.8,347.6c3.1,2.6,6,5.4,8.1,8.1c5.6,7.3,6.2,13.3,6.3,20.7v222.3"/>
								<path class="st2" d="M775.6,347.6c-3.1,2.6-6,5.4-8.1,8.1c-5.6,7.3-6.2,13.3-6.3,20.7v222.3"/>
							</g>
							<g>
								<path class="st2" d="M728.3,370.7V154c0.1-7.8,0.8-14.1,7.2-21.7c7.8-9.3,25.6-20.8,25.6-20.8s18,11.6,25.8,20.8
									c6.4,7.6,7.1,13.9,7.2,21.6v216.8"/>
								<line class="st2" x1="732.5" y1="167.5" x2="789.9" y2="167.5"/>
								<line class="st2" x1="732.5" y1="204.1" x2="789.9" y2="204.1"/>
								<line class="st2" x1="732.5" y1="240.7" x2="789.9" y2="240.7"/>
								<line class="st2" x1="732.5" y1="277.3" x2="789.9" y2="277.3"/>
								<line class="st2" x1="732.5" y1="313.9" x2="789.9" y2="313.9"/>
								<path class="st2" d="M732.5,356.2V156.8c0-7.4,0.7-13.5,6.3-20.8c6.8-8.9,22.3-18.5,22.3-18.5s15.7,9.7,22.5,18.5
									c5.6,7.3,6.2,13.3,6.3,24.5v195.6"/>
								<path class="st2" d="M746.8,127.9c3.1,2.6,6,5.4,8.1,8.1c5.6,7.3,6.2,13.3,6.3,20.7"/>
								<path class="st2" d="M775.6,127.9c-3.1,2.6-6,5.4-8.1,8.1c-5.6,7.3-6.2,13.3-6.3,20.7v174.6"/>
							</g>
							<g>
								<path class="st2" d="M728.3,150.4V-66.3c0.1-7.8,0.8-14.1,7.2-21.7c7.8-9.3,25.6-20.8,25.6-20.8s18,11.6,25.8,20.8
									c6.4,7.6,7.1,13.9,7.2,21.6v216.8"/>
								<line class="st2" x1="732.5" y1="-52.8" x2="789.9" y2="-52.8"/>
								<line class="st2" x1="732.5" y1="-16.2" x2="789.9" y2="-16.2"/>
								<line class="st2" x1="732.5" y1="20.4" x2="789.9" y2="20.4"/>
								<line class="st2" x1="732.5" y1="57" x2="789.9" y2="57"/>
								<line class="st2" x1="732.5" y1="93.6" x2="789.9" y2="93.6"/>
								<path class="st2" d="M732.5,135.9V-63.5c0-7.4,0.7-13.5,6.3-20.8c6.8-8.9,22.3-18.6,22.3-18.6s15.7,9.7,22.5,18.6
									c5.6,7.3,6.2,13.3,6.3,24.5v195.6"/>
								<path class="st2" d="M746.8-92.5c3.1,2.6,6,5.4,8.1,8.1c5.6,7.3,6.2,13.3,6.3,20.7"/>
								<path class="st2" d="M775.6-92.5c-3.1,2.6-6,5.4-8.1,8.1c-5.6,7.3-6.2,13.3-6.3,20.7V111"/>
							</g>
						</g>
						<g>
							<g>
								<path class="st2" d="M794.1,493V263.5c0.1-7.8,0.8-14.1,7.2-21.7c7.8-9.3,25.6-20.9,25.6-20.9s18,11.6,25.8,20.9
									c6.4,7.6,7.1,13.9,7.2,21.6V493L794.1,493L794.1,493z"/>
								<line class="st2" x1="798.3" y1="277" x2="855.6" y2="277"/>
								<line class="st2" x1="798.3" y1="313.6" x2="855.6" y2="313.6"/>
								<line class="st2" x1="798.3" y1="350.2" x2="855.6" y2="350.2"/>
								<line class="st2" x1="798.3" y1="386.8" x2="855.6" y2="386.8"/>
								<line class="st2" x1="798.3" y1="423.4" x2="855.6" y2="423.4"/>
								<line class="st2" x1="798.3" y1="460" x2="855.6" y2="460"/>
								<path class="st2" d="M798.2,488.5V266.3c0-7.4,0.7-13.5,6.3-20.8c6.8-8.9,22.3-18.5,22.3-18.5s15.7,9.7,22.5,18.5
									c5.6,7.3,6.2,13.3,6.3,20.7v222.3L798.2,488.5L798.2,488.5z"/>
								<path class="st2" d="M812.6,237.4c3.1,2.6,6,5.4,8.1,8.1c5.6,7.3,6.2,13.3,6.3,20.7v222.3"/>
								<path class="st2" d="M841.3,237.4c-3.1,2.6-6,5.4-8.1,8.1c-5.6,7.3-6.2,13.3-6.3,20.7v222.3"/>
							</g>
							<g>
								<path class="st2" d="M794.1,260.5V43.7c0.1-7.8,0.8-14.1,7.2-21.7c7.8-9.3,25.6-20.9,25.6-20.9s18,11.6,25.8,20.9
									c6.4,7.6,7.1,13.9,7.2,21.6v216.8"/>
								<line class="st2" x1="798.3" y1="57.2" x2="855.6" y2="57.2"/>
								<line class="st2" x1="798.3" y1="93.8" x2="855.6" y2="93.8"/>
								<line class="st2" x1="798.3" y1="130.4" x2="855.6" y2="130.4"/>
								<line class="st2" x1="798.3" y1="167" x2="855.6" y2="167"/>
								<line class="st2" x1="798.3" y1="203.7" x2="855.6" y2="203.7"/>
								<path class="st2" d="M798.2,246V46.5c0-7.4,0.7-13.5,6.3-20.8c6.8-8.9,22.3-18.6,22.3-18.6s15.7,9.7,22.5,18.6
									c5.6,7.3,6.2,13.3,6.3,24.6v195.6"/>
								<path class="st2" d="M812.6,17.6c3.1,2.6,6,5.4,8.1,8.1c5.6,7.3,6.2,13.3,6.3,20.7"/>
								<path class="st2" d="M841.3,17.6c-3.1,2.6-6,5.4-8.1,8.1C827.7,33,827,39,827,46.5V221"/>
							</g>
							<g>
								<path class="st2" d="M794.1,40.1v-216.8c0.1-7.8,0.8-14.1,7.2-21.7c7.8-9.3,25.6-20.9,25.6-20.9s18,11.6,25.8,20.9
									c6.4,7.6,7.1,13.9,7.2,21.6V40.1"/>
								<line class="st2" x1="798.3" y1="-163.1" x2="855.6" y2="-163.1"/>
								<line class="st2" x1="798.3" y1="-126.5" x2="855.6" y2="-126.5"/>
								<line class="st2" x1="798.3" y1="-89.9" x2="855.6" y2="-89.9"/>
								<line class="st2" x1="798.3" y1="-53.3" x2="855.6" y2="-53.3"/>
								<line class="st2" x1="798.3" y1="-16.7" x2="855.6" y2="-16.7"/>
								<path class="st2" d="M798.2,25.6v-199.4c0-7.4,0.7-13.5,6.3-20.8c6.8-8.9,22.3-18.6,22.3-18.6s15.7,9.7,22.5,18.6
									c5.6,7.3,6.2,13.3,6.3,24.6V25.6"/>
								<path class="st2" d="M812.6-202.7c3.1,2.6,6,5.4,8.1,8.1c5.6,7.3,6.2,13.3,6.3,20.7"/>
								<path class="st2" d="M841.3-202.7c-3.1,2.6-6,5.4-8.1,8.1c-5.6,7.3-6.2,13.3-6.3,20.7V0.7"/>
							</g>
						</g>
					</g>
					<g>
						<g>
							<g>
								<path class="st2" d="M859.8,603.2V373.8c0.1-7.8,0.8-14.1,7.2-21.7c7.8-9.3,25.6-20.8,25.6-20.8s18,11.6,25.8,20.8
									c6.4,7.6,7.1,13.9,7.2,21.6v229.5L859.8,603.2L859.8,603.2z"/>
								<line class="st2" x1="864" y1="387.3" x2="921.4" y2="387.3"/>
								<line class="st2" x1="864" y1="423.9" x2="921.4" y2="423.9"/>
								<line class="st2" x1="864" y1="460.5" x2="921.4" y2="460.5"/>
								<line class="st2" x1="864" y1="497.1" x2="921.4" y2="497.1"/>
								<line class="st2" x1="864" y1="533.7" x2="921.4" y2="533.7"/>
								<line class="st2" x1="864" y1="570.3" x2="921.4" y2="570.3"/>
								<path class="st2" d="M864,598.8V376.6c0-7.4,0.7-13.5,6.3-20.8c6.8-8.9,22.3-18.5,22.3-18.5s15.7,9.7,22.5,18.5
									c5.6,7.3,6.2,13.3,6.3,20.7v222.3L864,598.8L864,598.8z"/>
								<path class="st2" d="M878.3,347.6c3.1,2.6,6,5.4,8.1,8.1c5.6,7.3,6.2,13.3,6.3,20.7v222.3"/>
								<path class="st2" d="M907.1,347.6c-3.1,2.6-6,5.4-8.1,8.1c-5.6,7.3-6.2,13.3-6.3,20.7v222.3"/>
							</g>
							<g>
								<path class="st2" d="M859.8,370.7V154c0.1-7.8,0.8-14.1,7.2-21.7c7.8-9.3,25.6-20.8,25.6-20.8s18,11.6,25.8,20.8
									c6.4,7.6,7.1,13.9,7.2,21.6v216.8"/>
								<line class="st2" x1="864" y1="167.5" x2="921.4" y2="167.5"/>
								<line class="st2" x1="864" y1="204.1" x2="921.4" y2="204.1"/>
								<line class="st2" x1="864" y1="240.7" x2="921.4" y2="240.7"/>
								<line class="st2" x1="864" y1="277.3" x2="921.4" y2="277.3"/>
								<line class="st2" x1="864" y1="313.9" x2="921.4" y2="313.9"/>
								<path class="st2" d="M864,356.2V156.8c0-7.4,0.7-13.5,6.3-20.8c6.8-8.9,22.3-18.5,22.3-18.5s15.7,9.7,22.5,18.5
									c5.6,7.3,6.2,13.3,6.3,24.5v195.6"/>
								<path class="st2" d="M878.3,127.9c3.1,2.6,6,5.4,8.1,8.1c5.6,7.3,6.2,13.3,6.3,20.7"/>
								<path class="st2" d="M907.1,127.9c-3.1,2.6-6,5.4-8.1,8.1c-5.6,7.3-6.2,13.3-6.3,20.7v174.6"/>
							</g>
							<g>
								<path class="st2" d="M859.8,150.4V-66.3c0.1-7.8,0.8-14.1,7.2-21.7c7.8-9.3,25.6-20.8,25.6-20.8s18,11.6,25.8,20.8
									c6.4,7.6,7.1,13.9,7.2,21.6v216.8"/>
								<line class="st2" x1="864" y1="-52.8" x2="921.4" y2="-52.8"/>
								<line class="st2" x1="864" y1="-16.2" x2="921.4" y2="-16.2"/>
								<line class="st2" x1="864" y1="20.4" x2="921.4" y2="20.4"/>
								<line class="st2" x1="864" y1="57" x2="921.4" y2="57"/>
								<line class="st2" x1="864" y1="93.6" x2="921.4" y2="93.6"/>
								<path class="st2" d="M864,135.9V-63.5c0-7.4,0.7-13.5,6.3-20.8c6.8-8.9,22.3-18.6,22.3-18.6s15.7,9.7,22.5,18.6
									c5.6,7.3,6.2,13.3,6.3,24.5v195.6"/>
								<path class="st2" d="M878.3-92.5c3.1,2.6,6,5.4,8.1,8.1c5.6,7.3,6.2,13.3,6.3,20.7"/>
								<path class="st2" d="M907.1-92.5c-3.1,2.6-6,5.4-8.1,8.1c-5.6,7.3-6.2,13.3-6.3,20.7V111"/>
							</g>
						</g>
						<g>
							<g>
								<path class="st2" d="M925.6,493V263.5c0.1-7.8,0.8-14.1,7.2-21.7c7.8-9.3,25.6-20.9,25.6-20.9s18,11.6,25.8,20.9
									c6.4,7.6,7.1,13.9,7.2,21.6V493L925.6,493L925.6,493z"/>
								<line class="st2" x1="929.8" y1="277" x2="987.2" y2="277"/>
								<line class="st2" x1="929.8" y1="313.6" x2="987.2" y2="313.6"/>
								<line class="st2" x1="929.8" y1="350.2" x2="987.2" y2="350.2"/>
								<line class="st2" x1="929.8" y1="386.8" x2="987.2" y2="386.8"/>
								<line class="st2" x1="929.8" y1="423.4" x2="987.2" y2="423.4"/>
								<line class="st2" x1="929.8" y1="460" x2="987.2" y2="460"/>
								<path class="st2" d="M929.8,488.5V266.3c0-7.4,0.7-13.5,6.3-20.8c6.8-8.9,22.3-18.5,22.3-18.5s15.7,9.7,22.5,18.5
									c5.6,7.3,6.2,13.3,6.3,20.7v222.3L929.8,488.5L929.8,488.5z"/>
								<path class="st2" d="M944.1,237.4c3.1,2.6,6,5.4,8.1,8.1c5.6,7.3,6.2,13.3,6.3,20.7v222.3"/>
								<path class="st2" d="M972.9,237.4c-3.1,2.6-6,5.4-8.1,8.1c-5.6,7.3-6.2,13.3-6.3,20.7v222.3"/>
							</g>
							<g>
								<path class="st2" d="M925.6,260.5V43.7c0.1-7.8,0.8-14.1,7.2-21.7c7.8-9.3,25.6-20.9,25.6-20.9s18,11.6,25.8,20.9
									c6.4,7.6,7.1,13.9,7.2,21.6v216.8"/>
								<line class="st2" x1="929.8" y1="57.2" x2="987.2" y2="57.2"/>
								<line class="st2" x1="929.8" y1="93.8" x2="987.2" y2="93.8"/>
								<line class="st2" x1="929.8" y1="130.4" x2="987.2" y2="130.4"/>
								<line class="st2" x1="929.8" y1="167" x2="987.2" y2="167"/>
								<line class="st2" x1="929.8" y1="203.7" x2="987.2" y2="203.7"/>
								<path class="st2" d="M929.8,246V46.5c0-7.4,0.7-13.5,6.3-20.8c6.8-8.9,22.3-18.6,22.3-18.6s15.7,9.7,22.5,18.6
									c5.6,7.3,6.2,13.3,6.3,24.6v195.6"/>
								<path class="st2" d="M944.1,17.6c3.1,2.6,6,5.4,8.1,8.1c5.6,7.3,6.2,13.3,6.3,20.7"/>
								<path class="st2" d="M972.9,17.6c-3.1,2.6-6,5.4-8.1,8.1c-5.6,7.3-6.2,13.3-6.3,20.7V221"/>
							</g>
							<g>
								<path class="st2" d="M925.6,40.1v-216.8c0.1-7.8,0.8-14.1,7.2-21.7c7.8-9.3,25.6-20.9,25.6-20.9s18,11.6,25.8,20.9
									c6.4,7.6,7.1,13.9,7.2,21.6V40.1"/>
								<line class="st2" x1="929.8" y1="-163.1" x2="987.2" y2="-163.1"/>
								<line class="st2" x1="929.8" y1="-126.5" x2="987.2" y2="-126.5"/>
								<line class="st2" x1="929.8" y1="-89.9" x2="987.2" y2="-89.9"/>
								<line class="st2" x1="929.8" y1="-53.3" x2="987.2" y2="-53.3"/>
								<line class="st2" x1="929.8" y1="-16.7" x2="987.2" y2="-16.7"/>
								<path class="st2" d="M929.8,25.6v-199.4c0-7.4,0.7-13.5,6.3-20.8c6.8-8.9,22.3-18.6,22.3-18.6s15.7,9.7,22.5,18.6
									c5.6,7.3,6.2,13.3,6.3,24.6V25.6"/>
								<path class="st2" d="M944.1-202.7c3.1,2.6,6,5.4,8.1,8.1c5.6,7.3,6.2,13.3,6.3,20.7"/>
								<path class="st2" d="M972.9-202.7c-3.1,2.6-6,5.4-8.1,8.1c-5.6,7.3-6.2,13.3-6.3,20.7V0.7"/>
							</g>
						</g>
					</g>
					<g>
						<g>
							<g>
								<path class="st2" d="M991.4,603.2V373.8c0.1-7.8,0.8-14.1,7.2-21.7c7.8-9.3,25.6-20.8,25.6-20.8s18,11.6,25.8,20.8
									c6.4,7.6,7.1,13.9,7.2,21.6v229.5L991.4,603.2L991.4,603.2z"/>
								<line class="st2" x1="995.6" y1="387.3" x2="1053" y2="387.3"/>
								<line class="st2" x1="995.6" y1="423.9" x2="1053" y2="423.9"/>
								<line class="st2" x1="995.6" y1="460.5" x2="1053" y2="460.5"/>
								<line class="st2" x1="995.6" y1="497.1" x2="1053" y2="497.1"/>
								<line class="st2" x1="995.6" y1="533.7" x2="1053" y2="533.7"/>
								<line class="st2" x1="995.6" y1="570.3" x2="1053" y2="570.3"/>
								<path class="st2" d="M995.6,598.8V376.6c0.1-7.4,0.7-13.5,6.3-20.8c6.8-8.9,22.3-18.5,22.3-18.5s15.7,9.7,22.5,18.5
									c5.6,7.3,6.2,13.3,6.3,20.7v222.3L995.6,598.8L995.6,598.8z"/>
								<path class="st2" d="M1009.9,347.6c3.1,2.6,6,5.4,8.1,8.1c5.6,7.3,6.2,13.3,6.3,20.7v222.3"/>
								<path class="st2" d="M1038.7,347.6c-3.1,2.6-6,5.4-8.1,8.1c-5.6,7.3-6.2,13.3-6.3,20.7v222.3"/>
							</g>
							<g>
								<path class="st2" d="M991.4,370.7V154c0.1-7.8,0.8-14.1,7.2-21.7c7.8-9.3,25.6-20.8,25.6-20.8s18,11.6,25.8,20.8
									c6.4,7.6,7.1,13.9,7.2,21.6v216.8"/>
								<line class="st2" x1="995.6" y1="167.5" x2="1053" y2="167.5"/>
								<line class="st2" x1="995.6" y1="204.1" x2="1053" y2="204.1"/>
								<line class="st2" x1="995.6" y1="240.7" x2="1053" y2="240.7"/>
								<line class="st2" x1="995.6" y1="277.3" x2="1053" y2="277.3"/>
								<line class="st2" x1="995.6" y1="313.9" x2="1053" y2="313.9"/>
								<path class="st2" d="M995.6,356.2V156.8c0.1-7.4,0.7-13.5,6.3-20.8c6.8-8.9,22.3-18.5,22.3-18.5s15.7,9.7,22.5,18.5
									c5.6,7.3,6.2,13.3,6.3,24.5v195.6"/>
								<path class="st2" d="M1009.9,127.9c3.1,2.6,6,5.4,8.1,8.1c5.6,7.3,6.2,13.3,6.3,20.7"/>
								<path class="st2" d="M1038.7,127.9c-3.1,2.6-6,5.4-8.1,8.1c-5.6,7.3-6.2,13.3-6.3,20.7v174.6"/>
							</g>
							<g>
								<path class="st2" d="M991.4,150.4V-66.3c0.1-7.8,0.8-14.1,7.2-21.7c7.8-9.3,25.6-20.8,25.6-20.8s18,11.6,25.8,20.8
									c6.4,7.6,7.1,13.9,7.2,21.6v216.8"/>
								<line class="st2" x1="995.6" y1="-52.8" x2="1053" y2="-52.8"/>
								<line class="st2" x1="995.6" y1="-16.2" x2="1053" y2="-16.2"/>
								<line class="st2" x1="995.6" y1="20.4" x2="1053" y2="20.4"/>
								<line class="st2" x1="995.6" y1="57" x2="1053" y2="57"/>
								<line class="st2" x1="995.6" y1="93.6" x2="1053" y2="93.6"/>
								<path class="st2" d="M995.6,135.9V-63.5c0.1-7.4,0.7-13.5,6.3-20.8c6.8-8.9,22.3-18.6,22.3-18.6s15.7,9.7,22.5,18.6
									c5.6,7.3,6.2,13.3,6.3,24.5v195.6"/>
								<path class="st2" d="M1009.9-92.5c3.1,2.6,6,5.4,8.1,8.1c5.6,7.3,6.2,13.3,6.3,20.7"/>
								<path class="st2" d="M1038.7-92.5c-3.1,2.6-6,5.4-8.1,8.1c-5.6,7.3-6.2,13.3-6.3,20.7V111"/>
							</g>
						</g>
						<g>
							<g>
								<path class="st2" d="M1057.2,493V263.5c0.1-7.8,0.8-14.1,7.2-21.7c7.8-9.3,25.6-20.9,25.6-20.9s18,11.6,25.8,20.9
									c6.4,7.6,7.1,13.9,7.2,21.6V493L1057.2,493L1057.2,493z"/>
								<line class="st2" x1="1061.4" y1="277" x2="1118.7" y2="277"/>
								<line class="st2" x1="1061.4" y1="313.6" x2="1118.7" y2="313.6"/>
								<line class="st2" x1="1061.4" y1="350.2" x2="1118.7" y2="350.2"/>
								<line class="st2" x1="1061.4" y1="386.8" x2="1118.7" y2="386.8"/>
								<line class="st2" x1="1061.4" y1="423.4" x2="1118.7" y2="423.4"/>
								<line class="st2" x1="1061.4" y1="460" x2="1118.7" y2="460"/>
								<path class="st2" d="M1061.3,488.5V266.3c0.1-7.4,0.7-13.5,6.3-20.8c6.8-8.9,22.3-18.5,22.3-18.5s15.7,9.7,22.5,18.5
									c5.6,7.3,6.2,13.3,6.3,20.7v222.3L1061.3,488.5L1061.3,488.5z"/>
								<path class="st2" d="M1075.7,237.4c3.1,2.6,6,5.4,8.1,8.1c5.6,7.3,6.2,13.3,6.3,20.7v222.3"/>
								<path class="st2" d="M1104.4,237.4c-3.1,2.6-6,5.4-8.1,8.1c-5.6,7.3-6.2,13.3-6.3,20.7v222.3"/>
							</g>
							<g>
								<path class="st2" d="M1057.2,260.5V43.7c0.1-7.8,0.8-14.1,7.2-21.7c7.8-9.3,25.6-20.9,25.6-20.9s18,11.6,25.8,20.9
									c6.4,7.6,7.1,13.9,7.2,21.6v216.8"/>
								<line class="st2" x1="1061.4" y1="57.2" x2="1118.7" y2="57.2"/>
								<line class="st2" x1="1061.4" y1="93.8" x2="1118.7" y2="93.8"/>
								<line class="st2" x1="1061.4" y1="130.4" x2="1118.7" y2="130.4"/>
								<line class="st2" x1="1061.4" y1="167" x2="1118.7" y2="167"/>
								<line class="st2" x1="1061.4" y1="203.7" x2="1118.7" y2="203.7"/>
								<path class="st2" d="M1061.3,246V46.5c0.1-7.4,0.7-13.5,6.3-20.8c6.8-8.9,22.3-18.6,22.3-18.6s15.7,9.7,22.5,18.6
									c5.6,7.3,6.2,13.3,6.3,24.6v195.6"/>
								<path class="st2" d="M1075.7,17.6c3.1,2.6,6,5.4,8.1,8.1c5.6,7.3,6.2,13.3,6.3,20.7"/>
								<path class="st2" d="M1104.4,17.6c-3.1,2.6-6,5.4-8.1,8.1c-5.6,7.3-6.2,13.3-6.3,20.7V221"/>
							</g>
							<g>
								<path class="st2" d="M1057.2,40.1v-216.8c0.1-7.8,0.8-14.1,7.2-21.7c7.8-9.3,25.6-20.9,25.6-20.9s18,11.6,25.8,20.9
									c6.4,7.6,7.1,13.9,7.2,21.6V40.1"/>
								<line class="st2" x1="1061.4" y1="-163.1" x2="1118.7" y2="-163.1"/>
								<line class="st2" x1="1061.4" y1="-126.5" x2="1118.7" y2="-126.5"/>
								<line class="st2" x1="1061.4" y1="-89.9" x2="1118.7" y2="-89.9"/>
								<line class="st2" x1="1061.4" y1="-53.3" x2="1118.7" y2="-53.3"/>
								<line class="st2" x1="1061.4" y1="-16.7" x2="1118.7" y2="-16.7"/>
								<path class="st2" d="M1061.3,25.6v-199.4c0.1-7.4,0.7-13.5,6.3-20.8c6.8-8.9,22.3-18.6,22.3-18.6s15.7,9.7,22.5,18.6
									c5.6,7.3,6.2,13.3,6.3,24.6V25.6"/>
								<path class="st2" d="M1075.7-202.7c3.1,2.6,6,5.4,8.1,8.1c5.6,7.3,6.2,13.3,6.3,20.7"/>
								<path class="st2" d="M1104.4-202.7c-3.1,2.6-6,5.4-8.1,8.1c-5.6,7.3-6.2,13.3-6.3,20.7V0.7"/>
							</g>
						</g>
					</g>
					<g>
						<g>
							<g>
								<path class="st2" d="M1122.9,603.2V373.8c0.1-7.8,0.8-14.1,7.2-21.7c7.8-9.3,25.6-20.8,25.6-20.8s18,11.6,25.8,20.8
									c6.4,7.6,7.1,13.9,7.2,21.6v229.5L1122.9,603.2L1122.9,603.2z"/>
								<line class="st2" x1="1127.1" y1="387.3" x2="1184.5" y2="387.3"/>
								<line class="st2" x1="1127.1" y1="423.9" x2="1184.5" y2="423.9"/>
								<line class="st2" x1="1127.1" y1="460.5" x2="1184.5" y2="460.5"/>
								<line class="st2" x1="1127.1" y1="497.1" x2="1184.5" y2="497.1"/>
								<line class="st2" x1="1127.1" y1="533.7" x2="1184.5" y2="533.7"/>
								<line class="st2" x1="1127.1" y1="570.3" x2="1184.5" y2="570.3"/>
								<path class="st2" d="M1127.1,598.8V376.6c0.1-7.4,0.7-13.5,6.3-20.8c6.8-8.9,22.3-18.5,22.3-18.5s15.7,9.7,22.5,18.5
									c5.6,7.3,6.2,13.3,6.3,20.7v222.3L1127.1,598.8L1127.1,598.8z"/>
								<path class="st2" d="M1141.4,347.6c3.1,2.6,6,5.4,8.1,8.1c5.6,7.3,6.2,13.3,6.3,20.7v222.3"/>
								<path class="st2" d="M1170.2,347.6c-3.1,2.6-6,5.4-8.1,8.1c-5.6,7.3-6.2,13.3-6.3,20.7v222.3"/>
							</g>
							<g>
								<path class="st2" d="M1122.9,370.7V154c0.1-7.8,0.8-14.1,7.2-21.7c7.8-9.3,25.6-20.8,25.6-20.8s18,11.6,25.8,20.8
									c6.4,7.6,7.1,13.9,7.2,21.6v216.8"/>
								<line class="st2" x1="1127.1" y1="167.5" x2="1184.5" y2="167.5"/>
								<line class="st2" x1="1127.1" y1="204.1" x2="1184.5" y2="204.1"/>
								<line class="st2" x1="1127.1" y1="240.7" x2="1184.5" y2="240.7"/>
								<line class="st2" x1="1127.1" y1="277.3" x2="1184.5" y2="277.3"/>
								<line class="st2" x1="1127.1" y1="313.9" x2="1184.5" y2="313.9"/>
								<path class="st2" d="M1127.1,356.2V156.8c0.1-7.4,0.7-13.5,6.3-20.8c6.8-8.9,22.3-18.5,22.3-18.5s15.7,9.7,22.5,18.5
									c5.6,7.3,6.2,13.3,6.3,24.5v195.6"/>
								<path class="st2" d="M1141.4,127.9c3.1,2.6,6,5.4,8.1,8.1c5.6,7.3,6.2,13.3,6.3,20.7"/>
								<path class="st2" d="M1170.2,127.9c-3.1,2.6-6,5.4-8.1,8.1c-5.6,7.3-6.2,13.3-6.3,20.7v174.6"/>
							</g>
							<g>
								<path class="st2" d="M1122.9,150.4V-66.3c0.1-7.8,0.8-14.1,7.2-21.7c7.8-9.3,25.6-20.8,25.6-20.8s18,11.6,25.8,20.8
									c6.4,7.6,7.1,13.9,7.2,21.6v216.8"/>
								<line class="st2" x1="1127.1" y1="-52.8" x2="1184.5" y2="-52.8"/>
								<line class="st2" x1="1127.1" y1="-16.2" x2="1184.5" y2="-16.2"/>
								<line class="st2" x1="1127.1" y1="20.4" x2="1184.5" y2="20.4"/>
								<line class="st2" x1="1127.1" y1="57" x2="1184.5" y2="57"/>
								<line class="st2" x1="1127.1" y1="93.6" x2="1184.5" y2="93.6"/>
								<path class="st2" d="M1127.1,135.9V-63.5c0.1-7.4,0.7-13.5,6.3-20.8c6.8-8.9,22.3-18.6,22.3-18.6s15.7,9.7,22.5,18.6
									c5.6,7.3,6.2,13.3,6.3,24.5v195.6"/>
								<path class="st2" d="M1141.4-92.5c3.1,2.6,6,5.4,8.1,8.1c5.6,7.3,6.2,13.3,6.3,20.7"/>
								<path class="st2" d="M1170.2-92.5c-3.1,2.6-6,5.4-8.1,8.1c-5.6,7.3-6.2,13.3-6.3,20.7V111"/>
							</g>
						</g>
						<g>
							<g>
								<path class="st2" d="M1188.7,493V263.5c0.1-7.8,0.8-14.1,7.2-21.7c7.8-9.3,25.6-20.9,25.6-20.9s18,11.6,25.8,20.9
									c6.4,7.6,7.1,13.9,7.2,21.6V493L1188.7,493L1188.7,493z"/>
								<line class="st2" x1="1192.9" y1="277" x2="1250.3" y2="277"/>
								<line class="st2" x1="1192.9" y1="313.6" x2="1250.3" y2="313.6"/>
								<line class="st2" x1="1192.9" y1="350.2" x2="1250.3" y2="350.2"/>
								<line class="st2" x1="1192.9" y1="386.8" x2="1250.3" y2="386.8"/>
								<line class="st2" x1="1192.9" y1="423.4" x2="1250.3" y2="423.4"/>
								<line class="st2" x1="1192.9" y1="460" x2="1250.3" y2="460"/>
								<path class="st2" d="M1192.9,488.5V266.3c0.1-7.4,0.7-13.5,6.3-20.8c6.8-8.9,22.3-18.5,22.3-18.5s15.7,9.7,22.5,18.5
									c5.6,7.3,6.2,13.3,6.3,20.7v222.3L1192.9,488.5L1192.9,488.5z"/>
								<path class="st2" d="M1207.2,237.4c3.1,2.6,6,5.4,8.1,8.1c5.6,7.3,6.2,13.3,6.3,20.7v222.3"/>
								<path class="st2" d="M1236,237.4c-3.1,2.6-6,5.4-8.1,8.1c-5.6,7.3-6.2,13.3-6.3,20.7v222.3"/>
							</g>
							<g>
								<path class="st2" d="M1188.7,260.5V43.7c0.1-7.8,0.8-14.1,7.2-21.7c7.8-9.3,25.6-20.9,25.6-20.9s18,11.6,25.8,20.9
									c6.4,7.6,7.1,13.9,7.2,21.6v216.8"/>
								<line class="st2" x1="1192.9" y1="57.2" x2="1250.3" y2="57.2"/>
								<line class="st2" x1="1192.9" y1="93.8" x2="1250.3" y2="93.8"/>
								<line class="st2" x1="1192.9" y1="130.4" x2="1250.3" y2="130.4"/>
								<line class="st2" x1="1192.9" y1="167" x2="1250.3" y2="167"/>
								<line class="st2" x1="1192.9" y1="203.7" x2="1250.3" y2="203.7"/>
								<path class="st2" d="M1192.9,246V46.5c0.1-7.4,0.7-13.5,6.3-20.8c6.8-8.9,22.3-18.6,22.3-18.6s15.7,9.7,22.5,18.6
									c5.6,7.3,6.2,13.3,6.3,24.6v195.6"/>
								<path class="st2" d="M1207.2,17.6c3.1,2.6,6,5.4,8.1,8.1c5.6,7.3,6.2,13.3,6.3,20.7"/>
								<path class="st2" d="M1236,17.6c-3.1,2.6-6,5.4-8.1,8.1c-5.6,7.3-6.2,13.3-6.3,20.7V221"/>
							</g>
							<g>
								<path class="st2" d="M1188.7,40.1v-216.8c0.1-7.8,0.8-14.1,7.2-21.7c7.8-9.3,25.6-20.9,25.6-20.9s18,11.6,25.8,20.9
									c6.4,7.6,7.1,13.9,7.2,21.6V40.1"/>
								<line class="st2" x1="1192.9" y1="-163.1" x2="1250.3" y2="-163.1"/>
								<line class="st2" x1="1192.9" y1="-126.5" x2="1250.3" y2="-126.5"/>
								<line class="st2" x1="1192.9" y1="-89.9" x2="1250.3" y2="-89.9"/>
								<line class="st2" x1="1192.9" y1="-53.3" x2="1250.3" y2="-53.3"/>
								<line class="st2" x1="1192.9" y1="-16.7" x2="1250.3" y2="-16.7"/>
								<path class="st2" d="M1192.9,25.6v-199.4c0.1-7.4,0.7-13.5,6.3-20.8c6.8-8.9,22.3-18.6,22.3-18.6s15.7,9.7,22.5,18.6
									c5.6,7.3,6.2,13.3,6.3,24.6V25.6"/>
								<path class="st2" d="M1207.2-202.7c3.1,2.6,6,5.4,8.1,8.1c5.6,7.3,6.2,13.3,6.3,20.7"/>
								<path class="st2" d="M1236-202.7c-3.1,2.6-6,5.4-8.1,8.1c-5.6,7.3-6.2,13.3-6.3,20.7V0.7"/>
							</g>
						</g>
					</g>
					<g>
						<g>
							<g>
								<path class="st2" d="M1254.5,603.2V373.8c0.1-7.8,0.8-14.1,7.2-21.7c7.8-9.3,25.6-20.8,25.6-20.8s18,11.6,25.8,20.8
									c6.4,7.6,7.1,13.9,7.2,21.6v229.5L1254.5,603.2L1254.5,603.2z"/>
								<line class="st2" x1="1258.7" y1="387.3" x2="1316.1" y2="387.3"/>
								<line class="st2" x1="1258.7" y1="423.9" x2="1316.1" y2="423.9"/>
								<line class="st2" x1="1258.7" y1="460.5" x2="1316.1" y2="460.5"/>
								<line class="st2" x1="1258.7" y1="497.1" x2="1316.1" y2="497.1"/>
								<line class="st2" x1="1258.7" y1="533.7" x2="1316.1" y2="533.7"/>
								<line class="st2" x1="1258.7" y1="570.3" x2="1316.1" y2="570.3"/>
								<path class="st2" d="M1258.7,598.8V376.6c0.1-7.4,0.7-13.5,6.3-20.8c6.8-8.9,22.3-18.5,22.3-18.5s15.7,9.7,22.5,18.5
									c5.6,7.3,6.2,13.3,6.3,20.7v222.3L1258.7,598.8L1258.7,598.8z"/>
								<path class="st2" d="M1273,347.6c3.1,2.6,6,5.4,8.1,8.1c5.6,7.3,6.2,13.3,6.3,20.7v222.3"/>
								<path class="st2" d="M1301.8,347.6c-3.1,2.6-6,5.4-8.1,8.1c-5.6,7.3-6.2,13.3-6.3,20.7v222.3"/>
							</g>
							<g>
								<path class="st2" d="M1254.5,370.7V154c0.1-7.8,0.8-14.1,7.2-21.7c7.8-9.3,25.6-20.8,25.6-20.8s18,11.6,25.8,20.8
									c6.4,7.6,7.1,13.9,7.2,21.6v216.8"/>
								<line class="st2" x1="1258.7" y1="167.5" x2="1316.1" y2="167.5"/>
								<line class="st2" x1="1258.7" y1="204.1" x2="1316.1" y2="204.1"/>
								<line class="st2" x1="1258.7" y1="240.7" x2="1316.1" y2="240.7"/>
								<line class="st2" x1="1258.7" y1="277.3" x2="1316.1" y2="277.3"/>
								<line class="st2" x1="1258.7" y1="313.9" x2="1316.1" y2="313.9"/>
								<path class="st2" d="M1258.7,356.2V156.8c0.1-7.4,0.7-13.5,6.3-20.8c6.8-8.9,22.3-18.5,22.3-18.5s15.7,9.7,22.5,18.5
									c5.6,7.3,6.2,13.3,6.3,24.5v195.6"/>
								<path class="st2" d="M1273,127.9c3.1,2.6,6,5.4,8.1,8.1c5.6,7.3,6.2,13.3,6.3,20.7"/>
								<path class="st2" d="M1301.8,127.9c-3.1,2.6-6,5.4-8.1,8.1c-5.6,7.3-6.2,13.3-6.3,20.7v174.6"/>
							</g>
							<g>
								<path class="st2" d="M1254.5,150.4V-66.3c0.1-7.8,0.8-14.1,7.2-21.7c7.8-9.3,25.6-20.8,25.6-20.8s18,11.6,25.8,20.8
									c6.4,7.6,7.1,13.9,7.2,21.6v216.8"/>
								<line class="st2" x1="1258.7" y1="-52.8" x2="1316.1" y2="-52.8"/>
								<line class="st2" x1="1258.7" y1="-16.2" x2="1316.1" y2="-16.2"/>
								<line class="st2" x1="1258.7" y1="20.4" x2="1316.1" y2="20.4"/>
								<line class="st2" x1="1258.7" y1="57" x2="1316.1" y2="57"/>
								<line class="st2" x1="1258.7" y1="93.6" x2="1316.1" y2="93.6"/>
								<path class="st2" d="M1258.7,135.9V-63.5c0.1-7.4,0.7-13.5,6.3-20.8c6.8-8.9,22.3-18.6,22.3-18.6s15.7,9.7,22.5,18.6
									c5.6,7.3,6.2,13.3,6.3,24.5v195.6"/>
								<path class="st2" d="M1273-92.5c3.1,2.6,6,5.4,8.1,8.1c5.6,7.3,6.2,13.3,6.3,20.7"/>
								<path class="st2" d="M1301.8-92.5c-3.1,2.6-6,5.4-8.1,8.1c-5.6,7.3-6.2,13.3-6.3,20.7V111"/>
							</g>
						</g>
						<g>
							<g>
								<path class="st2" d="M1320.3,493V263.5c0.1-7.8,0.8-14.1,7.2-21.7c7.8-9.3,25.6-20.9,25.6-20.9s18,11.6,25.8,20.9
									c6.4,7.6,7.1,13.9,7.2,21.6V493L1320.3,493L1320.3,493z"/>
								<line class="st2" x1="1324.5" y1="277" x2="1381.8" y2="277"/>
								<line class="st2" x1="1324.5" y1="313.6" x2="1381.8" y2="313.6"/>
								<line class="st2" x1="1324.5" y1="350.2" x2="1381.8" y2="350.2"/>
								<line class="st2" x1="1324.5" y1="386.8" x2="1381.8" y2="386.8"/>
								<line class="st2" x1="1324.5" y1="423.4" x2="1381.8" y2="423.4"/>
								<line class="st2" x1="1324.5" y1="460" x2="1381.8" y2="460"/>
								<path class="st2" d="M1324.4,488.5V266.3c0.1-7.4,0.7-13.5,6.3-20.8c6.8-8.9,22.3-18.5,22.3-18.5s15.7,9.7,22.5,18.5
									c5.6,7.3,6.2,13.3,6.3,20.7v222.3L1324.4,488.5L1324.4,488.5z"/>
								<path class="st2" d="M1338.8,237.4c3.1,2.6,6,5.4,8.1,8.1c5.6,7.3,6.2,13.3,6.3,20.7v222.3"/>
								<path class="st2" d="M1367.5,237.4c-3.1,2.6-6,5.4-8.1,8.1c-5.6,7.3-6.2,13.3-6.3,20.7v222.3"/>
							</g>
							<g>
								<path class="st2" d="M1320.3,260.5V43.7c0.1-7.8,0.8-14.1,7.2-21.7c7.8-9.3,25.6-20.9,25.6-20.9s18,11.6,25.8,20.9
									c6.4,7.6,7.1,13.9,7.2,21.6v216.8"/>
								<line class="st2" x1="1324.5" y1="57.2" x2="1381.8" y2="57.2"/>
								<line class="st2" x1="1324.5" y1="93.8" x2="1381.8" y2="93.8"/>
								<line class="st2" x1="1324.5" y1="130.4" x2="1381.8" y2="130.4"/>
								<line class="st2" x1="1324.5" y1="167" x2="1381.8" y2="167"/>
								<line class="st2" x1="1324.5" y1="203.7" x2="1381.8" y2="203.7"/>
								<path class="st2" d="M1324.4,246V46.5c0.1-7.4,0.7-13.5,6.3-20.8c6.8-8.9,22.3-18.6,22.3-18.6s15.7,9.7,22.5,18.6
									c5.6,7.3,6.2,13.3,6.3,24.6v195.6"/>
								<path class="st2" d="M1338.8,17.6c3.1,2.6,6,5.4,8.1,8.1c5.6,7.3,6.2,13.3,6.3,20.7"/>
								<path class="st2" d="M1367.5,17.6c-3.1,2.6-6,5.4-8.1,8.1c-5.6,7.3-6.2,13.3-6.3,20.7V221"/>
							</g>
							<g>
								<path class="st2" d="M1320.3,40.1v-216.8c0.1-7.8,0.8-14.1,7.2-21.7c7.8-9.3,25.6-20.9,25.6-20.9s18,11.6,25.8,20.9
									c6.4,7.6,7.1,13.9,7.2,21.6V40.1"/>
								<line class="st2" x1="1324.5" y1="-163.1" x2="1381.8" y2="-163.1"/>
								<line class="st2" x1="1324.5" y1="-126.5" x2="1381.8" y2="-126.5"/>
								<line class="st2" x1="1324.5" y1="-89.9" x2="1381.8" y2="-89.9"/>
								<line class="st2" x1="1324.5" y1="-53.3" x2="1381.8" y2="-53.3"/>
								<line class="st2" x1="1324.5" y1="-16.7" x2="1381.8" y2="-16.7"/>
								<path class="st2" d="M1324.4,25.6v-199.4c0.1-7.4,0.7-13.5,6.3-20.8c6.8-8.9,22.3-18.6,22.3-18.6s15.7,9.7,22.5,18.6
									c5.6,7.3,6.2,13.3,6.3,24.6V25.6"/>
								<path class="st2" d="M1338.8-202.7c3.1,2.6,6,5.4,8.1,8.1c5.6,7.3,6.2,13.3,6.3,20.7"/>
								<path class="st2" d="M1367.5-202.7c-3.1,2.6-6,5.4-8.1,8.1c-5.6,7.3-6.2,13.3-6.3,20.7V0.7"/>
							</g>
						</g>
					</g>
				</g>
			</g>
		</g>
	</g>
</g>
</svg>
