<svg xmlns="http://www.w3.org/2000/svg" width="399.312" height="816.208" viewBox="0 0 399.312 816.208">
  <g id="Group_1174" data-name="Group 1174" transform="translate(53.692 -1374.397)" opacity="0.2">
    <g id="b" transform="translate(-52.982 1374.967)">
      <g id="c" transform="translate(0 0)">
        <g id="Group_64" data-name="Group 64" transform="translate(0)">
          <path id="Path_163" data-name="Path 163" d="M337.873,466.958v-8.9H332.2v9.984H326.53v-5.672h-5.394v5.394H316v-8.917H310.07v12.688H287.924v-7.806H282.53v7.806H259.857v-7.806h-4.868v7.806H234.173V458.509H229.32v9.385H206.984V455.922h-8.435v230.8h11.884V606.531c5.672-34.835,51.835-56.7,86.67-40.506S329.5,620.841,329.5,620.841V685.1s13.229.8,13.229,0V469.37l-4.868-2.427Zm-81.334,70.473H233.866V509.686s.365-9.312,11.344-10.32c10.978,1.009,11.344,10.32,11.344,10.32v27.745Zm26.926,0H260.793V509.686s.365-9.312,11.344-10.32c10.978,1.009,11.343,10.32,11.343,10.32v27.745Zm26.926,0H287.719V509.686s.365-9.312,11.344-10.32c10.978,1.009,11.344,10.32,11.344,10.32v27.745Z" transform="translate(55.292 128.315)" fill="none" stroke="#0c125d" stroke-miterlimit="10" stroke-width="1.139"/>
          <path id="Path_164" data-name="Path 164" d="M337.873,466.958v-8.9H332.2v9.984H326.53v-5.672h-5.394v5.394H316v-8.917H310.07v12.688H287.924v-7.806H282.53v7.806H259.857v-7.806h-4.868v7.806H234.173V458.509H229.32v9.385H206.984V455.922h-8.435v230.8h11.884V606.531c5.672-34.835,51.835-56.7,86.67-40.506S329.5,620.841,329.5,620.841V685.1s13.229.8,13.229,0V469.37l-4.868-2.427Zm-81.334,70.473H233.866V509.686s.365-9.312,11.344-10.32c10.978,1.009,11.344,10.32,11.344,10.32v27.745Zm26.926,0H260.793V509.686s.365-9.312,11.344-10.32c10.978,1.009,11.343,10.32,11.343,10.32v27.745Zm26.926,0H287.719V509.686s.365-9.312,11.344-10.32c10.978,1.009,11.344,10.32,11.344,10.32v27.745Z" transform="translate(55.292 128.315)" fill="none" stroke="#0c125d" stroke-linejoin="round" stroke-width="1.139"/>
          <path id="Path_165" data-name="Path 165" d="M257.091,595.147l-8.712-8.712V578.8h-1.827v-4.882h7.455v-15.2h4.59a7.683,7.683,0,0,0-6.593-5.73V539.511h3.435v-3.728l-3.158-3.157V488.45l2.441-2.441V483h-3.581v-4.02h4.02v-4.02s-2.573-4.3-6.315-4.02v-13.77H252v-5.73h-7.177v-21.8s3.435-1.432,3.435-6.885h-4.3v-37h2.573V369.416h4.3s.292-9.472-6.023-11.753v-4.3h4.3v-3.158l-4.868-2.865v-6.885l3.158-.57v-2.3l-3.158-3.157v-4.3h4.59V273.347l3.435-6.315h3.728v-6.593l-2.587-2.865v-32.13h3.654v-5.409l-17.249-67.506v-4.853H233.03V152l-11.344,51.572-18.9,9.18V186.019h-4.327L167.381,25.338H91.937L60.815,185.99H56.489v26.736l-18.9-9.18L26.244,151.974v-4.327H19.461V152.5L2.227,220.006v5.409H5.881v32.13L3.294,260.41V267H7.021l3.45,6.315v56.791h4.59v4.3L11.9,337.564v2.295l3.157.57v6.885l-4.882,2.865v3.157h4.3v4.3c-6.315,2.3-6.023,11.753-6.023,11.753h4.3V385.73h2.587v37h-4.3c0,5.452,3.45,6.885,3.45,6.885v21.8H7.314v5.73h3.157v13.77c-3.728-.292-6.315,4.02-6.315,4.02v4.02h4.02v4.02H4.58v3.011l2.441,2.441V532.6l-3.157,3.158v3.728H7.3v13.478a7.659,7.659,0,0,0-6.593,5.73H5.3v15.2h7.455v4.882H10.924v7.631l-8.712,8.712H8.454v17.206c-4.3.57-3.538,7.747-3.538,7.747V719.2c0,12.966,7.017,10.8,7.017,10.8V807.21H56.752V731.08c0-57.244,72.9-73.441,72.9-73.441s72.9,16.2,72.9,73.441v76.13H247.37V730s7.017,2.164,7.017-10.8V620.071s.775-7.163-3.538-7.747V595.118h6.227ZM20.046,234.449l-6.081,3.421V220.81l6.081-2.836Zm32.613,3.421H41.4V219.494H52.659v18.375Zm34.937,0H76.34V219.494H87.6v18.375ZM118.133,64.763l11.534-11.037L141.2,64.763v3.026h-2.383V90.944h-8.011l-1.155-.395-1.155.395h-8.011V67.789H118.1V64.763Zm4.4,173.106H111.277V219.494h11.256v18.375Zm-4.4-40.477V164.94h-4.765v-4.97L129.1,146.127l.57,1.491.57-1.491,15.729,13.843v4.97H141.2v32.452H118.118Zm29.938,40.477H136.814V219.494H148.07v18.375Zm34.937,0H171.751V219.494h11.256v18.375Zm34.937,0H206.688V219.494h11.256v18.375Zm21.357-19.9,6.081,2.836v17.059l-6.081-3.421Z" transform="translate(-0.706 6.441)" fill="none" stroke="#0c125d" stroke-miterlimit="10" stroke-width="1.139"/>
          <path id="Path_166" data-name="Path 166" d="M23.536,104.467a1.865,1.865,0,0,1-1.871,1.871H17.206a1.865,1.865,0,0,1-1.871-1.871h0a1.865,1.865,0,0,1,1.871-1.871h4.458a1.865,1.865,0,0,1,1.871,1.871Z" transform="translate(3.434 28.308)" fill="none" stroke="#0c125d" stroke-linejoin="round" stroke-width="1.139"/>
          <path id="Path_167" data-name="Path 167" d="M73.84,33.208a1.011,1.011,0,0,1-1.009,1.009h0a1.011,1.011,0,0,1-1.009-1.009V6.238a1.011,1.011,0,0,1,1.009-1.009h0A1.011,1.011,0,0,1,73.84,6.238Z" transform="translate(19.423 0.749)" fill="none" stroke="#0c125d" stroke-linejoin="round" stroke-width="1.139"/>
          <path id="Path_168" data-name="Path 168" d="M77.932,4.94a4.373,4.373,0,0,1-4.371,4.371h0A4.373,4.373,0,0,1,69.191,4.94h0A4.373,4.373,0,0,1,73.562.57h0A4.373,4.373,0,0,1,77.932,4.94Z" transform="translate(18.678 -0.57)" fill="none" stroke="#0c125d" stroke-linejoin="round" stroke-width="1.139"/>
          <path id="Path_169" data-name="Path 169" d="M1.891,179.384l21.328-10.525,17.849,10.013h88.263" transform="translate(-0.371 47.064)" fill="none" stroke="#0c125d" stroke-linejoin="round" stroke-width="1.139"/>
          <line id="Line_28" data-name="Line 28" y1="38.825" transform="translate(9.078 222.719)" fill="none" stroke="#0c125d" stroke-linejoin="round" stroke-width="1.139"/>
          <line id="Line_29" data-name="Line 29" y2="37.934" transform="translate(22.848 215.922)" fill="none" stroke="#0c125d" stroke-linejoin="round" stroke-width="1.139"/>
          <path id="Path_170" data-name="Path 170" d="M128.525,206.785H32l-9.589-8.361L4.74,208.554" transform="translate(0.435 55.432)" fill="none" stroke="#0c125d" stroke-linejoin="round" stroke-width="1.139"/>
          <path id="Path_171" data-name="Path 171" d="M128.273,218.922h-95.7v-3.1l-6.359-6.359H11.227l-5.6,5.438" transform="translate(0.687 58.557)" fill="none" stroke="#0c125d" stroke-linejoin="round" stroke-width="1.139"/>
          <path id="Path_172" data-name="Path 172" d="M29.434,216.835v6.622H23.616V265.7h4.049v10.13H23.616v6.622H20.78v32.671H16.731c.409,0,0,78.835,0,78.835s24.164,11.884,33.884,45.623V378.291s-.278-10.8,1.345-16.2a31.427,31.427,0,0,0,1.082-10.8H50.469V334.408H46.42s-2.427-22.278,4.254-36.443v-8.917l-2.032-2.017V263.744s-.8-13.171-12.352-17.015c0,0-11.68,4.254-12.688,14.574" transform="translate(3.822 60.643)" fill="none" stroke="#0c125d" stroke-linejoin="round" stroke-width="1.139"/>
          <path id="Path_173" data-name="Path 173" d="M76.483,216.835v17.746S77.7,246.13,93.5,249.36c0,0,10.6-.614,14.72-14.369" transform="translate(20.742 60.643)" fill="none" stroke="#0c125d" stroke-linejoin="round" stroke-width="1.139"/>
          <path id="Path_174" data-name="Path 174" d="M45.869,216.835v17.951s7.294,13.361,20.451,14.574a24.691,24.691,0,0,0,18.828-14.779" transform="translate(12.077 60.643)" fill="none" stroke="#0c125d" stroke-linejoin="round" stroke-width="1.139"/>
          <path id="Path_175" data-name="Path 175" d="M22.091,235.691a20.465,20.465,0,0,0,12.688,7.09s12.557-.409,17.819-11.943" transform="translate(5.347 64.606)" fill="none" stroke="#0c125d" stroke-linejoin="round" stroke-width="1.139"/>
          <path id="Path_176" data-name="Path 176" d="M116.541,258.587s-4.59-13.565-14.72-16.4c0,0-11.534,5.672-13.361,16.4v23.082H81.575V258.177s-3.991-11.344-15.6-15.992c0,0-13.361,3.845-16.606,16.2v21.269l-2.3,2.544v7.879s6.388,11.373,4.985,37.7H49.313v16.343H47.091v5.8s1.009,5.672,1.827,8.771,0,12.688,0,23.754v51.031s5-27.409,22.819-39.556,42.655-25.786,42.655-31.18V354.9s-2.967,0-2.967-2.427V349.51a5.424,5.424,0,0,1,2.163-2.7V327.233s-2.836-2.3-2.7-4.181-1.213-23.623,2.7-30.639v-27.8h2.967V258.6Z" transform="translate(12.418 67.818)" fill="none" stroke="#0c125d" stroke-linejoin="round" stroke-width="1.139"/>
          <path id="Path_177" data-name="Path 177" d="M79.38,291.567a2.614,2.614,0,0,1-2.617,2.617h0a2.614,2.614,0,0,1-2.617-2.617V283.63a2.614,2.614,0,0,1,2.617-2.617h0a2.614,2.614,0,0,1,2.617,2.617Z" transform="translate(20.081 78.808)" fill="none" stroke="#0c125d" stroke-linejoin="round" stroke-width="1.139"/>
          <path id="Path_178" data-name="Path 178" d="M83.05,286.06v4.064a2.617,2.617,0,1,1-5.233,0V286.06H61.181v68.31H99.861V286.06Z" transform="translate(16.411 80.237)" fill="none" stroke="#0c125d" stroke-linejoin="round" stroke-width="1.139"/>
          <rect id="Rectangle_71" data-name="Rectangle 71" width="8.917" height="17.015" transform="translate(84.477 375.419)" fill="none" stroke="#0c125d" stroke-linejoin="round" stroke-width="1.139"/>
          <rect id="Rectangle_72" data-name="Rectangle 72" width="8.902" height="17.015" transform="translate(99.461 375.419)" fill="none" stroke="#0c125d" stroke-linejoin="round" stroke-width="1.139"/>
          <rect id="Rectangle_73" data-name="Rectangle 73" width="8.917" height="17.015" transform="translate(84.477 394.451)" fill="none" stroke="#0c125d" stroke-linejoin="round" stroke-width="1.139"/>
          <rect id="Rectangle_74" data-name="Rectangle 74" width="8.902" height="17.015" transform="translate(99.461 394.451)" fill="none" stroke="#0c125d" stroke-linejoin="round" stroke-width="1.139"/>
          <rect id="Rectangle_75" data-name="Rectangle 75" width="8.917" height="17.015" transform="translate(84.477 413.484)" fill="none" stroke="#0c125d" stroke-linejoin="round" stroke-width="1.139"/>
          <rect id="Rectangle_76" data-name="Rectangle 76" width="8.902" height="17.015" transform="translate(99.461 413.484)" fill="none" stroke="#0c125d" stroke-linejoin="round" stroke-width="1.139"/>
          <line id="Line_30" data-name="Line 30" x1="51.294" transform="translate(61.322 457.835)" fill="none" stroke="#0c125d" stroke-linejoin="round" stroke-width="1.139"/>
          <line id="Line_31" data-name="Line 31" x1="40.667" transform="translate(13.77 457.835)" fill="none" stroke="#0c125d" stroke-linejoin="round" stroke-width="1.139"/>
          <path id="Path_179" data-name="Path 179" d="M14.092,357.4v5.336H10.846v14.311s5.555.044,5.555,8.1H10.846v4.166H16.4v2.31l-3.567,3.567V407.34s5.087,4.049,5.511,8.1-4.824,6.622-4.824,6.622v16.328l5.394,2.427v4.049H13.244v12.425S24.85,440.011,50.5,440.683V406.389s-8.128-9.853-18.579-12.425v-7.426H27.555v6.753s-10.671,3.1-14.033,10.262" transform="translate(2.164 100.43)" fill="none" stroke="#0c125d" stroke-linejoin="round" stroke-width="1.139"/>
          <path id="Path_180" data-name="Path 180" d="M30.308,378.691a1.828,1.828,0,0,1-1.827,1.827H24.431a1.828,1.828,0,0,1-1.827-1.827h0a1.828,1.828,0,0,1,1.827-1.827h4.049a1.828,1.828,0,0,1,1.827,1.827Z" transform="translate(5.492 105.938)" fill="none" stroke="#0c125d" stroke-linejoin="round" stroke-width="1.139"/>
          <path id="Path_181" data-name="Path 181" d="M28.193,372.134a1.681,1.681,0,0,1-1.681,1.681h-.731a1.694,1.694,0,0,1-1.7-1.681h0a1.7,1.7,0,0,1,1.7-1.7h.731a1.684,1.684,0,0,1,1.681,1.7Z" transform="translate(5.911 104.12)" fill="none" stroke="#0c125d" stroke-linejoin="round" stroke-width="1.139"/>
          <path id="Path_182" data-name="Path 182" d="M26.394,377.365a.586.586,0,0,1-.585.585h0a.586.586,0,0,1-.585-.585v-3.7a.586.586,0,0,1,.585-.585h0a.586.586,0,0,1,.585.585Z" transform="translate(6.233 104.868)" fill="none" stroke="#0c125d" stroke-linejoin="round" stroke-width="1.139"/>
          <path id="Path_183" data-name="Path 183" d="M69.819,378.691a1.828,1.828,0,0,1-1.827,1.827H63.943a1.828,1.828,0,0,1-1.827-1.827h0a1.828,1.828,0,0,1,1.827-1.827h4.049a1.828,1.828,0,0,1,1.827,1.827Z" transform="translate(16.675 105.938)" fill="none" stroke="#0c125d" stroke-linejoin="round" stroke-width="1.139"/>
          <path id="Path_184" data-name="Path 184" d="M67.7,372.134a1.681,1.681,0,0,1-1.681,1.681h-.731a1.681,1.681,0,0,1-1.681-1.681h0a1.694,1.694,0,0,1,1.681-1.7h.731a1.684,1.684,0,0,1,1.681,1.7Z" transform="translate(17.098 104.12)" fill="none" stroke="#0c125d" stroke-linejoin="round" stroke-width="1.139"/>
          <path id="Path_185" data-name="Path 185" d="M65.906,377.365a.586.586,0,0,1-.585.585h0a.586.586,0,0,1-.585-.585v-3.7a.586.586,0,0,1,.585-.585h0a.586.586,0,0,1,.585.585Z" transform="translate(17.417 104.868)" fill="none" stroke="#0c125d" stroke-linejoin="round" stroke-width="1.139"/>
          <path id="Path_186" data-name="Path 186" d="M107.725,341.614h-2.967V348.5h-2.836v4.254c0-.409,2.894,0,2.894,0v10.13s-12.016,16.2-16.27,37.261v-13.3s-.8-6.68-5.058-8.23c0,0-4.458,2.836-5.262,10.057v17.746" transform="translate(21.235 95.961)" fill="none" stroke="#0c125d" stroke-linejoin="round" stroke-width="1.139"/>
          <path id="Path_187" data-name="Path 187" d="M49.5,434.219V400.743s9.122-12.688,18.229-14.72v-5.263h3.64v4.254S86.56,389.868,89.6,403.448V457.52s-6.271-20.041-40.1-23.286Z" transform="translate(13.105 107.041)" fill="none" stroke="#0c125d" stroke-linejoin="round" stroke-width="1.139"/>
          <path id="Path_188" data-name="Path 188" d="M95.766,473.561s5.277-6.885-.6-11.139v-9.516s-5-22.088-34.425-25.114v7.689H48.55v-7.689c-29.426,3.011-34.425,25.114-34.425,25.114v9.516c-5.876,4.254-.6,11.139-.6,11.139V484.9l-2.017,2.017v4.459l2.017,2.017v6.271H48.565V482.858l-3.64-8.508V470.9H48.17V457.539h2.222v-4.254H47.352c-1.213-4.663,1.623-6.271,1.623-6.271H51.81v-6.68l2.851-1.418,2.851,1.418v6.68h2.836s2.836,1.623,1.623,6.271H58.929v4.254h2.222V470.9H64.4v3.45l-3.64,8.508v16.811H95.8V493.4l2.017-2.017v-4.459L95.8,484.9V473.561Z" transform="translate(2.306 120.353)" fill="none" stroke="#0c125d" stroke-linejoin="round" stroke-width="1.139"/>
          <line id="Line_32" data-name="Line 32" x2="19.076" transform="translate(47.216 594.718)" fill="none" stroke="#0c125d" stroke-linejoin="round" stroke-width="1.139"/>
          <path id="Path_189" data-name="Path 189" d="M31.981,592.6s5.95-70.459,88.833-87.474" transform="translate(8.146 142.243)" fill="none" stroke="#0c125d" stroke-linejoin="round" stroke-width="1.139"/>
          <line id="Line_33" data-name="Line 33" x2="115.95" transform="translate(13.01 645.34)" fill="none" stroke="#0c125d" stroke-linejoin="round" stroke-width="1.139"/>
          <path id="Path_190" data-name="Path 190" d="M127.022,469.981H106.44a6.724,6.724,0,0,0-3.845,8.376c1.754,6.213,4.459,11.738,0,14.238H61.489s-2.792,4.049-6.461,4.254-5.891-4.254-5.891-4.254-39.088-1.213-39.088,0V602.551" transform="translate(1.938 132.294)" fill="none" stroke="#0c125d" stroke-linejoin="round" stroke-width="1.139"/>
          <path id="Path_191" data-name="Path 191" d="M104.851,473.775H92.967v6.476a6.872,6.872,0,0,0-4.59,6.417c0,4.941,2.427,4.385,4.049,5.467v12.688s0,5.131,6.213,7.148" transform="translate(24.108 133.368)" fill="none" stroke="#0c125d" stroke-linejoin="round" stroke-width="1.139"/>
          <path id="Path_192" data-name="Path 192" d="M180.707,104.467a1.865,1.865,0,0,0,1.871,1.871h4.458a1.865,1.865,0,0,0,1.871-1.871h0a1.865,1.865,0,0,0-1.871-1.871h-4.458a1.865,1.865,0,0,0-1.871,1.871Z" transform="translate(50.242 28.308)" fill="none" stroke="#0c125d" stroke-linejoin="round" stroke-width="1.139"/>
          <path id="Path_193" data-name="Path 193" d="M129.039,33.208a1.011,1.011,0,0,0,1.009,1.009h0a1.011,1.011,0,0,0,1.009-1.009V6.238a1.011,1.011,0,0,0-1.009-1.009h0a1.011,1.011,0,0,0-1.009,1.009Z" transform="translate(35.618 0.749)" fill="none" stroke="#0c125d" stroke-linejoin="round" stroke-width="1.139"/>
          <path id="Path_194" data-name="Path 194" d="M126.419,4.94a4.373,4.373,0,0,0,4.371,4.371h0A4.373,4.373,0,0,0,135.16,4.94h0A4.373,4.373,0,0,0,130.79.57h0a4.373,4.373,0,0,0-4.371,4.371Z" transform="translate(34.876 -0.57)" fill="none" stroke="#0c125d" stroke-linejoin="round" stroke-width="1.139"/>
          <path id="Path_195" data-name="Path 195" d="M257.091,595.147l-8.712-8.712V578.8h-1.827v-4.882h7.455v-15.2h4.59a7.683,7.683,0,0,0-6.593-5.73V539.511h3.435v-3.728l-3.158-3.157V488.45l2.441-2.441V483h-3.581v-4.02h4.02v-4.02s-2.573-4.3-6.315-4.02v-13.77H252v-5.73h-7.177v-21.8s3.435-1.432,3.435-6.885h-4.3v-37h2.573V369.416h4.3s.292-9.472-6.023-11.753v-4.3h4.3v-3.158l-4.868-2.865v-6.885l3.158-.57v-2.3l-3.158-3.157v-4.3h4.59V273.347l3.435-6.315h3.728v-6.593l-2.587-2.865v-32.13h3.654v-5.409l-17.249-67.506v-4.853H233.03V152l-11.344,51.572-18.9,9.18V186.019h-4.327L167.381,25.338H91.937L60.815,185.99H56.489v26.736l-18.9-9.18L26.244,151.974v-4.327H19.461V152.5L2.227,220.006v5.409H5.881v32.13L3.294,260.41V267H7.021l3.45,6.315v56.791h4.59v4.3L11.9,337.564v2.295l3.157.57v6.885l-4.882,2.865v3.157h4.3v4.3c-6.315,2.3-6.023,11.753-6.023,11.753h4.3V385.73h2.587v37h-4.3c0,5.452,3.45,6.885,3.45,6.885v21.8H7.314v5.73h3.157v13.77c-3.728-.292-6.315,4.02-6.315,4.02v4.02h4.02v4.02H4.58v3.011l2.441,2.441V532.6l-3.157,3.158v3.728H7.3v13.478a7.659,7.659,0,0,0-6.593,5.73H5.3v15.2h7.455v4.882H10.924v7.631l-8.712,8.712H8.454v17.206c-4.3.57-3.538,7.747-3.538,7.747V719.2c0,12.966,7.017,10.8,7.017,10.8V807.21H56.752V731.08c0-57.244,72.9-73.441,72.9-73.441s72.9,16.2,72.9,73.441v76.13H247.37V730s7.017,2.164,7.017-10.8V620.071s.775-7.163-3.538-7.747V595.118h6.227ZM20.046,234.449l-6.081,3.421V220.81l6.081-2.836Zm32.613,3.421H41.4V219.494H52.659v18.375Zm34.937,0H76.34V219.494H87.6v18.375ZM118.133,64.763l11.534-11.037L141.2,64.763v3.026h-2.383V90.944h-8.011l-1.155-.395-1.155.395h-8.011V67.789H118.1V64.763Zm4.4,173.106H111.277V219.494h11.256v18.375Zm-4.4-40.477V164.94h-4.765v-4.97L129.1,146.127l.57,1.491.57-1.491,15.729,13.843v4.97H141.2v32.452H118.118Zm29.938,40.477H136.814V219.494H148.07v18.375Zm34.937,0H171.751V219.494h11.256v18.375Zm34.937,0H206.688V219.494h11.256v18.375Zm21.357-19.9,6.081,2.836v17.059l-6.081-3.421Z" transform="translate(-0.706 6.441)" fill="none" stroke="#0c125d" stroke-linejoin="round" stroke-width="1.139"/>
          <path id="Path_196" data-name="Path 196" d="M228.642,179.384l-21.328-10.525L189.48,178.872H101.217" transform="translate(27.743 47.064)" fill="none" stroke="#0c125d" stroke-linejoin="round" stroke-width="1.139"/>
          <line id="Line_34" data-name="Line 34" y1="38.825" transform="translate(248.827 222.719)" fill="none" stroke="#0c125d" stroke-linejoin="round" stroke-width="1.139"/>
          <line id="Line_35" data-name="Line 35" y2="37.934" transform="translate(235.057 215.922)" fill="none" stroke="#0c125d" stroke-linejoin="round" stroke-width="1.139"/>
          <path id="Path_197" data-name="Path 197" d="M101.217,206.785H197.74l9.575-8.361L225,208.554" transform="translate(27.743 55.432)" fill="none" stroke="#0c125d" stroke-linejoin="round" stroke-width="1.139"/>
          <path id="Path_198" data-name="Path 198" d="M101.217,218.922h95.689v-3.1l6.359-6.359h14.983l5.6,5.438" transform="translate(27.743 58.557)" fill="none" stroke="#0c125d" stroke-linejoin="round" stroke-width="1.139"/>
          <path id="Path_199" data-name="Path 199" d="M181.024,216.835v6.622h5.818V265.7h-4.049v10.13h4.049v6.622h2.836v32.671h4.049c-.409,0,0,78.835,0,78.835s-24.164,11.884-33.884,45.623V378.291s.278-10.8-1.345-16.2a31.427,31.427,0,0,1-1.082-10.8h2.558V334.408h4.049s2.427-22.278-4.254-36.443v-8.917l2.017-2.017V263.744s.8-13.171,12.352-17.015c0,0,11.68,4.254,12.688,14.574" transform="translate(43.625 60.643)" fill="none" stroke="#0c125d" stroke-linejoin="round" stroke-width="1.139"/>
          <path id="Path_200" data-name="Path 200" d="M132.941,216.835v17.746s-1.213,11.548-17.015,14.779c0,0-10.6-.614-14.72-14.369" transform="translate(27.739 60.643)" fill="none" stroke="#0c125d" stroke-linejoin="round" stroke-width="1.139"/>
          <path id="Path_201" data-name="Path 201" d="M165.219,216.835v17.951s-7.294,13.361-20.451,14.574a24.691,24.691,0,0,1-18.828-14.779" transform="translate(34.74 60.643)" fill="none" stroke="#0c125d" stroke-linejoin="round" stroke-width="1.139"/>
          <path id="Path_202" data-name="Path 202" d="M187.062,235.691a20.465,20.465,0,0,1-12.688,7.09s-12.557-.409-17.819-11.943" transform="translate(43.405 64.606)" fill="none" stroke="#0c125d" stroke-linejoin="round" stroke-width="1.139"/>
          <path id="Path_203" data-name="Path 203" d="M101.22,258.587s4.59-13.565,14.72-16.4c0,0,11.548,5.672,13.361,16.4v23.082h6.885V258.177s4.005-11.344,15.6-15.992c0,0,13.361,3.845,16.606,16.2v21.269l2.3,2.544v7.879s-6.388,11.373-4.985,37.7h2.748v16.343h2.222v5.8s-1.009,5.672-1.827,8.771,0,12.688,0,23.754v51.031s-5-27.409-22.819-39.556-42.655-25.786-42.655-31.18V354.9s2.967,0,2.967-2.427V349.51a5.424,5.424,0,0,0-2.163-2.7V327.233s2.836-2.3,2.7-4.181,1.213-23.623-2.7-30.639v-27.8h-2.967V258.6Z" transform="translate(27.739 67.818)" fill="none" stroke="#0c125d" stroke-linejoin="round" stroke-width="1.139"/>
          <path id="Path_204" data-name="Path 204" d="M124.209,291.567a2.614,2.614,0,0,0,2.617,2.617h0a2.614,2.614,0,0,0,2.617-2.617V283.63a2.614,2.614,0,0,0-2.617-2.617h0a2.614,2.614,0,0,0-2.617,2.617Z" transform="translate(34.25 78.808)" fill="none" stroke="#0c125d" stroke-linejoin="round" stroke-width="1.139"/>
          <path id="Path_205" data-name="Path 205" d="M127.917,286.06v4.064a2.617,2.617,0,1,0,5.233,0V286.06h16.635v68.31H111.106V286.06Z" transform="translate(30.542 80.237)" fill="none" stroke="#0c125d" stroke-linejoin="round" stroke-width="1.139"/>
          <rect id="Rectangle_77" data-name="Rectangle 77" width="8.902" height="17.015" transform="translate(164.525 375.419)" fill="none" stroke="#0c125d" stroke-linejoin="round" stroke-width="1.139"/>
          <rect id="Rectangle_78" data-name="Rectangle 78" width="8.917" height="17.015" transform="translate(149.542 375.419)" fill="none" stroke="#0c125d" stroke-linejoin="round" stroke-width="1.139"/>
          <rect id="Rectangle_79" data-name="Rectangle 79" width="8.902" height="17.015" transform="translate(164.525 394.451)" fill="none" stroke="#0c125d" stroke-linejoin="round" stroke-width="1.139"/>
          <rect id="Rectangle_80" data-name="Rectangle 80" width="8.917" height="17.015" transform="translate(149.542 394.451)" fill="none" stroke="#0c125d" stroke-linejoin="round" stroke-width="1.139"/>
          <rect id="Rectangle_81" data-name="Rectangle 81" width="8.902" height="17.015" transform="translate(164.525 413.484)" fill="none" stroke="#0c125d" stroke-linejoin="round" stroke-width="1.139"/>
          <rect id="Rectangle_82" data-name="Rectangle 82" width="8.917" height="17.015" transform="translate(149.542 413.484)" fill="none" stroke="#0c125d" stroke-linejoin="round" stroke-width="1.139"/>
          <line id="Line_36" data-name="Line 36" x2="51.294" transform="translate(145.288 457.835)" fill="none" stroke="#0c125d" stroke-linejoin="round" stroke-width="1.139"/>
          <line id="Line_37" data-name="Line 37" x2="40.667" transform="translate(203.468 457.835)" fill="none" stroke="#0c125d" stroke-linejoin="round" stroke-width="1.139"/>
          <path id="Path_206" data-name="Path 206" d="M197.08,357.4v5.336h3.245v14.311s-5.555.044-5.555,8.1h5.555v4.166h-5.555v2.31l3.567,3.567V407.34s-5.087,4.049-5.526,8.1,4.839,6.622,4.839,6.622v16.328l-5.394,2.427v4.049h5.672v12.425s-11.607-17.278-37.261-16.606V406.389s8.128-9.853,18.579-12.425v-7.426h4.371v6.753s10.656,3.1,14.033,10.262" transform="translate(44.57 100.43)" fill="none" stroke="#0c125d" stroke-linejoin="round" stroke-width="1.139"/>
          <path id="Path_207" data-name="Path 207" d="M173.815,378.691a1.828,1.828,0,0,0,1.827,1.827h4.049a1.828,1.828,0,0,0,1.827-1.827h0a1.828,1.828,0,0,0-1.827-1.827h-4.049a1.828,1.828,0,0,0-1.827,1.827Z" transform="translate(48.291 105.938)" fill="none" stroke="#0c125d" stroke-linejoin="round" stroke-width="1.139"/>
          <path id="Path_208" data-name="Path 208" d="M175.136,372.134a1.681,1.681,0,0,0,1.681,1.681h.731a1.681,1.681,0,0,0,1.681-1.681h0a1.694,1.694,0,0,0-1.681-1.7h-.731a1.684,1.684,0,0,0-1.681,1.7Z" transform="translate(48.665 104.12)" fill="none" stroke="#0c125d" stroke-linejoin="round" stroke-width="1.139"/>
          <path id="Path_209" data-name="Path 209" d="M176.287,377.365a.586.586,0,0,0,.585.585h0a.586.586,0,0,0,.585-.585v-3.7a.586.586,0,0,0-.585-.585h0a.586.586,0,0,0-.585.585Z" transform="translate(48.991 104.868)" fill="none" stroke="#0c125d" stroke-linejoin="round" stroke-width="1.139"/>
          <path id="Path_210" data-name="Path 210" d="M134.3,378.691a1.828,1.828,0,0,0,1.827,1.827h4.049a1.828,1.828,0,0,0,1.827-1.827h0a1.828,1.828,0,0,0-1.827-1.827H136.13a1.828,1.828,0,0,0-1.827,1.827Z" transform="translate(37.107 105.938)" fill="none" stroke="#0c125d" stroke-linejoin="round" stroke-width="1.139"/>
          <path id="Path_211" data-name="Path 211" d="M135.625,372.134a1.681,1.681,0,0,0,1.681,1.681h.731a1.694,1.694,0,0,0,1.7-1.681h0a1.7,1.7,0,0,0-1.7-1.7h-.731a1.684,1.684,0,0,0-1.681,1.7Z" transform="translate(37.481 104.12)" fill="none" stroke="#0c125d" stroke-linejoin="round" stroke-width="1.139"/>
          <path id="Path_212" data-name="Path 212" d="M136.775,377.365a.586.586,0,0,0,.585.585h0a.586.586,0,0,0,.585-.585v-3.7a.586.586,0,0,0-.585-.585h0a.586.586,0,0,0-.585.585Z" transform="translate(37.807 104.868)" fill="none" stroke="#0c125d" stroke-linejoin="round" stroke-width="1.139"/>
          <path id="Path_213" data-name="Path 213" d="M101.217,341.614h2.967V348.5h2.836v4.254c0-.409-2.894,0-2.894,0v10.13s12.016,16.2,16.27,37.261v-13.3s.8-6.68,5.058-8.23c0,0,4.458,2.836,5.262,10.057v17.746" transform="translate(27.743 95.961)" fill="none" stroke="#0c125d" stroke-linejoin="round" stroke-width="1.139"/>
          <path id="Path_214" data-name="Path 214" d="M161.776,434.219V400.743s-9.107-12.688-18.229-14.72v-5.263h-3.64v4.254s-15.188,4.853-18.229,18.433V457.52s6.271-20.041,40.1-23.286Z" transform="translate(33.534 107.041)" fill="none" stroke="#0c125d" stroke-linejoin="round" stroke-width="1.139"/>
          <path id="Path_215" data-name="Path 215" d="M125.76,473.561s-5.277-6.885.6-11.139v-9.516s5-22.088,34.425-25.114v7.689h12.191v-7.689C202.4,430.8,207.4,452.905,207.4,452.905v9.516c5.876,4.254.6,11.139.6,11.139V484.9l2.017,2.017v4.459L208,493.4v6.271H172.976V482.858l3.64-8.508V470.9h-3.245V457.539h-2.222v-4.254h3.041c1.213-4.663-1.623-6.271-1.623-6.271h-2.836v-6.68l-2.851-1.418-2.851,1.418v6.68h-2.836s-2.836,1.623-1.623,6.271h3.041v4.254H160.39V470.9h-3.245v3.45l3.64,8.508v16.811H125.76V493.4l-2.017-2.017v-4.459l2.017-2.017Z" transform="translate(34.073 120.353)" fill="none" stroke="#0c125d" stroke-linejoin="round" stroke-width="1.139"/>
          <line id="Line_38" data-name="Line 38" x1="19.062" transform="translate(191.627 594.718)" fill="none" stroke="#0c125d" stroke-linejoin="round" stroke-width="1.139"/>
          <path id="Path_216" data-name="Path 216" d="M190.039,592.6s-5.935-70.459-88.833-87.474" transform="translate(27.739 142.243)" fill="none" stroke="#0c125d" stroke-linejoin="round" stroke-width="1.139"/>
          <line id="Line_39" data-name="Line 39" x1="115.935" transform="translate(128.96 645.34)" fill="none" stroke="#0c125d" stroke-linejoin="round" stroke-width="1.139"/>
          <g id="Group_62" data-name="Group 62" transform="translate(108.363 464.048)">
            <path id="Path_217" data-name="Path 217" d="M85.164,409.8v72.9h41.179V409.8H85.164Z" transform="translate(-85.164 -348.786)" fill="none" stroke="#0c125d" stroke-linejoin="round" stroke-width="1.139"/>
            <path id="Path_218" data-name="Path 218" d="M105.761,362.247l-20.6,43.737V415.7h41.179v-9.721Z" transform="translate(-85.164 -362.247)" fill="none" stroke="#0c125d" stroke-linejoin="round" stroke-width="1.139"/>
          </g>
          <path id="Path_219" data-name="Path 219" d="M101.217,469.981H121.8a6.724,6.724,0,0,1,3.845,8.376c-1.754,6.213-4.458,11.738,0,14.238H166.75s2.792,4.049,6.461,4.254,5.891-4.254,5.891-4.254,39.088-1.213,39.088,0V602.551" transform="translate(27.743 132.294)" fill="none" stroke="#0c125d" stroke-linejoin="round" stroke-width="1.139"/>
          <path id="Path_220" data-name="Path 220" d="M101.217,473.775H113.1v6.476a6.872,6.872,0,0,1,4.59,6.417c0,4.941-2.427,4.385-4.049,5.467v12.688s0,5.131-6.213,7.148" transform="translate(27.743 133.368)" fill="none" stroke="#0c125d" stroke-linejoin="round" stroke-width="1.139"/>
          <g id="Group_63" data-name="Group 63" transform="translate(114.21 530.779)">
            <rect id="Rectangle_83" data-name="Rectangle 83" width="9.75" height="17.556" fill="none" stroke="#0c125d" stroke-linejoin="round" stroke-width="1.139"/>
            <rect id="Rectangle_84" data-name="Rectangle 84" width="9.75" height="17.556" transform="translate(18.097)" fill="none" stroke="#0c125d" stroke-linejoin="round" stroke-width="1.139"/>
            <rect id="Rectangle_85" data-name="Rectangle 85" width="9.75" height="17.556" transform="translate(0 22.351)" fill="none" stroke="#0c125d" stroke-linejoin="round" stroke-width="1.139"/>
            <rect id="Rectangle_86" data-name="Rectangle 86" width="9.75" height="17.556" transform="translate(18.097 22.351)" fill="none" stroke="#0c125d" stroke-linejoin="round" stroke-width="1.139"/>
            <rect id="Rectangle_87" data-name="Rectangle 87" width="9.75" height="17.556" transform="translate(0 44.702)" fill="none" stroke="#0c125d" stroke-linejoin="round" stroke-width="1.139"/>
            <rect id="Rectangle_88" data-name="Rectangle 88" width="9.75" height="17.556" transform="translate(18.097 44.702)" fill="none" stroke="#0c125d" stroke-linejoin="round" stroke-width="1.139"/>
          </g>
          <rect id="Rectangle_89" data-name="Rectangle 89" width="2.514" height="20.187" transform="translate(20.962 133.901)" fill="none" stroke="#0c125d" stroke-linejoin="round" stroke-width="1.139"/>
          <rect id="Rectangle_90" data-name="Rectangle 90" width="2.967" height="19.442" transform="translate(233.668 134.646)" fill="none" stroke="#0c125d" stroke-linejoin="round" stroke-width="1.139"/>
          <line id="Line_40" data-name="Line 40" y2="19.778" transform="translate(128.96 277.478)" fill="none" stroke="#0c125d" stroke-linejoin="round" stroke-width="1.139"/>
          <path id="Path_221" data-name="Path 221" d="M116.241,212.571c0,4.21-4.912,7.631-10.993,7.631s-10.993-3.421-10.993-7.631,4.912-7.631,10.993-7.631S116.241,208.361,116.241,212.571Z" transform="translate(25.772 57.276)" fill="none" stroke="#0c125d" stroke-linejoin="round" stroke-width="1.139"/>
          <path id="Path_222" data-name="Path 222" d="M206.98,455.933v11.972h22.336V458.52h4.853v13.025h20.816v-7.806h4.868v7.806h22.672v-7.806h5.394v7.806h22.146V458.856H316v8.917h5.131v-5.394h5.394v5.672H332.2v-9.984h5.672v8.9l4.868,2.427V685.128c0,.8-13.229,0-13.229,0V620.867s2.427-38.606-32.393-54.817-81,5.672-86.67,40.506v80.194H198.561v-230.8H207Z" transform="translate(55.295 128.318)" fill="none" stroke="#0c125d" stroke-linejoin="round" stroke-width="1.139"/>
          <path id="Path_223" data-name="Path 223" d="M198.549,487.89h14.457v9.926h10.116v-8.3H229.2v-6.68h13.77v3.845h4.458v-3.845h10.116v3.64h3.845v-3.64h9.253v3.231h4.722v-3.231h8.3v3.64h4.459v-3.64h8.3v3.64h4.049v-3.64h13.565v5.876H319.1v9.107h9.516V487.89h14.121" transform="translate(55.292 135.932)" fill="none" stroke="#0c125d" stroke-linejoin="round" stroke-width="1.139"/>
          <rect id="Rectangle_91" data-name="Rectangle 91" width="3.245" height="7.689" transform="translate(267.684 603.167)" fill="none" stroke="#0c125d" stroke-linejoin="round" stroke-width="1.139"/>
          <rect id="Rectangle_92" data-name="Rectangle 92" width="3.245" height="7.689" transform="translate(276.791 603.167)" fill="none" stroke="#0c125d" stroke-linejoin="round" stroke-width="1.139"/>
          <rect id="Rectangle_93" data-name="Rectangle 93" width="3.245" height="7.689" transform="translate(375.01 603.167)" fill="none" stroke="#0c125d" stroke-linejoin="round" stroke-width="1.139"/>
          <rect id="Rectangle_94" data-name="Rectangle 94" width="3.245" height="7.689" transform="translate(384.117 603.167)" fill="none" stroke="#0c125d" stroke-linejoin="round" stroke-width="1.139"/>
          <rect id="Rectangle_95" data-name="Rectangle 95" width="3.245" height="7.689" transform="translate(291.775 603.167)" fill="none" stroke="#0c125d" stroke-linejoin="round" stroke-width="1.139"/>
          <rect id="Rectangle_96" data-name="Rectangle 96" width="3.245" height="7.689" transform="translate(303.118 603.167)" fill="none" stroke="#0c125d" stroke-linejoin="round" stroke-width="1.139"/>
          <rect id="Rectangle_97" data-name="Rectangle 97" width="3.245" height="7.689" transform="translate(314.462 603.167)" fill="none" stroke="#0c125d" stroke-linejoin="round" stroke-width="1.139"/>
          <rect id="Rectangle_98" data-name="Rectangle 98" width="3.245" height="7.689" transform="translate(325.805 603.167)" fill="none" stroke="#0c125d" stroke-linejoin="round" stroke-width="1.139"/>
          <rect id="Rectangle_99" data-name="Rectangle 99" width="3.245" height="7.689" transform="translate(337.134 603.167)" fill="none" stroke="#0c125d" stroke-linejoin="round" stroke-width="1.139"/>
          <rect id="Rectangle_100" data-name="Rectangle 100" width="3.245" height="7.689" transform="translate(348.478 603.167)" fill="none" stroke="#0c125d" stroke-linejoin="round" stroke-width="1.139"/>
          <rect id="Rectangle_101" data-name="Rectangle 101" width="3.245" height="7.689" transform="translate(359.821 603.167)" fill="none" stroke="#0c125d" stroke-linejoin="round" stroke-width="1.139"/>
          <path id="Path_224" data-name="Path 224" d="M198.549,570.473s19.442-40.229,72.081-40.506S342.726,581,342.726,581" transform="translate(55.292 149.273)" fill="none" stroke="#0c125d" stroke-linejoin="round" stroke-width="1.139"/>
        </g>
      </g>
    </g>
  </g>
</svg>
