<svg xmlns="http://www.w3.org/2000/svg" xmlns:xlink="http://www.w3.org/1999/xlink" width="498.575" height="863.848" viewBox="0 0 498.575 863.848">
  <defs>
    <clipPath id="clip-path">
      <path id="BG" d="M0,0H498.575V863.848H0Z" fill="#f9f9f9"/>
    </clipPath>
  </defs>
  <g id="Mask_Group_1" data-name="Mask Group 1" opacity="0.45" clip-path="url(#clip-path)">
    <g id="b" transform="translate(0 -73.1)">
      <g id="c" transform="translate(0 0)">
        <g id="Group_48" data-name="Group 48">
          <path id="Path_81" data-name="Path 81" d="M364.3,469.052V458.46h-6.748v11.878h-6.748v-6.748h-6.417v6.417h-6.1V459.4h-7.061v15.1H304.876v-9.287h-6.417v9.287H271.486v-9.287h-5.791v9.287H240.931V459h-5.774v11.165H208.584V455.921H198.549V730.5h14.139V635.1c6.748-41.442,61.668-67.459,103.11-48.19s38.538,65.215,38.538,65.215v76.45s15.739.956,15.739,0V471.921l-5.791-2.887Zm-96.762,83.841H240.565V519.885s.435-11.078,13.5-12.278c13.061,1.2,13.5,12.278,13.5,12.278v33.008Zm32.034,0H272.6V519.885s.435-11.078,13.5-12.278c13.06,1.2,13.5,12.278,13.5,12.278v33.008Zm32.034,0H304.633V519.885s.435-11.078,13.5-12.278c13.061,1.2,13.5,12.278,13.5,12.278v33.008Z" transform="translate(103.442 239.136)" fill="none" stroke="#ffc300" stroke-miterlimit="10" stroke-width="1.139"/>
          <path id="Path_82" data-name="Path 82" d="M364.3,469.052V458.46h-6.748v11.878h-6.748v-6.748h-6.417v6.417h-6.1V459.4h-7.061v15.1H304.876v-9.287h-6.417v9.287H271.486v-9.287h-5.791v9.287H240.931V459h-5.774v11.165H208.584V455.921H198.549V730.5h14.139V635.1c6.748-41.442,61.668-67.459,103.11-48.19s38.538,65.215,38.538,65.215v76.45s15.739.956,15.739,0V471.921l-5.791-2.887Zm-96.762,83.841H240.565V519.885s.435-11.078,13.5-12.278c13.061,1.2,13.5,12.278,13.5,12.278v33.008Zm32.034,0H272.6V519.885s.435-11.078,13.5-12.278c13.06,1.2,13.5,12.278,13.5,12.278v33.008Zm32.034,0H304.633V519.885s.435-11.078,13.5-12.278c13.061,1.2,13.5,12.278,13.5,12.278v33.008Z" transform="translate(103.442 239.136)" fill="none" stroke="#ffc300" stroke-linejoin="round" stroke-width="1.139"/>
          <path id="Path_83" data-name="Path 83" d="M305.723,703.231l-10.365-10.365v-9.078h-2.174v-5.808h8.869V659.893h5.461a9.14,9.14,0,0,0-7.843-6.817V637.041h4.087v-4.434L300,628.85V576.3l2.9-2.9v-3.583h-4.261v-4.782h4.782v-4.783s-3.061-5.113-7.513-4.782V539.079h3.756v-6.817h-8.539v-25.93s4.087-1.7,4.087-8.191h-5.113V454.125h3.061V434.682h5.113s.348-11.269-7.165-13.982v-5.113h5.113v-3.756l-5.791-3.409v-8.191l3.756-.678v-2.73l-3.756-3.756v-5.113H295.9V320.39l4.087-7.513h4.435v-7.843l-3.078-3.409V263.4h4.348v-6.435l-20.521-80.311v-5.774H277.1v5.148l-13.5,61.355-22.486,10.921V216.5h-5.148L199,25.338H109.242L72.217,216.463H67.07v31.808L44.583,237.349l-13.5-61.355v-5.148H23.019v5.774l-20.5,80.311v6.435H6.863v38.225L3.785,305v7.843H8.219l4.1,7.513v67.563h5.461v5.113l-3.756,3.756v2.73l3.756.678v8.191L11.976,411.8v3.756h5.113v5.113c-7.513,2.73-7.165,13.982-7.165,13.982h5.113v19.443h3.078v44.016H13c0,6.487,4.1,8.191,4.1,8.191v25.93H8.567v6.817h3.756v16.382c-4.435-.348-7.513,4.782-7.513,4.782v4.782H9.593v4.782H5.315v3.583l2.9,2.9v52.555l-3.756,3.756v4.435H8.55v16.034a9.112,9.112,0,0,0-7.843,6.817H6.167v18.086h8.869v5.808H12.863v9.078L2.5,703.2H9.923v20.469c-5.113.678-4.209,9.217-4.209,9.217V850.809c0,15.425,8.348,12.852,8.348,12.852v91.858h53.32V864.948c0-68.1,86.728-87.371,86.728-87.371s86.728,19.269,86.728,87.371v90.571h53.32V863.661s8.348,2.574,8.348-12.852V732.882s.922-8.522-4.209-9.217V703.2h7.408ZM23.714,274.113l-7.235,4.069v-20.3l7.235-3.374Zm38.8,4.069H49.122v-21.86H62.513v21.86Zm41.564,0H90.686v-21.86h13.391v21.86ZM140.406,72.241l13.721-13.13,13.721,13.13v3.6h-2.835v27.547h-9.53l-1.374-.47-1.374.47h-9.53V75.841h-2.835v-3.6Zm5.235,205.941H132.25v-21.86h13.391v21.86Zm-5.235-48.155V191.42h-5.669v-5.913l18.712-16.469.678,1.774.678-1.774,18.712,16.469v5.913h-5.669v38.607h-27.46Zm35.616,48.155H162.632v-21.86h13.391v21.86Zm41.564,0H204.2v-21.86h13.391v21.86Zm41.564,0H245.76v-21.86h13.391v21.86Zm25.408-23.669,7.235,3.374v20.3l-7.235-4.069Z" transform="translate(-0.706 12.469)" fill="none" stroke="#ffc300" stroke-miterlimit="10" stroke-width="1.139"/>
          <path id="Path_84" data-name="Path 84" d="M25.091,104.822a2.219,2.219,0,0,1-2.226,2.226h-5.3a2.219,2.219,0,0,1-2.226-2.226h0a2.219,2.219,0,0,1,2.226-2.226h5.3a2.219,2.219,0,0,1,2.226,2.226Z" transform="translate(6.995 53.139)" fill="none" stroke="#ffc300" stroke-linejoin="round" stroke-width="1.139"/>
          <path id="Path_85" data-name="Path 85" d="M74.223,38.515a1.2,1.2,0,0,1-1.2,1.2h0a1.2,1.2,0,0,1-1.2-1.2V6.429a1.2,1.2,0,0,1,1.2-1.2h0a1.2,1.2,0,0,1,1.2,1.2Z" transform="translate(36.731 1.883)" fill="none" stroke="#ffc300" stroke-linejoin="round" stroke-width="1.139"/>
          <path id="Path_86" data-name="Path 86" d="M79.591,5.77a5.2,5.2,0,0,1-5.2,5.2h0a5.2,5.2,0,0,1-5.2-5.2h0a5.2,5.2,0,0,1,5.2-5.2h0a5.2,5.2,0,0,1,5.2,5.2Z" transform="translate(35.345 -0.57)" fill="none" stroke="#ffc300" stroke-linejoin="round" stroke-width="1.139"/>
          <path id="Path_87" data-name="Path 87" d="M1.891,181.38l25.373-12.521L48.5,180.771H153.5" transform="translate(-0.083 88.021)" fill="none" stroke="#ffc300" stroke-linejoin="round" stroke-width="1.139"/>
          <line id="Line_15" data-name="Line 15" y1="46.19" transform="translate(10.8 264.966)" fill="none" stroke="#ffc300" stroke-linejoin="round" stroke-width="1.139"/>
          <line id="Line_16" data-name="Line 16" y2="45.129" transform="translate(27.182 256.879)" fill="none" stroke="#ffc300" stroke-linejoin="round" stroke-width="1.139"/>
          <path id="Path_88" data-name="Path 88" d="M152,208.371H37.173l-11.408-9.948L4.74,210.476" transform="translate(1.417 103.584)" fill="none" stroke="#ffc300" stroke-linejoin="round" stroke-width="1.139"/>
          <path id="Path_89" data-name="Path 89" d="M151.537,220.716H37.679v-3.687l-7.565-7.565H12.289l-6.661,6.469" transform="translate(1.885 109.396)" fill="none" stroke="#ffc300" stroke-linejoin="round" stroke-width="1.139"/>
          <path id="Path_90" data-name="Path 90" d="M31.849,216.835v7.878H24.927v50.259h4.817v12.052H24.927V294.9H21.553v38.868H16.736c.487,0,0,93.788,0,93.788S45.483,441.7,57.048,481.836V408.916s-.33-12.852,1.6-19.269A37.388,37.388,0,0,0,59.935,376.8H56.874V356.709H52.057s-2.887-26.5,5.061-43.355V302.746l-2.417-2.4v-27.7S53.744,256.973,40,252.4c0,0-13.9,5.061-15.1,17.339" transform="translate(7.715 113.276)" fill="none" stroke="#ffc300" stroke-linejoin="round" stroke-width="1.139"/>
          <path id="Path_91" data-name="Path 91" d="M76.483,216.835v21.112s1.443,13.739,20.243,17.582c0,0,12.608-.73,17.513-17.1" transform="translate(39.184 113.276)" fill="none" stroke="#ffc300" stroke-linejoin="round" stroke-width="1.139"/>
          <path id="Path_92" data-name="Path 92" d="M45.869,216.835v21.356s8.678,15.9,24.33,17.339a29.375,29.375,0,0,0,22.4-17.582" transform="translate(23.068 113.276)" fill="none" stroke="#ffc300" stroke-linejoin="round" stroke-width="1.139"/>
          <path id="Path_93" data-name="Path 93" d="M22.091,236.611a24.347,24.347,0,0,0,15.1,8.435s14.939-.487,21.2-14.208" transform="translate(10.551 120.647)" fill="none" stroke="#ffc300" stroke-linejoin="round" stroke-width="1.139"/>
          <path id="Path_94" data-name="Path 94" d="M129.718,261.7s-5.461-16.139-17.512-19.512c0,0-13.721,6.748-15.9,19.512v27.46H88.119V261.211s-4.748-13.5-18.556-19.026c0,0-15.9,4.574-19.756,19.269v25.3l-2.73,3.026v9.374s7.6,13.53,5.93,44.851H49.737v19.443H47.094v6.9s1.2,6.748,2.174,10.434c.956,3.687,0,15.1,0,28.26v60.711s5.948-32.608,27.147-47.059,50.746-30.677,50.746-37.095v-9.321s-3.53,0-3.53-2.887v-3.53a6.454,6.454,0,0,1,2.574-3.217V343.365s-3.374-2.73-3.217-4.974-1.443-28.1,3.217-36.451V268.863h3.53v-7.148Z" transform="translate(23.704 126.621)" fill="none" stroke="#ffc300" stroke-linejoin="round" stroke-width="1.139"/>
          <path id="Path_95" data-name="Path 95" d="M80.373,293.569a3.11,3.11,0,0,1-3.113,3.113h0a3.11,3.11,0,0,1-3.113-3.113v-9.443a3.11,3.11,0,0,1,3.113-3.113h0a3.11,3.11,0,0,1,3.113,3.113Z" transform="translate(37.954 147.061)" fill="none" stroke="#ffc300" stroke-linejoin="round" stroke-width="1.139"/>
          <path id="Path_96" data-name="Path 96" d="M87.2,286.06v4.835a3.113,3.113,0,1,1-6.226,0V286.06H61.181v81.267H107.2V286.06Z" transform="translate(31.129 149.718)" fill="none" stroke="#ffc300" stroke-linejoin="round" stroke-width="1.139"/>
          <rect id="Rectangle_37" data-name="Rectangle 37" width="10.608" height="20.243" transform="translate(100.501 446.63)" fill="none" stroke="#ffc300" stroke-linejoin="round" stroke-width="1.139"/>
          <rect id="Rectangle_38" data-name="Rectangle 38" width="10.591" height="20.243" transform="translate(118.327 446.63)" fill="none" stroke="#ffc300" stroke-linejoin="round" stroke-width="1.139"/>
          <rect id="Rectangle_39" data-name="Rectangle 39" width="10.608" height="20.243" transform="translate(100.501 469.273)" fill="none" stroke="#ffc300" stroke-linejoin="round" stroke-width="1.139"/>
          <rect id="Rectangle_40" data-name="Rectangle 40" width="10.591" height="20.243" transform="translate(118.327 469.273)" fill="none" stroke="#ffc300" stroke-linejoin="round" stroke-width="1.139"/>
          <rect id="Rectangle_41" data-name="Rectangle 41" width="10.608" height="20.243" transform="translate(100.501 491.915)" fill="none" stroke="#ffc300" stroke-linejoin="round" stroke-width="1.139"/>
          <rect id="Rectangle_42" data-name="Rectangle 42" width="10.591" height="20.243" transform="translate(118.327 491.915)" fill="none" stroke="#ffc300" stroke-linejoin="round" stroke-width="1.139"/>
          <line id="Line_17" data-name="Line 17" x1="61.024" transform="translate(72.954 544.679)" fill="none" stroke="#ffc300" stroke-linejoin="round" stroke-width="1.139"/>
          <line id="Line_18" data-name="Line 18" x1="48.381" transform="translate(16.382 544.679)" fill="none" stroke="#ffc300" stroke-linejoin="round" stroke-width="1.139"/>
          <path id="Path_97" data-name="Path 97" d="M14.707,357.4v6.348H10.846v17.026s6.608.052,6.608,9.634H10.846v4.956h6.608v2.748l-4.243,4.243v14.452s6.052,4.817,6.556,9.634c.522,4.817-5.739,7.878-5.739,7.878v19.426l6.417,2.887v4.817H13.7v14.782S27.507,455.68,58.027,456.48v-40.8s-9.669-11.721-22.1-14.782v-8.835h-5.2V400.1s-12.7,3.687-16.7,12.208" transform="translate(4.631 187.275)" fill="none" stroke="#ffc300" stroke-linejoin="round" stroke-width="1.139"/>
          <path id="Path_98" data-name="Path 98" d="M31.769,379.038a2.175,2.175,0,0,1-2.174,2.174H24.778a2.175,2.175,0,0,1-2.174-2.174h0a2.175,2.175,0,0,1,2.174-2.174H29.6a2.175,2.175,0,0,1,2.174,2.174Z" transform="translate(10.821 197.518)" fill="none" stroke="#ffc300" stroke-linejoin="round" stroke-width="1.139"/>
          <path id="Path_99" data-name="Path 99" d="M28.972,372.456a2,2,0,0,1-2,2H26.1a2.015,2.015,0,0,1-2.017-2h0a2.019,2.019,0,0,1,2.017-2.017h.87a2,2,0,0,1,2,2.017Z" transform="translate(11.601 194.136)" fill="none" stroke="#ffc300" stroke-linejoin="round" stroke-width="1.139"/>
          <path id="Path_100" data-name="Path 100" d="M26.616,378.177a.7.7,0,0,1-.7.7h0a.7.7,0,0,1-.7-.7v-4.4a.7.7,0,0,1,.7-.7h0a.7.7,0,0,1,.7.7Z" transform="translate(12.2 195.527)" fill="none" stroke="#ffc300" stroke-linejoin="round" stroke-width="1.139"/>
          <path id="Path_101" data-name="Path 101" d="M71.281,379.038a2.175,2.175,0,0,1-2.174,2.174H64.29a2.175,2.175,0,0,1-2.174-2.174h0a2.175,2.175,0,0,1,2.174-2.174h4.817a2.175,2.175,0,0,1,2.174,2.174Z" transform="translate(31.621 197.518)" fill="none" stroke="#ffc300" stroke-linejoin="round" stroke-width="1.139"/>
          <path id="Path_102" data-name="Path 102" d="M68.478,372.456a2,2,0,0,1-2,2h-.87a2,2,0,0,1-2-2h0a2.015,2.015,0,0,1,2-2.017h.87a2,2,0,0,1,2,2.017Z" transform="translate(32.406 194.136)" fill="none" stroke="#ffc300" stroke-linejoin="round" stroke-width="1.139"/>
          <path id="Path_103" data-name="Path 103" d="M66.127,378.177a.7.7,0,0,1-.7.7h0a.7.7,0,0,1-.7-.7v-4.4a.7.7,0,0,1,.7-.7h0a.7.7,0,0,1,.7.7Z" transform="translate(33 195.527)" fill="none" stroke="#ffc300" stroke-linejoin="round" stroke-width="1.139"/>
          <path id="Path_104" data-name="Path 104" d="M113.32,341.613h-3.53V349.8h-3.374v5.061c0-.487,3.443,0,3.443,0v12.052s-14.3,19.269-19.356,44.329V395.421s-.956-7.948-6.017-9.791c0,0-5.3,3.374-6.261,11.965v21.112" transform="translate(40.101 178.962)" fill="none" stroke="#ffc300" stroke-linejoin="round" stroke-width="1.139"/>
          <path id="Path_105" data-name="Path 105" d="M49.5,444.359V404.534s10.852-15.1,21.686-17.513V380.76h4.33v5.061s18.069,5.774,21.686,21.93v64.328s-7.461-23.843-47.7-27.7Z" transform="translate(24.981 199.57)" fill="none" stroke="#ffc300" stroke-linejoin="round" stroke-width="1.139"/>
          <path id="Path_106" data-name="Path 106" d="M111.779,482.242s6.278-8.191-.713-13.252V457.669s-5.948-26.278-40.955-29.877v9.148h-14.5v-9.148c-35.008,3.582-40.955,29.877-40.955,29.877V468.99c-6.991,5.061-.713,13.252-.713,13.252v13.5l-2.4,2.4v5.3l2.4,2.4V513.3H55.624v-20l-4.33-10.121v-4.1h3.861v-15.9H57.8v-5.061H54.181c-1.443-5.548,1.93-7.461,1.93-7.461h3.374v-7.948l3.391-1.687,3.391,1.687v7.948h3.374s3.374,1.93,1.93,7.461H67.954v5.061H70.6v15.9h3.861v4.1L70.128,493.3v20h41.686v-7.461l2.4-2.4v-5.3l-2.4-2.4v-13.5Z" transform="translate(4.896 224.328)" fill="none" stroke="#ffc300" stroke-linejoin="round" stroke-width="1.139"/>
          <line id="Line_19" data-name="Line 19" x2="22.695" transform="translate(56.172 707.526)" fill="none" stroke="#ffc300" stroke-linejoin="round" stroke-width="1.139"/>
          <path id="Path_107" data-name="Path 107" d="M31.981,609.2s7.078-83.824,105.684-104.067" transform="translate(15.757 265.039)" fill="none" stroke="#ffc300" stroke-linejoin="round" stroke-width="1.139"/>
          <line id="Line_20" data-name="Line 20" x2="137.944" transform="translate(15.478 767.75)" fill="none" stroke="#ffc300" stroke-linejoin="round" stroke-width="1.139"/>
          <path id="Path_108" data-name="Path 108" d="M149.21,469.981H124.724a8,8,0,0,0-4.574,9.965c2.087,7.391,5.3,13.965,0,16.939h-48.9s-3.322,4.817-7.687,5.061-7.008-5.061-7.008-5.061-46.5-1.443-46.5,0V627.7" transform="translate(4.212 246.537)" fill="none" stroke="#ffc300" stroke-linejoin="round" stroke-width="1.139"/>
          <path id="Path_109" data-name="Path 109" d="M107.976,473.775H93.838v7.7a8.175,8.175,0,0,0-5.461,7.635c0,5.878,2.887,5.217,4.817,6.5v15.1s0,6.1,7.391,8.5" transform="translate(45.445 248.534)" fill="none" stroke="#ffc300" stroke-linejoin="round" stroke-width="1.139"/>
          <path id="Path_110" data-name="Path 110" d="M180.707,104.822a2.219,2.219,0,0,0,2.226,2.226h5.3a2.219,2.219,0,0,0,2.226-2.226h0a2.219,2.219,0,0,0-2.226-2.226h-5.3a2.219,2.219,0,0,0-2.226,2.226Z" transform="translate(94.049 53.139)" fill="none" stroke="#ffc300" stroke-linejoin="round" stroke-width="1.139"/>
          <path id="Path_111" data-name="Path 111" d="M129.039,38.515a1.2,1.2,0,0,0,1.2,1.2h0a1.2,1.2,0,0,0,1.2-1.2V6.429a1.2,1.2,0,0,0-1.2-1.2h0a1.2,1.2,0,0,0-1.2,1.2Z" transform="translate(66.85 1.883)" fill="none" stroke="#ffc300" stroke-linejoin="round" stroke-width="1.139"/>
          <path id="Path_112" data-name="Path 112" d="M126.419,5.77a5.2,5.2,0,0,0,5.2,5.2h0a5.2,5.2,0,0,0,5.2-5.2h0a5.2,5.2,0,0,0-5.2-5.2h0a5.2,5.2,0,0,0-5.2,5.2Z" transform="translate(65.471 -0.57)" fill="none" stroke="#ffc300" stroke-linejoin="round" stroke-width="1.139"/>
          <path id="Path_113" data-name="Path 113" d="M305.723,703.231l-10.365-10.365v-9.078h-2.174v-5.808h8.869V659.893h5.461a9.14,9.14,0,0,0-7.843-6.817V637.041h4.087v-4.434L300,628.85V576.3l2.9-2.9v-3.583h-4.261v-4.782h4.782v-4.783s-3.061-5.113-7.513-4.782V539.079h3.756v-6.817h-8.539v-25.93s4.087-1.7,4.087-8.191h-5.113V454.125h3.061V434.682h5.113s.348-11.269-7.165-13.982v-5.113h5.113v-3.756l-5.791-3.409v-8.191l3.756-.678v-2.73l-3.756-3.756v-5.113H295.9V320.39l4.087-7.513h4.435v-7.843l-3.078-3.409V263.4h4.348v-6.435l-20.521-80.311v-5.774H277.1v5.148l-13.5,61.355-22.486,10.921V216.5h-5.148L199,25.338H109.242L72.217,216.463H67.07v31.808L44.583,237.349l-13.5-61.355v-5.148H23.019v5.774l-20.5,80.311v6.435H6.863v38.225L3.785,305v7.843H8.219l4.1,7.513v67.563h5.461v5.113l-3.756,3.756v2.73l3.756.678v8.191L11.976,411.8v3.756h5.113v5.113c-7.513,2.73-7.165,13.982-7.165,13.982h5.113v19.443h3.078v44.016H13c0,6.487,4.1,8.191,4.1,8.191v25.93H8.567v6.817h3.756v16.382c-4.435-.348-7.513,4.782-7.513,4.782v4.782H9.593v4.782H5.315v3.583l2.9,2.9v52.555l-3.756,3.756v4.435H8.55v16.034a9.112,9.112,0,0,0-7.843,6.817H6.167v18.086h8.869v5.808H12.863v9.078L2.5,703.2H9.923v20.469c-5.113.678-4.209,9.217-4.209,9.217V850.809c0,15.425,8.348,12.852,8.348,12.852v91.858h53.32V864.948c0-68.1,86.728-87.371,86.728-87.371s86.728,19.269,86.728,87.371v90.571h53.32V863.661s8.348,2.574,8.348-12.852V732.882s.922-8.522-4.209-9.217V703.2h7.408ZM23.714,274.113l-7.235,4.069v-20.3l7.235-3.374Zm38.8,4.069H49.122v-21.86H62.513v21.86Zm41.564,0H90.686v-21.86h13.391v21.86ZM140.406,72.241l13.721-13.13,13.721,13.13v3.6h-2.835v27.547h-9.53l-1.374-.47-1.374.47h-9.53V75.841h-2.835v-3.6Zm5.235,205.941H132.25v-21.86h13.391v21.86Zm-5.235-48.155V191.42h-5.669v-5.913l18.712-16.469.678,1.774.678-1.774,18.712,16.469v5.913h-5.669v38.607h-27.46Zm35.616,48.155H162.632v-21.86h13.391v21.86Zm41.564,0H204.2v-21.86h13.391v21.86Zm41.564,0H245.76v-21.86h13.391v21.86Zm25.408-23.669,7.235,3.374v20.3l-7.235-4.069Z" transform="translate(-0.706 12.469)" fill="none" stroke="#ffc300" stroke-linejoin="round" stroke-width="1.139"/>
          <path id="Path_114" data-name="Path 114" d="M252.813,181.38l-25.373-12.521-21.217,11.913H101.217" transform="translate(52.204 88.021)" fill="none" stroke="#ffc300" stroke-linejoin="round" stroke-width="1.139"/>
          <line id="Line_21" data-name="Line 21" y1="46.19" transform="translate(296.026 264.966)" fill="none" stroke="#ffc300" stroke-linejoin="round" stroke-width="1.139"/>
          <line id="Line_22" data-name="Line 22" y2="45.129" transform="translate(279.644 256.879)" fill="none" stroke="#ffc300" stroke-linejoin="round" stroke-width="1.139"/>
          <path id="Path_115" data-name="Path 115" d="M101.217,208.371H216.048l11.391-9.948,21.043,12.052" transform="translate(52.204 103.584)" fill="none" stroke="#ffc300" stroke-linejoin="round" stroke-width="1.139"/>
          <path id="Path_116" data-name="Path 116" d="M101.217,220.716h113.84v-3.687l7.565-7.565h17.826l6.661,6.469" transform="translate(52.204 109.396)" fill="none" stroke="#ffc300" stroke-linejoin="round" stroke-width="1.139"/>
          <path id="Path_117" data-name="Path 117" d="M185.519,216.835v7.878h6.922v50.259h-4.817v12.052h4.817V294.9h3.374v38.868h4.817c-.487,0,0,93.788,0,93.788s-28.747,14.139-40.312,54.277V408.916s.33-12.852-1.6-19.269a37.388,37.388,0,0,1-1.287-12.852h3.043V356.709h4.817s2.887-26.5-5.061-43.355V302.746l2.4-2.4v-27.7s.957-15.669,14.7-20.243c0,0,13.9,5.061,15.1,17.339" transform="translate(81.743 113.276)" fill="none" stroke="#ffc300" stroke-linejoin="round" stroke-width="1.139"/>
          <path id="Path_118" data-name="Path 118" d="M138.961,216.835v21.112s-1.443,13.739-20.243,17.582c0,0-12.608-.73-17.512-17.1" transform="translate(52.198 113.276)" fill="none" stroke="#ffc300" stroke-linejoin="round" stroke-width="1.139"/>
          <path id="Path_119" data-name="Path 119" d="M172.669,216.835v21.356s-8.678,15.9-24.33,17.339a29.375,29.375,0,0,1-22.4-17.582" transform="translate(65.219 113.276)" fill="none" stroke="#ffc300" stroke-linejoin="round" stroke-width="1.139"/>
          <path id="Path_120" data-name="Path 120" d="M192.848,236.611a24.346,24.346,0,0,1-15.1,8.435s-14.939-.487-21.2-14.208" transform="translate(81.335 120.647)" fill="none" stroke="#ffc300" stroke-linejoin="round" stroke-width="1.139"/>
          <path id="Path_121" data-name="Path 121" d="M101.223,261.7s5.461-16.139,17.513-19.512c0,0,13.739,6.748,15.9,19.512v27.46h8.191V261.211s4.765-13.5,18.556-19.026c0,0,15.9,4.574,19.756,19.269v25.3l2.73,3.026v9.374s-7.6,13.53-5.93,44.851H181.2v19.443h2.643v6.9s-1.2,6.748-2.174,10.434c-.956,3.687,0,15.1,0,28.26v60.711s-5.948-32.608-27.147-47.059-50.746-30.677-50.746-37.095v-9.321s3.53,0,3.53-2.887v-3.53a6.453,6.453,0,0,0-2.574-3.217V343.365s3.374-2.73,3.217-4.974,1.443-28.1-3.217-36.451V268.863h-3.53v-7.148Z" transform="translate(52.198 126.621)" fill="none" stroke="#ffc300" stroke-linejoin="round" stroke-width="1.139"/>
          <path id="Path_122" data-name="Path 122" d="M124.209,293.569a3.11,3.11,0,0,0,3.113,3.113h0a3.11,3.11,0,0,0,3.113-3.113v-9.443a3.11,3.11,0,0,0-3.113-3.113h0a3.11,3.11,0,0,0-3.113,3.113Z" transform="translate(64.307 147.061)" fill="none" stroke="#ffc300" stroke-linejoin="round" stroke-width="1.139"/>
          <path id="Path_123" data-name="Path 123" d="M131.106,286.06v4.835a3.113,3.113,0,1,0,6.226,0V286.06h19.791v81.267H111.106V286.06Z" transform="translate(57.41 149.718)" fill="none" stroke="#ffc300" stroke-linejoin="round" stroke-width="1.139"/>
          <rect id="Rectangle_43" data-name="Rectangle 43" width="10.591" height="20.243" transform="translate(195.733 446.63)" fill="none" stroke="#ffc300" stroke-linejoin="round" stroke-width="1.139"/>
          <rect id="Rectangle_44" data-name="Rectangle 44" width="10.608" height="20.243" transform="translate(177.908 446.63)" fill="none" stroke="#ffc300" stroke-linejoin="round" stroke-width="1.139"/>
          <rect id="Rectangle_45" data-name="Rectangle 45" width="10.591" height="20.243" transform="translate(195.733 469.273)" fill="none" stroke="#ffc300" stroke-linejoin="round" stroke-width="1.139"/>
          <rect id="Rectangle_46" data-name="Rectangle 46" width="10.608" height="20.243" transform="translate(177.908 469.273)" fill="none" stroke="#ffc300" stroke-linejoin="round" stroke-width="1.139"/>
          <rect id="Rectangle_47" data-name="Rectangle 47" width="10.591" height="20.243" transform="translate(195.733 491.915)" fill="none" stroke="#ffc300" stroke-linejoin="round" stroke-width="1.139"/>
          <rect id="Rectangle_48" data-name="Rectangle 48" width="10.608" height="20.243" transform="translate(177.908 491.915)" fill="none" stroke="#ffc300" stroke-linejoin="round" stroke-width="1.139"/>
          <line id="Line_23" data-name="Line 23" x2="61.024" transform="translate(172.847 544.679)" fill="none" stroke="#ffc300" stroke-linejoin="round" stroke-width="1.139"/>
          <line id="Line_24" data-name="Line 24" x2="48.381" transform="translate(242.062 544.679)" fill="none" stroke="#ffc300" stroke-linejoin="round" stroke-width="1.139"/>
          <path id="Path_124" data-name="Path 124" d="M203.987,357.4v6.348h3.861v17.026s-6.609.052-6.609,9.634h6.609v4.956h-6.609v2.748l4.243,4.243v14.452s-6.052,4.817-6.574,9.634,5.756,7.878,5.756,7.878v19.426l-6.417,2.887v4.817H205v14.782s-13.808-20.556-44.329-19.756v-40.8s9.669-11.721,22.1-14.782v-8.835h5.2V400.1s12.678,3.687,16.7,12.208" transform="translate(83.5 187.275)" fill="none" stroke="#ffc300" stroke-linejoin="round" stroke-width="1.139"/>
          <path id="Path_125" data-name="Path 125" d="M173.815,379.038a2.175,2.175,0,0,0,2.174,2.174h4.817a2.175,2.175,0,0,0,2.174-2.174h0a2.175,2.175,0,0,0-2.174-2.174h-4.817a2.175,2.175,0,0,0-2.174,2.174Z" transform="translate(90.421 197.518)" fill="none" stroke="#ffc300" stroke-linejoin="round" stroke-width="1.139"/>
          <path id="Path_126" data-name="Path 126" d="M175.136,372.456a2,2,0,0,0,2,2h.87a2,2,0,0,0,2-2h0a2.015,2.015,0,0,0-2-2.017h-.87a2,2,0,0,0-2,2.017Z" transform="translate(91.117 194.136)" fill="none" stroke="#ffc300" stroke-linejoin="round" stroke-width="1.139"/>
          <path id="Path_127" data-name="Path 127" d="M176.287,378.177a.7.7,0,0,0,.7.7h0a.7.7,0,0,0,.7-.7v-4.4a.7.7,0,0,0-.7-.7h0a.7.7,0,0,0-.7.7Z" transform="translate(91.722 195.527)" fill="none" stroke="#ffc300" stroke-linejoin="round" stroke-width="1.139"/>
          <path id="Path_128" data-name="Path 128" d="M134.3,379.038a2.175,2.175,0,0,0,2.174,2.174h4.817a2.175,2.175,0,0,0,2.174-2.174h0a2.175,2.175,0,0,0-2.174-2.174h-4.817a2.175,2.175,0,0,0-2.174,2.174Z" transform="translate(69.621 197.518)" fill="none" stroke="#ffc300" stroke-linejoin="round" stroke-width="1.139"/>
          <path id="Path_129" data-name="Path 129" d="M135.625,372.456a2,2,0,0,0,2,2h.87a2.015,2.015,0,0,0,2.017-2h0a2.019,2.019,0,0,0-2.017-2.017h-.87a2,2,0,0,0-2,2.017Z" transform="translate(70.317 194.136)" fill="none" stroke="#ffc300" stroke-linejoin="round" stroke-width="1.139"/>
          <path id="Path_130" data-name="Path 130" d="M136.775,378.177a.7.7,0,0,0,.7.7h0a.7.7,0,0,0,.7-.7v-4.4a.7.7,0,0,0-.7-.7h0a.7.7,0,0,0-.7.7Z" transform="translate(70.923 195.527)" fill="none" stroke="#ffc300" stroke-linejoin="round" stroke-width="1.139"/>
          <path id="Path_131" data-name="Path 131" d="M101.217,341.613h3.53V349.8h3.374v5.061c0-.487-3.443,0-3.443,0v12.052s14.3,19.269,19.356,44.329V395.421s.957-7.948,6.017-9.791c0,0,5.3,3.374,6.261,11.965v21.112" transform="translate(52.204 178.962)" fill="none" stroke="#ffc300" stroke-linejoin="round" stroke-width="1.139"/>
          <path id="Path_132" data-name="Path 132" d="M169.382,444.359V404.534s-10.834-15.1-21.686-17.513V380.76h-4.33v5.061s-18.069,5.774-21.686,21.93v64.328s7.461-23.843,47.7-27.7Z" transform="translate(62.976 199.57)" fill="none" stroke="#ffc300" stroke-linejoin="round" stroke-width="1.139"/>
          <path id="Path_133" data-name="Path 133" d="M126.173,482.242s-6.278-8.191.713-13.252V457.669s5.948-26.278,40.955-29.877v9.148h14.5v-9.148c35.008,3.582,40.955,29.877,40.955,29.877V468.99c6.991,5.061.713,13.252.713,13.252v13.5l2.4,2.4v5.3l-2.4,2.4V513.3H182.345v-20l4.33-10.121v-4.1h-3.861v-15.9h-2.643v-5.061h3.617c1.443-5.548-1.93-7.461-1.93-7.461h-3.374v-7.948l-3.391-1.687-3.391,1.687v7.948h-3.374s-3.374,1.93-1.93,7.461h3.617v5.061h-2.643v15.9h-3.861v4.1l4.33,10.121v20H126.173v-7.461l-2.4-2.4v-5.3l2.4-2.4Z" transform="translate(63.978 224.328)" fill="none" stroke="#ffc300" stroke-linejoin="round" stroke-width="1.139"/>
          <line id="Line_25" data-name="Line 25" x1="22.678" transform="translate(227.976 707.526)" fill="none" stroke="#ffc300" stroke-linejoin="round" stroke-width="1.139"/>
          <path id="Path_134" data-name="Path 134" d="M206.889,609.2s-7.061-83.824-105.684-104.067" transform="translate(52.198 265.039)" fill="none" stroke="#ffc300" stroke-linejoin="round" stroke-width="1.139"/>
          <line id="Line_26" data-name="Line 26" x1="137.926" transform="translate(153.421 767.75)" fill="none" stroke="#ffc300" stroke-linejoin="round" stroke-width="1.139"/>
          <g id="Group_46" data-name="Group 46" transform="translate(128.918 552.07)">
            <path id="Path_135" data-name="Path 135" d="M85.164,409.8V496.53h48.99V409.8H85.164Z" transform="translate(-85.164 -337.213)" fill="none" stroke="#ffc300" stroke-linejoin="round" stroke-width="1.139"/>
            <path id="Path_136" data-name="Path 136" d="M109.668,362.247l-24.5,52.033v11.565h48.99V414.28Z" transform="translate(-85.164 -362.247)" fill="none" stroke="#ffc300" stroke-linejoin="round" stroke-width="1.139"/>
          </g>
          <path id="Path_137" data-name="Path 137" d="M101.217,469.981H125.7a8,8,0,0,1,4.574,9.965c-2.087,7.391-5.3,13.965,0,16.939h48.9s3.322,4.817,7.687,5.061,7.008-5.061,7.008-5.061,46.5-1.443,46.5,0V627.7" transform="translate(52.204 246.537)" fill="none" stroke="#ffc300" stroke-linejoin="round" stroke-width="1.139"/>
          <path id="Path_138" data-name="Path 138" d="M101.217,473.775h14.139v7.7a8.175,8.175,0,0,1,5.461,7.635c0,5.878-2.887,5.217-4.817,6.5v15.1s0,6.1-7.391,8.5" transform="translate(52.204 248.534)" fill="none" stroke="#ffc300" stroke-linejoin="round" stroke-width="1.139"/>
          <g id="Group_47" data-name="Group 47" transform="translate(135.874 631.459)">
            <rect id="Rectangle_49" data-name="Rectangle 49" width="11.6" height="20.886" fill="none" stroke="#ffc300" stroke-linejoin="round" stroke-width="1.139"/>
            <rect id="Rectangle_50" data-name="Rectangle 50" width="11.6" height="20.886" transform="translate(21.53)" fill="none" stroke="#ffc300" stroke-linejoin="round" stroke-width="1.139"/>
            <rect id="Rectangle_51" data-name="Rectangle 51" width="11.6" height="20.886" transform="translate(0 26.59)" fill="none" stroke="#ffc300" stroke-linejoin="round" stroke-width="1.139"/>
            <rect id="Rectangle_52" data-name="Rectangle 52" width="11.6" height="20.886" transform="translate(21.53 26.59)" fill="none" stroke="#ffc300" stroke-linejoin="round" stroke-width="1.139"/>
            <rect id="Rectangle_53" data-name="Rectangle 53" width="11.6" height="20.886" transform="translate(0 53.181)" fill="none" stroke="#ffc300" stroke-linejoin="round" stroke-width="1.139"/>
            <rect id="Rectangle_54" data-name="Rectangle 54" width="11.6" height="20.886" transform="translate(21.53 53.181)" fill="none" stroke="#ffc300" stroke-linejoin="round" stroke-width="1.139"/>
          </g>
          <rect id="Rectangle_55" data-name="Rectangle 55" width="2.991" height="24.017" transform="translate(24.938 159.3)" fill="none" stroke="#ffc300" stroke-linejoin="round" stroke-width="1.139"/>
          <rect id="Rectangle_56" data-name="Rectangle 56" width="3.53" height="23.13" transform="translate(277.992 160.186)" fill="none" stroke="#ffc300" stroke-linejoin="round" stroke-width="1.139"/>
          <line id="Line_27" data-name="Line 27" y2="23.53" transform="translate(153.421 330.112)" fill="none" stroke="#ffc300" stroke-linejoin="round" stroke-width="1.139"/>
          <path id="Path_139" data-name="Path 139" d="M120.412,214.019c0,5.009-5.843,9.078-13.078,9.078s-13.078-4.069-13.078-9.078,5.843-9.078,13.078-9.078S120.412,209.01,120.412,214.019Z" transform="translate(48.54 107.015)" fill="none" stroke="#ffc300" stroke-linejoin="round" stroke-width="1.139"/>
          <path id="Path_140" data-name="Path 140" d="M208.578,455.933v14.243h26.573V459.011h5.774v15.5h24.764v-9.287h5.791v9.287h26.973v-9.287h6.417v9.287h26.347v-15.1h7.061v10.608h6.1V463.6H350.8v6.748h6.748V458.472h6.748v10.591l5.791,2.887V728.6c0,.956-15.739,0-15.739,0v-76.45s2.887-45.929-38.538-65.215c-41.442-19.269-96.362,6.747-103.11,48.19v95.406H198.561V455.95H208.6Z" transform="translate(103.448 239.142)" fill="none" stroke="#ffc300" stroke-linejoin="round" stroke-width="1.139"/>
          <path id="Path_141" data-name="Path 141" d="M198.549,488.849h17.2v11.808h12.034V490.78h7.234v-7.947H251.4v4.574h5.3v-4.574h12.034v4.33h4.574v-4.33H284.32v3.843h5.617v-3.843h9.878v4.33h5.3v-4.33H315v4.33h4.817v-4.33h16.139v6.991h6.017v10.835h11.321V488.849h16.8" transform="translate(103.442 253.302)" fill="none" stroke="#ffc300" stroke-linejoin="round" stroke-width="1.139"/>
          <rect id="Rectangle_57" data-name="Rectangle 57" width="3.861" height="9.148" transform="translate(318.46 717.578)" fill="none" stroke="#ffc300" stroke-linejoin="round" stroke-width="1.139"/>
          <rect id="Rectangle_58" data-name="Rectangle 58" width="3.861" height="9.148" transform="translate(329.294 717.578)" fill="none" stroke="#ffc300" stroke-linejoin="round" stroke-width="1.139"/>
          <rect id="Rectangle_59" data-name="Rectangle 59" width="3.861" height="9.148" transform="translate(446.143 717.578)" fill="none" stroke="#ffc300" stroke-linejoin="round" stroke-width="1.139"/>
          <rect id="Rectangle_60" data-name="Rectangle 60" width="3.861" height="9.148" transform="translate(456.977 717.578)" fill="none" stroke="#ffc300" stroke-linejoin="round" stroke-width="1.139"/>
          <rect id="Rectangle_61" data-name="Rectangle 61" width="3.861" height="9.148" transform="translate(347.12 717.578)" fill="none" stroke="#ffc300" stroke-linejoin="round" stroke-width="1.139"/>
          <rect id="Rectangle_62" data-name="Rectangle 62" width="3.861" height="9.148" transform="translate(360.615 717.578)" fill="none" stroke="#ffc300" stroke-linejoin="round" stroke-width="1.139"/>
          <rect id="Rectangle_63" data-name="Rectangle 63" width="3.861" height="9.148" transform="translate(374.11 717.578)" fill="none" stroke="#ffc300" stroke-linejoin="round" stroke-width="1.139"/>
          <rect id="Rectangle_64" data-name="Rectangle 64" width="3.861" height="9.148" transform="translate(387.606 717.578)" fill="none" stroke="#ffc300" stroke-linejoin="round" stroke-width="1.139"/>
          <rect id="Rectangle_65" data-name="Rectangle 65" width="3.861" height="9.148" transform="translate(401.083 717.578)" fill="none" stroke="#ffc300" stroke-linejoin="round" stroke-width="1.139"/>
          <rect id="Rectangle_66" data-name="Rectangle 66" width="3.861" height="9.148" transform="translate(414.579 717.578)" fill="none" stroke="#ffc300" stroke-linejoin="round" stroke-width="1.139"/>
          <rect id="Rectangle_67" data-name="Rectangle 67" width="3.861" height="9.148" transform="translate(428.074 717.578)" fill="none" stroke="#ffc300" stroke-linejoin="round" stroke-width="1.139"/>
          <path id="Path_142" data-name="Path 142" d="M198.549,578.156s23.13-47.859,85.754-48.19c62.642-.33,85.771,60.711,85.771,60.711" transform="translate(103.442 278.113)" fill="none" stroke="#ffc300" stroke-linejoin="round" stroke-width="1.139"/>
        </g>
      </g>
    </g>
  </g>
</svg>
