<svg xmlns="http://www.w3.org/2000/svg">
  <!-- <symbol id="arrow-circle" viewBox="0 0 52 52" fill="none">
    <path d="M28.4242 15.9242L38.5757 26L28.4242 36.1515" stroke="currentcolor" stroke-width="2" stroke-miterlimit="10" vector-effect="non-scaling-stroke"/>
    <path d="M13.4243 26.1515L38.4243 26.1515" stroke="currentcolor" stroke-width="2" stroke-miterlimit="10" vector-effect="non-scaling-stroke"/>
    <path d="M25.9998 1.75758C12.6111 1.75758 1.75735 12.6113 1.75735 26C1.75734 39.3887 12.611 50.2424 25.9998 50.2424C39.3885 50.2424 50.2422 39.3887 50.2422 26C50.2422 12.6113 39.3885 1.75758 25.9998 1.75758Z" stroke="currentcolor" stroke-width="2" stroke-miterlimit="10" vector-effect="non-scaling-stroke"/>
  </symbol>

  <symbol id="arrow-circle-solid" viewBox="0 0 52 52">
    <path d="M28.4242 15.9242L38.5757 26L28.4242 36.1515" stroke="currentcolor" fill="none" stroke-width="2" stroke-miterlimit="10" vector-effect="non-scaling-stroke"/>
    <path d="M13.4243 26.1515L38.4243 26.1515" stroke="currentcolor" fill="none" stroke-width="2" stroke-miterlimit="10" vector-effect="non-scaling-stroke"/>
  </symbol>

  <symbol id="arrow" viewBox="0 0 17 14" fill="none">
    <path d="M9.4545 0.954581L15.5454 7.00003L9.4545 13.0909" stroke="currentcolor" stroke-width="2" stroke-miterlimit="10" vector-effect="non-scaling-stroke"/>
    <path d="M0.454591 7.09094L15.4546 7.09094" stroke="currentcolor" stroke-width="2" stroke-miterlimit="10" vector-effect="non-scaling-stroke"/>
  </symbol>

  <symbol id="search" viewBox="0 0 29 29" fill="none">
    <path fill-rule="evenodd" clip-rule="evenodd" d="M12.875 23.5C18.743 23.5 23.5 18.743 23.5 12.875C23.5 7.00697 18.743 2.25 12.875 2.25C7.00697 2.25 2.25 7.00697 2.25 12.875C2.25 18.743 7.00697 23.5 12.875 23.5Z" stroke="currentColor" stroke-width="3" stroke-linecap="round" stroke-linejoin="round"/>
    <path d="M27.75 27.7498L20.3833 20.3832" stroke="currentColor" stroke-width="3" stroke-linejoin="round"/>
  </symbol>

  <symbol id="triangle" viewBox="0 0 27 32" fill="none">
    <path d="M27 16L-1.4682e-06 31.5885L-1.05412e-07 0.411542L27 16Z" fill="currentColor"/>
  </symbol> -->
  <symbol id="search" viewBox="0 0 29 29" fill="none">
    <path fill-rule="evenodd" clip-rule="evenodd" d="M12.875 23.5C18.743 23.5 23.5 18.743 23.5 12.875C23.5 7.00697 18.743 2.25 12.875 2.25C7.00697 2.25 2.25 7.00697 2.25 12.875C2.25 18.743 7.00697 23.5 12.875 23.5Z" stroke="currentColor" stroke-width="3" stroke-linecap="round" stroke-linejoin="round"/>
    <path d="M27.75 27.7498L20.3833 20.3832" stroke="currentColor" stroke-width="3" stroke-linejoin="round"/>
  </symbol>

  <symbol id="facebook" preserveAspectRatio="xMidYMid meet" viewBox="0 0 20 20">
    <path d="M8.46 18h2.93v-7.3h2.45l.37-2.84h-2.82V6.04c0-.82.23-1.38 1.41-1.38h1.51V2.11c-.26-.03-1.15-.11-2.19-.11c-2.18 0-3.66 1.33-3.66 3.76v2.1H6v2.84h2.46V18z" fill="#0C125D"/>
  </symbol>

  <symbol id="instagram" preserveAspectRatio="xMidYMid meet" viewBox="0 0 20 20">
    <path d="M12.7 10c0-1.5-1.2-2.7-2.7-2.7S7.3 8.5 7.3 10s1.2 2.7 2.7 2.7c1.5 0 2.7-1.2 2.7-2.7zm1.4 0c0 2.3-1.8 4.1-4.1 4.1S5.9 12.3 5.9 10S7.7 5.9 10 5.9s4.1 1.8 4.1 4.1zm1.1-4.3c0 .6-.4 1-1 1s-1-.4-1-1s.4-1 1-1s1 .5 1 1zM10 3.4c-1.2 0-3.7-.1-4.7.3c-.7.3-1.3.9-1.5 1.6c-.4 1-.3 3.5-.3 4.7s-.1 3.7.3 4.7c.2.7.8 1.3 1.5 1.5c1 .4 3.6.3 4.7.3s3.7.1 4.7-.3c.7-.3 1.2-.8 1.5-1.5c.4-1.1.3-3.6.3-4.7s.1-3.7-.3-4.7c-.2-.7-.8-1.3-1.5-1.5c-1-.5-3.5-.4-4.7-.4zm8 6.6v3.3c0 1.2-.4 2.4-1.3 3.4c-.9.9-2.1 1.3-3.4 1.3H6.7c-1.2 0-2.4-.4-3.4-1.3c-.8-.9-1.3-2.1-1.3-3.4V10V6.7c0-1.3.5-2.5 1.3-3.4C4.3 2.5 5.5 2 6.7 2h6.6c1.2 0 2.4.4 3.4 1.3c.8.9 1.3 2.1 1.3 3.4V10z" fill="#0C125D"/>
  </symbol>

  <symbol id="linkedin" preserveAspectRatio="xMidYMid meet" viewBox="0 0 20 20">
    <path d="M2.5 18h3V6.9h-3V18zM4 2c-1 0-1.8.8-1.8 1.8S3 5.6 4 5.6s1.8-.8 1.8-1.8S5 2 4 2zm6.6 6.6V6.9h-3V18h3v-5.7c0-3.2 4.1-3.4 4.1 0V18h3v-6.8c0-5.4-5.7-5.2-7.1-2.6z" fill="#0C125D"/>
  </symbol>

  <symbol id="twitter" preserveAspectRatio="xMidYMid meet" viewBox="0 0 20 20">
    <path d="M18.94 4.46c-.49.73-1.11 1.38-1.83 1.9c.01.15.01.31.01.47c0 4.85-3.69 10.44-10.43 10.44c-2.07 0-4-.61-5.63-1.65c.29.03.58.05.88.05c1.72 0 3.3-.59 4.55-1.57a3.671 3.671 0 0 1-3.42-2.55c.22.04.45.07.69.07c.33 0 .66-.05.96-.13a3.68 3.68 0 0 1-2.94-3.6v-.04c.5.27 1.06.44 1.66.46a3.68 3.68 0 0 1-1.63-3.06c0-.67.18-1.3.5-1.84c1.81 2.22 4.51 3.68 7.56 3.83c-.06-.27-.1-.55-.1-.84a3.67 3.67 0 0 1 3.67-3.66c1.06 0 2.01.44 2.68 1.16c.83-.17 1.62-.47 2.33-.89c-.28.85-.86 1.57-1.62 2.02a7.08 7.08 0 0 0 2.11-.57z" fill="#0C125D"/>
  </symbol>

  <symbol id="youtube" preserveAspectRatio="xMidYMid meet" viewBox="0 0 20 20">
    <path d="M17.7 5.3c-.2-.7-.7-1.2-1.4-1.4c-2.1-.2-4.2-.4-6.3-.3c-2.1 0-4.2.1-6.3.3c-.6.2-1.2.8-1.4 1.4a37.08 37.08 0 0 0 0 9.4c.2.7.7 1.2 1.4 1.4c2.1.2 4.2.4 6.3.3c2.1 0 4.2-.1 6.3-.3c.7-.2 1.2-.7 1.4-1.4a37.08 37.08 0 0 0 0-9.4zM8 13V7l5.2 3L8 13z" fill="#0C125D"/>
  </symbol>

  <symbol id="arrow-right-old" preserveAspectRatio="xMidYMid meet" viewBox="0 0 20 20">
    <defs><clipPath id="a"><path fill="none" d="M0 0h16.05v27.838H0z" data-name="Rectangle 1540"/></clipPath></defs><g data-name="Group 1384" style="isolation:isolate"><g data-name="Group 1383"><g clip-path="url(#a)" data-name="Group 1382"><text fill="currentColor" data-name="»" font-family="Helvetica" font-size="25" transform="translate(.001 21.188)"><tspan x="0" y="0">»</tspan></text></g></g></g>
  </symbol>

  <symbol id="arrow-right" xmlns="http://www.w3.org/2000/svg" xmlns:xlink="http://www.w3.org/1999/xlink" x="0px" y="0px"
     viewBox="0 0 11.4 11.1" style="enable-background:new 0 0 11.4 11.1;" xml:space="preserve">
  <polygon style="fill: #ffc300" points="0,11.1 3.2,5.6 0,0 2.7,0 6.6,5.6 2.7,11.1 "/>
  <path style="fill: #ffc300" d="M4.8,11.1L8,5.6L4.8,0h2.7l3.9,5.6l-3.9,5.5H4.8z"/>
  </symbol>

  <symbol id="arrow-right-black" xmlns="http://www.w3.org/2000/svg" xmlns:xlink="http://www.w3.org/1999/xlink" x="0px" y="0px"
     viewBox="0 0 11.4 11.1" style="enable-background:new 0 0 11.4 11.1;" xml:space="preserve">
  <polygon style="fill: #000000" points="0,11.1 3.2,5.6 0,0 2.7,0 6.6,5.6 2.7,11.1 "/>
  <path style="fill: #000000" d="M4.8,11.1L8,5.6L4.8,0h2.7l3.9,5.6l-3.9,5.5H4.8z"/>
  </symbol>

</svg>
