<svg xmlns="http://www.w3.org/2000/svg" xmlns:xlink="http://www.w3.org/1999/xlink" width="1095.961" height="831.99" viewBox="0 0 1095.961 831.99">
  <defs>
    <clipPath id="clip-path">
      <rect id="Rectangle_1450" data-name="Rectangle 1450" width="1095.961" height="831.99" fill="none" stroke="#cccccc" stroke-width="1.5"/>
    </clipPath>
  </defs>
  <g id="Group_1171" data-name="Group 1171" opacity="0.525">
    <g id="Group_1170" data-name="Group 1170" clip-path="url(#clip-path)">
      <path id="Path_263" data-name="Path 263" d="M1072.683,298.743v-7.4h-9.169V279.7h-4.94V272.29s3.882-2.116,6-11.634a88.588,88.588,0,0,0,2.118-17.283s-6.349-8.463-15.873-9.167v-5.295s6.706-3.876,4.942-8.109a71.073,71.073,0,0,0-4.942-9.165s7.768-5.3,7.055-8.463-3.527-7.061-7.055-5.3-2.818,9.878-6.7,9.878-13.049,1.761-14.109,10.582-3.172,28.917-7.05,30.681-8.113,0-8.113,0v11.638H1008.5V241.61s15.163-23.983,12.7-28.21-21.508-11.642-21.508-11.642,5.988-9.526,2.465-15.167-2.465-12.694-2.465-12.694,8.463-3.175,7.4-8.111-11.632-8.463-16.223,4.231-9.519,26.095-11.283,26.8-21.869,0-21.869,0v48.666H886.824V213.4h-39.5v31.737H776.44v-32.8H752.1v-43.73H728.12V101.951s5.289-5.644,4.231-12.343-6.7-9.521-10.58-6.7a10.568,10.568,0,0,0-4.231,7.059H701.316V79.381L688.972,47.289V31.062h6.7V15.189H684.385v-7.4H560.6L553.19.375h-11.1l-7.4,7.411H410.89v7.4H399.607V31.062h6.7V47.289L393.962,79.381V89.963H377.738a10.568,10.568,0,0,0-4.231-7.059c-3.88-2.816-9.522,0-10.58,6.7s4.231,12.343,4.231,12.343v66.655H343.173v43.73h-24.33v32.8H247.952V213.4h-39.5v32.088H137.566V196.822s-20.1.7-21.865,0-6.7-14.109-11.289-26.8-15.163-9.171-16.223-4.231,7.4,8.111,7.4,8.111,1.058,7.052-2.465,12.694,2.465,15.167,2.465,15.167-19.041,7.407-21.51,11.642,12.7,28.21,12.7,28.21v19.045H80.431V249.017s-4.229,1.762-8.111,0-5.994-21.869-7.052-30.681-10.229-10.582-14.109-10.582-3.174-8.108-6.7-9.878-6.347,2.118-7.052,5.3,7.052,8.463,7.052,8.463a71.5,71.5,0,0,0-4.934,9.165c-1.766,4.233,4.934,8.109,4.934,8.109v5.295c-9.521.7-15.866,9.167-15.866,9.167A88.741,88.741,0,0,0,30.7,260.655c2.118,9.519,5.994,11.634,5.994,11.634V279.7h-4.94v11.638H22.592v7.4H.375v4.235H8.838v8.814l24.7,19.75V486.3c-5.394,1.081-6.9,7.336-6.9,7.336v21.781H19.3v17.3h9.213V818.552l315.37-1.371,29.623,13.752h26.452l49.726-40.2V627.793c0-56.568,91.285-58.1,97.949-58.191,6.67.1,97.959,1.623,97.959,58.191V790.729l49.726,40.2h26.452l29.621-13.752,315.37,1.371V532.719h9.213v-17.3h-7.332V493.636s-1.508-6.255-6.9-7.336V331.542l24.7-19.75v-8.814h8.465v-4.235Zm-884.276-6.66h13.126v18.694H188.407Zm13.126,70.127h-12.27V315.686h12.27Zm-13.126,47.316h13.126V428.22H188.407Zm13.126,70.129h-12.27v-46.53h12.27ZM188.407,537.54h13.126v18.694H188.407Zm13.126,70.119h-12.27V561.132h12.27Zm-13.126,5.528h13.126v11.55H188.407Zm-31.678-321.1h28.632v19.356H156.729ZM185.3,362.21H173.03V315.686H185.3Zm-16.238,0H156.79V315.686h12.268Zm-12.329,47.316h28.632v19.354H156.729ZM185.3,479.655H173.03v-46.53H185.3Zm-16.238,0H156.79v-46.53h12.268ZM156.729,537.54h28.632v19.354H156.729ZM185.3,607.659H173.03V561.132H185.3Zm-16.238,0H156.79V561.132h12.268Zm-12.329,5.528h28.632v11.961H156.729Zm-16.173-297.5h12.272V362.21H140.556Zm0,117.439h12.272v46.53H140.556Zm0,128.006h12.272v46.528H140.556ZM151.05,766.525H141.6V756.084h9.452Zm0-14.917H141.6V741.161h9.452Zm0-14.922H141.6V726.245h9.452Zm0-14.915H141.6V711.328h9.452Zm0-14.915H141.6V696.413h9.452Zm2.631-13.928H140.556s-.686-15.064,0-15.413a60.873,60.873,0,0,1,13.126-4.9Zm0-68.191H140.556v-11.55h13.126Zm0-68.5H140.556V537.54h13.126Zm0-128.014H140.556V409.526h13.126Zm0-117.443H140.556V292.083h13.126ZM164.97,766.525h-9.448V756.084h9.448Zm0-14.917h-9.448V741.161h9.448Zm0-14.922h-9.448V726.245h9.448Zm0-14.915h-9.448V711.328h9.448Zm0-14.915h-9.448V696.413h9.448ZM178.9,766.525H169.45V756.084H178.9Zm0-14.917H169.45V741.161H178.9Zm0-14.922H169.45V726.245H178.9Zm0-14.915H169.45V711.328H178.9Zm0-14.915H169.45V696.413H178.9Zm13.928,59.669h-9.45V756.084h9.45Zm0-14.917h-9.45V741.161h9.45Zm0-14.922h-9.45V726.245h9.45Zm0-14.915h-9.45V711.328h9.45Zm0-14.915h-9.45V696.413h9.45Zm.3-13.928h-37.6V672.176c14.376-3.154,28.2-1.127,37.6,1.287Zm1.846-18.971a75.947,75.947,0,0,1,10.281,3.557v15.413H194.97Zm11.776,92.567H197.3V756.084h9.45Zm0-14.917H197.3V741.161h9.45Zm0-14.922H197.3V726.245h9.45Zm0-14.915H197.3V711.328h9.45Zm0-14.915H197.3V696.413h9.45Zm63.192-414.773h28.629v19.356H269.937ZM298.5,362.21H286.238V315.686H298.5Zm-16.236,0H270V315.686h12.27Zm-12.331,47.316h28.629v19.354H269.937ZM298.5,479.655H286.238v-46.53H298.5Zm-16.236,0H270v-46.53h12.27ZM269.937,537.54h28.629v19.354H269.937ZM298.5,607.659H286.238V561.132H298.5Zm-16.236,0H270V561.132h12.27Zm-12.331,5.528h28.629v11.961H269.937Zm-16.173-321.1h13.124v18.694H253.764Zm0,23.6h12.272V362.21H253.764Zm0,93.84h13.124V428.22H253.764Zm0,23.6h12.272v46.53H253.764Zm0,104.415h13.124v18.694H253.764Zm0,23.591h12.272v46.528H253.764Zm0,52.056h13.124v11.55H253.764Zm5.283,153.337H249.6V756.084h9.448Zm0-14.917H249.6V741.161h9.448Zm0-14.922H249.6V726.245h9.448Zm0-14.915H249.6V711.328h9.448Zm0-14.915H249.6V696.413h9.448Zm2.629-13.928H248.551s-.682-15.064,0-15.413a60.873,60.873,0,0,1,13.126-4.9Zm11.293,73.6h-9.448V756.084h9.448Zm0-14.917h-9.448V741.161h9.448Zm0-14.922h-9.448V726.245h9.448Zm0-14.915h-9.448V711.328h9.448Zm0-14.915h-9.448V696.413h9.448Zm13.924,59.669h-9.446V756.084h9.446Zm0-14.917h-9.446V741.161h9.446Zm0-14.922h-9.446V726.245h9.446Zm0-14.915h-9.446V711.328h9.446Zm0-14.915h-9.446V696.413h9.446Zm13.926,59.669h-9.446V756.084h9.446Zm0-14.917h-9.446V741.161h9.446Zm0-14.922h-9.446V726.245h9.446Zm0-14.915h-9.446V711.328h9.446Zm0-14.915h-9.446V696.413h9.446Zm.306-13.928h-37.6V672.176c14.374-3.154,28.193-1.127,37.6,1.287Zm13.62,73.6H305.3V756.084h9.448Zm-11.778-73.6V673.958a75.7,75.7,0,0,1,10.281,3.557v15.413Zm11.778,58.68H305.3V741.161h9.448Zm0-14.922H305.3V726.245h9.448Zm0-14.915H305.3V711.328h9.448Zm0-14.915H305.3V696.413h9.448Zm0-82.118H301.621v-11.55h13.124Zm0-17.078H302.472V561.132h12.272Zm0-51.426H301.621V537.54h13.124Zm0-76.579H302.472v-46.53h12.272Zm0-51.435H301.621V409.526h13.124Zm0-66.01H302.472V315.686h12.272Zm0-51.433H301.621V292.083h13.124ZM601.4,240.908h20.8v22.455H601.4Zm0,26.816h20.8v35.657H601.4Zm0,40.095h20.8V352.8H601.4Zm0,49.144h20.8v10.6H601.4ZM564.473,240.908h13.756v22.455H564.473Zm0,27.557h13.756v33.977H564.473Zm0,38.392h13.756v39.852h-5.816c-.886-6.7-7.94-12.167-7.94-12.167Zm-29.085-65.949h24.5v22.455h-24.5Zm22.868,27.557v33.979H537.019V268.465h21.237Zm-22.868,38.392h24.5v26.8h-3.174V323.079s-3.028-5.728-8.633-5.992v0c-.153-.006-.3,0-.449,0s-.288-.01-.439,0v0c-5.6.264-8.633,5.992-8.633,5.992v10.578h-3.174Zm-18.34-65.949h13.758v22.455H517.048Zm0,27.557h13.758v33.977H517.048Zm0,38.392h13.758v27.685s-7.055,5.465-7.94,12.167h-5.818Zm-71.419-65.949h20.8v22.455h-20.8Zm0,26.816h20.8v35.657h-20.8Zm0,40.095h20.8V352.8h-20.8Zm0,49.144h20.8v10.6h-20.8Zm20.8,134.439h-20.8V429.845h20.8Zm27.447,0h-20.8V429.845h20.8Zm0-71.1H445.63V397.858h48.244Zm0-52.739h-20.8v-10.6h20.8Zm0-14.768h-20.8V307.817h20.8Zm0-49.417h-20.8V267.724h20.8Zm0-40.018h-20.8V240.908h20.8Zm82.238,220.185h-56.95V395.028h56.95ZM595.154,374.22h-6.7V499.145H580.7V374.22H514.581V499.145h-7.762V374.22h-6.7v-6.654h95.034ZM622.208,491.4H601.4V429.845h20.8Zm27.439,0h-20.8V429.845h20.8Zm0-71.1H601.4V397.858h48.242Zm0-52.739h-20.8v-10.6h20.8Zm0-14.768h-20.8V307.817h20.8Zm0-49.417h-20.8V267.724h20.8Zm0-40.018h-20.8V240.908h20.8Zm178.741,28.72h13.12v18.694h-13.12Zm13.12,70.127H829.241V315.686h12.266Zm-13.12,47.316h13.12V428.22h-13.12Zm13.12,70.129H829.241v-46.53h12.266Zm-13.12,57.885h13.12v18.694h-13.12Zm13.12,70.119H829.241V561.132h12.266Zm-13.12,5.528h13.12v11.55h-13.12ZM796.7,292.083H825.34v19.356H796.7Zm28.575,70.127h-12.27V315.686h12.27Zm-16.238,0H796.767V315.686h12.272ZM796.7,409.526H825.34v19.354H796.7Zm28.575,70.129h-12.27v-46.53h12.27Zm-16.238,0H796.767v-46.53h12.272ZM796.7,537.54H825.34v19.354H796.7Zm28.575,70.119h-12.27V561.132h12.27Zm-16.238,0H796.767V561.132h12.272ZM796.7,613.187H825.34v11.961H796.7Zm-16.169-297.5H792.8V362.21h-12.27Zm0,117.439H792.8v46.53h-12.27Zm0,128.006H792.8v46.528h-12.27Zm9.448,205.393h-9.448V756.084h9.448Zm0-14.917h-9.448V741.161h9.448Zm0-14.922h-9.448V726.245h9.448Zm0-14.915h-9.448V711.328h9.448Zm0-14.915h-9.448V696.413h9.448Zm2.324-13.928H782.029V677.515a75.892,75.892,0,0,1,10.275-3.557Zm1.356-68.191H780.534v-11.55H793.66Zm0-68.5H780.534V537.54H793.66Zm0-128.014H780.534V409.526H793.66Zm0-117.443H780.534V292.083H793.66ZM803.9,766.525h-9.448V756.084H803.9Zm0-14.917h-9.448V741.161H803.9Zm0-14.922h-9.448V726.245H803.9Zm0-14.915h-9.448V711.328H803.9Zm0-14.915h-9.448V696.413H803.9Zm13.924,59.669h-9.444V756.084h9.444Zm0-14.917h-9.444V741.161h9.444Zm0-14.922h-9.444V726.245h9.444Zm0-14.915h-9.444V711.328h9.444Zm0-14.915h-9.444V696.413h9.444Zm13.926,59.669h-9.446V756.084h9.446Zm0-14.917h-9.446V741.161h9.446Zm0-14.922h-9.446V726.245h9.446Zm0-14.915h-9.446V711.328h9.446Zm0-14.915h-9.446V696.413h9.446Zm0-13.928h-37.6V673.463c9.406-2.414,23.227-4.441,37.6-1.287Zm13.926,73.6h-9.45V756.084h9.45Zm0-14.917h-9.45V741.161h9.45Zm0-14.922h-9.45V726.245h9.45Zm0-14.915h-9.45V711.328h9.45Zm0-14.915h-9.45V696.413h9.45Zm1.045-13.928H833.6V672.619a60.8,60.8,0,0,1,13.12,4.9C847.407,677.865,846.722,692.928,846.722,692.928ZM941.6,292.083h13.124v18.694H941.6Zm13.124,70.127h-12.27V315.686h12.27ZM941.6,409.526h13.124V428.22H941.6Zm13.124,70.129h-12.27v-46.53h12.27ZM941.6,537.54h13.124v18.694H941.6Zm13.124,70.119h-12.27V561.132h12.27ZM941.6,613.187h13.124v11.55H941.6Zm-31.682-321.1h28.634v19.356H909.914Zm28.573,70.127H926.211V315.686h12.276Zm-16.238,0H909.975V315.686h12.274Zm-12.335,47.316h28.634v19.354H909.914Zm28.573,70.129H926.211v-46.53h12.276Zm-16.238,0H909.975v-46.53h12.274ZM909.914,537.54h28.634v19.354H909.914Zm28.573,70.119H926.211V561.132h12.276Zm-16.238,0H909.975V561.132h12.274Zm-12.335,5.528h28.634v11.961H909.914Zm-16.171-321.1h13.124v18.694H893.742Zm0,23.6h12.27V362.21h-12.27Zm0,93.84h13.124V428.22H893.742Zm0,23.6h12.27v46.53h-12.27Zm0,104.415h13.124v18.694H893.742Zm0,23.591h12.27v46.528h-12.27Zm0,52.056h13.124v11.55H893.742Zm4.235,153.337h-9.444V756.084h9.444Zm0-14.917h-9.444V741.161h9.444Zm0-14.922h-9.444V726.245h9.444Zm0-14.915h-9.444V711.328h9.444Zm0-14.915h-9.444V696.413h9.444Zm2.326-13.928H890.028V677.515a75.892,75.892,0,0,1,10.275-3.557Zm11.6,73.6h-9.448V756.084H911.9Zm0-14.917h-9.448V741.161H911.9Zm0-14.922h-9.448V726.245H911.9Zm0-14.915h-9.448V711.328H911.9Zm0-14.915h-9.448V696.413H911.9Zm13.922,59.669h-9.45V756.084h9.45Zm0-14.917h-9.45V741.161h9.45Zm0-14.922h-9.45V726.245h9.45Zm0-14.915h-9.45V711.328h9.45Zm0-14.915h-9.45V696.413h9.45Zm13.922,59.669H930.3V756.084h9.45Zm0-14.917H930.3V741.161h9.45Zm0-14.922H930.3V726.245h9.45Zm0-14.915H930.3V711.328h9.45Zm0-14.915H930.3V696.413h9.45Zm0-13.928h-37.6V673.463c9.406-2.414,23.225-4.441,37.6-1.287Zm13.926,73.6h-9.444V756.084h9.444Zm0-14.917h-9.444V741.161h9.444Zm0-14.922h-9.444V726.245h9.444Zm0-14.915h-9.444V711.328h9.444Zm0-14.915h-9.444V696.413h9.444Zm1.046-13.928H941.6V672.619a60.857,60.857,0,0,1,13.124,4.9C955.406,677.865,954.719,692.928,954.719,692.928Z" transform="translate(0.341 0.341)" fill="none" stroke="#cccccc" stroke-linejoin="round" stroke-width="1.5"/>
      <path id="Path_264" data-name="Path 264" d="M4.807,183.866H61.533s16.58-2.975,17.853-7.227S69.61,154.1,69.61,154.1H359.577V136.668H38.57s2.129,14.462,8.5,17.011,19.981,14.882,2.127,25.508" transform="translate(4.372 124.294)" fill="none" stroke="#cccccc" stroke-linejoin="round" stroke-width="1.5"/>
      <line id="Line_75" data-name="Line 75" y2="45.525" transform="translate(240.223 213.741)" fill="none" stroke="#cccccc" stroke-linejoin="round" stroke-width="1.5"/>
      <line id="Line_76" data-name="Line 76" y2="63.514" transform="translate(126.295 197.448)" fill="none" stroke="#cccccc" stroke-linejoin="round" stroke-width="1.5"/>
      <path id="Path_265" data-name="Path 265" d="M206.5,47.293h18.967V96.356L360.62,75.95" transform="translate(187.804 43.011)" fill="none" stroke="#cccccc" stroke-linejoin="round" stroke-width="1.5"/>
      <path id="Path_266" data-name="Path 266" d="M212.964,32.079s7.046.328,7.472-4.774-3.4-10.206,0-10.206h66.329V47.708h67.977" transform="translate(193.682 15.551)" fill="none" stroke="#cccccc" stroke-linejoin="round" stroke-width="1.5"/>
      <path id="Path_267" data-name="Path 267" d="M352.6,15.049H215.319V8.133" transform="translate(195.824 7.397)" fill="none" stroke="#cccccc" stroke-linejoin="round" stroke-width="1.5"/>
      <line id="Line_77" data-name="Line 77" y1="55.271" x2="69.756" transform="translate(343.514 139.367)" fill="none" stroke="#cccccc" stroke-linejoin="round" stroke-width="1.5"/>
      <path id="Path_268" data-name="Path 268" d="M384.811,142.461H372.957V114.627H273.468L266.663,103.4H179.9" transform="translate(163.613 94.043)" fill="none" stroke="#cccccc" stroke-linejoin="round" stroke-width="1.5"/>
      <path id="Path_269" data-name="Path 269" d="M314.731,66.756s-19.085,2.119-19.085,15.724h-9.351s-7.655-.85-7.655,5.106v24.657l-14.455,11.48s-7.227,5.526-7.227,10.2V147.96" transform="translate(233.693 60.712)" fill="none" stroke="#cccccc" stroke-linejoin="round" stroke-width="1.5"/>
      <path id="Path_270" data-name="Path 270" d="M186.149,109.282h68.88l-11.054,12.751v56.552H194.654V122.034Z" transform="translate(169.295 99.388)" fill="none" stroke="#cccccc" stroke-linejoin="round" stroke-width="1.5"/>
      <path id="Path_271" data-name="Path 271" d="M216.433,136.668h23.8L227.487,153.68H216.433Z" transform="translate(196.837 124.294)" fill="none" stroke="#cccccc" stroke-linejoin="round" stroke-width="1.5"/>
      <line id="Line_78" data-name="Line 78" y2="211.465" transform="translate(83.764 299.077)" fill="none" stroke="#cccccc" stroke-linejoin="round" stroke-width="1.5"/>
      <path id="Path_272" data-name="Path 272" d="M14.125,272.592,28.4,267.375H320.062" transform="translate(12.846 243.167)" fill="none" stroke="#cccccc" stroke-linejoin="round" stroke-width="1.5"/>
      <path id="Path_273" data-name="Path 273" d="M15.111,282.4,30.9,275.614H331.5" transform="translate(13.743 250.659)" fill="none" stroke="#cccccc" stroke-linejoin="round" stroke-width="1.5"/>
      <path id="Path_274" data-name="Path 274" d="M392.7,261.585H171.229l19.561,26.788H392.7" transform="translate(155.726 237.901)" fill="none" stroke="#cccccc" stroke-linejoin="round" stroke-width="1.5"/>
      <path id="Path_275" data-name="Path 275" d="M190.082,302.893v-8.077l-7.653-5.528V264.205h-8.083V231.889l15.736-15.724h9.782l18.705,15.3V242.1s18.069-1.069,19.131,0,12.753,22.956,12.753,22.956h23.809v35.718" transform="translate(158.561 196.593)" fill="none" stroke="#cccccc" stroke-linejoin="round" stroke-width="1.5"/>
      <line id="Line_79" data-name="Line 79" y2="134.785" transform="translate(348.642 277.974)" fill="none" stroke="#cccccc" stroke-linejoin="round" stroke-width="1.5"/>
      <line id="Line_80" data-name="Line 80" y2="139.94" transform="translate(360.124 278.397)" fill="none" stroke="#cccccc" stroke-linejoin="round" stroke-width="1.5"/>
      <line id="Line_81" data-name="Line 81" y1="160.719" transform="translate(377.129 277.974)" fill="none" stroke="#cccccc" stroke-linejoin="round" stroke-width="1.5"/>
      <line id="Line_82" data-name="Line 82" y1="160.297" transform="translate(396.26 278.396)" fill="none" stroke="#cccccc" stroke-linejoin="round" stroke-width="1.5"/>
      <path id="Path_276" data-name="Path 276" d="M227.487,145.577v11.056L216.433,166.68V329.252" transform="translate(196.837 132.396)" fill="none" stroke="#cccccc" stroke-linejoin="round" stroke-width="1.5"/>
      <line id="Line_83" data-name="Line 83" y2="289.134" transform="translate(346.516 526.273)" fill="none" stroke="#cccccc" stroke-linejoin="round" stroke-width="1.5"/>
      <path id="Path_277" data-name="Path 277" d="M15.111,300.72s43.455-3.179,46.1,48.136c0,0-12.961-.8-12.167,0s0,12.169,0,12.169H331.5" transform="translate(13.743 273.458)" fill="none" stroke="#cccccc" stroke-linejoin="round" stroke-width="1.5"/>
      <line id="Line_84" data-name="Line 84" y1="184.223" transform="translate(71.254 634.485)" fill="none" stroke="#cccccc" stroke-linejoin="round" stroke-width="1.5"/>
      <path id="Path_278" data-name="Path 278" d="M265.338,275.614v9.794h12.938l7.027,13.687" transform="translate(241.314 250.66)" fill="none" stroke="#cccccc" stroke-linejoin="round" stroke-width="1.5"/>
      <path id="Path_279" data-name="Path 279" d="M341.1,287.911s-113.139-.714-113.139,54.553V504.6" transform="translate(207.322 261.843)" fill="none" stroke="#cccccc" stroke-linejoin="round" stroke-width="1.5"/>
      <line id="Line_85" data-name="Line 85" x1="101.684" transform="translate(346.515 766.445)" fill="none" stroke="#cccccc" stroke-linejoin="round" stroke-width="1.5"/>
      <path id="Path_280" data-name="Path 280" d="M738.131,183.866H681.4s-16.588-2.975-17.861-7.227,9.78-22.535,9.78-22.535H383.359V136.668H704.368s-2.133,14.462-8.507,17.011-19.986,14.882-2.129,25.508" transform="translate(348.649 124.294)" fill="none" stroke="#cccccc" stroke-linejoin="round" stroke-width="1.5"/>
      <line id="Line_86" data-name="Line 86" y2="45.525" transform="translate(855.738 213.741)" fill="none" stroke="#cccccc" stroke-linejoin="round" stroke-width="1.5"/>
      <line id="Line_87" data-name="Line 87" y2="63.514" transform="translate(969.662 197.448)" fill="none" stroke="#cccccc" stroke-linejoin="round" stroke-width="1.5"/>
      <path id="Path_281" data-name="Path 281" d="M440.871,47.293H421.9V96.356L286.749,75.95" transform="translate(260.786 43.011)" fill="none" stroke="#cccccc" stroke-linejoin="round" stroke-width="1.5"/>
      <path id="Path_282" data-name="Path 282" d="M428.526,32.079s-7.048.328-7.47-4.774,3.395-10.206,0-10.206H354.726V47.708H286.749" transform="translate(260.787 15.551)" fill="none" stroke="#cccccc" stroke-linejoin="round" stroke-width="1.5"/>
      <path id="Path_283" data-name="Path 283" d="M286.749,15.049H424.029V8.133" transform="translate(260.786 7.397)" fill="none" stroke="#cccccc" stroke-linejoin="round" stroke-width="1.5"/>
      <line id="Line_88" data-name="Line 88" x1="69.753" y1="55.271" transform="translate(682.69 139.367)" fill="none" stroke="#cccccc" stroke-linejoin="round" stroke-width="1.5"/>
      <path id="Path_284" data-name="Path 284" d="M286.749,142.461H298.6V114.627h99.489l6.8-11.222h86.764" transform="translate(260.786 94.043)" fill="none" stroke="#cccccc" stroke-linejoin="round" stroke-width="1.5"/>
      <path id="Path_285" data-name="Path 285" d="M286.749,66.756s19.085,2.119,19.085,15.724h9.351s7.651-.85,7.651,5.106v24.657l14.46,11.48s7.224,5.526,7.224,10.2V147.96" transform="translate(260.787 60.712)" fill="none" stroke="#cccccc" stroke-linejoin="round" stroke-width="1.5"/>
      <path id="Path_286" data-name="Path 286" d="M420.616,109.282H351.74L362.8,122.034v56.552h49.319V122.034Z" transform="translate(319.893 99.388)" fill="none" stroke="#cccccc" stroke-linejoin="round" stroke-width="1.5"/>
      <path id="Path_287" data-name="Path 287" d="M368.87,136.668H345.061l12.755,17.011H368.87Z" transform="translate(313.819 124.294)" fill="none" stroke="#cccccc" stroke-linejoin="round" stroke-width="1.5"/>
      <line id="Line_89" data-name="Line 89" y2="211.465" transform="translate(1012.186 299.077)" fill="none" stroke="#cccccc" stroke-linejoin="round" stroke-width="1.5"/>
      <path id="Path_288" data-name="Path 288" d="M705.551,272.592l-14.273-5.217H399.615" transform="translate(363.434 243.167)" fill="none" stroke="#cccccc" stroke-linejoin="round" stroke-width="1.5"/>
      <path id="Path_289" data-name="Path 289" d="M709.54,282.4l-15.789-6.788H393.16" transform="translate(357.563 250.659)" fill="none" stroke="#cccccc" stroke-linejoin="round" stroke-width="1.5"/>
      <path id="Path_290" data-name="Path 290" d="M286.749,261.585H508.212l-19.555,26.788H286.749" transform="translate(260.786 237.901)" fill="none" stroke="#cccccc" stroke-linejoin="round" stroke-width="1.5"/>
      <path id="Path_291" data-name="Path 291" d="M431.472,302.893v-8.077l7.651-5.528V264.205H447.2V231.889l-15.732-15.724H421.69l-18.7,15.3V242.1s-18.073-1.069-19.133,0S371.1,265.055,371.1,265.055H347.288v35.718" transform="translate(315.844 196.593)" fill="none" stroke="#cccccc" stroke-linejoin="round" stroke-width="1.5"/>
      <line id="Line_90" data-name="Line 90" y2="134.785" transform="translate(747.317 277.974)" fill="none" stroke="#cccccc" stroke-linejoin="round" stroke-width="1.5"/>
      <line id="Line_91" data-name="Line 91" y2="139.94" transform="translate(735.838 278.397)" fill="none" stroke="#cccccc" stroke-linejoin="round" stroke-width="1.5"/>
      <line id="Line_92" data-name="Line 92" y1="160.719" transform="translate(718.832 277.974)" fill="none" stroke="#cccccc" stroke-linejoin="round" stroke-width="1.5"/>
      <line id="Line_93" data-name="Line 93" y1="160.297" transform="translate(699.698 278.396)" fill="none" stroke="#cccccc" stroke-linejoin="round" stroke-width="1.5"/>
      <path id="Path_292" data-name="Path 292" d="M351.741,145.577v11.056l11.054,10.048V329.252" transform="translate(319.894 132.396)" fill="none" stroke="#cccccc" stroke-linejoin="round" stroke-width="1.5"/>
      <line id="Line_94" data-name="Line 94" y2="289.134" transform="translate(749.443 526.273)" fill="none" stroke="#cccccc" stroke-linejoin="round" stroke-width="1.5"/>
      <path id="Path_293" data-name="Path 293" d="M709.54,300.72s-43.454-3.179-46.1,48.136c0,0,12.961-.8,12.169,0s0,12.169,0,12.169H393.16" transform="translate(357.563 273.458)" fill="none" stroke="#cccccc" stroke-linejoin="round" stroke-width="1.5"/>
      <line id="Line_95" data-name="Line 95" y1="184.223" transform="translate(1024.704 634.485)" fill="none" stroke="#cccccc" stroke-linejoin="round" stroke-width="1.5"/>
      <path id="Path_294" data-name="Path 294" d="M1072.683,298.743v-7.4h-9.169V279.7h-4.94V272.29s3.882-2.116,6-11.634a88.588,88.588,0,0,0,2.118-17.283s-6.349-8.463-15.873-9.167v-5.295s6.706-3.876,4.942-8.109a71.073,71.073,0,0,0-4.942-9.165s7.768-5.3,7.055-8.463-3.527-7.061-7.055-5.3-2.818,9.878-6.7,9.878-13.049,1.761-14.109,10.582-3.172,28.917-7.05,30.681-8.113,0-8.113,0v11.638H1008.5V241.61s15.163-23.983,12.7-28.21-21.508-11.642-21.508-11.642,5.988-9.526,2.465-15.167-2.465-12.694-2.465-12.694,8.463-3.175,7.4-8.111-11.632-8.463-16.223,4.231-9.519,26.095-11.283,26.8-21.869,0-21.869,0v48.666H886.824V213.4h-39.5v31.737H776.44v-32.8H752.1v-43.73H728.12V101.951s5.289-5.644,4.231-12.343-6.7-9.521-10.58-6.7a10.568,10.568,0,0,0-4.231,7.059H701.316V79.381L688.972,47.289V31.062h6.7V15.189H684.385v-7.4H560.6L553.19.375h-11.1l-7.4,7.411H410.89v7.4H399.607V31.062h6.7V47.289L393.962,79.381V89.963H377.738a10.568,10.568,0,0,0-4.231-7.059c-3.88-2.816-9.522,0-10.58,6.7s4.231,12.343,4.231,12.343v66.655H343.173v43.73h-24.33v32.8H247.952V213.4h-39.5v32.088H137.566V196.822s-20.1.7-21.865,0-6.7-14.109-11.289-26.8-15.163-9.171-16.223-4.231,7.4,8.111,7.4,8.111,1.058,7.052-2.465,12.694,2.465,15.167,2.465,15.167-19.041,7.407-21.51,11.642,12.7,28.21,12.7,28.21v19.045H80.431V249.017s-4.229,1.762-8.111,0-5.994-21.869-7.052-30.681-10.229-10.582-14.109-10.582-3.174-8.108-6.7-9.878-6.347,2.118-7.052,5.3,7.052,8.463,7.052,8.463a71.5,71.5,0,0,0-4.934,9.165c-1.766,4.233,4.934,8.109,4.934,8.109v5.295c-9.521.7-15.866,9.167-15.866,9.167A88.741,88.741,0,0,0,30.7,260.655c2.118,9.519,5.994,11.634,5.994,11.634V279.7h-4.94v11.638H22.592v7.4H.375v4.235H8.838v8.814l24.7,19.75V486.3c-5.394,1.081-6.9,7.336-6.9,7.336v21.781H19.3v17.3h9.213V818.552l315.37-1.371,29.623,13.752h26.452l49.726-40.2V627.793c0-56.568,91.285-58.1,97.949-58.191,6.67.1,97.959,1.623,97.959,58.191V790.729l49.726,40.2h26.452l29.621-13.752,315.37,1.371V532.719h9.213v-17.3h-7.332V493.636s-1.508-6.255-6.9-7.336V331.542l24.7-19.75v-8.814h8.465v-4.235Zm-884.276-6.66h13.126v18.694H188.407Zm13.126,70.127h-12.27V315.686h12.27Zm-13.126,47.316h13.126V428.22H188.407Zm13.126,70.129h-12.27v-46.53h12.27ZM188.407,537.54h13.126v18.694H188.407Zm13.126,70.119h-12.27V561.132h12.27Zm-13.126,5.528h13.126v11.55H188.407Zm-31.678-321.1h28.632v19.356H156.729ZM185.3,362.21H173.03V315.686H185.3Zm-16.238,0H156.79V315.686h12.268Zm-12.329,47.316h28.632v19.354H156.729ZM185.3,479.655H173.03v-46.53H185.3Zm-16.238,0H156.79v-46.53h12.268ZM156.729,537.54h28.632v19.354H156.729ZM185.3,607.659H173.03V561.132H185.3Zm-16.238,0H156.79V561.132h12.268Zm-12.329,5.528h28.632v11.961H156.729Zm-16.173-297.5h12.272V362.21H140.556Zm0,117.439h12.272v46.53H140.556Zm0,128.006h12.272v46.528H140.556ZM151.05,766.525H141.6V756.084h9.452Zm0-14.917H141.6V741.161h9.452Zm0-14.922H141.6V726.245h9.452Zm0-14.915H141.6V711.328h9.452Zm0-14.915H141.6V696.413h9.452Zm2.631-13.928H140.556s-.686-15.064,0-15.413a60.873,60.873,0,0,1,13.126-4.9Zm0-68.191H140.556v-11.55h13.126Zm0-68.5H140.556V537.54h13.126Zm0-128.014H140.556V409.526h13.126Zm0-117.443H140.556V292.083h13.126ZM164.97,766.525h-9.448V756.084h9.448Zm0-14.917h-9.448V741.161h9.448Zm0-14.922h-9.448V726.245h9.448Zm0-14.915h-9.448V711.328h9.448Zm0-14.915h-9.448V696.413h9.448ZM178.9,766.525H169.45V756.084H178.9Zm0-14.917H169.45V741.161H178.9Zm0-14.922H169.45V726.245H178.9Zm0-14.915H169.45V711.328H178.9Zm0-14.915H169.45V696.413H178.9Zm13.928,59.669h-9.45V756.084h9.45Zm0-14.917h-9.45V741.161h9.45Zm0-14.922h-9.45V726.245h9.45Zm0-14.915h-9.45V711.328h9.45Zm0-14.915h-9.45V696.413h9.45Zm.3-13.928h-37.6V672.176c14.376-3.154,28.2-1.127,37.6,1.287Zm1.846-18.971a75.947,75.947,0,0,1,10.281,3.557v15.413H194.97Zm11.776,92.567H197.3V756.084h9.45Zm0-14.917H197.3V741.161h9.45Zm0-14.922H197.3V726.245h9.45Zm0-14.915H197.3V711.328h9.45Zm0-14.915H197.3V696.413h9.45Zm63.192-414.773h28.629v19.356H269.937ZM298.5,362.21H286.238V315.686H298.5Zm-16.236,0H270V315.686h12.27Zm-12.331,47.316h28.629v19.354H269.937ZM298.5,479.655H286.238v-46.53H298.5Zm-16.236,0H270v-46.53h12.27ZM269.937,537.54h28.629v19.354H269.937ZM298.5,607.659H286.238V561.132H298.5Zm-16.236,0H270V561.132h12.27Zm-12.331,5.528h28.629v11.961H269.937Zm-16.173-321.1h13.124v18.694H253.764Zm0,23.6h12.272V362.21H253.764Zm0,93.84h13.124V428.22H253.764Zm0,23.6h12.272v46.53H253.764Zm0,104.415h13.124v18.694H253.764Zm0,23.591h12.272v46.528H253.764Zm0,52.056h13.124v11.55H253.764Zm5.283,153.337H249.6V756.084h9.448Zm0-14.917H249.6V741.161h9.448Zm0-14.922H249.6V726.245h9.448Zm0-14.915H249.6V711.328h9.448Zm0-14.915H249.6V696.413h9.448Zm2.629-13.928H248.551s-.682-15.064,0-15.413a60.873,60.873,0,0,1,13.126-4.9Zm11.293,73.6h-9.448V756.084h9.448Zm0-14.917h-9.448V741.161h9.448Zm0-14.922h-9.448V726.245h9.448Zm0-14.915h-9.448V711.328h9.448Zm0-14.915h-9.448V696.413h9.448Zm13.924,59.669h-9.446V756.084h9.446Zm0-14.917h-9.446V741.161h9.446Zm0-14.922h-9.446V726.245h9.446Zm0-14.915h-9.446V711.328h9.446Zm0-14.915h-9.446V696.413h9.446Zm13.926,59.669h-9.446V756.084h9.446Zm0-14.917h-9.446V741.161h9.446Zm0-14.922h-9.446V726.245h9.446Zm0-14.915h-9.446V711.328h9.446Zm0-14.915h-9.446V696.413h9.446Zm.306-13.928h-37.6V672.176c14.374-3.154,28.193-1.127,37.6,1.287Zm13.62,73.6H305.3V756.084h9.448Zm-11.778-73.6V673.958a75.7,75.7,0,0,1,10.281,3.557v15.413Zm11.778,58.68H305.3V741.161h9.448Zm0-14.922H305.3V726.245h9.448Zm0-14.915H305.3V711.328h9.448Zm0-14.915H305.3V696.413h9.448Zm0-82.118H301.621v-11.55h13.124Zm0-17.078H302.472V561.132h12.272Zm0-51.426H301.621V537.54h13.124Zm0-76.579H302.472v-46.53h12.272Zm0-51.435H301.621V409.526h13.124Zm0-66.01H302.472V315.686h12.272Zm0-51.433H301.621V292.083h13.124ZM601.4,240.908h20.8v22.455H601.4Zm0,26.816h20.8v35.657H601.4Zm0,40.095h20.8V352.8H601.4Zm0,49.144h20.8v10.6H601.4ZM564.473,240.908h13.756v22.455H564.473Zm0,27.557h13.756v33.977H564.473Zm0,38.392h13.756v39.852h-5.816c-.886-6.7-7.94-12.167-7.94-12.167Zm-29.085-65.949h24.5v22.455h-24.5Zm22.868,27.557v33.979H537.019V268.465h21.237Zm-22.868,38.392h24.5v26.8h-3.174V323.079s-3.028-5.728-8.633-5.992v0c-.153-.006-.3,0-.449,0s-.288-.01-.439,0v0c-5.6.264-8.633,5.992-8.633,5.992v10.578h-3.174Zm-18.34-65.949h13.758v22.455H517.048Zm0,27.557h13.758v33.977H517.048Zm0,38.392h13.758v27.685s-7.055,5.465-7.94,12.167h-5.818Zm-71.419-65.949h20.8v22.455h-20.8Zm0,26.816h20.8v35.657h-20.8Zm0,40.095h20.8V352.8h-20.8Zm0,49.144h20.8v10.6h-20.8Zm20.8,134.439h-20.8V429.845h20.8Zm27.447,0h-20.8V429.845h20.8Zm0-71.1H445.63V397.858h48.244Zm0-52.739h-20.8v-10.6h20.8Zm0-14.768h-20.8V307.817h20.8Zm0-49.417h-20.8V267.724h20.8Zm0-40.018h-20.8V240.908h20.8Zm82.238,220.185h-56.95V395.028h56.95ZM595.154,374.22h-6.7V499.145H580.7V374.22H514.581V499.145h-7.762V374.22h-6.7v-6.654h95.034ZM622.208,491.4H601.4V429.845h20.8Zm27.439,0h-20.8V429.845h20.8Zm0-71.1H601.4V397.858h48.242Zm0-52.739h-20.8v-10.6h20.8Zm0-14.768h-20.8V307.817h20.8Zm0-49.417h-20.8V267.724h20.8Zm0-40.018h-20.8V240.908h20.8Zm178.741,28.72h13.12v18.694h-13.12Zm13.12,70.127H829.241V315.686h12.266Zm-13.12,47.316h13.12V428.22h-13.12Zm13.12,70.129H829.241v-46.53h12.266Zm-13.12,57.885h13.12v18.694h-13.12Zm13.12,70.119H829.241V561.132h12.266Zm-13.12,5.528h13.12v11.55h-13.12ZM796.7,292.083H825.34v19.356H796.7Zm28.575,70.127h-12.27V315.686h12.27Zm-16.238,0H796.767V315.686h12.272ZM796.7,409.526H825.34v19.354H796.7Zm28.575,70.129h-12.27v-46.53h12.27Zm-16.238,0H796.767v-46.53h12.272ZM796.7,537.54H825.34v19.354H796.7Zm28.575,70.119h-12.27V561.132h12.27Zm-16.238,0H796.767V561.132h12.272ZM796.7,613.187H825.34v11.961H796.7Zm-16.169-297.5H792.8V362.21h-12.27Zm0,117.439H792.8v46.53h-12.27Zm0,128.006H792.8v46.528h-12.27Zm9.448,205.393h-9.448V756.084h9.448Zm0-14.917h-9.448V741.161h9.448Zm0-14.922h-9.448V726.245h9.448Zm0-14.915h-9.448V711.328h9.448Zm0-14.915h-9.448V696.413h9.448Zm2.324-13.928H782.029V677.515a75.892,75.892,0,0,1,10.275-3.557Zm1.356-68.191H780.534v-11.55H793.66Zm0-68.5H780.534V537.54H793.66Zm0-128.014H780.534V409.526H793.66Zm0-117.443H780.534V292.083H793.66ZM803.9,766.525h-9.448V756.084H803.9Zm0-14.917h-9.448V741.161H803.9Zm0-14.922h-9.448V726.245H803.9Zm0-14.915h-9.448V711.328H803.9Zm0-14.915h-9.448V696.413H803.9Zm13.924,59.669h-9.444V756.084h9.444Zm0-14.917h-9.444V741.161h9.444Zm0-14.922h-9.444V726.245h9.444Zm0-14.915h-9.444V711.328h9.444Zm0-14.915h-9.444V696.413h9.444Zm13.926,59.669h-9.446V756.084h9.446Zm0-14.917h-9.446V741.161h9.446Zm0-14.922h-9.446V726.245h9.446Zm0-14.915h-9.446V711.328h9.446Zm0-14.915h-9.446V696.413h9.446Zm0-13.928h-37.6V673.463c9.406-2.414,23.227-4.441,37.6-1.287Zm13.926,73.6h-9.45V756.084h9.45Zm0-14.917h-9.45V741.161h9.45Zm0-14.922h-9.45V726.245h9.45Zm0-14.915h-9.45V711.328h9.45Zm0-14.915h-9.45V696.413h9.45Zm1.045-13.928H833.6V672.619a60.8,60.8,0,0,1,13.12,4.9C847.407,677.865,846.722,692.928,846.722,692.928ZM941.6,292.083h13.124v18.694H941.6Zm13.124,70.127h-12.27V315.686h12.27ZM941.6,409.526h13.124V428.22H941.6Zm13.124,70.129h-12.27v-46.53h12.27ZM941.6,537.54h13.124v18.694H941.6Zm13.124,70.119h-12.27V561.132h12.27ZM941.6,613.187h13.124v11.55H941.6Zm-31.682-321.1h28.634v19.356H909.914Zm28.573,70.127H926.211V315.686h12.276Zm-16.238,0H909.975V315.686h12.274Zm-12.335,47.316h28.634v19.354H909.914Zm28.573,70.129H926.211v-46.53h12.276Zm-16.238,0H909.975v-46.53h12.274ZM909.914,537.54h28.634v19.354H909.914Zm28.573,70.119H926.211V561.132h12.276Zm-16.238,0H909.975V561.132h12.274Zm-12.335,5.528h28.634v11.961H909.914Zm-16.171-321.1h13.124v18.694H893.742Zm0,23.6h12.27V362.21h-12.27Zm0,93.84h13.124V428.22H893.742Zm0,23.6h12.27v46.53h-12.27Zm0,104.415h13.124v18.694H893.742Zm0,23.591h12.27v46.528h-12.27Zm0,52.056h13.124v11.55H893.742Zm4.235,153.337h-9.444V756.084h9.444Zm0-14.917h-9.444V741.161h9.444Zm0-14.922h-9.444V726.245h9.444Zm0-14.915h-9.444V711.328h9.444Zm0-14.915h-9.444V696.413h9.444Zm2.326-13.928H890.028V677.515a75.892,75.892,0,0,1,10.275-3.557Zm11.6,73.6h-9.448V756.084H911.9Zm0-14.917h-9.448V741.161H911.9Zm0-14.922h-9.448V726.245H911.9Zm0-14.915h-9.448V711.328H911.9Zm0-14.915h-9.448V696.413H911.9Zm13.922,59.669h-9.45V756.084h9.45Zm0-14.917h-9.45V741.161h9.45Zm0-14.922h-9.45V726.245h9.45Zm0-14.915h-9.45V711.328h9.45Zm0-14.915h-9.45V696.413h9.45Zm13.922,59.669H930.3V756.084h9.45Zm0-14.917H930.3V741.161h9.45Zm0-14.922H930.3V726.245h9.45Zm0-14.915H930.3V711.328h9.45Zm0-14.915H930.3V696.413h9.45Zm0-13.928h-37.6V673.463c9.406-2.414,23.225-4.441,37.6-1.287Zm13.926,73.6h-9.444V756.084h9.444Zm0-14.917h-9.444V741.161h9.444Zm0-14.922h-9.444V726.245h9.444Zm0-14.915h-9.444V711.328h9.444Zm0-14.915h-9.444V696.413h9.444Zm1.046-13.928H941.6V672.619a60.857,60.857,0,0,1,13.124,4.9C955.406,677.865,954.719,692.928,954.719,692.928Z" transform="translate(0.341 0.341)" fill="none" stroke="#cccccc" stroke-linejoin="round" stroke-width="1.5"/>
      <path id="Path_295" data-name="Path 295" d="M318.135,275.614v9.794H305.191l-7.021,13.687" transform="translate(271.173 250.66)" fill="none" stroke="#cccccc" stroke-linejoin="round" stroke-width="1.5"/>
      <path id="Path_296" data-name="Path 296" d="M286.749,287.911S399.89,287.2,399.89,342.464V504.6" transform="translate(260.787 261.843)" fill="none" stroke="#cccccc" stroke-linejoin="round" stroke-width="1.5"/>
      <line id="Line_96" data-name="Line 96" x2="101.684" transform="translate(647.76 766.445)" fill="none" stroke="#cccccc" stroke-linejoin="round" stroke-width="1.5"/>
      <line id="Line_97" data-name="Line 97" x2="195.909" transform="translate(450.026 791.07)" fill="none" stroke="#cccccc" stroke-linejoin="round" stroke-width="1.5"/>
      <line id="Line_98" data-name="Line 98" x2="218.198" transform="translate(438.881 800.078)" fill="none" stroke="#cccccc" stroke-linejoin="round" stroke-width="1.5"/>
      <line id="Line_99" data-name="Line 99" x2="242.085" transform="translate(426.936 809.74)" fill="none" stroke="#cccccc" stroke-linejoin="round" stroke-width="1.5"/>
      <line id="Line_100" data-name="Line 100" x2="262.955" transform="translate(416.503 818.176)" fill="none" stroke="#cccccc" stroke-linejoin="round" stroke-width="1.5"/>
      <line id="Line_101" data-name="Line 101" x2="287.202" transform="translate(404.378 827.976)" fill="none" stroke="#cccccc" stroke-linejoin="round" stroke-width="1.5"/>
    </g>
  </g>
</svg>
