<?xml version="1.0" encoding="utf-8"?>
<!-- Generator: Adobe Illustrator 27.0.0, SVG Export Plug-In . SVG Version: 6.00 Build 0)  -->
<svg version="1.1" id="Layer_1" xmlns="http://www.w3.org/2000/svg" xmlns:xlink="http://www.w3.org/1999/xlink" x="0px" y="0px"
	 viewBox="0 0 111.3 111.3" style="enable-background:new 0 0 111.3 111.3;" xml:space="preserve">
<style type="text/css">
	.st0{fill:#FFFFFF;}
	
		.st1{opacity:3.000000e-03;fill:none;stroke:#FFC300;stroke-width:1.5;stroke-linecap:round;stroke-linejoin:round;stroke-dasharray:1,3;enable-background:new    ;}
	.st2{fill:#0B48E4;fill-opacity:0;}
	.st3{fill-rule:evenodd;clip-rule:evenodd;fill:#0B48E4;}
	.st4{clip-path:url(#SVGID_00000070812191721109815790000014191031516864292769_);}
	.st5{fill:#0C125D;}
	.st6{fill-rule:evenodd;clip-rule:evenodd;fill:#FFC300;}
	.st7{fill:none;}
</style>
<circle class="st0" cx="60.2" cy="54.9" r="43.3"/>
<g id="Group_3519" transform="translate(0 0)">
	<path id="Path_2858" class="st1" d="M55.7,110.6c30.3,0,54.9-24.6,54.9-54.9S86,0.8,55.7,0.8S0.8,25.3,0.8,55.7c0,0,0,0,0,0
		C0.8,86,25.3,110.6,55.7,110.6z"/>
	<path id="Path_2859" class="st2" d="M92,98.4H39.2c-5.2,0-9.5-19.5-9.5-43.6s4.2-43.6,9.5-43.6H92c5.2,0,9.5,19.5,9.5,43.6
		S97.2,98.4,92,98.4"/>
	<path id="Path_2864" class="st3" d="M97.9,76.5c-12,20.8-38.6,27.9-59.3,15.9c-0.4-0.3-0.9-0.5-1.3-0.8c19.7,10.5,44.2,3,54.7-16.8
		s3-44.2-16.8-54.7c-18.7-9.9-42-3.7-53.3,14.3c0.2-0.4,0.5-0.9,0.7-1.3C34.7,12.3,61.3,5.2,82,17.2S109.9,55.7,97.9,76.5"/>
	<g>
		<defs>
			<path id="SVGID_1_" d="M59.2,97c23.3,0,42.3-18.9,42.3-42.3S82.5,12.5,59.2,12.5c-23.3,0-42.3,18.9-42.3,42.3
				C16.9,78.1,35.8,97,59.2,97"/>
		</defs>
		<clipPath id="SVGID_00000048471600781004006620000015362882378292830381_">
			<use xlink:href="#SVGID_1_"  style="overflow:visible;"/>
		</clipPath>
		<g id="Mask_Group_10" style="clip-path:url(#SVGID_00000048471600781004006620000015362882378292830381_);">
			<path id="Path_2862" class="st5" d="M81.2,99.6l-19.6-5.4v0.6l18.8,5.2l0.6,1.1l-19.4-5.2v0.4l19,5.4v0.2
				c-0.4,0.2-0.6,0.4-1.1,0.4l-18.2-4.8v0.6l17.1,4.6c-0.4,0.2-0.8,0.4-1.2,0.6l-15.9-4.2v0.6l15.1,4c-0.6,0.2-1.1,0.4-1.7,0.6
				L61.6,101v0.4l12.6,3.3c-0.6,0.2-1.1,0.4-1.7,0.6l-10.9-2.7v0.4l9.5,2.5c-0.8,0.2-1.4,0.4-2.3,0.6l-7.2-1.9v0.6l6.2,1.5
				c-1,0.2-2.3,0.4-3.3,0.6l-3.1-1.1v0.6L63,107c-1.3,0.2-2.6,0.2-4,0.2h-0.4l0.1-15.7l21.7,5.7l3.3-2.5l1.2-1.4l-25.6-7.7l-3.5,1.9
				l-4.9-0.9v-6.2l1.9,0.6v0.2l3.5,0.6l2.1-1.1V81l0.8-0.4l0.6-0.2l1.2,0.4l0.2-0.2l8.6,2.9l0.2,0.4l1.2,0.2l0.2-0.2l8,2.3l0.2-0.2
				l1.1,0.4l0.8-0.6l-0.6-0.2v-0.4l-0.4-0.2l-0.2-0.2c-0.2-0.2-0.4-0.2-0.4-0.4V84c0-0.2,0.2-0.2,0.4-0.4c0.2-0.2,0.4-0.5,0.4-0.8
				c0-0.2,0-0.6-0.2-0.6c0-0.1-0.1-0.2-0.2-0.2c0,0,0,0,0,0c-0.1,0-0.2-0.1-0.2-0.2c0,0,0,0,0,0v-0.4c0.1-0.1,0.2-0.3,0.2-0.4
				c0-0.2,0-1.1-0.2-1.2h-0.4c-0.2,0-0.2,0.2-0.2,0.8s0,0.4,0.2,0.8v0.6c-0.2,0.2,0,0.2-0.2,0.2c0,0-0.4,0.2-0.4,0.4v1.1l0.4,0.4
				c0.2,0.2,0.2,0,0.2,0.4c0,0.6,0,0.4-0.2,0.4c-0.2,0.2,0,0-0.4,0.2l-7.2-1.9v-0.4l-1.4-0.4l-0.2,0.2l-7.7-2.5v-2.7l12,3.6l1.2-0.6
				l-13.2-4v-1.1l8.9,2.7v-0.4l-8.9-2.9v-3.5l8.9,2.9v-0.8l-8.9-2.9v-1.1l8.9,2.9v-0.8l-8.9-2.9v-0.6l9.1,2.9l0.4-1.1l-9.5-3.2
				l0.4-0.9l9.9,3.3l0.8,2.3l0.4-0.4l-1.1-2.7l-2.9-1v-0.6L70,66.2l0.1-8.6l0.2-0.2l-0.2-0.2V57l0.2-0.2l-0.2-0.2l0.2-0.2l0.4-0.2
				l-1.2-0.6c0-0.5-0.1-1-0.2-1.4c-0.4-1.3-1.3-2.4-2.5-3.1l0.2-0.6l-1.2-0.4v0.6c-1.4-0.4-2.3,0.4-2.7,2.5L62.2,53H62l-0.2-5.2
				l7.7,3.3l1.2,4.3l0.4-0.4l-1.2-5.4v-0.2l0.2-0.8l0.4-0.4l-0.4-0.2l0.4-0.6l0.6,0.2l0.2-0.2v-0.2l-1-0.4l-1.1,1l-0.8-0.2l0.6-0.6
				l0.4,0.2l0.4-0.4l-0.8-0.4l-1.2,0.8L67.3,47l0.6-0.6l0.6,0.2l0.4-0.2L68.2,46l-1.2,1l-0.8-0.2l0.8-0.6l0.2-0.4l0.2-0.2l-0.8-0.4
				L65.3,46l-0.8-0.2l0.8-0.6l0.4,0.2l0.4-0.4l-1.1-0.4l-1.2,0.8l-0.6-0.2l0.6-0.6l0.4,0.2l0.4-0.2l-1-0.4l-1.2,0.8l-0.6-0.4
				l0.6-0.6l0.4,0.2l0.4-0.4l-1.2-0.6v-0.4l9.2,4l0.2,0.6v0.2l1,5.4l0.2-0.6l-1-6.2l-9.7-4v-0.2l9.9,4l1,6.2H73l-1-6.4l-1.4-0.6
				l-0.4-2.3l-9.5-3.8l-0.2-0.6l6.4,2.5L66.3,40l-6-2.3l-0.2-1l-0.2-0.6l4.9,2.1l0.2-0.8l-4.8-2.1l-0.2-0.4l4.5,1.7l-0.4-0.8
				l-4.3-1.9l-0.2-0.6l4.1,1.7l-0.4-0.8l-3.9-1.7l-0.4-1.9l3.5,1.2L62.2,31l-3.3-1.2l-0.2-0.4l3.1,1l-0.4-0.6l-2.7-1.1l-0.2-0.6
				l1.9,0.6l-0.2-0.4l-1.2-0.4v-0.8l0.4-0.4l-0.2-0.8c-0.5-0.1-0.9-0.5-1-1c0,0,0.2-0.8,0-1c-0.2-0.4-0.4-0.4-0.4-0.8
				c0.7-0.3,1-1,0.7-1.7c-0.2-0.4-0.5-0.7-0.9-0.8c0.2,0,0.4-0.2,0.4-0.5c0-0.2-0.2-0.4-0.4-0.4c0.1,0,0.2-0.1,0.2-0.2
				c0-0.1-0.1-0.2-0.2-0.2v-3.7l-0.4,0V20c-0.2,0-0.4,0.2-0.4,0.4c0,0.1,0.1,0.2,0.2,0.2c0,0,0,0,0,0c-0.2,0-0.4,0.2-0.4,0.4
				c0,0.2,0.1,0.3,0.2,0.4c-0.6,0.1-1,0.6-1,1.2c0,0.5,0.3,1,0.8,1.2v0.6c0,0-0.8,0.4-0.2,1c-0.1,0.6-0.6,1.1-1.2,1.2l0.2,0.8
				l0.2,0.2v0.6c-0.8,0.5-1.6,1.1-2.3,1.9c-0.7,0.8-1.3,1.7-1.7,2.7c-0.5,1.8-1.3,3.5-2.3,5.1c-0.2,0.2-2.1,3.1-2.3,3.5
				C46.3,42,43,44.2,43,44.2l0.4,1.7l0.2-0.2v0.2l-2.7,1.4l2,6.2h0.4l0.2,0.6l0.4,0.4v2l-0.8,0.8l0.6,1.7l-0.1,8.7l-0.6,0.6v0.2
				l-2.3,1.4l1.6,4.6v1.4l-0.2,0.2l0.2,0.4l0.2,0.2l-0.2,0.8l-0.2,0.2v0.2l0.2,0.2L42,79.5l-2.5,1.2l1.2,2.7v0.8l-5.6,2.8v-0.6
				c0-0.2,0.2-0.2,0.4-0.4c0.1-0.3,0.1-0.5,0.2-0.8c0-0.2-0.2-0.6-0.2-0.8L35.2,84v-0.2l0.2-0.2v-0.4c0-0.3-0.1-0.5-0.2-0.8
				c0-0.1-0.1-0.2-0.2-0.2c-0.1,0-0.2,0.1-0.2,0.2c-0.1,0.5-0.1,1,0,1.4V84c-0.1,0.1-0.3,0.2-0.4,0.2c-0.2,0.2-0.4,0.4-0.4,0.6v0.6
				c0.1,0.3,0.2,0.5,0.4,0.6c0.2,0.2,0,0.4,0.2,0.6s0,0.2-0.4,0.4c-0.2,0.2,0,0.2-0.2,0.4L33.4,88v0.4h0.2v0.4L33.4,89l0.2,0.2v4.1
				l-0.2,0.6l-6-2.5c0,0-0.2,3.1-0.3,3.6c14.6,14,36.6,16.9,54.4,7.1C81.4,101.8,81.2,99.6,81.2,99.6 M62.3,59.8l0.2-0.3v-0.2L63,59
				l-0.7-0.2c0.2-0.4,0.4-1.6,1.6-1.4l0.5,0.4v-0.2c0.8,0.6,1.4,1.5,1.6,2.5h-0.2v1.6H66L66,69.2h-0.2v0.5l-3.3-1V68l-0.2-0.4
				l-0.2-7.3l0.3-0.3L62.3,59.8z M61.7,59.8l-0.1,7.6L61.5,68h-0.4v-0.5l-0.2-0.2l-0.2-7.7L61.7,59.8z M55.6,56.9V57h0.7v-0.2
				c1,0,1.9,0.8,1.9,1.8h-0.5v0.2l0.3,0.3v0.4l0.2,0.2V60h0.2v8.2l-4.2,0.3v-0.4l-0.2-0.3v-0.4l-0.2-7.7h0.2v-0.4l0.2-0.2v-0.2
				l0.2-0.2v-0.2h-0.5C53.8,57.8,54.6,57,55.6,56.9 M50.3,49.6l0.2,0.2L44.3,54l-0.2-0.4L50.3,49.6z M45.7,54.3l-0.2-0.5l-0.4,0.4
				v0.5l-0.4,0.2v-0.5l-0.4,0.2l-0.2-0.4l6.3-4v0.4l-0.2,0.2v0.7l-0.4,0.2v-0.7l-0.5,0.4v0.7L49.2,52v-0.5l-0.3,0.2v0.5l-0.4,0.4
				l-0.2-0.5l-0.5,0.4V53l-0.4,0.2l-0.2-0.5L46.9,53v0.5l-0.4,0.4v-0.5L46,53.7v0.5L45.7,54.3z M51.3,51.9v0.4l-5.5,3.7v-0.2
				L51.3,51.9z M51.3,72.4l-5.8,3.5l-0.2-0.4l6-3.6V72.4z M51.3,71l-6.3,3.8l-0.2-0.5l6.5-4L51.3,71z M44.8,73.6l-0.3-0.7l6.5-3.6
				l0.4,0.5L44.8,73.6z M51.5,55.4L48.8,57v1.6c0,0,0.8-0.4,1,0.7l-0.4,0.5v0.2h0.2l0.2,0.4H50v0.5l0.2,0.2l0,7.5l-0.4,0.4V69
				l-2.3,1.4l0.2-7.9h0.2v-0.2l0.2-0.2v-0.2h-0.2v-0.2H48v-0.2l-0.5-0.2c0,0-0.4-1,0.9-2.6v-1.5l-2.1,1.2L46.1,58l5.4-3.5L51.5,55.4
				z M51.5,53.8L51.3,54l-4.9,3.3l-0.5-1l5.5-3.7l0.2,0.2L51.5,53.8z"/>
		</g>
	</g>
	<path id="Path_2861" class="st6" d="M99.2,81.2c-13.9,24.1-44.6,32.3-68.7,18.4S-1.8,54.9,12.1,30.9C26,6.8,56.7-1.4,80.8,12.5
		c0.5,0.3,1,0.6,1.5,0.9C59.4,1.2,31.1,9.9,18.9,32.8S15.5,84,38.3,96.2c21.7,11.5,48.7,4.3,61.7-16.5
		C99.8,80.2,99.5,80.7,99.2,81.2"/>
	<path id="Path_2863" class="st7" d="M16.9,54.8C16.9,78.1,35.8,97,59.2,97c23.4,0,42.3-18.9,42.3-42.3c0-23.4-18.9-42.3-42.3-42.3
		c0,0,0,0,0,0C35.8,12.5,16.9,31.4,16.9,54.8"/>
</g>
</svg>
