<svg xmlns="http://www.w3.org/2000/svg" width="26.744" height="21.026"><path fill="#0c125d" d="M24.015 5.231v.695a14.125 14.125 0 0 1-.464 3.557 16.769 16.769 0 0 1-1.332 3.475 14.181 14.181 0 0 1-2.227 3.153 16.013 16.013 0 0 1-3.043 2.559 14.384 14.384 0 0 1-3.885 1.725 16.743 16.743 0 0 1-4.642.632A15.64 15.64 0 0 1 0 18.865a8.987 8.987 0 0 0 1.306.088 9.771 9.771 0 0 0 3.578-.682 12.763 12.763 0 0 0 3.225-1.832 5.3 5.3 0 0 1-3.18-1.055A5.169 5.169 0 0 1 3 12.749a5.5 5.5 0 0 0 2.481-.088 5.385 5.385 0 0 1-3.147-1.826 5.032 5.032 0 0 1-1.254-3.38v-.063a5.607 5.607 0 0 0 2.481.657 5.393 5.393 0 0 1-1.8-1.9 4.988 4.988 0 0 1-.659-2.5 5.069 5.069 0 0 1 .744-2.578 15.178 15.178 0 0 0 4.997 3.851 16.215 16.215 0 0 0 6.307 1.6 5.389 5.389 0 0 1-.118-1.226 5.021 5.021 0 0 1 1.6-3.746A5.364 5.364 0 0 1 18.5 0a5.561 5.561 0 0 1 4.035 1.668A11.132 11.132 0 0 0 26 .379a5.125 5.125 0 0 1-2.416 2.944 10.7 10.7 0 0 0 3.16-.847 10.82 10.82 0 0 1-2.729 2.755Z" data-name="twitter copy 2"/></svg>